<?xml version="1.0" encoding="UTF-8"?>
<!DOCTYPE svg PUBLIC "-//W3C//DTD SVG 1.1//EN" "http://www.w3.org/Graphics/SVG/1.1/DTD/svg11.dtd">
<svg version="1.1" xmlns="http://www.w3.org/2000/svg" xmlns:xlink="http://www.w3.org/1999/xlink" x="0" y="0" width="666.584" height="829.267" viewBox="0, 0, 666.584, 829.267">
  <g id="Layer_1">
    <path d="M584.105,824.832 C583.977,801.031 574.773,775.883 586.371,755.777 C592.121,745.801 597.516,732.355 603.977,720.344 L646.148,700.715 L637.844,769.02 L627.613,825.648 z M584.105,824.832" fill="#FDD7A7"/>
    <path d="M358.945,538.934 C283.195,518.684 292.012,471.742 298.762,455.246 C305.512,438.75 306.258,423.742 291.262,410.242 C276.262,396.742 259.008,365.246 277.008,326.242 C295.008,287.246 310.758,195.934 315.258,159.934 C324.496,86.035 355.758,55.117 424.012,14.996 C475.484,-15.266 517.758,11.242 528.262,31.492 C528.262,31.492 541.488,24.367 555.258,34.121 C582.258,53.246 598.008,45.555 617.504,159.934 C623.602,195.699 637.754,287.246 655.754,326.242 C673.754,365.246 656.504,396.742 641.504,410.242 C626.504,423.742 627.254,438.75 634.004,455.246 C640.754,471.742 646.383,523.082 569.508,538.934 L358.945,538.934" fill="#FFE88E"/>
    <path d="M439.98,493.363 C439.98,493.363 427.938,499.324 424.457,502.535 C422.285,504.539 420.234,507.441 418.305,510.988 L417.414,512.707 C392.586,529.48 339.895,544.301 306.676,568.461 C296.523,574.816 273.656,603.582 254.637,624.633 L254.367,625.008 L287.699,657.586 L304.301,689.363 C311.027,683.508 328.129,676.418 329.941,667.801 C323.148,670.797 320.426,715.203 346.566,755.547 C348.934,779.852 347.578,813.906 349.102,825.023 L584.164,825.023 C583.219,794.715 583.594,784.234 585.441,762.137 L606.52,716.148 L652.352,698.645 C655.691,642.789 653.34,586.332 632.719,571.336 C597.785,545.934 541.906,529.418 515.793,511.773 L514.363,509.207 C512.734,506.465 511.023,504.188 509.23,502.535 C505.742,499.324 493.699,493.363 493.699,493.363 z M439.98,493.363" fill="#FC42B0"/>
    <path d="M279.277,349.324 C314.418,290.535 310.758,216.184 315.258,180.184 C324.496,106.285 352.531,69.293 424.012,35.246 C472.539,12.129 519.789,35.949 528.262,51.742 C548.898,46.59 598.008,65.805 617.504,180.184 C623.602,215.949 623.234,277.699 655.754,346.492 C659.543,354.512 658.68,373.09 659.719,380.41 C667.832,364.867 663.117,342.191 655.754,326.242 C637.754,287.246 623.602,195.699 617.504,159.934 C598.008,45.555 582.258,53.246 555.258,34.121 C541.488,24.367 528.262,31.492 528.262,31.492 C517.758,11.242 475.484,-15.266 424.012,14.996 C355.758,55.117 324.496,86.035 315.258,159.934 C310.758,195.934 295.008,287.246 277.008,326.242 C269.648,342.191 265.758,362.164 272.52,383.785 C273.562,376.465 271.965,361.559 279.277,349.324" fill="#FEF6D2"/>
    <path d="M304.383,431.43 C303.598,434.461 300.043,452.109 298.762,455.246 C295.984,462.031 287.508,486.555 303.82,503.43 C304.664,498.816 297.07,489.367 302.133,476.992 C310.227,457.207 313.383,447.18 304.383,431.43" fill="#FFF57C"/>
    <path d="M654.633,667.875 C642.43,682.57 636.668,694.844 605.051,707.934 C573.434,721.023 511.797,734.809 464.184,734.391 C416.57,733.973 358.645,731.836 326.008,705.652 C328.336,723.117 336.723,741.453 346.387,755.094 C346.801,759.055 347.688,764.254 347.836,767.648 C348.816,790.316 346.285,810.637 348.258,825.023 L583.672,825.023 C583.312,808.145 583.801,789.926 584.246,772.691 C586.023,761.773 590.656,753.719 594.02,744.199 L643.004,719.023 L645.344,701.254 L653.484,698.684 C654.371,688.352 654.82,677.992 654.633,667.875 z M654.633,667.875" fill="#000000" fill-opacity="0.251"/>
    <path d="M491.254,474.555 C489.871,488.621 494.699,511.773 494.699,511.773 L497.832,518.398 C496.293,535.309 490.16,565.836 466.84,589.336 C441.98,564.289 436.656,531.25 435.594,515.23 L438.668,510.652 C438.668,510.652 444.422,487.719 443.602,473.602 L491.254,474.555" fill="#FFCBA8"/>
    <path d="M512.879,122.809 C512.879,122.809 532.195,91.117 557.512,101.434 C574.691,108.43 574.766,138.938 574.012,160.684 C573.422,177.777 583.492,238.871 597.293,278.82 L601.188,288.523 C596.801,325.574 590.75,361.125 583.754,377.809 C569.508,411.809 531.441,446.055 516.363,456.984 C497.895,470.355 481.195,480.559 466.945,480.559 C452.691,480.559 435.992,470.355 417.531,456.984 C402.445,446.055 364.379,407.871 350.133,373.871 C342.758,356.262 335.445,312.012 331.008,272.805 C331.008,272.805 348.09,244.668 357.262,235.309 C393.637,198.184 412.352,151.879 421.012,125.43 C432.07,91.68 447.629,82.309 464.512,78.934 C488.41,74.148 512.688,97.684 512.879,122.809" fill="#FDD7A7"/>
    <path d="M434.109,210.004 C434.773,209.727 433.934,205.852 430.492,200.828 C427.109,195.816 420.828,190.027 412.863,186.395 C404.961,182.652 395.59,181.16 387.695,181.957 C379.754,182.625 373.555,185.449 370.586,187.094 C364.492,190.301 358.535,195.875 355.426,201.152 C352.23,206.41 351.516,210.836 353.32,211.598 C355.227,212.43 357.492,209.062 360.855,204.969 C364.152,200.832 368.934,196.113 374.043,193.414 C376.527,192.039 381.648,189.625 388.41,188.879 C395.129,188.027 403.32,189 410.504,191.871 C417.746,194.652 423.754,199.234 427.555,203.219 C431.414,207.188 433.348,210.367 434.109,210.004" fill="#956727"/>
    <path d="M386.129,139.684 L343.004,191.805 L346.379,234.934 L358.008,234.934 C394.387,194.809 412.352,151.879 421.012,125.43 L386.129,139.684" fill="#FFE88E"/>
    <path d="M389.508,317.996 C389.066,324.047 379.039,328.262 367.109,327.395 C355.164,326.535 345.836,320.93 346.273,314.871 C346.711,308.816 356.754,304.617 368.688,305.473 C380.625,306.34 389.949,311.938 389.508,317.996" fill="#F3AF95"/>
    <path d="M52.711,405.059 C50.941,405.082 49.336,405.285 47.918,405.684 C41.461,407.5 42.156,415.145 42.156,415.145 C42.156,415.145 31.711,411.887 25.27,414.969 C18.703,418.094 19.871,424.438 19.871,424.438 C19.871,424.438 9.531,421.934 7.676,429.043 C6.324,434.176 14.688,440.59 14.688,440.59 C14.688,440.59 -6.527,442.762 8.57,451.781 C31.5,465.445 60.766,481.453 60.766,481.453 C103.82,512.172 128.074,525.082 140.453,530.484 L144.793,532.375 C148.586,541.59 153.34,557.316 155.809,568.961 L152.754,571.074 L175.793,684.645 L184.363,722.68 L195.078,741.43 L217.043,745.18 L247.043,722.68 L298.469,677.145 L260.434,629.465 L224.543,662.145 L190.664,556.578 C191.664,555.09 192.242,554.129 192.242,554.129 C188.637,546.664 182.824,527.16 182.27,522.715 L183.344,518.402 C188.625,491.562 179.965,468.367 175.316,462.707 C170.062,456.293 159.238,442.039 154.875,434.824 C150.504,427.629 145.348,414.867 141.02,415.918 C136.684,416.992 134.926,424.266 136.434,433.789 C137.348,439.59 139.879,445.414 142.453,450.137 L144.52,453.715 C136.672,448.582 130.219,444.969 130.219,444.969 C102.301,421.586 69.82,404.836 52.711,405.059 z M52.711,405.059" fill="#FDD7A7"/>
    <path d="M586.012,317.996 C585.57,324.047 575.539,328.262 563.609,327.395 C551.668,326.535 542.336,320.93 542.773,314.871 C543.211,308.816 553.254,304.617 565.188,305.473 C577.121,306.34 586.453,311.938 586.012,317.996" fill="#F3AF95"/>
    <path d="M370.258,264.352 C370.258,264.352 369.113,256.457 372.617,243.547 C381.645,210.273 424.621,213.797 429.883,237.09 C433.469,255.031 435.508,267.227 429.883,285.16 C425.773,298.254 411.293,303.875 399.133,300.766 C383.008,296.637 372.508,282.289 370.258,264.352" fill="#FFFFFE"/>
    <path d="M402.223,229.738 C412.73,229.738 422.426,233.438 430.383,239.668 C430.211,238.805 430.062,237.98 429.883,237.09 C424.84,214.754 385.18,210.691 373.977,239.742 C381.945,233.469 391.68,229.738 402.223,229.738" fill="#DEEAEF"/>
    <path d="M562.387,264.352 C562.387,264.352 563.527,256.457 560.027,243.547 C551,210.273 508.02,213.797 502.762,237.09 C499.172,255.031 497.137,267.227 502.762,285.16 C506.867,298.254 521.352,303.875 533.508,300.766 C549.637,296.637 560.137,282.289 562.387,264.352" fill="#FFFFFE"/>
    <path d="M531.168,229.738 C520.66,229.738 510.961,233.438 503.008,239.668 C503.18,238.805 503.328,237.98 503.508,237.09 C508.551,214.754 548.211,210.691 559.414,239.742 C551.445,233.469 541.711,229.738 531.168,229.738" fill="#DEEAEF"/>
    <path d="M544.008,134.809 C544.008,134.809 561.633,127.688 572.883,140.809 L574.066,140.809 C573.332,123.527 569.82,106.445 557.512,101.434 C532.195,91.117 512.879,122.809 512.879,122.809 C512.688,97.684 488.41,74.148 464.512,78.934 C447.629,82.309 432.07,91.68 421.012,125.43 C420.621,126.625 420.195,127.906 419.77,129.176 L421.383,130.684 C421.383,130.684 440.504,119.812 455.504,125.059 C455.504,125.059 501.82,118.871 544.008,134.809" fill="#E5B55B"/>
    <path d="M429.254,264.426 C429.254,280.805 422.914,294.078 415.09,294.078 C407.27,294.078 400.93,280.805 400.93,264.426 C400.93,248.055 407.27,234.785 415.09,234.785 C422.914,234.785 429.254,248.055 429.254,264.426" fill="#007181"/>
    <path d="M428.633,254.484 C428.633,257.715 426.152,260.332 423.094,260.332 C420.031,260.332 417.555,257.715 417.555,254.484 C417.555,251.25 420.031,248.633 423.094,248.633 C426.152,248.633 428.633,251.25 428.633,254.484" fill="#FFFFFE"/>
    <path d="M533.91,264.426 C533.91,280.805 527.57,294.078 519.746,294.078 C511.926,294.078 505.586,280.805 505.586,264.426 C505.586,248.055 511.926,234.785 519.746,234.785 C527.57,234.785 533.91,248.055 533.91,264.426" fill="#007181"/>
    <path d="M533.289,254.484 C533.289,257.715 530.809,260.332 527.75,260.332 C524.688,260.332 522.203,257.715 522.203,254.484 C522.203,251.25 524.688,248.633 527.75,248.633 C530.809,248.633 533.289,251.25 533.289,254.484" fill="#FFFFFE"/>
    <path d="M497.59,209.625 C498.359,209.98 500.227,206.828 504.07,202.996 C507.859,199.145 513.906,194.836 521.121,192.336 C528.289,189.754 536.391,189.016 543.027,189.918 C549.715,190.73 554.809,193.031 557.301,194.34 C562.406,196.914 567.281,201.387 570.66,205.348 C574.109,209.25 576.434,212.477 578.32,211.598 C580.109,210.793 579.289,206.426 575.957,201.348 C572.719,196.23 566.656,190.973 560.625,187.953 C557.672,186.395 551.586,183.742 543.805,183 C536.074,182.152 526.852,183.359 518.941,186.785 C510.977,190.105 504.578,195.641 501.176,200.566 C497.691,205.496 496.922,209.359 497.59,209.625" fill="#956727"/>
    <path d="M443.602,473.602 C443.602,473.602 457.625,480.484 467.062,480.484 C476.504,480.484 491.254,474.555 491.254,474.555 L491.234,485.945 C491.234,485.945 477.516,511.773 440.035,512.152 C440.035,512.152 444.977,482.902 443.602,473.602" fill="#FAAB8D"/>
    <path d="M465.523,381.742 C489.223,381.742 501.43,375.742 501.43,375.742 C501.637,389.992 488.66,446.758 466.707,446.758 C444.754,446.758 431.773,389.992 431.984,375.742 C431.984,375.742 441.816,381.742 465.523,381.742" fill="#F27A80"/>
    <path d="M465.258,393.742 C477.035,393.742 487.977,396.582 497.156,401.418 C500.02,390.527 501.5,380.633 501.43,375.742 C501.43,375.742 489.223,381.742 465.523,381.742 C441.816,381.742 431.984,375.742 431.984,375.742 C431.914,380.441 433.289,389.77 435.93,400.152 C444.566,396.102 454.555,393.742 465.258,393.742" fill="#CF3A49"/>
    <path d="M400.012,589.121 C400.012,589.121 422.137,568.492 425.887,568.492 C429.637,568.492 442.016,578.617 445.012,584.992 C448.008,591.371 445.391,593.242 440.512,590.992 C435.633,588.742 423.637,581.246 400.012,589.121" fill="#CE2684"/>
    <path d="M535.758,589.121 C535.758,589.121 513.633,568.492 509.883,568.492 C506.137,568.492 493.754,578.617 490.758,584.992 C487.762,591.371 490.379,593.242 495.258,590.992 C500.137,588.742 512.133,581.246 535.758,589.121" fill="#CE2684"/>
    <path d="M398.02,38.262 C398.02,38.262 413.773,51.535 458.77,55.16 C484.152,57.199 465.414,60.602 455.02,61.797 C443.539,63.117 399.891,62.586 379.613,55.16 L398.02,38.262" fill="#FEF6D2"/>
    <path d="M601.188,288.523 C596.801,325.574 590.75,361.125 583.754,377.809 C569.508,411.809 531.441,446.055 516.363,456.984 C497.895,470.355 481.195,480.559 466.945,480.559 C452.691,480.559 435.992,470.355 417.531,456.984 C402.445,446.055 364.379,407.871 350.133,373.871 C342.758,356.262 334.012,312.559 331.387,270.934" fill-opacity="0" stroke="#000000" stroke-width="6.299" stroke-linecap="round" stroke-linejoin="round"/>
    <path d="M456.078,262.457 C458.062,269.895 462.039,290.414 458.277,310.172" fill-opacity="0" stroke="#000000" stroke-width="5.4" stroke-linecap="round" stroke-linejoin="round"/>
    <path d="M14.246,440.574 C14.246,440.574 42.027,446.426 70.57,467.621" fill-opacity="0" stroke="#000000" stroke-width="5.4" stroke-linecap="round" stroke-linejoin="round"/>
    <path d="M20.715,424.117 C20.715,424.117 53.566,428.156 92.074,455.262 M42.648,414.898 C43.359,415.008 82.105,421.156 110.625,449.035" fill-opacity="0" stroke="#000000" stroke-width="5.4" stroke-linecap="round" stroke-linejoin="round"/>
    <path d="M431.387,236.375 C426.715,212.965 383.664,208.574 372.617,243.547 C368.582,256.312 370.547,271.715 370.547,271.715" fill-opacity="0" stroke="#000000" stroke-width="6.3" stroke-linecap="round" stroke-linejoin="round"/>
    <path d="M512.879,122.809 C512.688,97.684 488.41,74.148 464.512,78.934 C447.629,82.309 432.07,91.68 421.012,125.43 C412.352,151.879 393.242,199.164 356.559,235.848 C329.047,263.367 309.266,314.438 317.512,347.434" fill-opacity="0" stroke="#956727" stroke-width="6.3" stroke-linecap="round" stroke-linejoin="round"/>
    <path d="M512.879,122.809 C512.879,122.809 532.195,91.117 557.512,101.434 C574.691,108.43 574.766,138.938 574.012,160.684 C573.262,182.434 589.762,275.434 609.262,305.43 C628.762,335.434 625.758,357.934 615.262,374.434" fill-opacity="0" stroke="#956727" stroke-width="6.3" stroke-linecap="round" stroke-linejoin="round"/>
    <path d="M358.945,538.934 C283.195,518.684 292.012,471.742 298.762,455.246 C305.512,438.75 306.258,423.742 291.262,410.242 C276.262,396.742 259.008,365.246 277.008,326.242 C295.008,287.246 310.758,195.934 315.258,159.934 C324.496,86.035 374.512,38.996 424.012,14.996 C477.746,-11.055 517.758,11.242 528.262,31.492 C528.262,31.492 600.262,5.246 617.504,159.934 C621.527,195.988 637.754,287.246 655.754,326.242 C673.754,365.246 656.504,396.742 641.504,410.242 C626.504,423.742 627.254,438.75 634.004,455.246 C640.754,471.742 648.441,522.461 571.57,538.305" fill-opacity="0" stroke="#956727" stroke-width="6.3" stroke-linecap="round" stroke-linejoin="round"/>
    <path d="M446.695,88.305 C446.695,88.305 492.258,85.309 498.445,122.617 M428.695,109.68 C428.695,109.68 470.32,96.18 483.258,124.867 M421.383,130.684 C421.383,130.684 440.504,119.812 455.504,125.059 M527.504,128.059 C527.504,128.059 548.133,109.68 570.254,121.684 M544.008,134.809 C544.008,134.809 561.633,127.688 572.883,140.809" fill-opacity="0" stroke="#956727" stroke-width="5.4" stroke-linecap="round" stroke-linejoin="round"/>
    <path d="M465.523,381.742 C489.223,381.742 501.43,375.742 501.43,375.742 C501.637,389.992 488.66,446.758 466.707,446.758 C444.754,446.758 431.773,389.992 431.984,375.742 C431.984,375.742 441.816,381.742 465.523,381.742 z M369.082,258 L358.973,254.414" fill-opacity="0" stroke="#000000" stroke-width="5.4" stroke-linecap="round" stroke-linejoin="round"/>
    <path d="M502.367,236.375 C507.039,212.965 550.09,208.574 561.141,243.547 C565.172,256.312 563.207,271.715 563.207,271.715" fill-opacity="0" stroke="#000000" stroke-width="6.3" stroke-linecap="round" stroke-linejoin="round"/>
    <path d="M564.672,258 L574.781,254.414 M465.523,381.742 C489.223,381.742 501.43,375.742 501.43,375.742 C501.637,389.992 488.66,446.758 466.707,446.758 C444.754,446.758 431.773,389.992 431.984,375.742 C431.984,375.742 441.816,381.742 465.523,381.742 z M67.949,471.184 C67.949,471.184 103.008,450.555 118.383,446.055" fill-opacity="0" stroke="#000000" stroke-width="5.4" stroke-linecap="round" stroke-linejoin="round"/>
    <path d="M464.629,304.672 C464.629,304.672 446.734,320.168 446.051,324.277 C445.367,328.387 452.832,347.285 459.637,352.887" fill-opacity="0" stroke="#000000" stroke-width="6.299" stroke-linecap="round" stroke-linejoin="round"/>
    <path d="M517.008,512.152 C543.125,529.797 597.785,545.934 632.719,571.336 C653.367,586.352 655.781,642.945 652.598,698.59 L607.148,716.051" fill-opacity="0" stroke="#000000" stroke-width="6.299" stroke-linecap="round" stroke-linejoin="round"/>
    <path d="M340.844,639.195 C321.379,685.895 316.672,714.812 346.363,755.008 C349.816,776.188 350.031,810.582 348.465,825.023" fill-opacity="0" stroke="#000000" stroke-width="6.299" stroke-linecap="round" stroke-linejoin="round"/>
    <path d="M151.449,534.32 C151.449,534.32 131.422,531.859 60.766,481.453 C60.766,481.453 31.496,465.445 8.57,451.781 C-6.527,442.762 14.688,440.59 14.688,440.59 C14.688,440.59 6.324,434.176 7.676,429.043 C9.535,421.934 19.871,424.438 19.871,424.438 C19.871,424.438 18.703,418.094 25.27,414.969 C31.711,411.887 42.16,415.145 42.16,415.145 C42.16,415.145 41.461,407.5 47.918,405.684 C63.051,401.445 99.41,419.168 130.219,444.969 C130.219,444.969 136.672,448.582 144.52,453.715" fill-opacity="0" stroke="#000000" stroke-width="6.299" stroke-linecap="round" stroke-linejoin="round"/>
    <path d="M180.539,529.051 C190.949,497.891 180.57,469.105 175.316,462.707 C170.062,456.293 159.238,442.039 154.875,434.824 C150.504,427.629 145.348,414.867 141.02,415.922 C136.684,416.992 134.926,424.266 136.434,433.789 C138.539,447.137 149.215,460.578 149.215,460.578 C149.215,460.578 137.121,491.633 154.406,505.816" fill-opacity="0" stroke="#000000" stroke-width="6.299" stroke-linecap="round" stroke-linejoin="round"/>
    <path d="M645.613,701.52 C640.074,744.984 634.617,783.535 627.188,826.074" fill-opacity="0" stroke="#000000" stroke-width="6.299" stroke-linecap="round" stroke-linejoin="round"/>
    <path d="M416.039,513.555 C391.211,530.336 341.586,546.473 308.367,570.633 C298.133,577.035 269.629,601.844 254.945,625.578 C279.961,647.84 292.094,661.582 304.324,689.895 C310.203,684.117 324.785,671.746 330.488,666.305" fill-opacity="0" stroke="#000000" stroke-width="6.299" stroke-linecap="round" stroke-linejoin="round"/>
    <path d="M147.445,534.27 C160.395,597.324 164.641,647.418 182.07,713.512 C190.004,743.594 205.609,750.797 225.715,738.023 C251.246,721.809 274.637,700.035 298.469,679.824" fill-opacity="0" stroke="#000000" stroke-width="6.299" stroke-linecap="round" stroke-linejoin="round"/>
    <path d="M181.832,526.32 L229.363,675.391" fill-opacity="0" stroke="#000000" stroke-width="6.299" stroke-linecap="round" stroke-linejoin="round"/>
    <path d="M228.293,662.145 L260.434,631.609" fill-opacity="0" stroke="#000000" stroke-width="6.299" stroke-linecap="round" stroke-linejoin="round"/>
    <path d="M441.688,492.887 C410.922,495.68 401.176,558.113 390.551,593.648 C410.766,577.941 418.402,573.16 428.137,567.559 C433.258,572.242 438.152,577.453 445.855,585.312 C450.797,589.082 458.383,589.316 466.312,589.102 C444.652,562.508 425.227,525.812 441.688,492.887 z M441.688,492.887" fill="#FFFFFF"/>
    <path d="M439.98,493.363 C439.98,493.363 427.938,499.324 424.457,502.535 C407.117,518.527 388.477,597.367 388.477,597.367 C388.477,597.367 420.922,567.453 426.57,566.75 C432.219,566.043 446.141,584.738 446.141,584.738" fill-opacity="0" stroke="#000000" stroke-width="6.3" stroke-linecap="round" stroke-linejoin="round"/>
    <path d="M492.02,492.887 C522.789,495.68 532.531,555.84 543.16,591.375 C522.945,575.668 515.309,573.16 505.574,567.559 C500.453,572.242 495.559,577.453 487.855,585.312 C482.914,589.082 475.324,589.316 467.398,589.102 C489.059,562.508 508.484,525.812 492.02,492.887 z M492.02,492.887" fill="#FFFFFF"/>
    <path d="M493.695,493.363 C493.695,493.363 505.742,499.324 509.23,502.535 C526.566,518.527 544.57,592.867 544.57,592.867 C544.57,592.867 512.766,567.453 507.113,566.75 C501.465,566.043 487.543,584.738 487.543,584.738" fill-opacity="0" stroke="#000000" stroke-width="6.3" stroke-linecap="round" stroke-linejoin="round"/>
    <path d="M435.391,505.707 C435.391,505.707 432.781,555.02 466.84,589.336 C500.898,555.02 498.293,505.707 498.293,505.707" fill-opacity="0" stroke="#000000" stroke-width="6.3" stroke-linecap="round" stroke-linejoin="round"/>
    <path d="M494.699,511.773 C494.699,511.773 489.871,488.621 491.254,474.555" fill-opacity="0" stroke="#000000" stroke-width="6.299" stroke-linecap="round" stroke-linejoin="round"/>
    <path d="M438.668,510.652 C438.668,510.652 444.422,487.719 443.602,473.602" fill-opacity="0" stroke="#000000" stroke-width="6.299" stroke-linecap="round" stroke-linejoin="round"/>
    <path d="M591.75,639.195 C611.211,685.895 615.918,714.812 586.227,755.008 C582.777,776.188 582.559,810.582 584.129,825.023" fill-opacity="0" stroke="#000000" stroke-width="6.299" stroke-linecap="round" stroke-linejoin="round"/>
  </g>
</svg>
