<?xml version="1.0" encoding="UTF-8" standalone="no"?>
<svg
   xmlns:dc="http://purl.org/dc/elements/1.1/"
   xmlns:cc="http://creativecommons.org/ns#"
   xmlns:rdf="http://www.w3.org/1999/02/22-rdf-syntax-ns#"
   xmlns:svg="http://www.w3.org/2000/svg"
   xmlns="http://www.w3.org/2000/svg"
   xmlns:xlink="http://www.w3.org/1999/xlink"
   xmlns:sodipodi="http://sodipodi.sourceforge.net/DTD/sodipodi-0.dtd"
   xmlns:inkscape="http://www.inkscape.org/namespaces/inkscape"
   version="1.1"
   x="0"
   y="0"
   width="645"
   height="800"
   viewBox="0, 0, 645, 800"
   id="svg83"
   sodipodi:docname="Talkshow Host.svg"
   inkscape:version="0.92.2 (5c3e80d, 2017-08-06)">
  <metadata
     id="metadata89">
    <rdf:RDF>
      <cc:Work
         rdf:about="">
        <dc:format>image/svg+xml</dc:format>
        <dc:type
           rdf:resource="http://purl.org/dc/dcmitype/StillImage" />
        <dc:title></dc:title>
      </cc:Work>
    </rdf:RDF>
  </metadata>
  <defs
     id="defs87">
    <inkscape:perspective
       id="perspective4696"
       inkscape:persp3d-origin="58.834831 : 99.239478 : 1"
       inkscape:vp_z="108.68969 : 183.46711 : 1"
       inkscape:vp_y="0 : 480.24282 : 0"
       inkscape:vp_x="35.798852 : 181.39382 : 1"
       sodipodi:type="inkscape:persp3d" />
    <linearGradient
       id="linearGradient4674"
       inkscape:collect="always">
      <stop
         id="stop4670"
         offset="0"
         style="stop-color:#000000;stop-opacity:1" />
      <stop
         style="stop-color:#070707;stop-opacity:1;"
         offset="0.55872166"
         id="stop4680" />
      <stop
         style="stop-color:#1f1f1f;stop-opacity:1"
         offset="0.86525214"
         id="stop4678" />
      <stop
         id="stop4672"
         offset="1"
         style="stop-color:#000000;stop-opacity:1" />
    </linearGradient>
    <linearGradient
       id="linearGradient4614"
       inkscape:collect="always">
      <stop
         id="stop4610"
         offset="0"
         style="stop-color:#292929;stop-opacity:1;" />
      <stop
         id="stop4612"
         offset="1"
         style="stop-color:#292929;stop-opacity:0;" />
    </linearGradient>
    <linearGradient
       gradientTransform="matrix(-1,0,0,1,110.38372,0)"
       gradientUnits="userSpaceOnUse"
       y2="36.312263"
       x2="54.529369"
       y1="36.312263"
       x1="53.48996"
       id="linearGradient4616"
       xlink:href="#linearGradient4614"
       inkscape:collect="always" />
    <clipPath
       id="clipPath4626"
       clipPathUnits="userSpaceOnUse">
      <path
         inkscape:connector-curvature="0"
         style="opacity:1;fill:#050505;fill-opacity:1;stroke:none;stroke-width:27.99999809;stroke-linecap:butt;stroke-linejoin:round;stroke-miterlimit:4;stroke-dasharray:none;stroke-dashoffset:220;stroke-opacity:1;paint-order:stroke fill markers"
         d="m 57.300781,26.199219 c -0.831725,0 -1.664715,0.504879 -2.28125,1.513672 -0.27156,0.444335 -0.473052,1.081744 -0.625,1.798828 0.886851,-0.274373 1.89199,-0.419922 2.90625,-0.419922 1.013516,0 2.01799,0.144123 2.904297,0.417969 -0.151919,-0.716266 -0.353683,-1.352939 -0.625,-1.796875 -0.616535,-1.008793 -1.447572,-1.513672 -2.279297,-1.513672 z m -3.203125,6.304687 c -0.0043,1.923362 0.301099,3.851454 0.921875,4.867188 1.23307,2.017587 3.327477,2.017587 4.560547,0 0.620777,-1.015734 0.926146,-2.943826 0.921875,-4.867188 -2.034714,0.847358 -4.369697,0.847824 -6.404297,0 z"
         id="path4628" />
    </clipPath>
    <clipPath
       id="clipPath4632"
       clipPathUnits="userSpaceOnUse">
      <path
         inkscape:connector-curvature="0"
         style="opacity:1;fill:#050505;fill-opacity:1;stroke:none;stroke-width:27.99999809;stroke-linecap:butt;stroke-linejoin:round;stroke-miterlimit:4;stroke-dasharray:none;stroke-dashoffset:220;stroke-opacity:1;paint-order:stroke fill markers"
         d="m 57.300781,26.199219 c -0.831725,0 -1.664715,0.504879 -2.28125,1.513672 -0.27156,0.444335 -0.473052,1.081744 -0.625,1.798828 0.886851,-0.274373 1.89199,-0.419922 2.90625,-0.419922 1.013516,0 2.01799,0.144123 2.904297,0.417969 -0.151919,-0.716266 -0.353683,-1.352939 -0.625,-1.796875 -0.616535,-1.008793 -1.447572,-1.513672 -2.279297,-1.513672 z m -3.203125,6.304687 c -0.0043,1.923362 0.301099,3.851454 0.921875,4.867188 1.23307,2.017587 3.327477,2.017587 4.560547,0 0.620777,-1.015734 0.926146,-2.943826 0.921875,-4.867188 -2.034714,0.847358 -4.369697,0.847824 -6.404297,0 z"
         id="path4634" />
    </clipPath>
    <clipPath
       id="clipPath4638"
       clipPathUnits="userSpaceOnUse">
      <path
         inkscape:connector-curvature="0"
         style="opacity:1;fill:#050505;fill-opacity:1;stroke:none;stroke-width:27.99999809;stroke-linecap:butt;stroke-linejoin:round;stroke-miterlimit:4;stroke-dasharray:none;stroke-dashoffset:220;stroke-opacity:1;paint-order:stroke fill markers"
         d="m 57.300781,26.199219 c -0.831725,0 -1.664715,0.504879 -2.28125,1.513672 -0.27156,0.444335 -0.473052,1.081744 -0.625,1.798828 0.886851,-0.274373 1.89199,-0.419922 2.90625,-0.419922 1.013516,0 2.01799,0.144123 2.904297,0.417969 -0.151919,-0.716266 -0.353683,-1.352939 -0.625,-1.796875 -0.616535,-1.008793 -1.447572,-1.513672 -2.279297,-1.513672 z m -3.203125,6.304687 c -0.0043,1.923362 0.301099,3.851454 0.921875,4.867188 1.23307,2.017587 3.327477,2.017587 4.560547,0 0.620777,-1.015734 0.926146,-2.943826 0.921875,-4.867188 -2.034714,0.847358 -4.369697,0.847824 -6.404297,0 z"
         id="path4640" />
    </clipPath>
    <clipPath
       id="clipPath4650"
       clipPathUnits="userSpaceOnUse">
      <path
         sodipodi:nodetypes="zzzzz"
         inkscape:connector-curvature="0"
         id="path4652"
         d="m 61.581099,34.09763 c 0.541383,0.271554 0.541383,0.732669 0,1.004222 -0.541385,0.271554 -2.05034,0.271554 -2.591724,0 -0.541384,-0.271553 -0.541384,-0.732668 0,-1.004222 0.541384,-0.271553 2.050339,-0.271553 2.591724,0 z"
         style="opacity:1;fill:url(#linearGradient4654);fill-opacity:1;stroke:none;stroke-width:27.99999809;stroke-linecap:butt;stroke-linejoin:round;stroke-miterlimit:4;stroke-dasharray:none;stroke-dashoffset:220;stroke-opacity:1;paint-order:stroke fill markers" />
    </clipPath>
    <linearGradient
       y2="36.312263"
       x2="54.529369"
       y1="36.312263"
       x1="53.48996"
       gradientTransform="translate(5.0933735,-1.7125243)"
       gradientUnits="userSpaceOnUse"
       id="linearGradient4654"
       xlink:href="#linearGradient4614"
       inkscape:collect="always" />
    <linearGradient
       gradientUnits="userSpaceOnUse"
       y2="34.599743"
       x2="59.629166"
       y1="34.599743"
       x1="58.583336"
       id="linearGradient4662"
       xlink:href="#linearGradient4614"
       inkscape:collect="always" />
    <clipPath
       id="clipPath4666"
       clipPathUnits="userSpaceOnUse">
      <path
         style="opacity:1;fill:#121212;fill-opacity:1;stroke:none;stroke-width:28;stroke-linecap:butt;stroke-linejoin:round;stroke-miterlimit:4;stroke-dasharray:none;stroke-dashoffset:220;stroke-opacity:1;paint-order:stroke fill markers"
         d="m 51.545804,16.365139 c 3.112023,-3.112022 8.396432,-3.112022 11.508454,0 3.112023,3.112023 3.112023,11.78591 0,14.897932 -3.112022,3.112022 -8.396431,3.112022 -11.508454,0 -3.112022,-3.112022 -3.112022,-11.785909 0,-14.897932 z"
         id="path4668"
         inkscape:connector-curvature="0"
         sodipodi:nodetypes="zzzzz" />
    </clipPath>
    <radialGradient
       gradientUnits="userSpaceOnUse"
       gradientTransform="matrix(1.2664374,-0.00918753,0.00576177,0.79422036,-15.490368,3.6826367)"
       r="6.8027334"
       fy="38.755024"
       fx="57.300781"
       cy="38.755024"
       cx="57.300781"
       id="radialGradient4676"
       xlink:href="#linearGradient4674"
       inkscape:collect="always" />
    <linearGradient
       gradientTransform="matrix(1.3672665,0.25236274,-0.35658894,0.9676327,-8.9632071,-13.174591)"
       gradientUnits="userSpaceOnUse"
       y2="33.291649"
       x2="62.245316"
       y1="37.302299"
       x1="53.645184"
       id="linearGradient4746"
       xlink:href="#linearGradient4674"
       inkscape:collect="always" />
    <linearGradient
       gradientTransform="matrix(1.3672665,0.25236274,-0.35658894,0.9676327,-8.9632071,-13.174591)"
       gradientUnits="userSpaceOnUse"
       y2="37.754566"
       x2="53.958759"
       y1="40.930969"
       x1="51.164593"
       id="linearGradient4754"
       xlink:href="#linearGradient4674"
       inkscape:collect="always" />
    <linearGradient
       gradientTransform="matrix(1.3672665,0.25236274,-0.35658894,0.9676327,-8.9632071,-13.174591)"
       gradientUnits="userSpaceOnUse"
       y2="37.540554"
       x2="55.629025"
       y1="45.973011"
       x1="59.48283"
       id="linearGradient4762"
       xlink:href="#linearGradient4674"
       inkscape:collect="always" />
    <linearGradient
       gradientTransform="matrix(1.3672665,0.25236274,-0.35658894,0.9676327,-8.9632071,-13.174591)"
       y2="35.338593"
       x2="63.296993"
       y1="35.338593"
       x1="52.75806"
       gradientUnits="userSpaceOnUse"
       id="linearGradient4770"
       xlink:href="#linearGradient4674"
       inkscape:collect="always" />
  </defs>
  <sodipodi:namedview
     pagecolor="#ffffff"
     bordercolor="#666666"
     borderopacity="1"
     objecttolerance="10"
     gridtolerance="10"
     guidetolerance="10"
     inkscape:pageopacity="0"
     inkscape:pageshadow="2"
     inkscape:window-width="1920"
     inkscape:window-height="1057"
     id="namedview85"
     showgrid="false"
     inkscape:zoom="0.834386"
     inkscape:cx="430.24499"
     inkscape:cy="438.47468"
     inkscape:window-x="1912"
     inkscape:window-y="-8"
     inkscape:window-maximized="1"
     inkscape:current-layer="svg83" />
  <g
     id="Layer_1">
    <path
       d="M521.94,791.35 C525.025,780.915 530.075,749.07 534.93,715.34 L536.99,700.8 L557.815,796.5 L611.605,796.5 C611.605,796.5 592.155,629.39 587.385,593.325 C582.62,557.27 555.525,540.675 537.79,536.095 C520.035,531.52 446.415,508.285 446.415,508.285 L394.11,512.885 C394.11,512.885 336.9,533.235 322.015,536.095 C307.135,538.96 286.54,549.83 279.095,565.86 C271.65,581.88 226.495,664.855 226.495,664.855 L223.35,652.525 C218.98,631.76 215.55,613.11 215.075,608.785 C214.01,599.045 200.41,603.06 200.41,603.06 L161.025,623.395 C161.025,623.395 141.41,642.095 146.895,652.4 C152.365,662.695 164.63,724.385 168.065,744.415 C171.5,764.45 193.33,780.42 210.42,774.18 C240.17,763.305 299.815,673.795 299.815,673.795 L301.035,682.81 C306.995,726.33 314.505,777.555 318.585,791.35 L521.94,791.35"
       id="path2"
       style="fill:#a9a9a9;fill-opacity:1"
       fill="#E46E81" />
    <path
       d="M446.415,517.21 L445.325,496.84 L446.415,483.445 L395.2,486.495 L395.2,496.84 L394.11,517.21 L398.9,575.89 L433.235,575.89 L446.415,517.21"
       id="path4"
       fill="#F8D4B3" />
    <path
       d="M395.2,490.23 L445.325,490.23 L445.745,514.62 C445.745,514.62 436.21,528.615 399.955,533.7 L393.6,519.08 L395.2,490.23"
       id="path6"
       fill="#CF957E" />
    <path
       d="M420.52,711.855 C378.165,711.855 322.59,702.955 300.545,683.03 C304.565,709.925 316.035,782.72 318.585,791.35 L521.94,791.35 C524.485,782.745 535.64,710.675 539.65,683.885 C513.79,703.385 462.625,711.855 420.52,711.855"
       id="path8"
       style="fill:#909090;fill-opacity:1"
       fill="#CE5262" />
    <path
       d="M421.025,731.825 L450.985,569.5 L450.985,509.725 L420.585,568.675 L390.46,514.165 L390.46,569.5 L419.505,731.825"
       id="path10"
       fill="#FFFFFE" />
    <path
       d="m 390.775,515.105 -4.085,2.105 12.07529,46.38241 L 412.99,557.84 390.775,515.105"
       id="path12"
       inkscape:connector-curvature="0"
       style="fill:#fffffe"
       sodipodi:nodetypes="ccccc" />
    <g
       id="g24">
      <path
         d="m 427.545,557.84 23.44,11.66 2.835,-58.885 -2.835,-0.89 -23.44,48.115"
         id="path14"
         inkscape:connector-curvature="0"
         style="fill:#fffffe"
         sodipodi:nodetypes="ccccc" />
      <path
         d="M470.03,492.22 C554.405,502.015 569.825,456.595 569.825,456.595 L580.655,499.925 C609.82,475.755 616.685,371.165 616.685,371.165 L628.15,277.56 C642.94,65.685 531.905,55.17 531.905,55.17 C508.465,2.67 337.215,-34.83 251.095,90.59 C196.67,169.85 206.64,280.63 206.64,280.63 L234.17,376.165 C234.17,376.165 255.275,454.095 235.465,490.76 C235.465,490.76 272.325,483.265 276.49,471.595 C276.49,471.595 288.14,495.76 363.145,490.76"
         id="path16"
         fill="#7D4D3F" />
      <path
         d="M531.905,55.17 C508.465,2.67 337.215,-34.83 251.095,90.59 C196.67,169.85 206.64,280.63 206.64,280.63 L223.78,276.42 C223.78,276.42 214.27,127.79 301.485,63.505 C401.33,-10.09 493.695,36.965 529.82,54.34 C530.655,54.34 531.905,55.17 531.905,55.17"
         id="path18"
         fill="#E0B79F" />
      <path
         d="M250.155,289.225 C250.155,289.225 240.06,269.63 221.06,275.57 C181.435,287.955 194.14,373.85 259.62,381.26"
         id="path20"
         fill="#F7CCAA" />
      <path
         d="M587.99,289.555 C587.99,289.555 598.085,269.96 617.085,275.9 C656.71,288.28 646.18,374.18 579.68,381.59"
         id="path22"
         fill="#F7CCAA" />
    </g>
    <path
       d="M585.94,268.915 C581.195,280.15 576.375,286.995 576.375,286.995 C560.655,166.165 430.655,112.67 430.655,112.67 C499.135,172.88 499.715,206.525 499.715,206.525 C384.09,212.775 326.25,130.405 326.25,130.405 C326.25,130.405 325.645,144.725 318.105,166.595 C309.21,192.39 290.6,228.69 252.005,264.4 C251.945,264.945 251.915,265.255 251.915,265.255 C249.95,297.84 250.47,354.47 265.655,399.92 C292.53,480.36 378.28,498.595 418.99,498.595 C459.695,498.595 545.45,480.36 572.325,399.92 C586.69,356.915 592.97,303.285 586.36,270.73 C586.24,270.125 586.07,269.52 585.94,268.915"
       id="path26"
       fill="#F7CCAA" />
    <path
       d="M374.58,303.06 C374.58,327.885 359.15,348.015 340.115,348.015 C321.085,348.015 305.645,327.885 305.645,303.06 C305.645,278.23 321.085,258.1 340.115,258.1 C359.15,258.1 374.58,278.23 374.58,303.06"
       id="path28"
       fill="#FFFFFE" />
    <path
       d="M534.18,303.06 C534.18,327.885 518.75,348.015 499.715,348.015 C480.685,348.015 465.25,327.885 465.25,303.06 C465.25,278.23 480.685,258.1 499.715,258.1 C518.75,258.1 534.18,278.23 534.18,303.06"
       id="path30"
       fill="#FFFFFE" />
    <path
       d="M369.21,309.545 C369.21,326.46 359.69,340.17 347.96,340.17 C336.22,340.17 326.71,326.46 326.71,309.545 C326.71,292.635 336.22,278.92 347.96,278.92 C359.69,278.92 369.21,292.635 369.21,309.545"
       id="path32"
       fill="#1A1919" />
    <path
       d="M470.03,309.545 C470.03,326.46 479.54,340.17 491.28,340.17 C503.02,340.17 512.53,326.46 512.53,309.545 C512.53,292.635 503.02,278.92 491.28,278.92 C479.54,278.92 470.03,292.635 470.03,309.545"
       id="path34"
       fill="#1A1919" />
    <path
       d="M420.03,470.54 C367.53,470.54 363.78,409.29 363.155,395.54 C363.155,395.54 418.99,413.04 474.825,395.54 C474.2,409.29 470.45,470.54 417.95,470.54"
       id="path36"
       fill="#DF7370" />
    <path
       d="M320.965,353.08 C320.965,360.85 307.86,367.15 291.695,367.15 C275.525,367.15 262.415,360.85 262.415,353.08 C262.415,345.305 275.525,339.005 291.695,339.005 C307.86,339.005 320.965,345.305 320.965,353.08"
       id="path38"
       fill="#EC9896" />
    <path
       d="M575.84,353.08 C575.84,360.85 562.73,367.15 546.565,367.15 C530.39,367.15 517.285,360.85 517.285,353.08 C517.285,345.305 530.39,339.005 546.565,339.005 C562.73,339.005 575.84,345.305 575.84,353.08"
       id="path40"
       fill="#EC9896" />
    <path
       d="M368.835,299.29 C368.835,302.755 366.025,305.565 362.56,305.565 C359.09,305.565 356.28,302.755 356.28,299.29 C356.28,295.825 359.09,293.015 362.56,293.015 C366.025,293.015 368.835,295.825 368.835,299.29"
       id="path42"
       fill="#FFFFFE" />
    <path
       d="M510.89,299.29 C510.89,302.755 508.075,305.565 504.61,305.565 C501.145,305.565 498.33,302.755 498.33,299.29 C498.33,295.825 501.145,293.015 504.61,293.015 C508.075,293.015 510.89,295.825 510.89,299.29"
       id="path44"
       fill="#FFFFFE" />
    <path
       d="M254.825,354.16 L251.905,322.555 C251.905,322.555 243.69,302.955 231.075,299.925 C214.825,296.025 214.49,322.21 225.655,336.99 C242.735,359.625 254.825,354.16 254.825,354.16"
       id="path46"
       fill="#CF957E" />
    <path
       d="M585.655,354.16 L588.575,322.555 C588.575,322.555 596.785,302.955 609.405,299.925 C625.655,296.025 625.985,322.21 614.825,336.99 C597.745,359.625 585.655,354.16 585.655,354.16"
       id="path48"
       fill="#CF957E" />
    <path
       d="m 389.27765,517.6968 24.67235,40.4882 6.635,10.49 7.355,-10.49 24.89546,-44.89922 -1.12019,20.94102 -30.15679,59.79987 -33.62913,-56.85447"
       id="path50"
       inkscape:connector-curvature="0"
       style="fill:#a8bfd9"
       sodipodi:nodetypes="cccccccc" />
    <path
       d="M415.74,416.375 C435.495,416.375 453.145,425.595 464.945,440.09 C473.315,422.575 474.5,402.67 474.825,395.54 C418.99,413.04 363.155,395.54 363.155,395.54 C363.445,402.02 364.445,419.05 370.905,435.25 C382.49,423.585 398.29,416.375 415.74,416.375"
       id="path52"
       fill="#C35953" />
    <path
       d="M343.155,269.115 C351.135,269.115 358.745,270.565 365.76,273.105 C359.455,263.915 350.315,258.1 340.115,258.1 C328.595,258.1 318.425,265.5 312.17,276.82 C321.305,271.945 331.865,269.115 343.155,269.115"
       id="path54"
       fill="#D2E0EB" />
    <g
       id="g60">
      <path
         d="M496.9,269.115 C488.915,269.115 481.31,270.565 474.29,273.105 C480.6,263.915 489.735,258.1 499.935,258.1 C511.46,258.1 521.625,265.5 527.885,276.82 C518.75,271.945 508.19,269.115 496.9,269.115"
         id="path56"
         fill="#D2E0EB" />
      <path
         d="M163.29,651.45 C161.015,633.015 148.95,596.605 148.95,596.605 C148.95,596.605 116.12,599.14 64.29,564.74 C64.29,564.74 33.77,555.405 9.675,546.995 C-6.2,541.445 13.545,534.7 13.545,534.7 C13.545,534.7 4.5,530.23 4.89,524.915 C5.425,517.53 15.66,517.755 15.66,517.755 C15.66,517.755 13.46,511.79 19.15,507.285 C24.73,502.87 35.2,503.8 35.2,503.8 C35.2,503.8 33.22,496.455 39.03,493.275 C52.65,485.82 90.185,495.3 123.855,513.885 L130.945,513.605 C128.83,510.94 127.06,507.85 126.19,504.43 C123.01,491.905 124.6,486.445 128.47,484.625 C132.335,482.805 140.98,489.17 146.44,495.09 C151.905,501.015 165.335,514.205 171.485,519.215 C176.165,523.035 191.45,541.02 191.765,562.465 L191.19,574.67 C191.19,574.67 193.05,605.71 202.615,620.84 L201.525,625.96 C194.45,635.065 183.255,645.805 167.58,650.365 L163.29,651.45"
         id="path58"
         fill="#F7CCAA" />
    </g>
    <path
       d="M157.15,620.73 C157.15,620.73 172.16,641.66 196.285,630.285 C196.285,630.285 201.895,632.15 186.115,641.81 C170.33,651.47 163.29,651.45 163.29,651.45 L157.15,620.73"
       id="path62"
       fill="#CF957E" />
    <path
       d="M386.955,514.045 L334.255,533.59 C334.255,533.59 292.79,541.18 279.095,565.86 C265.405,590.545 227.155,666.195 227.155,666.195 L229.59,682.325 C229.59,682.325 285.975,578.995 303.225,559.945 C314.455,547.54 384.405,531.47 384.405,531.47 L386.955,514.045"
       id="path64"
       style="fill:#d7d7d7;fill-opacity:1"
       fill="#F2BBBC" />
    <path
       d="M453.82,510.615 L455.81,526.62 C455.81,526.62 500.93,537.76 542.435,551.18 C573.995,561.38 578.295,584.57 588.405,592.875 C588.405,592.875 578.205,551.44 542.595,537.055 C530.875,532.325 453.82,510.615 453.82,510.615"
       id="path66"
       style="fill:#d7d7d7;fill-opacity:1"
       fill="#F2BBBC" />
    <path
       d="M270.59,81.84 C325.17,100.16 361.415,100.365 381.735,97.57 C395.38,95.695 388.19,90.82 381.97,89.73 C318.02,78.52 298.935,53.965 298.935,53.965 L270.59,81.84"
       id="path68"
       fill="#E0B79F" />
    <path
       d="M163.29,651.45 C161.015,633.015 148.95,596.605 148.95,596.605 M369.405,221.165 C356.28,211.165 323.155,206.165 305.03,228.04"
       id="path70"
       stroke-linejoin="round"
       stroke-linecap="round"
       stroke-width="7"
       stroke="#1A1919"
       fill-opacity="0" />
    <path
       d="M370.81,277 C356.35,246.51 295.75,246.375 304.405,318.295"
       id="path72"
       stroke-linejoin="round"
       stroke-linecap="round"
       stroke-width="8"
       stroke="#1A1919"
       fill-opacity="0" />
    <path
       d="M250.155,289.225 C250.155,289.225 240.06,269.63 221.06,275.57 C181.435,287.955 194.14,373.85 259.62,381.26 M221.77,298.725 C221.77,298.725 234.835,289.82 250.865,324.85 M251.915,265.255 C249.95,297.84 250.47,354.47 265.655,399.92 C292.53,480.36 378.28,498.595 418.99,498.595 C459.695,498.595 545.45,480.36 572.325,399.92 C586.69,356.915 587.935,303.91 586.36,270.73 M467.53,221.165 C480.655,211.165 513.78,206.165 531.905,228.04"
       id="path74"
       stroke-linejoin="round"
       stroke-linecap="round"
       stroke-width="7"
       stroke="#1A1919"
       fill-opacity="0" />
    <g
       id="g80">
      <path
         d="M467.6,279.95 C479.425,246.585 544.16,244.12 535.235,318.295"
         id="path76"
         stroke-linejoin="round"
         stroke-linecap="round"
         stroke-width="8"
         stroke="#1A1919"
         fill-opacity="0" />
      <path
         d="m 587.99,289.555 c 0,0 10.095,-19.595 29.095,-13.655 39.625,12.38 29.095,98.28 -37.405,105.69 m 36.315,-82.535 c 0,0 -13.055,-8.905 -29.09,26.125 m -294.375,-28.135 11.035,6.875 m 232.51,0 14.785,-6.875 m -131.87,79.12 v -10 m 163.335,-186.67 c 31.765,54.17 -5.95,107.5 -5.95,107.5 -15.72,-120.83 -145.72,-174.325 -145.72,-174.325 68.48,60.21 69.06,93.855 69.06,93.855 -115.625,6.25 -173.465,-76.12 -173.465,-76.12 0,0 -2.96,70.02 -77.365,136.895 0,0 -10.73,-46.96 4.895,-81.97 m -46.045,99.1 c 0,0 -11.065,-114.58 43.36,-193.84 86.12,-125.42 257.37,-87.92 280.81,-35.42 0,0 110.68,13.435 95.89,225.31 M 234.17,376.165 c 0,0 21.105,77.93 1.295,114.595 0,0 36.86,-7.495 41.025,-19.165 0,0 11.65,24.165 86.655,19.165 m 253.54,-119.595 c 0,0 -6.865,104.59 -36.03,128.76 l -10.83,-43.33 c 0,0 -15.42,45.42 -99.795,35.625 m -278.84,82.45 c 0,0 1.86,31.04 11.425,46.17 m -5.175,-16.97 c 0,0 16.405,-6.195 17.635,4.915 1.075,9.725 17.09,92.015 25.095,107.59 M 208.555,615.29 c -5.33,9.625 -22.225,35.13 -52.51,36.985 m 2.15,-25.96 c -5.215,5.665 -15.45,18.28 -11.3,26.085 5.47,10.295 17.735,71.985 21.17,92.015 3.435,20.035 25.265,36.005 42.355,29.765 29.75,-10.875 89.395,-100.385 89.395,-100.385 m 94.295,-160.91 c 0,0 -57.21,20.35 -72.095,23.21 -14.88,2.865 -35.475,13.735 -42.92,29.765 -7.445,16.02 -52.6,98.995 -52.6,98.995 m 219.92,-156.57 c 0,0 73.62,23.235 91.375,27.81 17.735,4.58 44.83,21.175 49.595,57.23 4.77,36.065 24.22,203.175 24.22,203.175 M 292.26,616.22 c 0,0 18.88,149.95 26.325,175.13 m 229.68,-175.13 c 0,0 -18.875,149.95 -26.325,175.13 m 15.05,-90.55 20.825,95.7 M 390.46,514.165 l 30.125,54.51 30.4,-58.95 M 390.46,569.5 386.69,517.21 m 3.77,52.29 29.045,162.325 M 375.385,519.39 344.6,568.675 359.995,583.03 342.62,602.24 409.015,727.82 M 453.82,510.615 450.985,569.5 m 0,0 -29.96,162.325 m 41.855,-218.37 33.05,55.22 -15.395,14.355 17.37,19.21 -66.385,125.58 m -37.41,-210.61 1.13,-19.32 m 51.175,19.32 -1.09,-20.37 m -25.295,-26.3 c -52.5,0 -56.25,-61.25 -56.875,-75 0,0 55.835,17.5 111.67,0 -0.625,13.75 -4.375,75 -56.875,75 M 159.42,596.83 c 0,0 -41.19,4.095 -95.13,-32.09 0,0 -30.52,-9.335 -54.615,-17.745 -15.875,-5.55 3.87,-12.295 3.87,-12.295 0,0 -9.045,-4.47 -8.655,-9.785 0.535,-7.385 10.77,-7.16 10.77,-7.16 0,0 -2.2,-5.965 3.49,-10.47 5.58,-4.415 16.05,-3.485 16.05,-3.485 0,0 -1.98,-7.345 3.83,-10.525 13.62,-7.455 51.155,2.025 84.825,20.61 m 63.105,69.285 c 15.015,-29.585 -9.335,-58.945 -15.475,-63.955 -6.15,-5.01 -19.58,-18.2 -25.045,-24.125 -5.46,-5.92 -14.105,-12.285 -17.97,-10.465 -3.87,1.82 -5.46,7.28 -2.28,19.805 3.18,12.515 18.435,20.485 18.435,20.485 0,0 -5.465,31.4 13.425,41.415 m -30.265,-51.89 c 0,0 -34.595,7.055 -59.86,39.83 m -52.9,-19.525 c 0,0 24.585,-1.81 55.305,12.76 M 15.35,517.86 c 0,0 31.865,-3.19 73.06,15.01 m -53.9,-29.3 c 0.7,-0.055 37.12,-0.7 68.985,20.42"
         id="path78"
         inkscape:connector-curvature="0"
         style="fill-opacity:0;stroke:#1a1919;stroke-width:7;stroke-linecap:round;stroke-linejoin:round"
         sodipodi:nodetypes="cccccccccccccccccccccccccccccccccccccccccccccccccccccccccccccccccccccccccccccccccccccccccccccccccccccccccccccc" />
    </g>
  </g>
  <g
     style="stroke-width:2.3423202"
     id="g1056"
     transform="matrix(0.18060334,-0.38684528,0.38684528,0.18060334,395.407,575.91885)">
    <path
       inkscape:connector-curvature="0"
       id="path4764"
       d="m 63.396484,33.474609 -13.117187,1.646485 -0.976563,2.652344 1.582032,2.984374 13.214843,-1.375 1.240235,-3.367187 z"
       style="fill:url(#linearGradient4770);fill-opacity:1;fill-rule:evenodd;stroke:none;stroke-width:65.58494568;stroke-linecap:butt;stroke-linejoin:round;stroke-miterlimit:4;stroke-dasharray:none;stroke-dashoffset:220;stroke-opacity:1;paint-order:stroke fill markers" />
    <path
       sodipodi:nodetypes="ccccc"
       inkscape:connector-curvature="0"
       id="path4732"
       style="fill:url(#linearGradient4746);fill-opacity:1;fill-rule:evenodd;stroke:none;stroke-width:65.58494568;stroke-linecap:butt;stroke-linejoin:round;stroke-miterlimit:4;stroke-dasharray:none;stroke-dashoffset:220;stroke-opacity:1;paint-order:stroke fill markers"
       d="m 50.279662,35.121587 1.688312,2.697742 13.372014,-1.80409 -1.943148,-2.540236 z" />
    <path
       sodipodi:nodetypes="ccccc"
       inkscape:connector-curvature="0"
       id="path4734"
       style="fill:url(#linearGradient4762);fill-opacity:1;fill-rule:evenodd;stroke:none;stroke-width:65.58494568;stroke-linecap:butt;stroke-linejoin:round;stroke-miterlimit:4;stroke-dasharray:none;stroke-dashoffset:220;stroke-opacity:1;paint-order:stroke fill markers"
       d="m 51.967974,37.819329 -1.082837,2.938366 13.213786,-1.374724 1.241065,-3.367732 z" />
    <path
       inkscape:connector-curvature="0"
       id="path4736"
       style="fill:url(#linearGradient4754);fill-opacity:1;fill-rule:evenodd;stroke:none;stroke-width:65.58494568;stroke-linecap:butt;stroke-linejoin:round;stroke-miterlimit:4;stroke-dasharray:none;stroke-dashoffset:220;stroke-opacity:1;paint-order:stroke fill markers"
       d="m 50.279662,35.121587 1.688312,2.697742 -1.082837,2.938366 -1.582485,-2.984914 z" />
    <path
       style="opacity:1;fill:#060606;fill-opacity:1;stroke:none;stroke-width:65.58494568;stroke-linecap:butt;stroke-linejoin:round;stroke-miterlimit:4;stroke-dasharray:none;stroke-dashoffset:220;stroke-opacity:1;paint-order:stroke fill markers"
       d="m 50,35.976088 -0.01221,0.646973 0.646973,-0.01221 0.02441,0.866699 0.634766,-0.07324 0.12207,1.220703 0.390625,-0.268555 0.183105,0.280762 1.391602,-0.427246 0.12207,0.65918 1.501465,-0.671387 0.683594,0.439453 0.915527,-0.720215 1.782227,0.976563 1.416016,-1.074219 0.57373,0.378418 0.695801,-0.622559 0.610351,0.744629 -0.57373,-0.427246 -0.769043,0.793457 -0.646973,-0.439453 -0.988769,0.683594 -1.782227,-0.488281 -1.318359,0.598144 -0.622559,-0.537109 -1.574707,0.695801 -0.317383,-0.622559 -1.403808,0.45166 -0.04883,-0.317383 -0.354004,0.09766 -0.134278,-1.098633 -0.744629,-0.06104 v -0.793457 l -0.476074,0.01221 -0.08545,-0.439453 z"
       id="path4778"
       inkscape:connector-curvature="0" />
    <path
       style="opacity:1;fill:#060606;fill-opacity:1;stroke:none;stroke-width:65.58494568;stroke-linecap:butt;stroke-linejoin:round;stroke-miterlimit:4;stroke-dasharray:none;stroke-dashoffset:220;stroke-opacity:1;paint-order:stroke fill markers"
       d="m 49.468995,37.404311 c 0,0.03052 1.660156,2.679443 1.660156,2.679443 l 0.762939,-0.07934 -0.04883,0.384521 -0.823975,0.01831 -1.635741,-2.7771 z"
       id="path4780"
       inkscape:connector-curvature="0"
       sodipodi:nodetypes="ccccccc" />
  </g>
  <g
     id="g1193"
     transform="rotate(110.89983,421.2021,563.447)">
    <path
       sodipodi:nodetypes="czcczccc"
       inkscape:connector-curvature="0"
       id="path4684"
       d="m 421.57943,566.6404 c 0,0 1.1777,0.8197 1.59785,0.47317 0.42015,-0.34653 -0.0851,-1.5732 -0.0851,-1.5732 l -0.1492,0.0566 c 0,0 0.48079,1.08236 0.13218,1.38292 -0.34861,0.30055 -1.29453,-0.3806 -1.29453,-0.3806 l -0.18908,-0.0557 z"
       style="opacity:1;fill:#000000;fill-opacity:1;stroke:none;stroke-width:27.99999809;stroke-linecap:butt;stroke-linejoin:round;stroke-miterlimit:4;stroke-dasharray:none;stroke-dashoffset:220;stroke-opacity:1;paint-order:stroke fill markers" />
    <path
       style="opacity:1;fill:#000000;fill-opacity:1;stroke:none;stroke-width:27.99999809;stroke-linecap:butt;stroke-linejoin:round;stroke-miterlimit:4;stroke-dasharray:none;stroke-dashoffset:220;stroke-opacity:1;paint-order:stroke fill markers"
       d="m 421.70988,566.92094 c 0,0 1.28995,0.87834 1.74416,0.51562 0.45421,-0.36272 -0.10738,-1.66536 -0.10738,-1.66536 l -0.16192,0.0585 c 0,0 0.53361,1.14972 0.15687,1.46446 -0.37675,0.31475 -1.41304,-0.41482 -1.41304,-0.41482 l -0.20639,-0.0608 z"
       id="path4682"
       inkscape:connector-curvature="0"
       sodipodi:nodetypes="czcczccc" />
    <path
       style="opacity:1;fill:#121212;fill-opacity:1;stroke:none;stroke-width:27.99999809;stroke-linecap:butt;stroke-linejoin:round;stroke-miterlimit:4;stroke-dasharray:none;stroke-dashoffset:220;stroke-opacity:1;paint-order:stroke fill markers"
       d="m 419.70755,559.11359 c 1.63836,-0.91988 3.81039,-0.30986 4.73026,1.32849 0.91988,1.63836 -0.0814,5.20354 -1.71975,6.12342 -1.63836,0.91988 -3.81039,0.30987 -4.73026,-1.32849 -0.91988,-1.63836 0.0814,-5.20354 1.71975,-6.12342 z"
       id="rect4511"
       inkscape:connector-curvature="0"
       sodipodi:nodetypes="zzzzz" />
    <circle
       transform="rotate(15.687367)"
       style="opacity:1;fill:#424242;fill-opacity:1;stroke:none;stroke-width:27.99999809;stroke-linecap:butt;stroke-linejoin:round;stroke-miterlimit:4;stroke-dasharray:none;stroke-dashoffset:220;stroke-opacity:1;paint-order:stroke fill markers"
       id="path4517"
       cx="556.77179"
       cy="425.24802"
       r="0.070777059" />
    <circle
       transform="rotate(15.687367)"
       r="0.070777059"
       cy="425.56879"
       cx="557.75293"
       id="circle4519"
       style="opacity:1;fill:#424242;fill-opacity:1;stroke:none;stroke-width:27.99999809;stroke-linecap:butt;stroke-linejoin:round;stroke-miterlimit:4;stroke-dasharray:none;stroke-dashoffset:220;stroke-opacity:1;paint-order:stroke fill markers" />
    <circle
       transform="rotate(15.687367)"
       style="opacity:1;fill:#424242;fill-opacity:1;stroke:none;stroke-width:27.99999809;stroke-linecap:butt;stroke-linejoin:round;stroke-miterlimit:4;stroke-dasharray:none;stroke-dashoffset:220;stroke-opacity:1;paint-order:stroke fill markers"
       id="circle4521"
       cx="556.75293"
       cy="426.17255"
       r="0.070777059" />
    <circle
       transform="rotate(15.687367)"
       r="0.070777059"
       cy="426.92725"
       cx="559.48871"
       id="circle4523"
       style="opacity:1;fill:#424242;fill-opacity:1;stroke:none;stroke-width:27.99999809;stroke-linecap:butt;stroke-linejoin:round;stroke-miterlimit:4;stroke-dasharray:none;stroke-dashoffset:220;stroke-opacity:1;paint-order:stroke fill markers" />
    <circle
       transform="rotate(15.687367)"
       style="opacity:1;fill:#424242;fill-opacity:1;stroke:none;stroke-width:27.99999809;stroke-linecap:butt;stroke-linejoin:round;stroke-miterlimit:4;stroke-dasharray:none;stroke-dashoffset:220;stroke-opacity:1;paint-order:stroke fill markers"
       id="circle4525"
       cx="558.94696"
       cy="425.19522"
       r="0.070777059" />
    <circle
       transform="rotate(15.687367)"
       r="0.070777059"
       cy="426.60941"
       cx="558.24652"
       id="circle4527"
       style="opacity:1;fill:#424242;fill-opacity:1;stroke:none;stroke-width:27.99999809;stroke-linecap:butt;stroke-linejoin:round;stroke-miterlimit:4;stroke-dasharray:none;stroke-dashoffset:220;stroke-opacity:1;paint-order:stroke fill markers" />
    <circle
       transform="rotate(15.687367)"
       style="opacity:1;fill:#424242;fill-opacity:1;stroke:none;stroke-width:27.99999809;stroke-linecap:butt;stroke-linejoin:round;stroke-miterlimit:4;stroke-dasharray:none;stroke-dashoffset:220;stroke-opacity:1;paint-order:stroke fill markers"
       id="circle4529"
       cx="556.56549"
       cy="427.94354"
       r="0.070777059" />
    <circle
       transform="rotate(15.687367)"
       r="0.070777059"
       cy="426.75616"
       cx="555.92511"
       id="circle4531"
       style="opacity:1;fill:#424242;fill-opacity:1;stroke:none;stroke-width:27.99999809;stroke-linecap:butt;stroke-linejoin:round;stroke-miterlimit:4;stroke-dasharray:none;stroke-dashoffset:220;stroke-opacity:1;paint-order:stroke fill markers" />
    <circle
       transform="rotate(15.687367)"
       style="opacity:1;fill:#424242;fill-opacity:1;stroke:none;stroke-width:27.99999809;stroke-linecap:butt;stroke-linejoin:round;stroke-miterlimit:4;stroke-dasharray:none;stroke-dashoffset:220;stroke-opacity:1;paint-order:stroke fill markers"
       id="circle4533"
       cx="555.4248"
       cy="428.7774"
       r="0.070777059" />
    <circle
       transform="rotate(15.687367)"
       r="0.070777059"
       cy="428.7507"
       cx="557.93298"
       id="circle4535"
       style="opacity:1;fill:#424242;fill-opacity:1;stroke:none;stroke-width:27.99999809;stroke-linecap:butt;stroke-linejoin:round;stroke-miterlimit:4;stroke-dasharray:none;stroke-dashoffset:220;stroke-opacity:1;paint-order:stroke fill markers" />
    <circle
       transform="rotate(15.687367)"
       style="opacity:1;fill:#424242;fill-opacity:1;stroke:none;stroke-width:27.99999809;stroke-linecap:butt;stroke-linejoin:round;stroke-miterlimit:4;stroke-dasharray:none;stroke-dashoffset:220;stroke-opacity:1;paint-order:stroke fill markers"
       id="circle4537"
       cx="557.65283"
       cy="427.28983"
       r="0.070777059" />
    <circle
       transform="rotate(15.687367)"
       r="0.070777059"
       cy="428.07697"
       cx="558.84692"
       id="circle4539"
       style="opacity:1;fill:#424242;fill-opacity:1;stroke:none;stroke-width:27.99999809;stroke-linecap:butt;stroke-linejoin:round;stroke-miterlimit:4;stroke-dasharray:none;stroke-dashoffset:220;stroke-opacity:1;paint-order:stroke fill markers" />
    <circle
       transform="rotate(15.687367)"
       style="opacity:1;fill:#424242;fill-opacity:1;stroke:none;stroke-width:27.99999809;stroke-linecap:butt;stroke-linejoin:round;stroke-miterlimit:4;stroke-dasharray:none;stroke-dashoffset:220;stroke-opacity:1;paint-order:stroke fill markers"
       id="circle4541"
       cx="559.64075"
       cy="429.61792"
       r="0.070777059" />
    <circle
       transform="rotate(15.687367)"
       r="0.070777059"
       cy="430.33835"
       cx="560.24774"
       id="circle4547"
       style="opacity:1;fill:#424242;fill-opacity:1;stroke:none;stroke-width:27.99999809;stroke-linecap:butt;stroke-linejoin:round;stroke-miterlimit:4;stroke-dasharray:none;stroke-dashoffset:220;stroke-opacity:1;paint-order:stroke fill markers" />
    <circle
       transform="rotate(15.687367)"
       r="0.070777059"
       cy="425.22528"
       cx="555.85901"
       id="circle4553"
       style="opacity:1;fill:#424242;fill-opacity:1;stroke:none;stroke-width:27.99999809;stroke-linecap:butt;stroke-linejoin:round;stroke-miterlimit:4;stroke-dasharray:none;stroke-dashoffset:220;stroke-opacity:1;paint-order:stroke fill markers" />
    <circle
       transform="rotate(15.687367)"
       r="0.070777059"
       cy="425.90897"
       cx="558.95361"
       id="circle4555"
       style="opacity:1;fill:#424242;fill-opacity:1;stroke:none;stroke-width:27.99999809;stroke-linecap:butt;stroke-linejoin:round;stroke-miterlimit:4;stroke-dasharray:none;stroke-dashoffset:220;stroke-opacity:1;paint-order:stroke fill markers" />
    <circle
       transform="rotate(15.687367)"
       style="opacity:1;fill:#424242;fill-opacity:1;stroke:none;stroke-width:27.99999809;stroke-linecap:butt;stroke-linejoin:round;stroke-miterlimit:4;stroke-dasharray:none;stroke-dashoffset:220;stroke-opacity:1;paint-order:stroke fill markers"
       id="circle4557"
       cx="560.00092"
       cy="425.27527"
       r="0.070777059" />
    <circle
       transform="rotate(15.687367)"
       style="opacity:1;fill:#424242;fill-opacity:1;stroke:none;stroke-width:27.99999809;stroke-linecap:butt;stroke-linejoin:round;stroke-miterlimit:4;stroke-dasharray:none;stroke-dashoffset:220;stroke-opacity:1;paint-order:stroke fill markers"
       id="circle4559"
       cx="559.66071"
       cy="428.76407"
       r="0.070777059" />
    <circle
       transform="rotate(15.687367)"
       r="0.070777059"
       cy="428.83075"
       cx="556.95239"
       id="circle4561"
       style="opacity:1;fill:#424242;fill-opacity:1;stroke:none;stroke-width:27.99999809;stroke-linecap:butt;stroke-linejoin:round;stroke-miterlimit:4;stroke-dasharray:none;stroke-dashoffset:220;stroke-opacity:1;paint-order:stroke fill markers" />
    <circle
       transform="rotate(15.687367)"
       style="opacity:1;fill:#424242;fill-opacity:1;stroke:none;stroke-width:27.99999809;stroke-linecap:butt;stroke-linejoin:round;stroke-miterlimit:4;stroke-dasharray:none;stroke-dashoffset:220;stroke-opacity:1;paint-order:stroke fill markers"
       id="circle4573"
       cx="557.25928"
       cy="424.43475"
       r="0.070777059" />
    <circle
       transform="rotate(15.687367)"
       r="0.070777059"
       cy="427.3432"
       cx="555.03125"
       id="circle4575"
       style="opacity:1;fill:#424242;fill-opacity:1;stroke:none;stroke-width:27.99999809;stroke-linecap:butt;stroke-linejoin:round;stroke-miterlimit:4;stroke-dasharray:none;stroke-dashoffset:220;stroke-opacity:1;paint-order:stroke fill markers" />
    <circle
       transform="rotate(15.687367)"
       style="opacity:1;fill:#424242;fill-opacity:1;stroke:none;stroke-width:27.99999809;stroke-linecap:butt;stroke-linejoin:round;stroke-miterlimit:4;stroke-dasharray:none;stroke-dashoffset:220;stroke-opacity:1;paint-order:stroke fill markers"
       id="circle4577"
       cx="560.32782"
       cy="427.79678"
       r="0.070777059" />
    <circle
       transform="rotate(15.687367)"
       style="opacity:1;fill:#424242;fill-opacity:1;stroke:none;stroke-width:27.99999809;stroke-linecap:butt;stroke-linejoin:round;stroke-miterlimit:4;stroke-dasharray:none;stroke-dashoffset:220;stroke-opacity:1;paint-order:stroke fill markers"
       id="circle4581"
       cx="558.51337"
       cy="429.39777"
       r="0.070777059" />
    <path
       transform="matrix(0.41102476,0.11543607,-0.11543607,0.41102476,400.41008,546.43687)"
       style="opacity:1;fill:url(#radialGradient4676);fill-opacity:1;stroke:none;stroke-width:65.58494568;stroke-linecap:butt;stroke-linejoin:round;stroke-miterlimit:4;stroke-dasharray:none;stroke-dashoffset:220;stroke-opacity:1;paint-order:stroke fill markers"
       d="m 57.300782,28.470703 c -2.864486,0 -5.72119,0.869382 -6.802734,2.597856 3.816014,3.360725 9.789664,3.361048 13.605467,0 -1.081201,-1.728948 -3.937854,-2.597856 -6.802733,-2.597856 z"
       id="path4583"
       inkscape:connector-curvature="0"
       clip-path="url(#clipPath4666)" />
    <circle
       transform="rotate(15.687367)"
       style="opacity:1;fill:#424242;fill-opacity:1;stroke:none;stroke-width:27.99999809;stroke-linecap:butt;stroke-linejoin:round;stroke-miterlimit:4;stroke-dasharray:none;stroke-dashoffset:220;stroke-opacity:1;paint-order:stroke fill markers"
       id="circle4545"
       cx="555.8584"
       cy="429.52451"
       r="0.070777059" />
    <circle
       transform="rotate(15.687367)"
       r="0.070777059"
       cy="426.53735"
       cx="560.48132"
       id="circle4551"
       style="opacity:1;fill:#424242;fill-opacity:1;stroke:none;stroke-width:27.99999809;stroke-linecap:butt;stroke-linejoin:round;stroke-miterlimit:4;stroke-dasharray:none;stroke-dashoffset:220;stroke-opacity:1;paint-order:stroke fill markers" />
    <circle
       transform="rotate(15.687367)"
       r="0.070777059"
       cy="429.65793"
       cx="556.87238"
       id="circle4579"
       style="opacity:1;fill:#424242;fill-opacity:1;stroke:none;stroke-width:27.99999809;stroke-linecap:butt;stroke-linejoin:round;stroke-miterlimit:4;stroke-dasharray:none;stroke-dashoffset:220;stroke-opacity:1;paint-order:stroke fill markers" />
    <path
       style="opacity:1;fill:#121212;fill-opacity:1;stroke:none;stroke-width:27.99999809;stroke-linecap:butt;stroke-linejoin:round;stroke-miterlimit:4;stroke-dasharray:none;stroke-dashoffset:220;stroke-opacity:1;paint-order:stroke fill markers"
       d="m 420.34392,565.9345 c -0.59702,-0.16767 -1.23658,-0.17793 -1.84564,-0.0186 0.87332,0.90603 2.21294,1.28203 3.43029,0.96339 -0.43705,-0.45312 -0.98763,-0.77711 -1.58465,-0.94479 z"
       id="path4588"
       inkscape:connector-curvature="0" />
    <path
       style="opacity:1;fill:#050505;fill-opacity:1;stroke:none;stroke-width:27.99999809;stroke-linecap:butt;stroke-linejoin:round;stroke-miterlimit:4;stroke-dasharray:none;stroke-dashoffset:220;stroke-opacity:1;paint-order:stroke fill markers"
       d="m 420.29026,566.12557 c -0.52624,-0.1478 -1.08461,-0.1654 -1.62694,-0.0602 0.81664,0.7426 1.96268,1.06433 3.04656,0.85562 -0.40814,-0.37209 -0.89338,-0.64758 -1.41962,-0.79537 z"
       id="path4593"
       inkscape:connector-curvature="0" />
    <path
       style="opacity:1;fill:#050505;fill-opacity:1;stroke:none;stroke-width:27.99999809;stroke-linecap:butt;stroke-linejoin:round;stroke-miterlimit:4;stroke-dasharray:none;stroke-dashoffset:220;stroke-opacity:1;paint-order:stroke fill markers"
       d="m 418.89343,566.0416 c -0.22379,0.79005 -0.32083,1.6178 -0.18293,2.10695 -0.50156,2.94334 0.84421,3.43216 1.8745,0.52645 0.3724,-0.34583 0.72049,-1.10307 0.94076,-1.89411 -0.93414,0.1134 -1.89393,-0.15595 -2.63233,-0.73929 z"
       id="path4598"
       inkscape:connector-curvature="0"
       sodipodi:nodetypes="ccccc" />
    <path
       transform="matrix(0.41102476,0.11543607,-0.11543607,0.41102476,400.41008,546.43687)"
       style="opacity:1;fill:#000000;fill-opacity:1;stroke:none;stroke-width:65.58494568;stroke-linecap:butt;stroke-linejoin:round;stroke-miterlimit:4;stroke-dasharray:none;stroke-dashoffset:220;stroke-opacity:1;paint-order:stroke fill markers"
       d="m 56.731685,35.715623 c 0.643307,0.322678 0.643307,0.870605 0,1.193282 -0.643308,0.322678 -2.436346,0.322678 -3.079654,0 -0.643307,-0.322677 -0.643307,-0.870604 0,-1.193282 0.643308,-0.322677 2.436346,-0.322677 3.079654,0 z"
       id="path4606"
       inkscape:connector-curvature="0"
       sodipodi:nodetypes="zzzzz"
       clip-path="url(#clipPath4632)" />
    <path
       transform="matrix(0.41102476,0.11543607,-0.11543607,0.41102476,400.41008,546.43687)"
       sodipodi:nodetypes="zzzzz"
       inkscape:connector-curvature="0"
       id="path4608"
       d="m 53.895995,35.810153 c -0.541383,0.271554 -0.541383,0.732669 0,1.004222 0.541385,0.271554 2.05034,0.271554 2.591724,0 0.541384,-0.271553 0.541384,-0.732668 0,-1.004222 -0.541384,-0.271553 -2.050339,-0.271553 -2.591724,0 z"
       style="opacity:1;fill:url(#linearGradient4616);fill-opacity:1;stroke:none;stroke-width:65.58494568;stroke-linecap:butt;stroke-linejoin:round;stroke-miterlimit:4;stroke-dasharray:none;stroke-dashoffset:220;stroke-opacity:1;paint-order:stroke fill markers"
       clip-path="url(#clipPath4626)" />
    <path
       transform="matrix(0.41102476,0.11543607,-0.11543607,0.41102476,400.41008,546.43687)"
       sodipodi:nodetypes="zzzzz"
       inkscape:connector-curvature="0"
       id="path4618"
       d="m 58.181933,33.992051 c -0.643307,0.322678 -0.643307,0.870605 0,1.193282 0.643308,0.322678 2.436346,0.322678 3.079654,0 0.643307,-0.322677 0.643307,-0.870604 0,-1.193282 -0.643308,-0.322677 -2.436346,-0.322677 -3.079654,0 z"
       style="opacity:1;fill:#000000;fill-opacity:1;stroke:none;stroke-width:65.58494568;stroke-linecap:butt;stroke-linejoin:round;stroke-miterlimit:4;stroke-dasharray:none;stroke-dashoffset:220;stroke-opacity:1;paint-order:stroke fill markers"
       clip-path="url(#clipPath4638)" />
    <path
       id="path4642"
       d="m 420.29026,566.12557 c -0.52624,-0.1478 -1.08461,-0.1654 -1.62694,-0.0602 0.81664,0.7426 1.96268,1.06433 3.04656,0.85562 -0.40814,-0.37209 -0.89338,-0.64758 -1.41962,-0.79537 z"
       style="opacity:1;fill:#050505;fill-opacity:1;stroke:none;stroke-width:27.99999809;stroke-linecap:butt;stroke-linejoin:round;stroke-miterlimit:4;stroke-dasharray:none;stroke-dashoffset:220;stroke-opacity:1;paint-order:stroke fill markers"
       inkscape:connector-curvature="0" />
    <path
       transform="matrix(0.41102476,0.11543607,-0.11543607,0.41102476,400.41008,546.43687)"
       sodipodi:nodetypes="csscc"
       inkscape:connector-curvature="0"
       id="path4648"
       d="m 54.097656,32.503906 c -0.0043,1.923362 0.301099,3.851454 0.921875,4.867188 1.23307,2.017587 3.327477,2.017587 4.560547,0 0.620777,-1.015734 0.926146,-2.943826 0.921875,-4.867188 -2.034714,0.847358 -4.369697,0.847824 -6.404297,0 z"
       style="opacity:1;fill:url(#linearGradient4662);fill-opacity:1;stroke:none;stroke-width:65.58494568;stroke-linecap:butt;stroke-linejoin:round;stroke-miterlimit:4;stroke-dasharray:none;stroke-dashoffset:220;stroke-opacity:1;paint-order:stroke fill markers"
       clip-path="url(#clipPath4650)" />
    <circle
       transform="rotate(15.687367)"
       r="0.070777059"
       cy="428.79074"
       cx="560.67468"
       id="circle4543"
       style="opacity:1;fill:#424242;fill-opacity:1;stroke:none;stroke-width:27.99999809;stroke-linecap:butt;stroke-linejoin:round;stroke-miterlimit:4;stroke-dasharray:none;stroke-dashoffset:220;stroke-opacity:1;paint-order:stroke fill markers" />
    <circle
       transform="rotate(15.687367)"
       style="opacity:1;fill:#424242;fill-opacity:1;stroke:none;stroke-width:27.99999809;stroke-linecap:butt;stroke-linejoin:round;stroke-miterlimit:4;stroke-dasharray:none;stroke-dashoffset:220;stroke-opacity:1;paint-order:stroke fill markers"
       id="circle4549"
       cx="555.13129"
       cy="430.35168"
       r="0.070777059" />
  </g>
</svg>
