<?xml version="1.0" encoding="UTF-8" standalone="no"?>
<!-- Created with Inkscape (http://www.inkscape.org/) -->

<svg
   version="1.1"
   id="svg290654"
   width="800"
   height="800"
   viewBox="0 0 800 800"
   sodipodi:docname="sunny-weather-landscape-pdv.svg"
   inkscape:version="1.2 (dc2aedaf03, 2022-05-15)"
   xmlns:inkscape="http://www.inkscape.org/namespaces/inkscape"
   xmlns:sodipodi="http://sodipodi.sourceforge.net/DTD/sodipodi-0.dtd"
   xmlns="http://www.w3.org/2000/svg"
   xmlns:svg="http://www.w3.org/2000/svg">
  <defs
     id="defs290658">
    <clipPath
       clipPathUnits="userSpaceOnUse"
       id="clipPath290672">
      <path
         d="M 0,600 H 600 V 0 H 0 Z"
         id="path290670" />
    </clipPath>
  </defs>
  <sodipodi:namedview
     id="namedview290656"
     pagecolor="#ffffff"
     bordercolor="#000000"
     borderopacity="0.25"
     inkscape:showpageshadow="2"
     inkscape:pageopacity="0.0"
     inkscape:pagecheckerboard="0"
     inkscape:deskcolor="#d1d1d1"
     showgrid="false"
     inkscape:zoom="1.04625"
     inkscape:cx="400"
     inkscape:cy="400.4779"
     inkscape:window-width="1920"
     inkscape:window-height="1017"
     inkscape:window-x="-8"
     inkscape:window-y="-8"
     inkscape:window-maximized="1"
     inkscape:current-layer="g290662">
    <inkscape:page
       x="0"
       y="0"
       id="page290660"
       width="800"
       height="800" />
  </sodipodi:namedview>
  <g
     id="g290662"
     inkscape:groupmode="layer"
     inkscape:label="Page 1"
     transform="matrix(1.3333333,0,0,-1.3333333,0,800)">
    <path
       d="M 0.778,0 H 600.001 V 600 H 0.778 Z"
       style="fill:#a4d0fc;fill-opacity:1;fill-rule:nonzero;stroke:none"
       id="path290664" />
    <g
       id="g290666">
      <g
         id="g290668"
         clip-path="url(#clipPath290672)">
        <g
           id="g290674"
           transform="translate(457.0088,158.8457)">
          <path
             d="M 0,0 1.256,-49.505 H -27.116 L -25.862,0 c -44.725,6.304 -78.789,44.761 -78.789,90.813 0,50.653 41.066,91.721 91.72,91.721 50.654,0 91.722,-41.068 91.722,-91.721 C 78.791,44.761 44.725,6.304 0,0"
             style="fill:#97bee8;fill-opacity:1;fill-rule:evenodd;stroke:none"
             id="path290676" />
        </g>
        <g
           id="g290678"
           transform="translate(452.4375,162.8047)">
          <path
             d="M 0,0 1.243,-48.994 H -17.961 L -16.719,0 c -44.471,4.223 -78.892,41.703 -78.892,86.854 0,48.185 39.065,87.251 87.252,87.251 48.186,0 87.252,-39.066 87.252,-87.251 C 78.893,41.703 44.472,4.223 0,0"
             style="fill:#8b9fb5;fill-opacity:1;fill-rule:evenodd;stroke:none"
             id="path290680" />
        </g>
        <g
           id="g290682"
           transform="translate(316.0938,164.7666)">
          <path
             d="M 0,0 1.439,-56.73 H -31.073 L -29.634,0 c -51.252,7.222 -90.289,51.293 -90.289,104.064 0,58.046 47.061,105.107 105.106,105.107 C 43.229,209.171 90.29,162.11 90.29,104.064 90.29,51.293 51.253,7.222 0,0"
             style="fill:#97bee8;fill-opacity:1;fill-rule:evenodd;stroke:none"
             id="path290684" />
        </g>
        <g
           id="g290686"
           transform="translate(392.9121,320.3335)">
          <path
             d="m 0,0 c 8.573,-15.222 13.472,-32.789 13.472,-51.502 0,-28.691 -11.542,-54.805 -30.309,-73.83 -12.055,14.988 -19.249,34.021 -19.249,54.658 0,29.071 14.224,54.817 36.086,70.674"
             style="fill:#8091a3;fill-opacity:1;fill-rule:evenodd;stroke:none"
             id="path290688" />
        </g>
        <g
           id="g290690"
           transform="translate(310.8564,169.3047)">
          <path
             d="M 0,0 1.424,-56.145 H -20.582 L -19.158,0 c -50.961,4.837 -90.407,47.788 -90.407,99.526 0,55.219 44.767,99.986 99.985,99.986 55.219,0 99.985,-44.767 99.985,-99.986 C 90.405,47.788 50.961,4.837 0,0"
             style="fill:#8b9fb5;fill-opacity:1;fill-rule:evenodd;stroke:none"
             id="path290692" />
        </g>
        <g
           id="g290694"
           transform="translate(388.8125,317.1738)">
          <path
             d="m 0,0 c 7.929,-14.328 12.449,-30.807 12.449,-48.343 0,-27.024 -10.766,-51.649 -28.31,-69.699 -10.162,14.286 -16.125,31.742 -16.125,50.527 0,27.212 12.461,51.514 31.986,67.515"
             style="fill:#728396;fill-opacity:1;fill-rule:evenodd;stroke:none"
             id="path290696" />
        </g>
        <g
           id="g290698"
           transform="translate(171.4063,158.8457)">
          <path
             d="M 0,0 1.256,-49.505 H -27.118 L -25.862,0 c -44.725,6.304 -78.789,44.761 -78.789,90.813 0,50.653 41.068,91.721 91.72,91.721 50.652,0 91.721,-41.068 91.721,-91.721 C 78.79,44.761 44.725,6.304 0,0"
             style="fill:#97bee8;fill-opacity:1;fill-rule:evenodd;stroke:none"
             id="path290700" />
        </g>
        <g
           id="g290702"
           transform="translate(216.0181,321.0786)">
          <path
             d="m 0,0 c 20.841,-16.815 34.178,-42.559 34.178,-71.419 0,-20.005 -6.43,-38.575 -17.368,-53.701 -19.441,18.282 -31.537,44.228 -31.537,72.872 0,19.151 5.39,37.041 14.727,52.248"
             style="fill:#8091a3;fill-opacity:1;fill-rule:evenodd;stroke:none"
             id="path290704" />
        </g>
        <g
           id="g290706"
           transform="translate(166.8345,162.8047)">
          <path
             d="M 0,0 1.244,-48.994 H -17.962 L -16.718,0 c -44.471,4.223 -78.894,41.703 -78.894,86.854 0,48.185 39.066,87.251 87.253,87.251 48.186,0 87.252,-39.066 87.252,-87.251 C 78.893,41.703 44.47,4.223 0,0"
             style="fill:#8b9fb5;fill-opacity:1;fill-rule:evenodd;stroke:none"
             id="path290708" />
        </g>
        <g
           id="g290710"
           transform="translate(213.7422,317.1738)">
          <path
             d="m 0,0 c 19.525,-16.001 31.986,-40.303 31.986,-67.515 0,-18.785 -5.964,-36.239 -16.126,-50.527 -17.544,18.05 -28.311,42.675 -28.311,69.699 0,17.536 4.52,34.013 12.451,48.343"
             style="fill:#728396;fill-opacity:1;fill-rule:evenodd;stroke:none"
             id="path290712" />
        </g>
        <g
           id="g290714"
           transform="translate(158.4766,166.876)">
          <path
             d="m 0,0 c 45.594,0 82.782,37.188 82.782,82.783 0,45.596 -37.188,82.783 -82.782,82.783 -45.597,0 -82.785,-37.187 -82.785,-82.783 C -82.785,37.188 -45.597,0 0,0"
             style="fill:#d0f211;fill-opacity:1;fill-rule:evenodd;stroke:none"
             id="path290716" />
        </g>
        <g
           id="g290718"
           transform="translate(207.5093,316.3574)">
          <path
             d="m 0,0 c 20.465,-15.072 33.749,-39.333 33.749,-66.698 0,-19.416 -6.685,-37.267 -17.877,-51.384 -16.931,18.693 -27.21,43.479 -27.21,70.556 0,17.104 4.088,33.252 11.338,47.526"
             style="fill:#caed05;fill-opacity:1;fill-rule:evenodd;stroke:none"
             id="path290720" />
        </g>
        <g
           id="g290722"
           transform="translate(211.6216,313.1235)">
          <path
             d="m 0,0 c 18.116,-15.185 29.637,-37.977 29.637,-63.464 0,-17.538 -5.458,-33.798 -14.761,-47.185 -15.699,17.693 -25.207,40.964 -25.207,66.357 0,15.906 3.722,30.942 10.331,44.292"
             style="fill:#bdde04;fill-opacity:1;fill-rule:evenodd;stroke:none"
             id="path290724" />
        </g>
        <g
           id="g290726"
           transform="translate(192.8105,269.7539)">
          <path
             d="m 0,0 -32.21,-37.357 -1.84,1.479 -1.685,1.743 18.256,16.627 z"
             style="fill:#a12800;fill-opacity:1;fill-rule:evenodd;stroke:none"
             id="path290728" />
        </g>
        <g
           id="g290730"
           transform="translate(192.8105,269.7539)">
          <path
             d="m 0,0 -34.05,-35.878 -1.685,1.743 z"
             style="fill:#cc3300;fill-opacity:1;fill-rule:evenodd;stroke:none"
             id="path290732" />
        </g>
        <g
           id="g290734"
           transform="translate(120.8521,250.6738)">
          <path
             d="m 0,0 36.163,-41.938 2.062,1.661 1.894,1.959 -20.495,18.664 z"
             style="fill:#a12800;fill-opacity:1;fill-rule:evenodd;stroke:none"
             id="path290736" />
        </g>
        <g
           id="g290738"
           transform="translate(120.8521,250.6738)">
          <path
             d="m 0,0 38.225,-40.277 1.894,1.959 z"
             style="fill:#cc3300;fill-opacity:1;fill-rule:evenodd;stroke:none"
             id="path290740" />
        </g>
        <g
           id="g290742"
           transform="translate(204.1152,228.1885)">
          <path
             d="m 0,0 -44.442,-51.541 -2.536,2.04 -2.327,2.406 25.188,22.941 z"
             style="fill:#a12800;fill-opacity:1;fill-rule:evenodd;stroke:none"
             id="path290744" />
        </g>
        <g
           id="g290746"
           transform="translate(204.1152,228.1885)">
          <path
             d="m 0,0 -46.978,-49.501 -2.327,2.406 z"
             style="fill:#cc3300;fill-opacity:1;fill-rule:evenodd;stroke:none"
             id="path290748" />
        </g>
        <g
           id="g290750"
           transform="translate(132.8467,282.7236)">
          <path
             d="m 0,0 24.334,-28.22 1.388,1.119 1.274,1.318 -13.79,12.56 z"
             style="fill:#a12800;fill-opacity:1;fill-rule:evenodd;stroke:none"
             id="path290752" />
        </g>
        <g
           id="g290754"
           transform="translate(132.8467,282.7236)">
          <path
             d="m 0,0 25.722,-27.101 1.274,1.318 z"
             style="fill:#cc3300;fill-opacity:1;fill-rule:evenodd;stroke:none"
             id="path290756" />
        </g>
        <g
           id="g290758"
           transform="translate(158.4751,316.1309)">
          <path
             d="m 0,0 2.51,-98.925 2.509,-98.927 H 0 -5.019 l 2.509,98.927 z"
             style="fill:#a12800;fill-opacity:1;fill-rule:evenodd;stroke:none"
             id="path290760" />
        </g>
        <g
           id="g290762"
           transform="translate(158.4751,316.1309)">
          <path
             d="M 0,0 V -197.852 H -5.019 Z"
             style="fill:#cc3300;fill-opacity:1;fill-rule:evenodd;stroke:none"
             id="path290764" />
        </g>
        <g
           id="g290766"
           transform="translate(444.0781,166.876)">
          <path
             d="m 0,0 c 45.596,0 82.783,37.188 82.783,82.783 0,45.596 -37.187,82.783 -82.783,82.783 -45.596,0 -82.783,-37.187 -82.783,-82.783 C -82.783,37.188 -45.596,0 0,0"
             style="fill:#d0f211;fill-opacity:1;fill-rule:evenodd;stroke:none"
             id="path290768" />
        </g>
        <g
           id="g290770"
           transform="translate(379.1719,198.2754)">
          <path
             d="m 0,0 c -11.191,14.117 -17.877,31.968 -17.877,51.384 0,27.365 13.283,51.626 33.75,66.698 C 23.122,103.808 27.212,87.66 27.212,70.556 27.212,43.479 16.931,18.693 0,0"
             style="fill:#caed05;fill-opacity:1;fill-rule:evenodd;stroke:none"
             id="path290772" />
        </g>
        <g
           id="g290774"
           transform="translate(376.0566,202.4746)">
          <path
             d="m 0,0 c -9.304,13.387 -14.762,29.646 -14.762,47.185 0,25.487 11.522,48.279 29.637,63.465 C 21.483,97.299 25.205,82.263 25.205,66.356 25.205,40.964 15.701,17.693 0,0"
             style="fill:#bdde04;fill-opacity:1;fill-rule:evenodd;stroke:none"
             id="path290776" />
        </g>
        <g
           id="g290778"
           transform="translate(478.415,269.7539)">
          <path
             d="m 0,0 -32.212,-37.357 -1.84,1.479 -1.685,1.743 18.256,16.627 z"
             style="fill:#a12800;fill-opacity:1;fill-rule:evenodd;stroke:none"
             id="path290780" />
        </g>
        <g
           id="g290782"
           transform="translate(478.415,269.7539)">
          <path
             d="m 0,0 -34.052,-35.878 -1.685,1.743 z"
             style="fill:#cc3300;fill-opacity:1;fill-rule:evenodd;stroke:none"
             id="path290784" />
        </g>
        <g
           id="g290786"
           transform="translate(406.4551,250.6738)">
          <path
             d="m 0,0 36.162,-41.938 2.065,1.661 1.891,1.959 -20.494,18.664 z"
             style="fill:#a12800;fill-opacity:1;fill-rule:evenodd;stroke:none"
             id="path290788" />
        </g>
        <g
           id="g290790"
           transform="translate(406.4551,250.6738)">
          <path
             d="m 0,0 38.227,-40.277 1.891,1.957 z"
             style="fill:#cc3300;fill-opacity:1;fill-rule:evenodd;stroke:none"
             id="path290792" />
        </g>
        <g
           id="g290794"
           transform="translate(489.7188,228.1885)">
          <path
             d="m 0,0 -44.443,-51.541 -2.536,2.04 -2.327,2.406 25.188,22.941 z"
             style="fill:#a12800;fill-opacity:1;fill-rule:evenodd;stroke:none"
             id="path290796" />
        </g>
        <g
           id="g290798"
           transform="translate(489.7188,228.1885)">
          <path
             d="m 0,0 -46.979,-49.501 -2.327,2.406 z"
             style="fill:#cc3300;fill-opacity:1;fill-rule:evenodd;stroke:none"
             id="path290800" />
        </g>
        <g
           id="g290802"
           transform="translate(418.4502,282.7236)">
          <path
             d="m 0,0 24.333,-28.22 1.389,1.119 1.273,1.318 -13.79,12.56 z"
             style="fill:#a12800;fill-opacity:1;fill-rule:evenodd;stroke:none"
             id="path290804" />
        </g>
        <g
           id="g290806"
           transform="translate(418.4502,282.7236)">
          <path
             d="m 0,0 25.722,-27.101 1.273,1.318 z"
             style="fill:#cc3300;fill-opacity:1;fill-rule:evenodd;stroke:none"
             id="path290808" />
        </g>
        <g
           id="g290810"
           transform="translate(444.0781,316.1309)">
          <path
             d="m 0,0 2.51,-98.925 2.509,-98.927 H 0 -5.018 l 2.509,98.927 z"
             style="fill:#a12800;fill-opacity:1;fill-rule:evenodd;stroke:none"
             id="path290812" />
        </g>
        <g
           id="g290814"
           transform="translate(444.0781,316.1309)">
          <path
             d="M 0,0 V -197.852 H -5.018 Z"
             style="fill:#cc3300;fill-opacity:1;fill-rule:evenodd;stroke:none"
             id="path290816" />
        </g>
        <g
           id="g290818"
           transform="translate(301.2783,173.9668)">
          <path
             d="m 0,0 c 52.248,0 94.862,42.614 94.862,94.864 0,52.249 -42.614,94.864 -94.862,94.864 -52.251,0 -94.864,-42.615 -94.864,-94.864 C -94.864,42.614 -52.251,0 0,0"
             style="fill:#e0ff30;fill-opacity:1;fill-rule:evenodd;stroke:none"
             id="path290820" />
        </g>
        <g
           id="g290822"
           transform="translate(340.624,291.8594)">
          <path
             d="m 0,0 -36.913,-42.81 -2.108,1.696 -1.931,1.999 20.92,19.053 z"
             style="fill:#a12800;fill-opacity:1;fill-rule:evenodd;stroke:none"
             id="path290824" />
        </g>
        <g
           id="g290826"
           transform="translate(340.624,291.8594)">
          <path
             d="m 0,0 -39.021,-41.114 -1.931,1.999 z"
             style="fill:#cc3300;fill-opacity:1;fill-rule:evenodd;stroke:none"
             id="path290828" />
        </g>
        <g
           id="g290830"
           transform="translate(258.1641,269.9951)">
          <path
             d="m 0,0 41.439,-48.059 2.365,1.905 2.169,2.241 -23.485,21.392 z"
             style="fill:#a12800;fill-opacity:1;fill-rule:evenodd;stroke:none"
             id="path290832" />
        </g>
        <g
           id="g290834"
           transform="translate(258.1641,269.9951)">
          <path
             d="m 0,0 43.804,-46.154 2.169,2.241 z"
             style="fill:#cc3300;fill-opacity:1;fill-rule:evenodd;stroke:none"
             id="path290836" />
        </g>
        <g
           id="g290838"
           transform="translate(353.5781,244.2295)">
          <path
             d="m 0,0 -50.929,-59.064 -2.906,2.339 -2.666,2.756 28.863,26.288 z"
             style="fill:#a12800;fill-opacity:1;fill-rule:evenodd;stroke:none"
             id="path290840" />
        </g>
        <g
           id="g290842"
           transform="translate(353.5781,244.2295)">
          <path
             d="m 0,0 -53.835,-56.725 -2.666,2.756 z"
             style="fill:#cc3300;fill-opacity:1;fill-rule:evenodd;stroke:none"
             id="path290844" />
        </g>
        <g
           id="g290846"
           transform="translate(271.9092,306.7236)">
          <path
             d="m 0,0 27.884,-32.339 1.592,1.281 1.459,1.51 -15.803,14.393 z"
             style="fill:#a12800;fill-opacity:1;fill-rule:evenodd;stroke:none"
             id="path290848" />
        </g>
        <g
           id="g290850"
           transform="translate(271.9092,306.7236)">
          <path
             d="m 0,0 29.476,-31.058 1.459,1.51 z"
             style="fill:#cc3300;fill-opacity:1;fill-rule:evenodd;stroke:none"
             id="path290852" />
        </g>
        <g
           id="g290854"
           transform="translate(301.2764,345.0054)">
          <path
             d="M 0,0 2.877,-113.364 5.751,-226.726 H 0 -5.749 l 2.874,113.362 z"
             style="fill:#a12800;fill-opacity:1;fill-rule:evenodd;stroke:none"
             id="path290856" />
        </g>
        <g
           id="g290858"
           transform="translate(301.2764,345.0054)">
          <path
             d="M 0,0 V -226.726 H -5.749 Z"
             style="fill:#cc3300;fill-opacity:1;fill-rule:evenodd;stroke:none"
             id="path290860" />
        </g>
        <g
           id="g290862"
           transform="translate(85.9683,390.7329)">
          <path
             d="m 0,0 c -7.303,0.345 -14.238,2.908 -19.951,7.265 -4.498,-3.719 -10.214,-5.846 -16.253,-5.846 -14.087,0 -25.509,11.423 -25.509,25.51 0,14.086 11.422,25.509 25.509,25.509 2.032,0 4.042,-0.242 5.991,-0.712 4.05,8.04 11.04,14.323 19.544,17.461 2.357,13.012 13.211,23.068 26.606,24.211 6.198,10.62 17.643,17.345 30.216,17.345 19.319,0 34.984,-15.666 34.984,-34.984 0,-1.569 -0.105,-3.134 -0.313,-4.682 17.328,-4.088 30.195,-19.758 30.195,-38.319 0,-21.345 -17.001,-38.727 -38.198,-39.339 -5.445,-5.567 -12.919,-8.763 -20.837,-8.763 -6.349,0 -12.422,2.054 -17.394,5.756 C 30.781,-11.9 26.376,-13.159 21.811,-13.159 12.504,-13.159 4.183,-7.939 0,0"
             style="fill:#97bee8;fill-opacity:1;fill-rule:evenodd;stroke:none"
             id="path290864" />
        </g>
        <g
           id="g290866"
           transform="translate(54.9868,439.271)">
          <path
             d="m 0,0 c -1.71,0.413 -3.466,0.619 -5.223,0.619 -12.276,0 -22.229,-9.954 -22.229,-22.228 0,-12.278 9.953,-22.229 22.229,-22.229 5.177,0 10.179,1.797 14.164,5.093 l 2.008,1.661 2.072,-1.581 c 5.23,-3.99 11.539,-6.286 18.114,-6.596 l 1.873,-0.088 0.874,-1.658 c 3.691,-7.006 10.98,-11.408 18.911,-11.408 3.909,0 7.735,1.065 11.076,3.091 l 1.889,1.147 1.771,-1.319 c 4.467,-3.324 9.87,-5.107 15.436,-5.107 6.971,0 13.621,2.796 18.493,7.777 l 0.924,0.947 1.326,0.039 c 19.493,0.564 35.012,16.557 35.012,36.06 0,16.645 -11.435,31.298 -27.666,35.127 l -2.894,0.683 0.396,2.946 c 0.189,1.406 0.283,2.827 0.283,4.245 0,17.508 -14.196,31.704 -31.704,31.704 -11.275,0 -21.706,-5.991 -27.384,-15.717 L 48.893,41.737 47.196,41.593 C 35.384,40.583 25.651,31.722 23.542,20.064 L 23.207,18.219 21.45,17.571 C 13.751,14.731 7.388,9.037 3.697,1.714 l -1.17,-2.323 z"
             style="fill:#8b9fb5;fill-opacity:1;fill-rule:evenodd;stroke:none"
             id="path290868" />
        </g>
        <g
           id="g290870"
           transform="translate(157.6304,455.5596)">
          <path
             d="m 0,0 c 17.71,0 32.068,-14.357 32.068,-32.069 0,-17.71 -14.358,-32.068 -32.068,-32.068 -0.717,0 -1.428,0.025 -2.133,0.07 -3.985,-5.349 -10.36,-8.816 -17.545,-8.816 -6.896,0 -13.046,3.193 -17.053,8.182 -3.183,-3.672 -7.881,-5.995 -13.12,-5.995 -8.189,0 -15.052,5.673 -16.879,13.301 -1.064,-0.121 -2.143,-0.183 -3.237,-0.183 -8.936,0 -16.906,4.125 -22.116,10.571 -3.15,-5.448 -9.038,-9.113 -15.783,-9.113 -10.064,0 -18.222,8.159 -18.222,18.222 0,10.062 8.158,18.219 18.222,18.219 3.774,0 7.281,-1.147 10.189,-3.114 2.484,10.862 11.188,19.353 22.164,21.524 0,0.106 -0.003,0.211 -0.003,0.316 0,12.341 10.004,22.345 22.344,22.345 0.667,0 1.325,-0.029 1.977,-0.087 4.107,10.156 14.058,17.323 25.686,17.323 15.296,0 27.695,-12.399 27.695,-27.695 C 2.186,7.05 1.385,3.353 -0.057,0 Z"
             style="fill:#ffffff;fill-opacity:1;fill-rule:evenodd;stroke:none"
             id="path290872" />
        </g>
        <g
           id="g290874"
           transform="translate(462.502,460.332)">
          <path
             d="m 0,0 c 4.463,9.409 11.833,17.201 20.999,22.185 0.703,13.053 11.515,23.425 24.743,23.425 13.685,0 24.781,-11.097 24.781,-24.779 0,-0.052 0,-0.102 -10e-4,-0.153 9.943,-6.215 17.391,-15.814 20.904,-27.028 10.38,-3.862 17.547,-13.859 17.547,-25.276 0,-14.891 -12.078,-26.968 -26.967,-26.968 -1.736,0 -3.461,0.167 -5.156,0.495 -7.811,-6.836 -17.546,-11.009 -27.886,-11.951 -3.231,-9.067 -11.898,-15.51 -22.001,-15.51 -8.546,0 -16.113,4.624 -20.185,11.601 -4.025,-1.404 -8.276,-2.126 -12.596,-2.126 -8.928,0 -17.452,3.092 -24.236,8.651 -3.638,-1.842 -7.683,-2.82 -11.842,-2.82 -14.488,0 -26.237,11.749 -26.237,26.238 0,14.488 11.749,26.237 26.237,26.237 1.121,0 2.239,-0.07 3.344,-0.211 6.847,11.295 19.188,18.432 32.734,18.432 C -3.865,0.442 -1.921,0.294 0,0"
             style="fill:#97bee8;fill-opacity:1;fill-rule:evenodd;stroke:none"
             id="path290876" />
        </g>
        <g
           id="g290878"
           transform="translate(511.168,393.5488)">
          <path
             d="m 0,0 c 9.648,0.878 18.732,4.772 26.023,11.152 l 1.207,1.058 1.578,-0.306 c 1.492,-0.289 3.01,-0.434 4.532,-0.434 13.08,0 23.685,10.607 23.685,23.687 0,9.881 -6.158,18.76 -15.41,22.201 l -1.506,0.561 -0.481,1.533 C 36.355,69.908 29.404,78.874 20.118,84.681 l -1.554,0.97 0.012,1.832 v 0.131 c 0,11.872 -9.627,21.5 -21.5,21.5 -11.409,0 -20.854,-8.932 -21.468,-20.322 l -0.099,-1.83 -1.609,-0.876 C -34.648,81.439 -41.534,74.167 -45.703,65.378 l -1.046,-2.207 -2.413,0.369 c -1.761,0.27 -3.541,0.406 -5.322,0.406 -12.239,0 -23.593,-6.399 -29.927,-16.853 l -1.106,-1.823 -2.116,0.269 c -0.971,0.124 -1.949,0.186 -2.929,0.186 -12.677,0 -22.958,-10.281 -22.958,-22.958 0,-12.678 10.281,-22.958 22.958,-22.958 3.602,0 7.148,0.84 10.361,2.465 l 1.907,0.968 1.653,-1.355 c 6.256,-5.127 14.063,-7.908 22.157,-7.908 3.919,0 7.815,0.65 11.516,1.941 l 2.552,0.89 1.361,-2.334 c 3.602,-6.171 10.203,-9.972 17.352,-9.972 8.486,0 16.068,5.353 18.91,13.329 l 0.705,1.976 z"
             style="fill:#8b9fb5;fill-opacity:1;fill-rule:evenodd;stroke:none"
             id="path290880" />
        </g>
        <g
           id="g290882"
           transform="translate(456.6836,453.4858)">
          <path
             d="m 0,0 c 3.6,0 7.054,-0.617 10.268,-1.745 3.714,11.937 12.622,21.583 24.079,26.3 -0.182,1.013 -0.278,2.056 -0.278,3.122 0,9.66 7.831,17.491 17.491,17.491 9.662,0 17.493,-7.831 17.493,-17.491 0,-1.435 -0.174,-2.828 -0.499,-4.162 11.445,-5.552 19.982,-16.158 22.713,-28.918 9.225,-1.627 16.236,-9.683 16.236,-19.377 0,-10.869 -8.811,-19.678 -19.679,-19.678 -2.534,0 -4.957,0.478 -7.181,1.351 -7.634,-8.017 -18.41,-13.011 -30.354,-13.011 -0.489,0 -0.978,0.008 -1.464,0.024 -0.381,-8.532 -7.418,-15.331 -16.044,-15.331 -8.317,0 -15.16,6.322 -15.98,14.425 -4.84,-3.132 -10.607,-4.95 -16.801,-4.95 -9.348,0 -17.729,4.14 -23.409,10.689 -3.357,-3.02 -7.797,-4.857 -12.668,-4.857 -10.465,0 -18.95,8.483 -18.95,18.948 0,10.465 8.485,18.949 18.95,18.949 2.564,0 5.007,-0.51 7.236,-1.432 C -24.318,-8.146 -13.111,0 0,0"
             style="fill:#ffffff;fill-opacity:1;fill-rule:evenodd;stroke:none"
             id="path290884" />
        </g>
        <g
           id="g290886"
           transform="translate(262.9541,520.3271)">
          <path
             d="m 0,0 c 0.986,-1.873 1.559,-3.944 1.675,-6.058 1.353,1.566 2.819,3.032 4.382,4.383 C 3.944,-1.558 1.874,-0.985 0,0 m 67.49,-67.489 c -0.986,1.874 -1.558,3.945 -1.675,6.058 -1.352,-1.565 -2.818,-3.03 -4.382,-4.383 2.113,-0.116 4.183,-0.69 6.057,-1.675 m -67.49,0 c 1.874,0.985 3.945,1.559 6.06,1.675 -1.566,1.353 -3.032,2.817 -4.385,4.381 C 1.559,-63.545 0.986,-65.615 0,-67.489 M 67.49,0 c -1.874,-0.985 -3.944,-1.558 -6.058,-1.673 1.565,-1.353 3.031,-2.819 4.383,-4.384 0.117,2.113 0.689,4.184 1.675,6.057 M 41.706,7.877 c 2.042,-0.388 4.034,-0.923 5.962,-1.594 -0.95,1.882 -1.487,3.953 -1.571,6.062 -1.125,-1.787 -2.626,-3.312 -4.391,-4.468 m -20.313,4.468 c -0.084,-2.109 -0.62,-4.18 -1.569,-6.062 1.927,0.671 3.918,1.206 5.961,1.594 -1.765,1.156 -3.266,2.681 -4.392,4.468 m 4.392,-87.711 c -2.043,0.389 -4.034,0.923 -5.962,1.594 0.95,-1.881 1.486,-3.953 1.57,-6.06 1.126,1.786 2.627,3.312 4.392,4.466 m 20.312,-4.466 c 0.084,2.107 0.621,4.179 1.57,6.06 -1.927,-0.671 -3.919,-1.205 -5.961,-1.594 1.765,-1.154 3.266,-2.681 4.391,-4.466 m -53.974,54.048 c 0.39,2.043 0.923,4.035 1.594,5.963 -1.881,-0.95 -3.953,-1.488 -6.06,-1.571 1.786,-1.125 3.312,-2.628 4.466,-4.392 m -4.466,-20.313 c 2.107,-0.083 4.179,-0.62 6.06,-1.569 -0.671,1.928 -1.204,3.919 -1.593,5.962 -1.155,-1.765 -2.681,-3.266 -4.467,-4.393 m 87.71,4.393 c -0.389,-2.043 -0.924,-4.034 -1.594,-5.962 1.881,0.949 3.954,1.486 6.061,1.569 -1.786,1.127 -3.312,2.628 -4.467,4.393 m 4.467,20.312 c -2.107,0.083 -4.18,0.621 -6.061,1.569 0.67,-1.926 1.205,-3.918 1.593,-5.961 1.156,1.764 2.682,3.267 4.468,4.392 m 8.363,2.238 h 26.489 c 8.038,0 14.59,-6.553 14.59,-14.59 0,-8.037 -6.552,-14.591 -14.59,-14.591 H 88.197 l 22.941,-13.243 c 6.95,-4.014 9.353,-12.981 5.339,-19.932 -4.012,-6.951 -12.979,-9.352 -19.93,-5.34 l -22.941,13.244 13.246,-22.939 c 4.013,-6.951 1.609,-15.918 -5.342,-19.931 -6.95,-4.014 -15.918,-1.611 -19.93,5.34 l -13.245,22.939 v -26.488 c 0,-8.038 -6.553,-14.591 -14.589,-14.591 -8.038,0 -14.591,6.553 -14.591,14.591 v 26.488 L 5.911,-111.136 c -4.014,-6.951 -12.981,-9.354 -19.932,-5.34 -6.951,4.013 -9.352,12.98 -5.339,19.931 l 13.243,22.939 -22.939,-13.244 c -6.95,-4.014 -15.918,-1.611 -19.931,5.341 -4.012,6.95 -1.611,15.917 5.34,19.931 l 22.939,13.243 h -26.487 c -8.038,0 -14.592,6.554 -14.592,14.591 0,8.037 6.554,14.59 14.592,14.59 h 26.487 L -43.647,-5.91 c -6.951,4.013 -9.354,12.981 -5.34,19.932 4.013,6.95 12.981,9.353 19.931,5.34 L -6.117,6.117 -19.36,29.058 c -4.015,6.949 -1.611,15.917 5.34,19.93 6.95,4.014 15.917,1.61 19.931,-5.34 l 13.244,-22.94 v 26.489 c 0,8.037 6.553,14.59 14.591,14.59 8.036,0 14.589,-6.553 14.589,-14.59 V 20.708 l 13.245,22.94 c 4.012,6.95 12.98,9.354 19.932,5.34 6.949,-4.012 9.351,-12.981 5.34,-19.93 L 73.606,6.117 96.547,19.362 c 6.951,4.013 15.918,1.61 19.93,-5.341 4.013,-6.95 1.611,-15.918 -5.339,-19.931 z"
             style="fill:#97bee8;fill-opacity:1;fill-rule:evenodd;stroke:none"
             id="path290888" />
        </g>
        <g
           id="g290890"
           transform="translate(389.1143,486.583)">
          <path
             d="m 0,0 c 0,-6.316 -5.158,-11.474 -11.474,-11.474 h -27.1 c -6.318,0 -11.474,5.158 -11.474,11.474 0,6.317 5.156,11.473 11.474,11.473 h 27.1 C -5.158,11.473 0,6.317 0,0 m -184.829,0 c 0,6.317 5.158,11.473 11.474,11.473 h 27.1 c 6.315,0 11.473,-5.156 11.473,-11.473 0,-6.316 -5.158,-11.474 -11.473,-11.474 h -27.1 c -6.316,0 -11.474,5.158 -11.474,11.474 m 92.414,-92.414 c -6.317,0 -11.474,5.156 -11.474,11.473 v 27.1 c 0,6.316 5.157,11.474 11.474,11.474 6.316,0 11.474,-5.158 11.474,-11.474 v -27.1 c 0,-6.317 -5.158,-11.473 -11.474,-11.473 m 0,184.829 c 6.316,0 11.474,-5.158 11.474,-11.474 V 53.84 c 0,-6.316 -5.158,-11.473 -11.474,-11.473 -6.317,0 -11.474,5.157 -11.474,11.473 v 27.101 c 0,6.316 5.157,11.474 11.474,11.474 m 80.033,-46.207 c -3.154,5.462 -10.21,7.352 -15.673,4.198 l -23.47,-13.549 c -5.461,-3.155 -7.353,-10.211 -4.198,-15.673 3.153,-5.462 10.209,-7.354 15.671,-4.2 l 23.471,13.551 c 5.462,3.153 7.352,10.21 4.199,15.673 m -160.065,-92.415 c 3.153,-5.462 10.208,-7.354 15.672,-4.2 l 23.47,13.551 c 5.462,3.154 7.352,10.21 4.198,15.672 -3.153,5.463 -10.21,7.354 -15.671,4.199 l -23.47,-13.549 c -5.462,-3.153 -7.355,-10.211 -4.199,-15.673 m 126.239,-33.826 c 5.463,3.154 7.354,10.209 4.199,15.673 l -13.55,23.47 c -3.154,5.462 -10.21,7.352 -15.673,4.198 -5.461,-3.153 -7.353,-10.21 -4.198,-15.671 l 13.55,-23.47 c 3.152,-5.462 10.21,-7.355 15.672,-4.2 m -92.414,160.066 c -5.462,-3.154 -7.354,-10.21 -4.198,-15.672 l 13.549,-23.47 c 3.154,-5.463 10.21,-7.354 15.673,-4.2 5.462,3.154 7.354,10.21 4.198,15.673 l -13.549,23.469 c -3.153,5.463 -10.211,7.353 -15.673,4.2 m 92.414,0 c -5.462,3.153 -12.519,1.264 -15.672,-4.2 L -75.43,52.364 c -3.155,-5.463 -1.263,-12.519 4.198,-15.673 5.463,-3.154 12.519,-1.263 15.673,4.2 l 13.55,23.47 c 3.155,5.462 1.264,12.518 -4.199,15.672 m -92.414,-160.066 c 5.462,-3.155 12.518,-1.264 15.673,4.2 l 13.549,23.47 c 3.156,5.462 1.264,12.518 -4.198,15.671 -5.463,3.154 -12.52,1.264 -15.673,-4.198 l -13.549,-23.47 c -3.156,-5.463 -1.264,-12.519 4.198,-15.673 m 126.24,33.826 c 3.153,5.462 1.263,12.518 -4.199,15.673 l -23.471,13.549 c -5.462,3.155 -12.518,1.264 -15.671,-4.199 -3.155,-5.462 -1.263,-12.519 4.198,-15.672 l 23.47,-13.551 c 5.463,-3.154 12.519,-1.262 15.673,4.2 m -160.065,92.415 c -3.156,-5.463 -1.263,-12.52 4.199,-15.673 l 23.47,-13.551 c 5.462,-3.154 12.518,-1.262 15.671,4.2 3.154,5.462 1.264,12.518 -4.198,15.673 l -23.47,13.549 c -5.463,3.154 -12.519,1.264 -15.672,-4.198 m 80.032,-6.957 c 21.677,0 39.251,-17.574 39.251,-39.251 0,-21.677 -17.574,-39.252 -39.251,-39.252 -21.676,0 -39.252,17.575 -39.252,39.252 0,21.677 17.576,39.251 39.252,39.251"
             style="fill:#8b9fb5;fill-opacity:1;fill-rule:evenodd;stroke:none"
             id="path290892" />
        </g>
        <g
           id="g290894"
           transform="translate(385.9961,486.583)">
          <path
             d="m 0,0 v 0 c 0,-4.596 -3.759,-8.356 -8.355,-8.356 h -27.101 c -4.597,0 -8.355,3.76 -8.355,8.356 0,4.596 3.758,8.357 8.355,8.357 H -8.355 C -3.759,8.357 0,4.596 0,0 m -178.593,0 v 0 c 0,4.596 3.759,8.357 8.356,8.357 h 27.1 c 4.596,0 8.355,-3.761 8.355,-8.357 0,-4.596 -3.759,-8.356 -8.355,-8.356 h -27.1 c -4.597,0 -8.356,3.76 -8.356,8.356 m 89.297,-89.296 v 0 c -4.597,0 -8.357,3.759 -8.357,8.355 v 27.1 c 0,4.597 3.76,8.356 8.357,8.356 4.595,0 8.356,-3.759 8.356,-8.356 v -27.1 c 0,-4.596 -3.761,-8.355 -8.356,-8.355 m 0,178.593 v 0 c 4.595,0 8.356,-3.76 8.356,-8.356 V 53.84 c 0,-4.595 -3.761,-8.355 -8.356,-8.355 -4.597,0 -8.357,3.76 -8.357,8.355 v 27.101 c 0,4.596 3.76,8.356 8.357,8.356 m 77.332,-44.649 c -2.297,3.981 -7.433,5.356 -11.413,3.059 L -46.849,34.156 c -3.98,-2.298 -5.355,-7.434 -3.057,-11.415 2.298,-3.98 7.433,-5.355 11.414,-3.058 l 23.47,13.552 c 3.98,2.297 5.357,7.432 3.058,11.413 m -154.667,-89.296 c 2.298,-3.981 7.435,-5.357 11.415,-3.06 l 23.47,13.552 c 3.98,2.297 5.356,7.433 3.059,11.415 -2.298,3.979 -7.434,5.355 -11.414,3.057 l -23.472,-13.55 c -3.98,-2.299 -5.355,-7.434 -3.058,-11.414 m 121.983,-32.687 c 3.98,2.299 5.356,7.436 3.058,11.416 l -13.551,23.47 c -2.299,3.98 -7.433,5.356 -11.415,3.058 -3.979,-2.297 -5.355,-7.433 -3.056,-11.413 l 13.549,-23.472 c 2.298,-3.98 7.434,-5.356 11.415,-3.059 m -89.297,154.668 c -3.981,-2.298 -5.356,-7.433 -3.058,-11.414 l 13.55,-23.471 c 2.299,-3.98 7.433,-5.356 11.415,-3.058 3.979,2.298 5.355,7.435 3.058,11.415 l -13.551,23.47 c -2.298,3.98 -7.434,5.356 -11.414,3.058 m 89.297,0 v 0 c 3.98,-2.298 5.356,-7.433 3.058,-11.414 L -55.141,42.448 c -2.299,-3.98 -7.433,-5.356 -11.413,-3.058 -3.981,2.298 -5.357,7.435 -3.058,11.415 l 13.549,23.47 c 2.298,3.98 7.434,5.356 11.415,3.058 m -89.298,-154.668 v 0 c -3.98,2.299 -5.355,7.436 -3.057,11.416 l 13.55,23.47 c 2.299,3.98 7.433,5.356 11.414,3.058 3.98,-2.297 5.356,-7.433 3.059,-11.413 l -13.551,-23.472 c -2.298,-3.98 -7.434,-5.356 -11.415,-3.059 m 121.982,32.686 v 0 c -2.297,-3.98 -7.433,-5.356 -11.413,-3.059 l -23.472,13.552 c -3.98,2.297 -5.355,7.433 -3.057,11.414 2.298,3.98 7.433,5.356 11.414,3.058 l 23.47,-13.55 c 3.98,-2.299 5.357,-7.434 3.058,-11.415 m -154.667,89.297 v 0 c 2.298,3.981 7.435,5.356 11.415,3.059 l 23.47,-13.551 c 3.98,-2.298 5.356,-7.434 3.059,-11.415 -2.298,-3.98 -7.434,-5.355 -11.414,-3.058 l -23.472,13.552 c -3.98,2.297 -5.355,7.432 -3.058,11.413 m 77.335,-8.514 c 19.955,0 36.134,-16.177 36.134,-36.134 0,-19.957 -16.179,-36.134 -36.134,-36.134 -19.958,0 -36.135,16.177 -36.135,36.134 0,19.957 16.177,36.134 36.135,36.134"
             style="fill:#ffcc00;fill-opacity:1;fill-rule:evenodd;stroke:none"
             id="path290896" />
        </g>
        <path
           d="M 0.777,-0.997 H 601.775 V 118.279 H 0.777 Z"
           style="fill:#ffd900;fill-opacity:1;fill-rule:evenodd;stroke:none"
           id="path290898" />
        <path
           d="M 0.777,-0.997 H 601.775 V 58.641 H 0.777 Z"
           style="fill:#ffe657;fill-opacity:1;fill-rule:evenodd;stroke:none"
           id="path290900" />
        <g
           id="g290902"
           transform="translate(288.4912,475.125)">
          <path
             d="m 0,0 c 11.057,0 20.075,9.017 20.075,20.073 0,11.058 -9.018,20.076 -20.075,20.076 -11.057,0 -20.076,-9.018 -20.076,-20.076 C -20.076,9.017 -11.057,0 0,0"
             style="fill:#ffdc4f;fill-opacity:1;fill-rule:evenodd;stroke:none"
             id="path290904" />
        </g>
      </g>
    </g>
  </g>
</svg>
