<?xml version="1.0" encoding="UTF-8"?>
<!DOCTYPE svg PUBLIC "-//W3C//DTD SVG 1.1//EN" "http://www.w3.org/Graphics/SVG/1.1/DTD/svg11.dtd">
<svg version="1.1" xmlns="http://www.w3.org/2000/svg" xmlns:xlink="http://www.w3.org/1999/xlink" x="0" y="0" width="758" height="973" viewBox="0, 0, 758, 973">
  <defs>
    <clipPath id="Clip_1">
      <path d="M0.06,0.63 L757.114,0.63 L757.114,972.94 L0.06,972.94 z"/>
    </clipPath>
  </defs>
  <g id="Layer_1">
    <g clip-path="url(#Clip_1)">
      <path d="M644.917,602.98 C635.705,608.586 626.795,614.724 617.053,619.407 C601.024,627.113 584.327,631.354 566.423,628.103 C558.962,626.749 553.665,622.614 551.709,615.006 C551.068,612.513 550.02,612.37 547.853,613.325 C538.114,617.616 528.047,621.013 517.759,623.717 C515.945,624.194 514.625,624.696 514.719,626.825 C510.142,622.411 510.404,616.989 515.578,614.128 C529.603,606.373 543.065,597.847 555.387,587.505 C581.015,565.995 599.923,539.563 613.556,509.188 C618.611,497.924 623.011,486.404 626.061,474.425 C627.022,470.651 629.114,468.852 632.95,468.425 C640.734,467.557 648.5,466.527 655.512,462.564 C669.234,454.809 675.414,442.154 677.126,427.337 C678.265,417.475 678.371,407.4 676.129,397.5 C671.941,379 660.948,369.713 642.022,369.439 C637.537,369.374 637.344,366.572 636.852,363.652 C636.308,360.417 637.216,358.011 641.022,357.716 C642.017,357.638 643.018,357.5 643.957,357.139 C647.338,355.838 649.025,353.393 648.567,349.761 C648.126,346.256 645.908,344.538 642.456,344.343 C635.149,343.928 627.846,344.241 620.508,343.562 C600.291,341.691 580.792,336.74 561.546,330.686 C514.958,316.032 470.75,295.812 428.045,272.311 C411.528,263.221 396.645,251.672 382.527,239.084 C352.848,212.621 329.31,181.389 309.708,147.011 C304.671,138.177 300.54,128.872 295.895,119.833 C294.982,118.056 294.189,116.206 292.876,114.667 C290.763,112.192 287.987,111.966 285.098,112.625 C282.283,113.268 280.576,115.542 280.786,118.08 C281.209,123.197 278.076,124.389 274.233,125.83 C242.863,137.585 214.559,154.283 189.877,177.195 C158.92,205.933 137.465,240.708 122.812,279.98 C112.627,307.278 106.356,335.51 103.202,364.445 C102.877,367.423 101.758,369.119 98.654,369.202 C97.822,369.225 96.99,369.302 96.164,369.411 C78.203,371.768 69.019,379.804 65.189,397.615 C61.609,414.265 61.831,430.804 70.084,446.285 C76.846,458.967 87.783,465.823 101.953,467.653 C102.777,467.759 103.615,467.77 104.441,467.879 C112.31,468.918 112.173,468.959 114.428,476.486 C124.152,508.945 138.832,538.894 161.206,564.531 C177.514,583.216 196.407,598.983 218.406,610.832 C225.014,614.39 231.669,617.792 238.502,620.885 C240.285,621.692 242.817,622.088 242.822,624.947 C235.422,623.974 227.967,623.201 220.963,620.408 C218.599,619.465 217.117,619.946 216.238,622.254 C210.075,638.441 197.588,638.494 183.836,632.683 C175.215,629.04 167.872,623.211 160.113,618.107 C151.816,612.841 144.34,606.51 136.871,600.174 C111.476,578.635 92.076,552.341 76.725,523.041 C66.111,502.783 58.231,481.357 51.937,459.356 C48.04,445.732 44.919,431.927 41.941,418.085 C41.488,415.981 40.912,413.865 41.176,411.662 C41.743,407.82 41.909,403.984 41.04,400.159 C40.478,388.354 40.647,376.588 41.346,364.76 C42.182,350.616 43.467,336.556 45.612,322.577 C51.274,285.68 61.104,249.983 76.486,215.875 C87.913,190.538 101.859,166.763 119.732,145.419 C131.937,130.843 145.537,117.616 159.521,104.75 C173.687,91.716 189.144,80.531 205.738,70.828 C213.544,66.263 221.952,63.075 230.201,59.507 C233.748,56.883 237.869,57.754 241.806,57.662 C248.823,57.497 250.152,56.625 251.599,49.754 C252.269,46.577 254.408,44.943 256.828,43.458 C266.825,37.32 277.556,32.829 288.775,29.482 C313.459,22.116 338.732,18.48 364.395,16.511 C422.394,12.061 475.802,27.329 526.959,53.013 C553.334,66.255 577.032,83.357 599.034,102.899 C601.872,105.42 604.896,107.868 606.632,111.415 C610.968,138.546 599.38,165.853 577.904,179.163 C575.633,180.57 573.21,181.685 570.859,182.941 C568.558,184.17 568.126,185.745 569.99,187.693 C572.065,189.86 574.033,192.115 575.944,194.43 C577.901,196.8 580.521,196.655 583.285,196.291 C601.762,193.856 618.654,187.013 634.705,177.855 C639.332,175.215 643.885,172.436 648.335,169.492 C649.824,168.508 651.282,167.198 653.347,167.811 C659.917,173.997 663.432,182.216 667.718,189.859 C690.012,229.614 702.469,272.453 708.548,317.515 C713.282,352.607 715.257,387.771 714.094,423.08 C713.247,448.796 708.476,474.004 701.206,498.708 C690.467,535.2 673.529,568.596 650.973,599.172 C649.515,601.147 648.504,604.223 644.917,602.98" fill="#DBA76F"/>
      <path d="M466.691,786.165 C464.798,785.859 464.665,784.859 464.911,783.402 C466.179,775.888 467.45,768.374 468.884,759.887 C473.549,770.127 477.73,779.305 482.168,789.047 C476.711,788.014 471.719,786.977 466.691,786.165 z M284.613,784.377 C282.181,784.545 279.772,785.049 276.717,785.499 C279.507,779.453 282.026,773.994 284.545,768.535 C284.88,768.577 285.215,768.618 285.55,768.66 C286.116,772.527 286.441,776.451 287.33,780.243 C287.965,782.951 287.52,784.175 284.613,784.377 z M742.072,830.845 C733.332,819.679 722.631,810.788 710.624,803.438 C707.507,801.53 706.707,800.616 709.432,797.214 C717.388,787.286 719.989,775.889 714.289,764.089 C708.788,752.702 698.331,748.953 686.391,749.502 C658.476,750.785 633.37,759.858 611.747,777.788 C609.675,779.507 608.418,779.523 606.228,778.405 C585.292,767.717 568.378,752.655 555.791,732.741 C535.168,700.116 523.806,663.915 514.72,626.827 C513.808,626.114 514.193,624.941 513.806,624.119 C511.033,618.219 514.354,615.854 519.12,613.416 C537.788,603.868 554.507,591.482 569.283,576.666 C596.532,549.341 614.77,516.621 625.873,479.816 C628.829,470.019 628.702,470.172 638.81,469.032 C654.251,467.29 666.044,459.95 673.12,445.742 C680.279,431.368 680.209,416.15 678.067,400.821 C675.305,381.068 663.165,367.413 641.123,368.065 C636.869,368.191 638.762,364.243 638.098,362.148 C637.32,359.693 639.036,359.23 641.207,359.034 C647.47,358.468 650.67,355.249 650.378,350.184 C650.081,345.033 646.652,342.418 640.08,342.713 C619.047,343.658 598.68,339.718 578.56,334.245 C533.234,321.917 490.557,302.999 448.691,282 C422.455,268.839 398.401,252.663 377.112,232.443 C348.477,205.243 325.461,173.797 306.935,139.008 C302.79,131.226 299.028,123.24 295.117,115.334 C292.98,111.013 289.307,110.061 285.032,110.939 C280.993,111.77 278.803,115.067 279.262,118.613 C279.788,122.672 277.616,123.134 274.954,124.112 C231.676,140.012 194.716,165.032 165.663,201.026 C127.34,248.503 109.046,303.983 101.915,363.73 C101.505,367.162 100.538,368.078 97.16,368.175 C80.599,368.652 69.387,377.636 64.745,393.517 C63.523,397.699 62.731,401.943 62.318,406.231 C61.223,417.594 61.623,428.926 65.537,439.751 C72.329,458.533 86.204,468.172 105.9,469.413 C110.343,469.693 111.799,471.523 112.993,475.616 C132.515,542.532 172.178,592.463 236.562,621.421 C238.723,622.393 241.415,622.582 242.822,624.947 C234.63,660.536 223.621,695.076 205.124,726.86 C192.243,748.996 174.77,766.28 151.846,777.941 C149.296,779.239 147.703,779.627 145.021,777.426 C122.897,759.275 97.283,750.085 68.76,749.536 C53.302,749.239 42.601,758.14 40.413,772.205 C39.009,781.23 41.505,789.601 47.264,796.439 C50.608,800.41 49.815,801.507 45.874,803.971 C28.219,815.01 13.16,828.679 5.002,848.431 C-11.06,887.317 13.145,935.787 54.98,947.786 C86.84,956.924 117.233,951.755 145.983,935.997 C149.561,934.036 150.803,934.76 152.56,937.921 C158.05,947.796 163.968,957.434 169.404,967.337 C171.695,971.51 174.571,972.994 179.37,972.99 C306.985,972.864 434.601,972.859 562.216,973 C567.247,973.006 570.19,971.344 572.572,967.091 C579.558,954.619 586.935,942.366 593.895,929.881 C595.695,926.651 596.776,926.268 599.905,928.551 C626.571,948.006 656.508,955.293 689.044,950.79 C712.988,947.476 732.335,936.142 744.996,914.887 C761.966,886.399 761.222,855.309 742.072,830.845" fill="#6E4100"/>
      <path d="M644.917,602.98 C646.824,603.351 647.497,601.881 648.367,600.682 C671.305,569.069 689.296,535.016 700.179,497.318 C710.092,462.976 713.915,427.966 712.968,392.333 C711.733,345.848 707.252,299.792 693.854,255.034 C684.547,223.943 670.911,194.804 652.661,167.894 C650.933,167.354 650.069,165.906 649.125,164.539 C637.312,147.414 624.398,131.203 609.387,116.741 C607.925,115.333 606.821,113.716 605.891,111.946 C595.402,100.22 583,90.672 570.397,81.451 C524.816,48.103 473.893,27.589 418.113,19.207 C391.568,15.219 364.996,16.906 338.54,20.421 C316.581,23.339 294.935,27.753 274.288,36.121 C268.731,38.373 263.357,41.019 258.225,44.14 C255.075,46.056 252.417,47.762 252.608,52.498 C252.769,56.482 249.468,58.934 245.214,59.092 C241.722,59.222 238.214,59.333 234.73,59.148 C232.988,59.056 231.855,59.485 231.058,60.962 C222.204,61.183 213.706,63.432 205.306,65.882 C179.183,73.501 156.972,87.847 137.145,106.166 C111.837,129.551 91.608,156.877 74.704,186.771 C55.114,221.415 43.006,258.509 38.178,298.012 C36.4,312.553 35.187,327.186 35.499,341.769 C35.879,359.53 37.476,377.282 40.417,394.867 C41.015,398.445 41.941,402.004 41.928,405.677 C41.916,407.746 42.917,409.781 42.144,411.877 C49.233,449.246 59.376,485.658 76.571,519.784 C95.384,557.122 121.225,588.599 155.248,613.145 C157.165,614.528 158.806,616.143 160.113,618.106 C160.769,622.309 160.392,626.17 156.258,628.565 C151.91,631.085 148.385,629.104 144.839,626.508 C99.004,592.937 67.421,548.685 47.838,495.767 C28.817,444.368 17.992,391.268 17.806,336.295 C17.545,258.747 43.582,190.388 90.925,129.656 C113.474,100.731 139.624,75.883 172.731,59.22 C191.038,50.006 210.386,44.285 230.93,42.972 C232.428,42.876 233.797,42.766 234.977,41.509 C248.102,27.522 265.278,20.745 282.979,15.232 C314.006,5.568 345.938,0.848 378.357,0.637 C461.213,0.099 533.669,29.143 597.016,81.087 C661.323,133.819 701.384,201.858 718.333,283.237 C724.786,314.223 727.708,345.723 729.379,377.343 C732.631,438.882 723.402,498.044 696.429,553.902 C686.345,574.785 673.962,594.273 659.953,612.732 C656.61,617.138 652.535,620.849 647.977,623.965 C643.625,626.941 638.802,626.207 636.018,622.361 C633.318,618.633 634.209,613.712 638.063,610.385 C640.617,608.181 644.182,606.879 644.917,602.98" fill="#6E4100"/>
    </g>
    <path d="M102.23,729.157 C77.597,727.609 54.673,708.186 50.378,685.267 C49.332,679.686 49.787,674.208 52.367,669.224 C53.982,666.103 53.018,665.515 50.189,664.585 C37.821,660.52 26.759,654.26 18.326,644.075 C5.716,628.845 3.071,611.305 6.827,592.436 C7.793,587.581 11.72,585.145 16.422,585.895 C20.767,586.588 23.585,590.002 23.038,594.913 C22.187,602.545 21.303,610.102 23.259,617.705 C26.773,631.363 35.946,639.978 48.206,645.801 C56.711,649.841 65.815,651.825 75.129,652.654 C80.066,653.093 83.062,655.556 83.564,660.213 C84.042,664.643 81.604,667.551 77.275,669.208 C66.13,673.473 63.75,679.722 69.655,690.191 C77.086,703.364 88.552,710.902 103.616,712.69 C110.555,713.513 114.209,716.614 113.673,721.677 C113.104,727.05 109.21,729.595 102.23,729.157" fill="#FF7164"/>
    <path d="M734.992,621.778 C734.82,634.946 729.07,645.787 720.749,655.502 C714.872,662.364 708.162,668.345 700.586,673.267 C698.263,674.776 697.975,675.759 699.566,678.198 C704.712,686.087 704.209,694.253 699.659,702.245 C696.736,707.38 692.549,711.463 687.949,715.085 C678.07,722.863 667.075,728.692 655.384,733.212 C649.545,735.469 644.951,733.885 643.124,729.281 C641.152,724.31 643.401,720.119 649.363,717.646 C660.162,713.167 670.511,707.901 679.429,700.194 C680.927,698.9 682.355,697.471 683.569,695.912 C687.649,690.675 687.273,687.887 682.071,683.786 C681.028,682.963 679.884,682.27 678.793,681.507 C672.38,677.019 672.758,669.584 679.8,666.005 C687.72,661.98 694.969,657.071 701.574,651.143 C706.319,646.885 710.401,642.101 713.646,636.628 C719.055,627.504 720.201,618.311 714.067,608.954 C711.975,605.763 711.92,602.299 714.112,599.116 C716.103,596.226 719.104,595.38 722.485,595.905 C725.136,596.317 726.989,597.956 728.371,600.143 C732.544,606.744 735.099,613.85 734.992,621.778" fill="#FF7164"/>
    <path d="M41.126,405.881 C36.787,382.606 34.031,359.153 34.449,335.455 C36.176,237.515 75.6,157.323 149.637,94.022 C170.811,75.919 195.747,64.516 223.66,60.553 C226.08,60.209 228.715,58.792 231.058,60.962 C210.08,67.966 191.738,79.653 174.777,93.49 C149.68,113.965 126.591,136.501 107.829,163.069 C82.273,199.259 65.759,239.538 54.993,282.303 C45.278,320.895 40.93,360.102 42.052,399.899 C42.249,401.971 43.491,404.205 41.126,405.881" fill="#FEFEFE"/>
    <path d="M636.315,324.262 C626.965,322.648 618.028,319.48 609.169,316.121 C573.943,302.763 542.462,282.978 513.229,259.499 C475.451,229.155 442.646,194.186 416.005,153.589 C415.184,152.337 414.33,151.089 413.669,149.751 C411.52,145.397 412.711,140.559 416.41,138.276 C420.458,135.778 425.181,136.871 428.081,141.301 C433.829,150.08 439.564,158.869 446.036,167.133 C486.608,218.938 534.754,261.756 593.951,291.382 C607.376,298.1 621.385,303.341 635.922,307.153 C638.964,307.95 642.188,308.613 643.868,311.765 C645.372,314.586 645.62,317.529 643.908,320.321 C642.22,323.074 639.747,324.606 636.315,324.262" fill="#6E4100"/>
    <path d="M605.891,111.946 C614.449,118.871 621.465,127.29 628.564,135.601 C637.3,145.828 645.547,156.444 652.661,167.893 C631.769,182.596 609.434,193.903 583.778,197.635 C579.451,198.265 576.084,197.982 573.586,193.815 C571.548,190.413 566.146,187.881 566.588,184.628 C567.035,181.334 572.908,180.831 576.229,178.772 C594.978,167.144 603.783,149.734 605.872,128.337 C606.406,122.87 606.195,117.41 605.891,111.946" fill="#FEFEFE"/>
    <path d="M41.126,405.881 C42.516,404.054 41.421,401.843 42.052,399.899 C43.194,403.882 43.554,407.872 42.144,411.876 C41.805,409.878 41.465,407.88 41.126,405.881" fill="#E9D3BC"/>
    <path d="M605.921,485.988 C597.324,511.695 584.059,534.75 566.229,555.129 C536.127,589.534 497.758,610.036 453.778,620.261 C392.009,634.623 330.263,634.217 269.405,615.688 C205.675,596.285 161.117,555.298 136.566,493.052 C136.204,492.134 135.98,491.161 135.692,490.214 C137.408,488.853 137.498,488.735 139.555,490.284 C146.629,495.61 154.679,498.653 163.248,500.355 C187.772,505.225 201.333,497.345 214.485,480.086 C229.903,459.856 226.692,439.66 210.937,417.62 C192.975,392.489 156.805,392.984 136.215,418.393 C131.869,423.756 128.845,429.842 125.879,435.995 C125.067,437.681 124.802,440.045 122.075,439.951 C113.058,392.422 117.836,345.913 132.307,300.093 C145.241,259.14 165.378,222.492 196.418,192.331 C221.524,167.936 250.858,150.441 283.767,138.709 C286.837,137.614 287.717,138.612 288.973,141.046 C304.298,170.747 322.668,198.397 344.913,223.401 C371.075,252.81 401.404,276.803 436.585,294.684 C479.618,316.555 523.537,336.183 570.106,349.387 C585.17,353.659 600.425,357.176 616.025,358.48 C620.743,358.874 621.342,361.094 621.626,364.512 C623.01,381.135 622.927,397.761 621.351,414.362 C620.567,422.619 620.108,430.936 617.928,439.005 C615.193,438.867 615.316,436.406 614.596,434.746 C609.843,423.795 604.327,413.394 593.947,406.619 C578.89,396.793 563.011,396.259 547.596,404.781 C528.517,415.327 518.51,432.59 517.537,454.082 C516.905,468.047 523.011,480.24 534.769,488.349 C552.131,500.323 570.865,504.021 590.847,494.958 C595.123,493.018 598.378,489.535 602.003,486.619 C603.013,485.807 604.174,483.268 605.921,485.988" fill="#FEF8EA"/>
    <path d="M370.616,956.743 C309.791,956.743 248.965,956.696 188.141,956.847 C184.056,956.857 181.918,955.491 179.975,952.069 C169.533,933.684 158.663,915.541 148.406,897.056 C145.244,891.356 141.377,888.644 134.874,887.946 C120.112,886.362 110.629,877.359 107.376,862.96 C105.626,855.215 107.527,852.642 115.449,851.59 C119.972,850.989 124.404,851.816 128.876,852.014 C130.694,852.094 131.983,852.789 132.377,854.839 C133.757,862.015 138.754,866.347 144.646,869.789 C157.483,877.285 171.754,880.719 186.071,883.802 C217.048,890.473 248.483,893.693 280.045,896.004 C324.111,899.23 368.232,899.868 412.355,898.427 C462.782,896.779 513.089,893.459 562.441,881.889 C573.787,879.229 584.973,875.935 595.175,870.059 C601.237,866.567 606.489,862.275 607.824,854.86 C608.135,853.132 609.198,852.735 610.548,852.501 C616.803,851.414 623.093,850.745 629.381,852.049 C634.132,853.035 635.598,855.824 634.727,861.562 C632.625,875.415 622.384,886.296 608.33,887.675 C600.288,888.464 596.027,892.142 592.337,898.833 C582.373,916.902 571.72,934.588 561.521,952.529 C559.74,955.662 557.755,956.837 554.091,956.829 C492.933,956.708 431.774,956.743 370.616,956.743" fill="#FFD900"/>
    <path d="M369.977,882.247 C330.329,882.328 290.742,880.816 251.308,876.7 C222.524,873.697 193.787,870.13 166.107,860.992 C161.194,859.371 156.498,857.305 152.053,854.628 C149.148,852.879 149.003,851.284 151.461,848.897 C159.124,841.455 168.425,836.601 177.913,832.137 C207.162,818.374 238.104,809.983 269.733,804.002 C282.307,801.624 295.027,800.018 307.68,798.06 C311.217,797.512 314.321,797.317 312.09,802.537 C311.647,803.574 311.689,804.822 311.53,805.977 C310.776,811.467 313.471,815.421 318.504,816.221 C323.168,816.963 326.967,814.077 327.977,808.885 C330.433,796.259 336.298,785.821 348.468,780.556 C362.921,774.303 377.804,774.85 392.124,781.073 C401.581,785.183 406.419,793.176 407.183,803.528 C407.329,805.512 407.287,807.594 407.902,809.441 C409.208,813.37 412.17,815.323 416.341,814.995 C420.495,814.668 423.059,812.322 423.857,808.231 C424.109,806.94 424.033,805.575 424.014,804.245 C423.92,797.382 423.938,797.147 430.788,797.966 C476.421,803.424 520.999,813.011 562.989,832.435 C571.159,836.214 579.061,840.538 585.969,846.403 C592.267,851.751 592.156,852.812 584.922,856.477 C573.38,862.324 560.889,865.26 548.344,867.87 C519.458,873.878 490.184,876.893 460.793,879.098 C430.556,881.366 400.28,882.131 369.977,882.247" fill="#FFD900"/>
    <path d="M470.073,633.56 C468.834,642.963 467.789,651.831 466.48,660.661 C460.992,697.694 455.39,734.71 449.907,771.743 C448.251,782.93 448.364,782.961 437.47,781.866 C431.178,781.234 424.895,780.509 418.599,779.921 C417.006,779.773 415.839,779.283 414.806,777.984 C406.072,767.005 394.06,762.041 380.644,760.41 C363.563,758.333 347.006,759.767 332.489,770.435 C331.017,771.517 329.286,772.51 328.318,773.971 C322.839,782.23 313.978,780.047 306.256,781.322 C303.981,781.698 304.14,779.745 303.935,778.311 C300.963,757.557 297.827,736.825 295.078,716.041 C292.154,693.93 289.724,671.755 288.125,649.502 C287.876,646.037 288.09,642.539 288.09,638.503 C295.369,639.775 302.632,641.032 309.89,642.314 C319.017,643.926 319.002,643.936 320.06,653.377 C321.042,662.141 322.028,670.905 323.067,679.663 C323.865,686.384 326.739,688.91 333.658,688.916 C360.322,688.939 386.985,688.937 413.648,688.917 C420.579,688.912 422.86,687.12 424.219,680.27 C426.518,668.687 428.686,657.078 430.841,645.468 C431.192,643.577 431.416,642.077 433.874,641.669 C445.835,639.682 457.642,636.94 470.073,633.56" fill="#FEEC56"/>
    <path d="M672.383,935.217 C648.93,934.958 627.481,928.536 608.681,914.177 C607.385,913.188 604.476,912.713 605.447,910.485 C606.475,908.126 607.183,905.252 610.781,904.567 C619.176,902.968 627.085,900.071 633.91,894.604 C644.975,885.739 650.704,874.065 651.649,860.173 C652.622,845.881 643.386,836.068 628.581,834.904 C621.086,834.316 613.564,834.471 606.268,836.213 C602.394,837.138 599.529,836.836 597.044,833.659 C595.065,831.128 590.094,830.496 590.427,827.122 C590.687,824.489 593.878,822.022 596.023,819.719 C607.219,807.696 616.865,794.189 630.613,784.619 C647.094,773.147 665.671,768.073 685.28,766.15 C690.589,765.629 696.206,766.041 699.228,771.679 C701.689,776.271 699.812,783.319 695.184,788.135 C693.084,790.32 690.691,792.081 687.79,793.08 C683.976,794.394 681.464,796.954 681.285,801.054 C681.094,805.411 683.74,807.961 687.499,809.802 C701.346,816.583 714.162,824.863 724.665,836.332 C734.184,846.726 740.834,858.758 740.512,873.031 C740.011,895.165 727.715,922.784 697.51,931.792 C689.321,934.235 680.964,935.469 672.383,935.217" fill="#FF7164"/>
    <path d="M85.317,935.213 C67.833,935.36 51.766,931.314 37.936,919.937 C13.051,899.465 9.984,861.835 31.304,837.808 C41.062,826.812 52.865,818.601 65.772,811.819 C67.686,810.813 69.658,809.907 71.524,808.82 C74.482,807.096 76.11,804.555 75.914,801.015 C75.72,797.502 73.983,795.057 70.749,793.749 C64.426,791.194 59.602,787.198 57.566,780.416 C55.421,773.27 58.258,768.17 65.588,766.708 C74.675,764.895 83.393,767.758 92.122,769.523 C107.769,772.685 121.811,779.744 133.768,790.071 C143.816,798.748 152.235,809.201 160.888,819.316 C162.185,820.832 161.485,821.559 160.073,822.328 C153.183,826.079 146.663,830.377 140.855,835.682 C139.58,836.846 138.303,836.776 136.72,836.422 C130.36,835.002 123.904,834.629 117.386,834.751 C96.137,835.147 86.028,848.327 91.475,868.832 C96.524,887.842 108.96,899.268 127.898,903.94 C129.928,904.441 132.54,904.015 133.812,905.979 C136.339,909.881 138.817,913.879 140.693,918.113 C141.685,920.351 138.795,920.891 137.357,921.682 C121.165,930.588 103.852,935.265 85.317,935.213" fill="#FF7164"/>
    <path d="M496.423,624.352 C500.266,638.218 503.834,652.054 507.948,665.726 C515.779,691.752 526.048,716.745 540.405,739.944 C553.747,761.504 571.36,778.566 593.666,790.667 C596.46,792.183 597.278,793.026 594.729,795.783 C588.514,802.503 582.606,809.513 576.738,816.543 C575.133,818.465 573.993,819.197 571.432,817.927 C551.405,807.996 530.248,801.13 508.699,795.427 C505.898,794.686 504.107,793.441 502.669,790.911 C491.125,770.608 482.271,749.168 475.206,726.947 C473.595,721.881 475.419,717.029 476.072,712.16 C479.609,685.774 483.647,659.453 486.869,633.031 C487.677,626.403 492.187,626.106 496.423,624.352" fill="#FEFEFE"/>
    <path d="M122.075,439.951 C125.086,435.958 126.524,431.144 128.932,426.833 C136.575,413.145 147.666,403.544 162.777,399.221 C181.559,393.848 201.552,401.651 213.024,418.097 C219.602,427.528 224.187,437.758 225.694,449.167 C226.649,456.397 225.163,463.4 222.025,469.991 C216.537,481.516 208.676,491.077 197.614,497.558 C184.819,505.055 171.226,504.143 157.548,500.292 C150.121,498.201 143.095,495.309 137.327,489.958 C136.717,489.392 136.15,489.569 135.692,490.214 C129.005,474.041 124.938,457.159 122.075,439.951" fill="#FFDBC4"/>
    <path d="M280.077,730.566 C280.29,732.274 279.785,733.823 279.242,735.425 C273.362,752.752 266.16,769.496 257.556,785.651 C256.036,788.506 254.16,790.106 250.915,790.791 C227.144,795.814 203.944,802.771 181.497,812.1 C178.883,813.186 177.489,813.028 175.657,810.768 C171.365,805.471 166.723,800.458 162.196,795.353 C160.918,793.912 159.558,792.769 162.372,791.311 C199.366,772.152 220.327,739.646 235.994,702.735 C245.363,680.66 252.201,657.772 257.899,634.528 C258.738,631.104 259.857,629.552 263.316,631.563 C263.458,631.646 263.622,631.731 263.781,631.741 C269.868,632.119 271.009,635.561 271.184,641.249 C272.051,669.539 275.753,697.584 279.456,725.616 C279.674,727.265 279.871,728.916 280.077,730.566" fill="#FEFEFE"/>
    <path d="M605.921,485.988 C602.067,486.144 600.369,489.649 598.03,491.707 C587.585,500.9 575.206,502.191 562.441,500.694 C551.495,499.411 541.149,495.753 532.486,488.356 C523.834,480.968 518.384,471.966 516.778,460.525 C512.882,432.753 535.652,403.323 560.198,398.525 C579.688,394.715 600.547,404.26 610.523,423.332 C613.198,428.448 615.471,433.775 617.928,439.005 C615.854,455.159 611.708,470.783 605.921,485.988" fill="#FFDBC4"/>
    <path d="M374.195,672.091 C363.698,672.091 353.199,672.017 342.703,672.143 C340.035,672.175 338.941,671.552 338.743,668.629 C338.304,662.16 337.645,655.68 336.557,649.292 C335.957,645.771 337.108,645.513 340.078,645.718 C358.695,646.999 377.326,647.245 395.956,645.923 C400.771,645.582 405.599,645.326 410.386,644.743 C413.54,644.359 413.958,645.203 413.266,648.209 C411.701,655.008 410.465,661.893 409.383,668.789 C408.953,671.525 407.813,672.191 405.187,672.153 C394.858,672.003 384.526,672.092 374.195,672.091" fill="#FEFEFE"/>
    <path d="M662.749,415.158 C662.533,421.928 661.946,428.371 659.772,434.551 C656.049,445.139 646.858,452.064 635.843,452.765 C633.823,452.894 632.765,452.77 633.292,450.15 C637.393,429.731 639.103,409.063 639.346,388.263 C639.372,386.017 640.013,385.06 642.448,384.903 C649.859,384.425 655.733,387.692 658.932,394.504 C662.047,401.137 662.414,408.278 662.749,415.158" fill="#FEF8EA"/>
    <path d="M97.342,384.964 C99.743,384.503 100.819,385.403 100.814,388.407 C100.778,408.912 102.619,429.257 106.685,449.37 C107.346,452.644 106.234,452.935 103.334,452.427 C91.691,450.389 84.036,443.922 80.892,432.504 C77.69,420.871 77.68,409.131 81.092,397.558 C83.561,389.182 89.225,384.987 97.342,384.964" fill="#FEF8EA"/>
    <path d="M219.921,384.111 C220.504,374.148 224.646,364.653 233.57,357.653 C235.902,355.825 236.28,354.755 234.312,352.28 C230.036,346.9 228.551,340.38 228.097,333.649 C227.77,328.798 229.822,326.023 233.684,325.806 C238.395,325.541 240.24,328.255 240.449,332.537 C240.741,338.543 242.285,343.963 247.06,348.109 C248.55,349.402 249.864,349.926 251.927,349.675 C268.529,347.654 282.816,357.516 286.729,373.525 C287.976,378.626 285.856,382.821 281.276,384.315 C276.724,385.8 272.711,383.64 270.707,378.625 C266.784,368.806 261.646,364.955 254.063,366.151 C244.855,367.605 237.669,375.186 236.867,384.298 C236.721,385.947 236.812,387.654 236.407,389.236 C235.298,393.568 231.227,396.067 226.873,395.298 C222.231,394.477 219.828,391.04 219.921,384.111" fill="#6E4100"/>
    <path d="M524.033,385.064 C524.083,391.563 521.177,395.312 515.982,395.451 C510.815,395.589 507.855,392.166 507.34,385.458 C506.608,375.924 501.125,369.146 492.157,366.689 C484.981,364.723 478.841,367.334 475.422,373.932 C474.51,375.69 473.977,377.641 473.169,379.457 C471.263,383.738 467.142,385.703 462.991,384.376 C458.497,382.94 456.122,378.885 457.353,374.158 C459.289,366.726 462.943,360.238 469.179,355.58 C471.259,354.026 472.069,353.128 470.304,350.656 C466.619,345.492 465.567,339.354 465.117,333.186 C464.835,329.319 466.236,326.192 470.717,325.818 C475.119,325.451 477,327.957 477.482,332.042 C477.811,334.839 477.949,337.775 478.941,340.353 C480.823,345.24 483.354,348.921 489.828,349.418 C509.5,350.925 523.891,366.348 524.033,385.064" fill="#6E4100"/>
    <path d="M376.894,531.014 C365.364,530.794 353.639,528.397 343.309,521.109 C337.447,516.971 333.069,511.674 330.654,504.859 C329.463,501.496 330.588,498.831 333.683,497.393 C336.75,495.967 340.022,496.571 341.385,499.776 C347.065,513.128 358.664,516.987 371.431,518.618 C381.642,519.923 391.697,518.615 401.115,514.134 C406.829,511.416 411.589,507.78 412.988,500.999 C413.732,497.391 416.325,495.487 419.963,496.205 C423.853,496.973 425.442,499.845 424.729,503.689 C423.245,511.686 418.579,517.565 411.909,521.911 C401.529,528.674 389.917,530.929 376.894,531.014" fill="#6E4100"/>
    <path d="M250.493,204.211 C260.433,204.807 267.778,208.206 271.904,216.784 C273.964,221.068 273.18,224.58 269.706,226.186 C265.487,228.136 262.735,226.253 260.93,222.401 C258.683,217.607 254.526,216.386 249.775,216.759 C244.028,217.211 238.456,218.482 235.609,224.275 C233.179,229.218 230.738,230.922 227.128,229.444 C223.587,227.994 222.358,224.358 224.016,219.718 C225.459,215.68 228.2,212.625 231.693,210.188 C237.618,206.054 244.317,204.512 250.493,204.211" fill="#6E4100"/>
    <path d="M372.06,409.125 C369.575,409.286 367.344,408.291 365.785,406.155 C363.836,403.486 361.861,400.796 360.286,397.904 C358.129,393.942 359.443,389.28 363.016,386.927 C366.605,384.564 371.3,385.184 374.143,388.726 C376.208,391.297 378.158,394.038 379.671,396.956 C382.759,402.91 378.835,409.169 372.06,409.125" fill="#6E4100"/>
    <path d="M391.877,809.693 C391.879,815.116 389.004,818.637 384.252,819.031 C379.148,819.454 375.499,816.434 375.117,810.784 C374.847,806.796 373.272,804.519 369.292,804.107 C365.306,803.694 362.513,805.384 361.138,809.161 C360.572,810.715 360.388,812.406 359.837,813.967 C358.361,818.145 355.129,820.116 350.937,819.569 C346.776,819.025 344.073,816.45 343.745,811.928 C342.833,799.352 353.893,787.774 367.305,787.292 C381.35,786.788 391.869,796.378 391.877,809.693" fill="#6E4100"/>
  </g>
</svg>
