<?xml version="1.0" encoding="utf-8"?>
<!DOCTYPE svg PUBLIC "-//W3C//DTD SVG 1.1//EN" "http://www.w3.org/Graphics/SVG/1.1/DTD/svg11.dtd">
<svg version="1.1" id="Layer_1" xmlns="http://www.w3.org/2000/svg" xmlns:xlink="http://www.w3.org/1999/xlink" x="0px" y="0px"
	 viewBox="683.1798 15.1211 480.8202 1964.1664" enable-background="new 683.1798 15.1211 480.8202 1964.1664" xml:space="preserve"
	>
<g>
	<g id="_x23_ffffffff">
		<path fill="#FFFFFF" stroke="#FFFFFF" stroke-width="0.0938" d="M933.46,255.3c1.57-0.58,2.11-0.03,1.64,1.65
			C933.51,257.46,932.97,256.91,933.46,255.3z"/>
		<path fill="#FFFFFF" stroke="#FFFFFF" stroke-width="0.0938" d="M863.64,261.63c0.43,0,1.29-0.02,1.72-0.02
			c1.33,1.09-0.72,3.16-1.8,1.8C863.58,262.96,863.62,262.08,863.64,261.63z"/>
	</g>
	<g id="_x23_a7582dff">
		<path fill="#A7582D" stroke="#A7582D" stroke-width="0.0938" d="M830.16,112.21c20.47-19.17,49.17-27.85,76.84-27.74
			c12.66-0.4,25.63-1.83,38,1.75c15.84,4,28.52,14.82,41.03,24.73c10.03,7.54,19.84,16.18,25.41,27.67
			c3.99,7.85,5.69,16.78,10.75,24.1c1.5,2.13,2.04,4.73,3.29,6.99c0.99,1.2,2.6801,1.28,4.0701,1.81
			c1.51,3.73,0.0699,8.47,3.4199,11.38c-0.15,15.61-5.97,30.85-15.43,43.17c2.66,4.69,2.19,10.14,2.81,15.3
			c1.89,11.21,11.3101,19.18,14.16,30.01c2.22,10.86-6.5601,19.45-8.1801,29.66c-0.8199,7.15,2.38,13.89,3.9501,20.72
			c2.2899,9.45,5.3099,19.71,1.84,29.25c-0.95,3.08-5.11,3.06-6.4399,5.81c-0.8201,3.55-0.2001,7.29-1.15,10.83
			c-3.3101,6.55-10.79,9.87-14.08,16.38c-0.02,10.66-2.53,21.87-9.88,29.95c-0.33,0.35-0.97,1.04-1.3,1.38
			c-1.96,1.64-4.03,3.15-5.96,4.83c-6.08,2.71-12.53-0.48-17.63-3.81c-5.83-3.68-9.22-10.6-9.18-17.42
			c-0.13-6.08,0.85-12.59-2.69-17.97c-0.41-0.85-0.79-1.72-1.11-2.59c-0.77-2.23-1.92-4.31-3.11-6.34
			c1.74-9.04,7.35-16.68,9.68-25.51c0.35-1.33,0.54-2.7,0.82-4.04c1.1-5.16-1.22-10.38,0-15.54c1.92-10.24,8.86-18.4,13.23-27.62
			c1.61-3.84,5.32-6.11,7.48-9.55c0.95-5.07-1.15-10.44,0.83-15.44c1.3-4.78,5.9-9.02,4.28-14.28c-2.42-7.38-11.36-9.6-14.41-16.59
			c-2.59-5.23,0.22-11.11-1.28-16.54c-2.09-8.62-7.6299-16.09-8.7-25c-0.66-3.7,0.95-7.21,1.36-10.83
			c-5.79-5.38-13.99-7.02-20.3-11.7c-3.41-2.14-5.55-5.62-7.54-9c-8.13,4.17-12.1,13.04-19.62,17.92c-2.48,1.96-5.65,0.66-8.45,0.58
			c-8.84-0.93-18.09,1.83-26.65-1.37c-7.16-3.16-9.82-11.44-16.3-15.56c-8.13,4.56-9.66,14.43-14.47,21.6
			c-3.53,5.18-10.37,6.29-16.11,4.83c-0.4-0.17-1.2-0.51-1.6-0.68c-9.47-3.97-17.01-11.74-21.94-20.63
			c-3.66-6.67-5.6801-14.62-3.85-22.16c1.53-6.25,6.31-11.14,11.82-14.18c-1.84-8-1.46-16.24-1.23-24.37
			C827.36,114.7,828.89,113.51,830.16,112.21 M905.7,92.86c2.8,0.52,5.5,1.48,8.28,2.11c0.04-0.49,0.12-1.47,0.16-1.96
			C911.68,91.89,907.47,89.72,905.7,92.86 M896.2,97.32c-3.11,4.2-0.69,9.35,1.27,13.46c0.5-0.13,1.5-0.38,2-0.5
			c-1.0099-2.7-2.4399-5.34-2.61-8.27c0.46-3.65,3.47-6.39,4.12-10C898.05,91.08,897.63,95.61,896.2,97.32 M879.4,97.31
			c-1,3.86-2.67,7.7-2.21,11.77c0.08,2.76,2.08,4.86,3.65,6.93c0.3199-0.48,0.94-1.45,1.25-1.93c-1.83-2.28-3.44-5.03-2.72-8.07
			c0.25-4.11,3.25-7.89,2.6-11.98C879.87,93.63,879.93,95.94,879.4,97.31 M928.19,94.13c-0.05,0.44-0.17,1.31-0.23,1.74
			c3.08,4.55,7.7,7.86,10.65,12.52c1.27,2.22,0.77,5.52,3.38,6.81c0.66-4.3-1.07-8.96-4.35-11.85
			C934.44,100.35,932.06,96.35,928.19,94.13 M866.91,101.95c0.98,4.59,1.3701,9.26,1.44,13.95c0.37-0.06,1.11-0.16,1.48-0.21
			c1.52-5.59-0.54-11.55-1.4-17.16C866.23,97.33,866.62,100.7,866.91,101.95 M859.23,106.11c0.39,6.24-0.01,13.35,4.06,18.62
			c0.54,1.08,1.44,1.49,2.69,1.22c-0.7-2.18-1.93-4.13-2.91-6.18c-1.49-4.46-1.38-9.24-2.12-13.84
			C860.52,105.97,859.66,106.06,859.23,106.11 M950.91,105.82c-0.8,6.07,1.05,12.06,0.73,18.14c-0.01,2.27-0.5,4.63,0.31,6.82
			c0.3-0.45,0.9-1.35,1.2-1.8c0.66-5.98,0.03-12.04-0.19-18.04C952.64,109.13,953.26,106.4,950.91,105.82 M962.35,111.1
			c-0.53,3.33,0.15,6.66,0.53,9.96c0.39,2.91-0.54,5.76-0.52,8.66c0.36,0.3,1.09,0.9,1.46,1.19c1.55-4.58,1.86-9.43,0.71-14.14
			C963.89,114.96,965.35,110.69,962.35,111.1 M843.49,116.78c-2.3,6.84,0.13,14.1,3.93,19.86c1.5,1.22,3.44,2.9,5.52,2.05
			c-0.59-2.37-3.55-2.84-4.76-4.79c-1.64-3.07-2.95-6.39-3.2-9.88c-0.62-4.1,1.23-7.95,1.91-11.92
			C844.18,111.61,844.29,115.05,843.49,116.78 M911.14,132.14c-1.18,1.89,0.84,3.51,1.59,5.12c3.33,5.79,7.34,11.76,7.4,18.69
			c0.19,1.1-0.33,4.16,1.8,3.2c1.91-7.86-2.74-15.07-6.48-21.57C914.14,135.71,913.48,132.98,911.14,132.14 M991.2,133.29
			c-3.14,6.66-9.63,10.42-15.11,14.9c-0.1,0.56-0.3,1.67-0.4,2.23c3.48-1.05,5.87-4.06,8.8-6.06c3.43-3.01,8.16-6.2,8.29-11.21
			C992.38,133.18,991.59,133.25,991.2,133.29 M943.96,133.61c-0.06,8.8-3.27,17.28-2.59,26.11c1.52,0.93,3.1,1.8,4.71,2.61
			c4.46-8.53,11.27-15.46,16.43-23.55c-1.61-1.72-4.08-2.06-6.3-2.33c-3.2,1.78-3.43,6.56-7.02,7.74
			C948.34,140.34,947.34,136.07,943.96,133.61 M928.27,137.2c-1.31,5.02,0.07,10.43,2.21,15.06c0.75,5.25-0.37,10.61,0.52,15.85
			c0.42-0.07,1.27-0.19,1.69-0.25c-0.18-6.61,1.51-13.74-1.53-19.9c-1.4-3.38-0.5699-7.16-1.5099-10.64
			C929.3,137.29,928.62,137.23,928.27,137.2 M894.85,144.03c2.1801,5.27,8.1,8.89,8.27,15.04c0.38,1.74-0.64,4.11,0.86,5.4
			c1.81-0.66,1.18-2.99,1.4-4.46c0.34-4.64-2.54-8.59-5.2-12.08C898.68,146.32,897.41,143.77,894.85,144.03 M997.41,146.37
			c-2.8199,1.79-5.17,4.26-8.15,5.8c-2.13,0.98-4.77,0.45-6.73,1.8l0.53,0.93c5.92,1.54,11.06-3.07,15.32-6.57
			C999.63,147.56,998.89,145.52,997.41,146.37 M883.83,152.12c0.23,1.04,0.8,1.81,1.72,2.32c3.88,2.4,8.44,4.03,11.53,7.53
			c1.65,1.72,1.63,4.19,1.85,6.42c2.59,0.08,1.75-2.71,1.71-4.35c-1.11-4.37-5.26-6.77-8.96-8.74
			C889.14,154.07,886.86,151.71,883.83,152.12 M878.24,158.15c-0.07,0.42-0.2,1.27-0.27,1.69c6.57,2.39,11.28,8.45,13.35,14.98
			c0.41,1,1.09,3.83,2.6,2.14c-0.34-3.14-1.7-6.08-2.95-8.94C887.63,163.73,884.17,158.67,878.24,158.15 M1007.49,159.45
			c-1.09,1.02,0.67,2.14,1.32,2.82c5.83,5.1,12.63,9.22,17.5001,15.32c0.37,1.05,3.0599,2.6,2.72,0.37
			c-1.64-4.13-5.84-6.26-8.84-9.26c-4.08-3.27-7.83-7.02-12.26-9.81L1007.49,159.45 M870.23,161.04c0.51,1.29,1.99,1.9,2.96,2.85
			c4.72,3.46,7.52,8.77,11.86,12.64c0.48-0.3,1.45-0.92,1.93-1.23c-4.73-4.73-8.28-10.6-13.84-14.5
			C872.47,159.82,869.56,159.03,870.23,161.04 M957.27,163.67c1.35,3.13,4.04,5.35,6.33,7.79c1.86,1.73,3.58,3.88,6.1801,4.5
			c-0.01-0.6-0.03-1.79-0.05-2.39c-4.28-2.63-7.04-6.97-10.85-10.12C958.48,163.5,957.67,163.61,957.27,163.67 M1008.36,166.24
			c-1.58,1.4-2.55,3.64-4.72,4.22c-4.84,1.68-9.68,3.36-14.69,4.42c-1.56-0.08-3.01,1.59-1.07,2.53c5.88-1.17,11.6-3.08,17.22-5.19
			c2.9-0.73,4.42-3.57,5.65-6.04c-0.4-0.14-1.21-0.41-1.61-0.54L1008.36,166.24 M831.08,172c1.76,2.99,3.4,6.38,6.18,8.51
			c5.19,1.39,10.68,3.8,16.08,2.07c2.81-0.71,5.8-1.31,8.09-3.23c1.5-1.24,3.65-2.27,3.62-4.52c-3.64,0.54-5.74,4.17-9.37,4.78
			c-5.84,2.18-12.42,1.25-17.86-1.52c-1.91-2.18-3.06-4.9-4.89-7.14C832.48,169.28,829.79,170.69,831.08,172 M1014.11,181.98
			c2.68,3.94,5.64,7.73,7.86,11.97c0.5,3.63,0.21,7.33,0.1,10.98c-0.15,2.03-0.15,4.75-2.39,5.66c-7.27,1.29-13.5-3.31-19.55-6.53
			c-0.39,1.39-0.07,2.87,1.51,3.26c3.97,2.26,7.91,4.82,12.58,5.33c3.02,0.39,7.67,1.1,8.98-2.55c1.93-4.8,0.83-10.13,1.08-15.16
			c0.26-2.79-2.03-4.73-3.38-6.9c-1.88-2.52-3.08-5.75-5.94-7.38C1014.75,180.99,1014.33,181.65,1014.11,181.98 M982.09,199.01
			c1.19,8.4,5.1299,16.21,9.53,23.38c1.86,2.79,3.66,6.38,7.39,6.83c3.55,0.22,7.34,0.55,10.78-0.53c1.77-2.06,2.78-4.62,3.83-7.09
			c-3.24-1.27-3.5,3.29-5.02,5.11c-3.74,0.51-8.28,1.68-11.5099-0.82c-6.46-8.06-11.38-17.63-12.9901-27.9
			C984.37,195.28,981.13,197.48,982.09,199.01 M987.72,229.77c1.95,4.73,7.42,7.44,12.27,8.42c1.91,0.11,4.93,1.41,5.97-0.96
			c-4.15-1.06-8.82-1.18-12.2-4.09C991.88,231.78,990.25,229.71,987.72,229.77 M1014.39,247.44c-3.5,4.12-9.09,6.16-14.42,5.08
			c-1.12-0.56-3.79,0.53-2.2,1.71c6.45,2.31,14.7-0.1,18.55-5.96C1017.97,246.84,1015.08,245.97,1014.39,247.44 M1014.19,267.26
			c-0.71,3.03,2.64,5.39,2.37,8.33c-1.79,5-5.5,9.26-10.22,11.7c-0.98,0.43-3.2,2.28-1.34,3.01c6.1-2.16,11.09-7.08,13.28-13.2
			c1.7-3.44-1.19-6.79-2.67-9.75C1015.26,267.33,1014.54,267.28,1014.19,267.26 M1024.22,278.04c-1.67,3.69-2.08,8.11-5.09,11.07
			c-2.13,2.25-4.44,4.43-7.22,5.85c-3.93-0.84-7.7-2.49-11.75-2.71c-0.0699,0.42-0.2,1.27-0.27,1.69c2.3,0.84,4.74,1.2,7.1,1.89
			c2.73,0.68,4.85,2.94,7.75,3.15c-0.13-0.92-0.26-1.85-0.37-2.76c2.76-1.81,5.17-4.09,7.19-6.69c2.4901-2.93,3.03-6.87,4.27-10.39
			C1025.4301,278.86,1024.63,278.31,1024.22,278.04 M1002.15,303.89c0.04,0.71,0.12,2.11,0.16,2.81c2.96,4.89,7.9,8.07,13.27,9.78
			c2.14,0.49,4.88,3.45,6.83,1.6l-0.43-0.95c-4.07-2.56-9.03-3.36-12.94-6.2C1006.28,309.04,1004.92,305.76,1002.15,303.89
			 M993.96,311.85c0.6,5.89,4.04,11.08,7.1,16.02c3.46,0.87,6.46,2.9,9.81,4.08c-0.42-4.5-6.22-4.36-8.94-6.85
			c-2.53-3.22-3.73-7.19-5.27-10.91C996.31,312.86,995.3,312.03,993.96,311.85 M993.07,322.9c-0.7,4.02-0.05,8.12-0.04,12.17
			c1.79,9.22,7.14,17.62,15,22.84c6.45,2.42,13.84,0.39,19.03-3.89c-0.05-0.43-0.14-1.28-0.1901-1.7c-3.58,0.67-6.16,3.88-9.89,4.1
			c-2.39,0.23-4.91,0.66-7.23-0.05c-9.01-5.9-15.22-16.49-14.59-27.39C994.98,326.82,995.38,324.03,993.07,322.9 M987.16,340.94
			c-0.24,3.34,1.86,6.15,2.79,9.24c1.29,3.24,1.67,7.06,4.31,9.6c3.04,3.72,7.92,4.76,11.92,7.08c2.28,1.3,4.89,2.03,7.55,1.86
			c0.06-0.39,0.19-1.16,0.25-1.54c-2.73-0.99-5.62-1.53-8.2-2.89c-4.2-2.14-9.27-3.84-11.4901-8.36
			c-1.35-3.64-2.4-7.38-4.0099-10.92C989.48,343.49,989.18,341.25,987.16,340.94 M976.63,349.72c0.73,4.72,0.32,9.55,1.08,14.25
			c2.55,6.04,3.02,13.47,8.68,17.69c2.25,1.49,6.01,4.5,8.1,1.28c-3.62-1.12-7.44-2.63-9.53-6c-2.53-3.11-2.64-7.25-4.09-10.83
			c-2.81-5.29-0.84-11.43-2.07-17.08C978.26,349.2,977.18,349.55,976.63,349.72 M991.73,370.34c3.39,4.08,7.09,8.35,12.35,9.96
			c0.45-2.3-1.68-3.14-3.25-4.13c-3.82-2.09-5.99-6.05-9.06-8.98c-2.73-2.35-2.28-6.52-4.96-8.86
			C985.63,362.82,988.41,367.45,991.73,370.34 M973.36,381.25c0.01,4.13-0.09,8.27,0.04,12.41c2.59,1.66,4.89,3.77,7.6,5.25
			c6.15,1.03,12.72,2,18.7-0.32c1.34-1.28,2.24-2.92,3.26-4.45c-5.23-0.56-10.55-0.38-15.69-1.62c-2.51-0.87-4.71-2.4-6.93-3.81
			c-2.76-1.54-3.6201-4.77-4.88-7.44C974.94,381.27,973.89,381.26,973.36,381.25 M969.24,398.96c0.67,2.8,1.18,5.7,2.45,8.31
			c2.67,2.85,6.74,3.87,9.6,6.55c2.22,1.78,4.4,4.66,7.64,3.94c1.81-0.34,4.32,0,5.41-1.79c-2.45-2.07-6.6,1.37-8.83-1.43
			c-3-3.15-6.76-5.32-10.49-7.46C971.45,405.6,973.48,399.27,969.24,398.96z"/>
		<path fill="#A7582D" stroke="#A7582D" stroke-width="0.0938" d="M846.73,260.28l1.9-0.59c0.89,7.14,1.46,14.34,2.99,21.39
			c3.96,20.21,12.06,39.36,21.76,57.45c3.58,6.5,6.84,13.22,11.22,19.24c0.14,1.16,0.21,2.34,0.1,3.51
			c-2.09,7.8,0.13,15.94-1.49,23.76c-0.47,4.22-5.62,5.64-5.94,9.88c-0.02-0.76-0.06-2.29-0.08-3.05c-0.39,0.33-1.17,0.98-1.56,1.3
			c-5.58,0.68-11.36,1.12-16.88-0.16c-0.79-0.22-1.56-0.43-2.32-0.62c-3.24-2.71-6.99-4.84-9.55-8.31
			c-10.22-12.7-14.17-28.94-18.5-44.32c-0.8-3.53-2.77-7.16-1.57-10.83c1.6-3.31,5.6-5.75,4.94-9.88
			c-1.16-5.88-6.66-9.64-8.31-15.32c-0.72-2.36,0.47-4.6,1.53-6.62c-0.92-1.15-1.92-2.38-1.84-3.94
			c-0.27-6.66,1.72-13.13,3.65-19.41c1.1899-3.15,2.05-6.9,5.16-8.74C836.43,262.29,841.76,261.71,846.73,260.28 M840.37,269.31
			c-2.98,10.05-1.43,20.66,0.55,30.73c1.33,4.79,5.55,7.88,9.41,10.61c1.67,0.24,1.67-1.74,0.46-2.36
			c-3.48-2.69-7.38-5.72-8.09-10.37c-1.38-8.18-2.97-16.64-0.88-24.83C841.96,271.75,842.78,268.3,840.37,269.31 M833.29,273.03
			c-1.17,4.8-2.22,9.62-3.93,14.27c-0.57,8.99,2.62,18.1,8.27,25.08c5.13,5.79,12.85,7.71,19.16,11.78c1.06,0.54,3.39,2.1,3.66-0.12
			c-4.57-4.06-10.64-5.65-15.76-8.82c-7.05-4.36-11.32-12.19-12.72-20.2c-0.45-2.97-1.24-6.16,0.03-9.04
			c1.53-3.98,2.33-8.18,3.47-12.28C834.92,273.53,833.83,273.19,833.29,273.03 M844.28,286.15c-0.85,5.09,0.3199,10.87,3.68,14.99
			c0.7599,0.81,1.67,3.21,3.07,1.8c0.06-2.05-1.75-3.56-2.6201-5.28c-1.87-2.48-1.7-5.71-2.11-8.63
			C846.15,288.04,845.98,284.7,844.28,286.15 M832.34,345.02c0.09,1.81-0.6801,4.2,1.11,5.45c5.55,4.43,9.7,10.84,16.56,13.42
			c1.31,0.67,2.8,1.06,4.25,0.53c4.49-1.35,9.28-2.28,13.26-4.89c2.19-2.66,2.65-6.38,1.5-9.59c-3.65,0.18-6.45,2.98-10.04,3.29
			c-3.79,0.39-7.56,0.95-11.34,1.33c-2.53,0.43-4.53-1.46-6.63-2.49C837.55,350.42,835.95,346.38,832.34,345.02z"/>
	</g>
	<g id="_x23_7f3c15ff">
		<path fill="#7F3C15" stroke="#7F3C15" stroke-width="0.0938" d="M905.7,92.86c1.77-3.14,5.98-0.97,8.44,0.15
			c-0.04,0.49-0.12,1.47-0.16,1.96C911.2,94.34,908.5,93.38,905.7,92.86z"/>
	</g>
	<g id="_x23_7d3a13ff">
		<path fill="#7D3A13" stroke="#7D3A13" stroke-width="0.0938" d="M896.2,97.32c1.43-1.71,1.85-6.24,4.78-5.31
			c-0.65,3.61-3.66,6.35-4.12,10c0.17,2.93,1.6,5.57,2.61,8.27c-0.5,0.12-1.5,0.37-2,0.5C895.51,106.67,893.09,101.52,896.2,97.32z"
			/>
	</g>
	<g id="_x23_7d3c14ff">
		<path fill="#7D3C14" stroke="#7D3C14" stroke-width="0.0938" d="M879.4,97.31c0.53-1.37,0.47-3.68,2.5699-3.28
			c0.65,4.09-2.35,7.87-2.6,11.98c-0.72,3.04,0.89,5.79,2.72,8.07c-0.31,0.48-0.9301,1.45-1.25,1.93c-1.57-2.07-3.57-4.17-3.65-6.93
			C876.73,105.01,878.4,101.17,879.4,97.31z"/>
	</g>
	<g id="_x23_7d3b13ff">
		<path fill="#7D3B13" stroke="#7D3B13" stroke-width="0.0938" d="M928.19,94.13c3.87,2.22,6.25,6.22,9.45,9.22
			c3.28,2.89,5.01,7.55,4.35,11.85c-2.61-1.29-2.11-4.59-3.38-6.81c-2.95-4.66-7.57-7.97-10.65-12.52
			C928.02,95.44,928.14,94.57,928.19,94.13z"/>
		<path fill="#7D3B13" stroke="#7D3B13" stroke-width="0.0938" d="M831.08,172c-1.29-1.31,1.4-2.72,1.85-1.05
			c1.83,2.24,2.98,4.96,4.89,7.14c5.44,2.77,12.02,3.7,17.86,1.52c3.63-0.61,5.73-4.24,9.37-4.78c0.03,2.25-2.12,3.28-3.62,4.52
			c-2.29,1.92-5.28,2.52-8.09,3.23c-5.4,1.73-10.89-0.68-16.08-2.07C834.48,178.38,832.84,174.99,831.08,172z"/>
	</g>
	<g id="_x23_7b3a12ff">
		<path fill="#7B3A12" stroke="#7B3A12" stroke-width="0.0938" d="M866.91,101.95c-0.29-1.25-0.68-4.62,1.52-3.42
			c0.86,5.61,2.92,11.57,1.4,17.16c-0.37,0.05-1.11,0.15-1.48,0.21C868.28,111.21,867.89,106.54,866.91,101.95z"/>
		<path fill="#7B3A12" stroke="#7B3A12" stroke-width="0.0938" d="M1002.15,303.89c2.77,1.87,4.13,5.15,6.89,7.04
			c3.91,2.84,8.87,3.64,12.94,6.2l0.43,0.95c-1.95,1.85-4.69-1.11-6.83-1.6c-5.37-1.71-10.31-4.89-13.27-9.78
			C1002.27,306,1002.19,304.6,1002.15,303.89z"/>
	</g>
	<g id="_x23_7b3a11ff">
		<path fill="#7B3A11" stroke="#7B3A11" stroke-width="0.0938" d="M859.23,106.11c0.43-0.05,1.29-0.14,1.72-0.18
			c0.74,4.6,0.63,9.38,2.12,13.84c0.98,2.05,2.21,4,2.91,6.18c-1.25,0.27-2.15-0.14-2.69-1.22
			C859.22,119.46,859.62,112.35,859.23,106.11z"/>
	</g>
	<g id="_x23_78370eff">
		<path fill="#78370E" stroke="#78370E" stroke-width="0.0938" d="M950.91,105.82c2.35,0.58,1.73,3.31,2.05,5.12
			c0.22,6,0.85,12.06,0.19,18.04c-0.3,0.45-0.9,1.35-1.2,1.8c-0.81-2.19-0.32-4.55-0.31-6.82
			C951.96,117.88,950.11,111.89,950.91,105.82z"/>
	</g>
	<g id="_x23_7a3c11ff">
		<path fill="#7A3C11" stroke="#7A3C11" stroke-width="0.0938" d="M962.35,111.1c3-0.41,1.54,3.86,2.1801,5.67
			c1.15,4.71,0.84,9.56-0.71,14.14c-0.37-0.29-1.1-0.89-1.46-1.19c-0.02-2.9,0.91-5.75,0.52-8.66
			C962.5,117.76,961.82,114.43,962.35,111.1z"/>
	</g>
	<g id="_x23_7b3b15ff">
		<path fill="#7B3B15" stroke="#7B3B15" stroke-width="0.0938" d="M843.49,116.78c0.8-1.73,0.69-5.17,3.4-4.68
			c-0.68,3.97-2.53,7.82-1.91,11.92c0.25,3.49,1.56,6.81,3.2,9.88c1.21,1.95,4.17,2.42,4.76,4.79c-2.08,0.85-4.02-0.83-5.52-2.05
			C843.62,130.88,841.19,123.62,843.49,116.78z"/>
	</g>
	<g id="_x23_7a3c12ff">
		<path fill="#7A3C12" stroke="#7A3C12" stroke-width="0.0938" d="M911.14,132.14c2.34,0.84,3,3.57,4.31,5.44
			c3.74,6.5,8.39,13.71,6.48,21.57c-2.13,0.96-1.61-2.1-1.8-3.2c-0.06-6.93-4.07-12.9-7.4-18.69
			C911.98,135.65,909.96,134.03,911.14,132.14z"/>
	</g>
	<g id="_x23_7c3b12ff">
		<path fill="#7C3B12" stroke="#7C3B12" stroke-width="0.0938" d="M991.2,133.29c0.39-0.04,1.18-0.11,1.58-0.14
			c-0.13,5.01-4.86,8.2-8.29,11.21c-2.93,2-5.32,5.01-8.8,6.06c0.1-0.56,0.3-1.67,0.4-2.23
			C981.57,143.71,988.06,139.95,991.2,133.29z"/>
		<path fill="#7C3B12" stroke="#7C3B12" stroke-width="0.0938" d="M997.41,146.37c1.48-0.85,2.22,1.19,0.97,1.96
			c-4.26,3.5-9.4,8.11-15.32,6.57l-0.53-0.93c1.96-1.35,4.6-0.82,6.73-1.8C992.24,150.63,994.59,148.16,997.41,146.37z"/>
		<path fill="#7C3B12" stroke="#7C3B12" stroke-width="0.0938" d="M991.73,370.34c-3.32-2.89-6.1-7.52-4.92-12.01
			c2.68,2.34,2.23,6.51,4.96,8.86c3.07,2.93,5.24,6.89,9.06,8.98c1.57,0.99,3.7,1.83,3.25,4.13
			C998.82,378.69,995.12,374.42,991.73,370.34z"/>
	</g>
	<g id="_x23_663716ff">
		<path fill="#663716" stroke="#663716" stroke-width="0.0938" d="M943.96,133.61c3.38,2.46,4.38,6.73,5.23,10.58
			c3.59-1.18,3.82-5.96,7.02-7.74c2.22,0.27,4.69,0.61,6.3,2.33c-5.16,8.09-11.97,15.02-16.43,23.55c-1.61-0.81-3.19-1.68-4.71-2.61
			C940.69,150.89,943.9,142.41,943.96,133.61z"/>
		<path fill="#663716" stroke="#663716" stroke-width="0.0938" d="M887.82,246.78c1.91-0.29,2.61,1.68,3.47,2.93
			c3.3,5.45,6.62,11.8,4.93,18.36c-0.81,2.23-0.84,5.33-3.31,6.44c-0.5099-3.26,2.01-6.18,1.94-9.49
			C895.32,258.09,890.15,252.83,887.82,246.78z"/>
		<path fill="#663716" stroke="#663716" stroke-width="0.0938" d="M973.36,381.25c0.53,0.01,1.58,0.02,2.1,0.02
			c1.2599,2.67,2.12,5.9,4.88,7.44c2.22,1.41,4.42,2.94,6.93,3.81c5.14,1.24,10.46,1.06,15.69,1.62c-1.02,1.53-1.92,3.17-3.26,4.45
			c-5.98,2.32-12.55,1.35-18.7,0.32c-2.71-1.48-5.01-3.59-7.6-5.25C973.27,389.52,973.37,385.38,973.36,381.25z"/>
	</g>
	<g id="_x23_7b3b13ff">
		<path fill="#7B3B13" stroke="#7B3B13" stroke-width="0.0938" d="M928.27,137.2c0.35,0.03,1.03,0.09,1.38,0.12
			c0.94,3.48,0.11,7.26,1.5099,10.64c3.04,6.16,1.35,13.29,1.53,19.9c-0.42,0.06-1.27,0.18-1.69,0.25
			c-0.89-5.24,0.23-10.6-0.52-15.85C928.34,147.63,926.96,142.22,928.27,137.2z"/>
		<path fill="#7B3B13" stroke="#7B3B13" stroke-width="0.0938" d="M976.63,349.72c0.55-0.17,1.63-0.52,2.17-0.69
			c1.23,5.65-0.74,11.79,2.07,17.08c1.45,3.58,1.56,7.72,4.09,10.83c2.09,3.37,5.91,4.88,9.53,6c-2.09,3.22-5.85,0.21-8.1-1.28
			c-5.66-4.22-6.13-11.65-8.68-17.69C976.95,359.27,977.36,354.44,976.63,349.72z"/>
	</g>
	<g id="_x23_7d3b12ff">
		<path fill="#7D3B12" stroke="#7D3B12" stroke-width="0.0938" d="M894.85,144.03c2.56-0.26,3.83,2.29,5.33,3.9
			c2.66,3.49,5.54,7.44,5.2,12.08c-0.22,1.47,0.41,3.8-1.4,4.46c-1.5-1.29-0.48-3.66-0.86-5.4
			C902.95,152.92,897.03,149.3,894.85,144.03z"/>
	</g>
	<g id="_x23_7e3c14ff">
		<path fill="#7E3C14" stroke="#7E3C14" stroke-width="0.0938" d="M883.83,152.12c3.03-0.41,5.31,1.95,7.85,3.18
			c3.7,1.97,7.85,4.37,8.96,8.74c0.04,1.64,0.88,4.43-1.71,4.35c-0.22-2.23-0.2-4.7-1.85-6.42c-3.09-3.5-7.65-5.13-11.53-7.53
			C884.63,153.93,884.06,153.16,883.83,152.12z"/>
	</g>
	<g id="_x23_7b3d11ff">
		<path fill="#7B3D11" stroke="#7B3D11" stroke-width="0.0938" d="M878.24,158.15c5.93,0.52,9.39,5.58,12.73,9.87
			c1.25,2.86,2.61,5.8,2.95,8.94c-1.51,1.69-2.19-1.14-2.6-2.14c-2.07-6.53-6.78-12.59-13.35-14.98
			C878.04,159.42,878.17,158.57,878.24,158.15z"/>
	</g>
	<g id="_x23_7a3d15ff">
		<path fill="#7A3D15" stroke="#7A3D15" stroke-width="0.0938" d="M1007.49,159.45l0.44-0.56c4.43,2.79,8.18,6.54,12.26,9.81
			c3,3,7.2,5.13,8.84,9.26c0.34,2.23-2.35,0.68-2.72-0.37c-4.8701-6.1-11.67-10.22-17.5001-15.32
			C1008.16,161.59,1006.4,160.47,1007.49,159.45z"/>
	</g>
	<g id="_x23_7b3e14ff">
		<path fill="#7B3E14" stroke="#7B3E14" stroke-width="0.0938" d="M870.23,161.04c-0.67-2.01,2.24-1.22,2.91-0.24
			c5.56,3.9,9.11,9.77,13.84,14.5c-0.48,0.31-1.45,0.93-1.93,1.23c-4.34-3.87-7.14-9.18-11.86-12.64
			C872.22,162.94,870.74,162.33,870.23,161.04z"/>
	</g>
	<g id="_x23_7f3b15ff">
		<path fill="#7F3B15" stroke="#7F3B15" stroke-width="0.0938" d="M957.27,163.67c0.4-0.06,1.21-0.17,1.61-0.22
			c3.81,3.15,6.57,7.49,10.85,10.12c0.02,0.6,0.04,1.79,0.05,2.39c-2.6-0.62-4.32-2.77-6.1801-4.5
			C961.31,169.02,958.62,166.8,957.27,163.67z"/>
		<path fill="#7F3B15" stroke="#7F3B15" stroke-width="0.0938" d="M987.72,229.77c2.53-0.06,4.16,2.01,6.04,3.37
			c3.38,2.91,8.05,3.03,12.2,4.09c-1.04,2.37-4.06,1.07-5.97,0.96C995.14,237.21,989.67,234.5,987.72,229.77z"/>
	</g>
	<g id="_x23_7c3c15ff">
		<path fill="#7C3C15" stroke="#7C3C15" stroke-width="0.0938" d="M1008.36,166.24l0.78-0.6c0.4,0.13,1.21,0.4,1.61,0.54
			c-1.23,2.47-2.75,5.31-5.65,6.04c-5.62,2.11-11.34,4.02-17.22,5.19c-1.94-0.94-0.49-2.61,1.07-2.53
			c5.01-1.06,9.85-2.74,14.69-4.42C1005.81,169.88,1006.78,167.64,1008.36,166.24z"/>
	</g>
	<g id="_x23_eac577ff">
		<path fill="#EAC577" stroke="#EAC577" stroke-width="0.0938" d="M925.42,188.34c7.52-4.88,11.49-13.75,19.62-17.92
			c1.9901,3.38,4.13,6.86,7.54,9c6.31,4.68,14.51,6.32,20.3,11.7c-0.41,3.62-2.02,7.13-1.36,10.83c1.07,8.91,6.61,16.38,8.7,25
			c1.5,5.43-1.31,11.31,1.28,16.54c3.05,6.99,11.99,9.21,14.41,16.59c1.6201,5.26-2.98,9.5-4.28,14.28
			c-1.98,5,0.12,10.37-0.83,15.44c-2.16,3.44-5.87,5.71-7.48,9.55c-4.37,9.22-11.31,17.38-13.23,27.62c-1.22,5.16,1.1,10.38,0,15.54
			c-8.51,10.88-19.9301,19.13-32.1801,25.31c-12.46,6.29-27.43,7.32-40.64,2.88c-5.08-3.29-9.12-8.06-12.67-12.93
			c-4.38-6.02-7.64-12.74-11.22-19.24c-9.7-18.09-17.8-37.24-21.76-57.45c-1.53-7.05-2.1-14.25-2.99-21.39
			c-0.59-7.79-1.16-15.64-2.89-23.28c5.52,0.59,10.78-2.38,16.32-1.42c5.8,0.91,11.26,4.4,17.32,2.97
			c-7.27-10.81-23.62-12.58-34.28-5.94c-1.36-11.14-3.11-22.37-1.66-33.6c5.74,1.46,12.58,0.35,16.11-4.83
			c4.81-7.17,6.34-17.04,14.47-21.6c6.48,4.12,9.14,12.4,16.3,15.56c8.56,3.2,17.81,0.44,26.65,1.37
			C919.77,189,922.94,190.3,925.42,188.34 M934.95,223.01c-6.5,2.84-12.21,8.55-13.75,15.63c1.93-0.07,3.89-0.6,5.29-2.03
			c5.61-5.39,13.14-8.4,20.65-10.02c5.19-1.05,9.76,2.95,14.93,2.2C954.8,222.42,944.19,219.39,934.95,223.01 M925.95,249.93
			c-1.18,0.39-1.95,1.21-2.3,2.46c1.75-0.1,3.47-0.44,5.15-1.02c-0.55,1.78-1.32,3.67-0.68,5.55c0.56,2.53,3.09,3.81,4.54,5.79
			c5.01-0.48,9.72-2.33,14.25-4.43c-0.5699-0.78-1.58-1.86-2.58-0.91c-2.09,0.89-4.15,1.8-6.26,2.61c1.84-2.88,1.87-6.39,0.14-9.32
			c3.63,0.08,7.3,0.22,10.81,1.31l0.45-1.43l0.42,0.14c1.14-5.08-2.85-10.06-7.99-10.21C935.31,240.43,929.8,244.98,925.95,249.93
			 M887.82,246.78c2.33,6.05,7.5,11.31,7.03,18.24c0.07,3.31-2.45,6.23-1.94,9.49c2.47-1.11,2.5-4.21,3.31-6.44
			c1.69-6.56-1.6299-12.91-4.93-18.36C890.43,248.46,889.73,246.49,887.82,246.78 M852,256.19c-1.74-0.12-2.7,0.62-2.87,2.21
			c3.06-0.24,6.08-1.01,9.17-0.93c-0.71,1.72-1.33,3.59-0.82,5.46c0.37,2.3,2.67,3.61,3.19,5.86c4.57,0.37,9.18-0.07,13.65-1.1
			c-0.35-2.79-3.45-0.84-5.19-0.85c2.38-2.75,2.85-6.56,1.1-9.77c3.25-0.04,6,1.76,8.83,3.11c1.43-2.26-2.01-2.88-3.25-3.94
			c-0.72-5.06-5.98-7.99-10.79-7.52C859.57,248.17,854.34,251.31,852,256.19 M907.99,254.7c-1.81,5.01-0.81,10.41,1.14,15.21
			c0.47,0.02,1.42,0.04,1.9,0.06c-1.64-4.81-2.5601-9.79-1.4901-14.84L907.99,254.7 M904.81,301.97c1.55,2.47,4.41,3.09,7.15,2.78
			C911.55,301.43,907.26,301.78,904.81,301.97 M891.98,304.24c1.18,3.18,4.81,5.01,7.82,2.86
			C897.82,304.93,894.72,304.59,891.98,304.24 M903.01,326.21c-3.23-0.64-6.76-1.62-9.91-0.22c-1.55,1.61-3.35,3.65-2.66,6.09
			c-0.03,2.88,3.86,3.13,4.49,5.79c1.92,3.77,5.59,6.93,9.98,7.04c4.91,0.17,10.23-0.73,14.19-3.8c2.55-3.12,5.45-6.29,6.37-10.34
			c-0.52-1.53-1.08-3.02-1.79-4.45c-3.39-1.42-6.96-2.89-10.7-2.65C909.6,324.29,906.43,325.78,903.01,326.21z"/>
		<path fill="#EAC577" stroke="#EAC577" stroke-width="0.0938" d="M954.1,360.16c5.67-3.8,10.6-8.57,15.17-13.61
			c-2.33,8.83-7.94,16.47-9.68,25.51c1.19,2.03,2.34,4.11,3.11,6.34c-24.12,51.38-47.31,103.4-76.93,151.92
			c-9.13-12.1-11.87-27.64-13.38-42.38c-2.55-31.09,1.89-62.13,4.88-93.02c0.32-4.24,5.47-5.66,5.94-9.88
			c1.62-7.82-0.6-15.96,1.49-23.76c3.62,3.97,7.09,8.29,11.71,11.14c7.85,2.64,16.35,3.33,24.57,2.43
			C933.24,373.46,944.22,367.2,954.1,360.16z"/>
		<path fill="#EAC577" stroke="#EAC577" stroke-width="0.0938" d="M925.79,1494.83c20.2401-3.1599,40.9,4.0701,60.96-1.2999
			c0.83,18.83,0.92,37.6799,0.98,56.52c0.24,49.6499-1.03,99.71,7.45,148.83c3.45,18.1899,7.74,36.48,16,53.15
			c-2.72,24.74-10.37,49.27-23.8,70.36c-8.59,13.46-19.82,25.08-32.46,34.78c-4.81-2.3301-9.19-6.15-14.9-5.77
			c3.81-27.34,23.35-49.7101,26.41-77.26c1.84-22.61-2.39-45.16-7.59-67.0701c-5.42-22.49-12.16-44.63-17.7401-67.08
			c-11.48-45.5699-25.92-90.33-37.68-135.8199c-0.04-0.27-0.11-0.8101-0.14-1.0701C910.42,1499.48,917.83,1496.14,925.79,1494.83z"
			/>
		<path fill="#EAC577" stroke="#EAC577" stroke-width="0.0938" d="M847.59,1505.46c4.78-0.34,9.66-0.2,14.3199,1.05
			c6.14,1.51,11.39,5.34,17.4301,7.12c7.95-1.39,14.92-5.9401,22.05-9.51c0.18,0.5,0.54,1.49,0.72,1.99
			c4.48,18.49,10.05,36.6901,15.21,55c-16.14,40.76-33.94,81.41-41.42,124.87c-3.8,20.51-3.3,41.47-1.87,62.1901
			c-9.52,5.96-9.78,18.87-18.01,25.89c-2.51,1.74-6.75,4.34-9.15,1.11c-10.16-10.39-12.65-25.8301-22.83-36.2301
			c3.7401-29.3899,17.44-56.5099,20.97-85.97C850.13,1603.9399,845.39,1554.6,847.59,1505.46z"/>
	</g>
	<g id="_x23_793b12ff">
		<path fill="#793B12" stroke="#793B12" stroke-width="0.0938" d="M1014.11,181.98c0.22-0.33,0.64-0.99,0.85-1.32
			c2.86,1.63,4.06,4.86,5.94,7.38c1.35,2.17,3.64,4.11,3.38,6.9c-0.25,5.03,0.85,10.36-1.08,15.16c-1.31,3.65-5.96,2.94-8.98,2.55
			c-4.67-0.51-8.61-3.07-12.58-5.33c-1.58-0.39-1.9-1.87-1.51-3.26c6.05,3.22,12.28,7.82,19.55,6.53c2.24-0.91,2.24-3.63,2.39-5.66
			c0.11-3.65,0.4-7.35-0.1-10.98C1019.75,189.71,1016.79,185.92,1014.11,181.98z"/>
	</g>
	<g id="_x23_7c3b14ff">
		<path fill="#7C3B14" stroke="#7C3B14" stroke-width="0.0938" d="M982.09,199.01c-0.96-1.53,2.28-3.73,2.0099-1.02
			c1.61,10.27,6.53,19.84,12.9901,27.9c3.23,2.5,7.77,1.33,11.5099,0.82c1.52-1.82,1.78-6.38,5.02-5.11
			c-1.05,2.47-2.06,5.03-3.83,7.09c-3.44,1.08-7.23,0.75-10.78,0.53c-3.73-0.45-5.53-4.04-7.39-6.83
			C987.22,215.22,983.28,207.41,982.09,199.01z"/>
		<path fill="#7C3B14" stroke="#7C3B14" stroke-width="0.0938" d="M987.16,340.94c2.02,0.31,2.32,2.55,3.1201,4.07
			c1.61,3.54,2.66,7.28,4.0099,10.92c2.22,4.52,7.29,6.22,11.4901,8.36c2.58,1.36,5.47,1.9,8.2,2.89c-0.06,0.38-0.19,1.15-0.25,1.54
			c-2.66,0.17-5.27-0.56-7.55-1.86c-4-2.32-8.88-3.36-11.92-7.08c-2.64-2.54-3.02-6.36-4.31-9.6
			C989.02,347.09,986.92,344.28,987.16,340.94z"/>
	</g>
	<g id="_x23_0d0100ff">
		<path fill="#0D0100" stroke="#0D0100" stroke-width="0.0938" d="M841.84,197.74c0.4,0.17,1.2,0.51,1.6,0.68
			c-1.45,11.23,0.3,22.46,1.66,33.6c0.13,1.47,0.33,2.94,0.64,4.39c1.73,7.64,2.3,15.49,2.89,23.28l-1.9,0.59
			C846.19,239.35,838.82,218.76,841.84,197.74z"/>
		<path fill="#0D0100" stroke="#0D0100" stroke-width="0.0938" d="M937.91,367.82c12.25-6.18,23.67-14.43,32.1801-25.31
			c-0.28,1.34-0.47,2.71-0.82,4.04c-4.57,5.04-9.5,9.81-15.17,13.61c-9.88,7.04-20.86,13.3-33.12,14.69
			c-8.22,0.9-16.72,0.21-24.57-2.43c-4.62-2.85-8.09-7.17-11.71-11.14c0.11-1.17,0.04-2.35-0.1-3.51
			c3.55,4.87,7.59,9.64,12.67,12.93C910.48,375.14,925.45,374.11,937.91,367.82z"/>
	</g>
	<g id="_x23_9a2c13ff">
		<path fill="#9A2C13" stroke="#9A2C13" stroke-width="0.0938" d="M934.95,223.01c9.24-3.62,19.85-0.59,27.12,5.78
			c-5.17,0.75-9.74-3.25-14.93-2.2c-7.51,1.62-15.04,4.63-20.65,10.02c-1.4,1.43-3.36,1.96-5.29,2.03
			C922.74,231.56,928.45,225.85,934.95,223.01z"/>
	</g>
	<g id="_x23_942813ff">
		<path fill="#942813" stroke="#942813" stroke-width="0.0938" d="M845.1,232.02c10.66-6.64,27.01-4.87,34.28,5.94
			c-6.06,1.43-11.52-2.06-17.32-2.97c-5.54-0.96-10.8,2.01-16.32,1.42C845.43,234.96,845.23,233.49,845.1,232.02z"/>
	</g>
	<g id="_x23_a73925ff">
		<path fill="#A73925" stroke="#A73925" stroke-width="0.0938" d="M925.95,249.93c3.85-4.95,9.36-9.5,15.95-9.46
			c5.14,0.15,9.13,5.13,7.99,10.21l-0.42-0.14C941.89,248.14,933.67,248.14,925.95,249.93z"/>
	</g>
	<g id="_x23_7d3c12ff">
		<path fill="#7D3C12" stroke="#7D3C12" stroke-width="0.0938" d="M1014.39,247.44c0.69-1.47,3.58-0.6,1.93,0.83
			c-3.85,5.86-12.1,8.27-18.55,5.96c-1.59-1.18,1.08-2.27,2.2-1.71C1005.3,253.6,1010.89,251.56,1014.39,247.44z"/>
	</g>
	<g id="_x23_a53827ff">
		<path fill="#A53827" stroke="#A53827" stroke-width="0.0938" d="M852,256.19c2.34-4.88,7.57-8.02,13.02-7.47
			c4.81-0.47,10.07,2.46,10.79,7.52c-3.92-1.12-7.99-1.72-12.05-1.89C859.8,254.67,855.95,255.79,852,256.19z"/>
	</g>
	<g id="_x23_040100ff">
		<path fill="#040100" stroke="#040100" stroke-width="0.0938" d="M925.95,249.93c7.72-1.79,15.94-1.79,23.52,0.61l-0.45,1.43
			c-3.51-1.09-7.18-1.23-10.81-1.31c1.73,2.93,1.7,6.44-0.14,9.32c2.11-0.81,4.17-1.72,6.26-2.61c1-0.95,2.01,0.13,2.58,0.91
			c-4.53,2.1-9.24,3.95-14.25,4.43c-1.45-1.98-3.98-3.26-4.54-5.79c-0.64-1.88,0.13-3.77,0.68-5.55c-1.68,0.58-3.4,0.92-5.15,1.02
			C924,251.14,924.77,250.32,925.95,249.93 M931.42,251.93c1.54,0.52,3.39,0.83,4.38,2.3c0.63,1.5,0.09,3.08-0.4,4.53
			c0.3199,0,0.95-0.02,1.2599-0.02c0.79-1.69,2.09-3.62,0.97-5.48C936.8,251.06,932.71,249.5,931.42,251.93 M933.46,255.3
			c-0.4901,1.61,0.05,2.16,1.64,1.65C935.57,255.27,935.03,254.72,933.46,255.3z"/>
	</g>
	<g id="_x23_463b2bff">
		<path fill="#463B2B" stroke="#463B2B" stroke-width="0.0938" d="M931.42,251.93c1.29-2.43,5.38-0.87,6.21,1.33
			c1.12,1.86-0.18,3.79-0.97,5.48c-0.31,0-0.94,0.02-1.2599,0.02c0.49-1.45,1.03-3.03,0.4-4.53
			C934.81,252.76,932.96,252.45,931.42,251.93z"/>
	</g>
	<g id="_x23_080100ff">
		<path fill="#080100" stroke="#080100" stroke-width="0.0938" d="M852,256.19c3.95-0.4,7.8-1.52,11.76-1.84
			c4.06,0.17,8.13,0.77,12.05,1.89c1.24,1.06,4.68,1.68,3.25,3.94c-2.83-1.35-5.58-3.15-8.83-3.11c1.75,3.21,1.28,7.02-1.1,9.77
			c1.74,0.01,4.84-1.94,5.19,0.85c-4.47,1.03-9.08,1.47-13.65,1.1c-0.52-2.25-2.82-3.56-3.19-5.86c-0.51-1.87,0.11-3.74,0.82-5.46
			c-3.09-0.08-6.11,0.69-9.17,0.93C849.3,256.81,850.26,256.07,852,256.19 M859.96,258.58c2.04-0.06,4.63-0.6,6.02,1.37
			c1.54,1.9,0.45,4.37-0.08,6.42c2.12-1.03,4.06-2.8,3.62-5.42C869.6,256.1,862.24,254.44,859.96,258.58 M863.64,261.63
			c-0.02,0.45-0.06,1.33-0.08,1.78c1.08,1.36,3.13-0.71,1.8-1.8C864.93,261.61,864.07,261.63,863.64,261.63z"/>
	</g>
	<g id="_x23_7b5217ff">
		<path fill="#7B5217" stroke="#7B5217" stroke-width="0.0938" d="M907.99,254.7l1.55,0.43c-1.07,5.05-0.15,10.03,1.4901,14.84
			c-0.48-0.02-1.4301-0.04-1.9-0.06C907.18,265.11,906.18,259.71,907.99,254.7z"/>
	</g>
	<g id="_x23_655033ff">
		<path fill="#655033" stroke="#655033" stroke-width="0.0938" d="M859.96,258.58c2.28-4.14,9.64-2.48,9.56,2.37
			c0.44,2.62-1.5,4.39-3.62,5.42c0.53-2.05,1.62-4.52,0.08-6.42C864.59,257.98,862,258.52,859.96,258.58z"/>
	</g>
	<g id="_x23_7e3b13ff">
		<path fill="#7E3B13" stroke="#7E3B13" stroke-width="0.0938" d="M1014.19,267.26c0.35,0.02,1.07,0.07,1.42,0.09
			c1.48,2.96,4.37,6.31,2.67,9.75c-2.19,6.12-7.1801,11.04-13.28,13.2c-1.86-0.73,0.36-2.58,1.34-3.01
			c4.72-2.44,8.43-6.7,10.22-11.7C1016.83,272.65,1013.48,270.29,1014.19,267.26z"/>
	</g>
	<g id="_x23_7a3b14ff">
		<path fill="#7A3B14" stroke="#7A3B14" stroke-width="0.0938" d="M840.37,269.31c2.41-1.01,1.59,2.44,1.45,3.78
			c-2.09,8.19-0.5,16.65,0.88,24.83c0.71,4.65,4.61,7.68,8.09,10.37c1.21,0.62,1.21,2.6-0.46,2.36c-3.86-2.73-8.08-5.82-9.41-10.61
			C838.94,289.97,837.39,279.36,840.37,269.31z"/>
	</g>
	<g id="_x23_7b3c15ff">
		<path fill="#7B3C15" stroke="#7B3C15" stroke-width="0.0938" d="M833.29,273.03c0.54,0.16,1.63,0.5,2.18,0.67
			c-1.14,4.1-1.9399,8.3-3.47,12.28c-1.27,2.88-0.48,6.07-0.03,9.04c1.4,8.01,5.67,15.84,12.72,20.2
			c5.12,3.17,11.19,4.76,15.76,8.82c-0.27,2.22-2.6,0.66-3.66,0.12c-6.31-4.07-14.03-5.99-19.16-11.78
			c-5.65-6.98-8.84-16.09-8.27-25.08C831.07,282.65,832.12,277.83,833.29,273.03z"/>
		<path fill="#7B3C15" stroke="#7B3C15" stroke-width="0.0938" d="M969.24,398.96c4.24,0.31,2.21,6.64,5.78,8.12
			c3.73,2.14,7.49,4.31,10.49,7.46c2.23,2.8,6.38-0.64,8.83,1.43c-1.09,1.79-3.6,1.45-5.41,1.79c-3.24,0.72-5.42-2.16-7.64-3.94
			c-2.86-2.68-6.93-3.7-9.6-6.55C970.42,404.66,969.91,401.76,969.24,398.96z"/>
	</g>
	<g id="_x23_7c3a12ff">
		<path fill="#7C3A12" stroke="#7C3A12" stroke-width="0.0938" d="M1024.22,278.04c0.41,0.27,1.2101,0.82,1.61,1.1
			c-1.24,3.52-1.7799,7.46-4.27,10.39c-2.02,2.6-4.43,4.88-7.19,6.69c0.11,0.91,0.24,1.84,0.37,2.76c-2.9-0.21-5.02-2.47-7.75-3.15
			c-2.36-0.69-4.8-1.05-7.1-1.89c0.07-0.42,0.2-1.27,0.27-1.69c4.05,0.22,7.82,1.87,11.75,2.71c2.78-1.42,5.09-3.6,7.22-5.85
			C1022.14,286.15,1022.55,281.73,1024.22,278.04z"/>
	</g>
	<g id="_x23_7c3c14ff">
		<path fill="#7C3C14" stroke="#7C3C14" stroke-width="0.0938" d="M844.28,286.15c1.7-1.45,1.87,1.89,2.02,2.88
			c0.41,2.92,0.24,6.15,2.11,8.63c0.8701,1.72,2.6801,3.23,2.6201,5.28c-1.4,1.41-2.3101-0.99-3.07-1.8
			C844.6,297.02,843.43,291.24,844.28,286.15z"/>
	</g>
	<g id="_x23_b67e36ff">
		<path fill="#B67E36" stroke="#B67E36" stroke-width="0.0938" d="M904.81,301.97c2.45-0.19,6.74-0.54,7.15,2.78
			C909.22,305.06,906.36,304.44,904.81,301.97z"/>
	</g>
	<g id="_x23_b68138ff">
		<path fill="#B68138" stroke="#B68138" stroke-width="0.0938" d="M891.98,304.24c2.74,0.35,5.84,0.69,7.82,2.86
			C896.79,309.25,893.16,307.42,891.98,304.24z"/>
	</g>
	<g id="_x23_7d3c13ff">
		<path fill="#7D3C13" stroke="#7D3C13" stroke-width="0.0938" d="M993.96,311.85c1.34,0.18,2.35,1.01,2.7,2.34
			c1.54,3.72,2.7401,7.69,5.27,10.91c2.72,2.49,8.52,2.35,8.94,6.85c-3.35-1.18-6.35-3.21-9.81-4.08
			C998,322.93,994.56,317.74,993.96,311.85z"/>
	</g>
	<g id="_x23_7b3c13ff">
		<path fill="#7B3C13" stroke="#7B3C13" stroke-width="0.0938" d="M993.07,322.9c2.31,1.13,1.91,3.92,2.09,6.08
			c-0.6299,10.9,5.58,21.49,14.59,27.39c2.32,0.71,4.84,0.28,7.23,0.05c3.73-0.22,6.31-3.43,9.89-4.1
			c0.05,0.42,0.14,1.27,0.1901,1.7c-5.1901,4.28-12.5801,6.31-19.03,3.89c-7.86-5.22-13.21-13.62-15-22.84
			C993.02,331.02,992.37,326.92,993.07,322.9z"/>
	</g>
	<g id="_x23_9f2d29ff">
		<path fill="#9F2D29" stroke="#9F2D29" stroke-width="0.0938" d="M903.01,326.21c3.42-0.43,6.59-1.92,9.97-2.54
			c3.74-0.24,7.31,1.23,10.7,2.65c0.71,1.43,1.27,2.92,1.79,4.45c-7.43,0.42-13.9,5.11-21.4,5.02c-3.13,0.31-6.99-0.88-9.14,2.08
			c-0.63-2.66-4.52-2.91-4.49-5.79c-0.69-2.44,1.11-4.48,2.66-6.09C896.25,324.59,899.78,325.57,903.01,326.21z"/>
	</g>
	<g id="_x23_ab4636ff">
		<path fill="#AB4636" stroke="#AB4636" stroke-width="0.0938" d="M904.07,335.79c7.5,0.09,13.97-4.6,21.4-5.02
			c-0.92,4.05-3.8199,7.22-6.37,10.34c-3.96,3.07-9.28,3.97-14.19,3.8c-4.39-0.11-8.06-3.27-9.98-7.04
			C897.08,334.91,900.94,336.1,904.07,335.79z"/>
	</g>
	<g id="_x23_653716ff">
		<path fill="#653716" stroke="#653716" stroke-width="0.0938" d="M832.34,345.02c3.61,1.36,5.21,5.4,8.67,7.05
			c2.1,1.03,4.1,2.92,6.63,2.49c3.78-0.38,7.55-0.94,11.34-1.33c3.59-0.31,6.39-3.11,10.04-3.29c1.15,3.21,0.69,6.93-1.5,9.59
			c-3.98,2.61-8.77,3.54-13.26,4.89c-1.45,0.53-2.94,0.14-4.25-0.53c-6.86-2.58-11.01-8.99-16.56-13.42
			C831.66,349.22,832.43,346.83,832.34,345.02z"/>
	</g>
	<g id="_x23_000002ff">
		<path fill="#000002" stroke="#000002" stroke-width="0.0938" d="M962.7,378.4c0.32,0.87,0.7,1.74,1.11,2.59
			c-1.63,2.51-2.83,5.24-3.95,8c-22.86,48.48-44.89,97.57-73.17,143.22l-2,0.5c-7.11-10.29-11.11-22.39-12.93-34.7
			c-5.03-34.9,0.64-70.05,3.87-104.84c0.39-0.32,1.17-0.97,1.56-1.3c0.02,0.76,0.06,2.29,0.08,3.05
			c-2.99,30.89-7.43,61.93-4.88,93.02c1.51,14.74,4.25,30.28,13.38,42.38C915.39,481.8,938.58,429.78,962.7,378.4z"/>
		<path fill="#000002" stroke="#000002" stroke-width="0.0938" d="M885.8,567.26c0.99,0.06,2,0.13,3.01,0.23
			c3.87,1.2,4.71,5.63,5.63,9.04c-1.05,6.7599-0.67,13.6299-1.07,20.4399c0.17,4.57-1.92,9.05-0.67,13.6
			c-0.85,6.63-2.76,13.08-5.01,19.36c-2.05,4.9-0.63,10.38-2.2,15.4c2.44,0.23,4.88,0.58,7.32,0.99c0.89,0.79,1.84,1.61,2.77,2.4
			c-1.96,0.05-3.91,0.29-5.84,0.59c-0.33-0.04-1.01-0.11-1.35-0.14c-3.77-0.69-7.6-0.58-11.4-0.62c-0.45-1.05-0.86-2.1-1.25-3.15
			c0.57-11.64,4.34-22.8,5.67-34.33c0.67-11.55,4-22.8,4.1801-34.38c-0.14-0.1-0.42-0.31-0.56-0.41l-0.38-0.26
			c0.55-1.36,0.75-2.78,0.59-4.24c1.02,3,1.22,6.16,1.29,9.31C887.03,576.46,886.56,571.82,885.8,567.26z"/>
	</g>
	<g id="_x23_705b7cff">
		<path fill="#705B7C" stroke="#705B7C" stroke-width="0.0938" d="M959.86,388.99c1.12-2.76,2.32-5.49,3.95-8
			c3.54,5.38,2.56,11.89,2.69,17.97c-0.04,6.82,3.35,13.74,9.18,17.42c5.1,3.33,11.55,6.52,17.63,3.81
			c-0.66,0.75-1.31,1.51-1.93,2.28c-1.77,0.1-3.53,0.21-5.28,0.25c-5.53-1.83-12.11-3.19-15.38-8.53
			c-3.61-4.61-5.77-10.26-6.14-16.1c-0.27-4.38-0.02-8.84-1.37-13.08C962.01,386.27,960.81,387.53,959.86,388.99z"/>
	</g>
	<g id="_x23_2b51e0ff">
		<path fill="#2B51E0" stroke="#2B51E0" stroke-width="0.0938" d="M959.86,388.99c0.95-1.46,2.15-2.72,3.35-3.98
			c1.35,4.24,1.1,8.7,1.37,13.08c0.37,5.84,2.53,11.49,6.14,16.1c3.27,5.34,9.85,6.7,15.38,8.53c-0.6,8.45-1.73,16.85-2.4,25.29
			c-0.83,12.03-6.53,23.07-7.67,35.04c-0.44,4.76-1.42,9.45-1.84,14.21c4.28-2.22,7.6-6.03,9.92-10.2c1.68-3.31,5.16-5.71,8.89-5.92
			c5.07-0.63,10.25,0.07,15.28-0.84c2.12-1.54,3.75-3.64,5.58-5.51c0.99,8.06-0.15,16.13-0.28,24.21
			c-0.46,7.51-0.42,15.49-4.31,22.2c-2.52,3.48-5.69,6.57-9.5,8.6c-5.35,3.31-11.81,3.47-17.76,4.94
			c-16.14,3.82-32.76,4.86-49.01,8.05c-8.78,1.82-17.4,4.4-25.77,7.58c-6.75,3.25-13.43,6.65-19.91,10.41
			c-2.13-9.38-2.07-19.1-0.63-28.57C914.97,486.56,937,437.47,959.86,388.99z"/>
		<path fill="#2B51E0" stroke="#2B51E0" stroke-width="0.0938" d="M858.75,393.01c5.52,1.28,11.3,0.84,16.88,0.16
			c-3.23,34.79-8.9,69.94-3.87,104.84c1.82,12.31,5.82,24.41,12.93,34.7c-1.7,8.63-1.62,17.58,0.13,26.2
			c0.48,2.32,0.76,4.67,0.96,7.04c-4.67-1.87-9-4.54-13.85-5.94c-10.18-3.16-20.15-7.31-30.78-8.72
			c-6.51-1.41-12.45-4.58-18.6801-6.84c-6.22-3.59-13.22-7.46-16.04-14.47c-0.9-4.76-1.34-9.68-0.81-14.51
			c1.19-7.08,4.52-13.53,6.62-20.35c4.59-12.55,8.54-25.32,12.43-38.1c-1.05,0.01-2.08,0.02-3.11,0.04c-0.07,1.48-0.15,3-0.57,4.45
			c-3.38,12.37-7.8,24.42-11.98,36.54c-2.33,6.81-5.82,13.52-5.68,20.89c0.1,4.22,0.2,8.52,1.29,12.62
			c1.88,3.28,4.08,6.59,7.31,8.69c3.72,2.53,7.21,5.55,11.55,7c6.24,2.19,12.17,5.44,18.79,6.42c9.18,1.2,17.72,4.96,26.56,7.52
			c5.45,1.44,10.31,4.37,15.53,6.43c0.26,1.39,0.55,2.77,0.88,4.16c0.16,1.46-0.04,2.8799-0.59,4.24
			c-6.95-4.72-15.63-4.99-23.56-6.88c-7.03-1.73-14.14-3.1-21.32-3.94c-12.82-2.59-25.95-5.68-37.06-12.9
			c-3.56-1.95-5.09-5.88-7-9.22c-3.06-5.52-2.41-12.02-2.46-18.08c-0.27-7.14,2.43-13.89,4.11-20.72
			c4.38-16.78,13.14-31.88,20.32-47.53c2.34-0.31,4.69-0.65,7.04-1.02c1.09-1.5,2.34-2.92,3.01-4.67
			c4.94-12.96,10.46-25.77,17.49-37.76C849.58,406.45,853.01,398.89,858.75,393.01 M843.08,431.08
			c-2.54,10.51-7.16,20.38-9.76,30.88c-1.2,5.95-0.08,12.11-1.37,18.05c-1.32,5.26-1.17,10.75-2.71,15.96
			c-1.48,5.21,0.39,10.53,2.43,15.31c2,1.52,4.51,2.16,6.96,2.6c1.37-5.26,1.43-10.78,3.23-15.93c2.12-6.21,3.67-12.58,5.27-18.93
			c1.58-6.57,0.81-13.39,1.91-20.02c0.58-8.03,2.09-16.05,1.2401-24.12c-1.01-2.49-3.4-4.12-5.34-5.87
			C843.83,429.25,843.21,429.94,843.08,431.08z"/>
		<path fill="#2B51E0" stroke="#2B51E0" stroke-width="0.0938" d="M1018.2,427.38c13.96,4.74,29.36,0.53,43.2399,5.85
			c11.9401,4.49,19.8301,15.28,26.76,25.44c17.04,25.14,25.8401,54.72,31.7001,84.24c9.6899,47.82,13.1799,96.73,24.59,144.23
			c1.36,5.11,0.58,10.42,0.84,15.64c-3.71-2.36-8.0599-3.4-12.34-4.08c-6.3099-0.79-13.12,2.63-19.04-0.55
			c1.9501-4.3,5.9301-6.9301,9.64-9.56c4.7001-3.05,6.2201-9.52,4.61-14.66c-2.7-1.73-6.23-2.85-9.1399-0.97
			c-10.3,3.87-17.7101,12.18-25.9901,19.02c-2.71,2.58-6.74,2.39-9.87,4.14c-2.0199,6.92,1.24,13.93,2.3201,20.76
			c2.62,0.07,5.3199,0.23,7.85-0.65c11.59-4.74,24.41-3.67,36.66-3.92c4.8199-0.24,9.47,1.29,14.25,1.64
			c0.37,13.76-0.01,27.53,0.22,41.3c-7.53,11.06-12.84,23.61-21.36,33.98c-5.4-4.4-10.09-9.62-15.6901-13.77
			c-5.61-3.96-10.08-9.2401-15.45-13.4901c-8.74-7.47-17.89-14.43-26.59-21.93l-0.11-0.94c4.23-7.28,8.63-14.5099,11.85-22.3199
			c0.52-1.25,0.5399-2.63,0.11-3.9c-6.99-22.53-13.1-45.39-21.99-67.27c-3.0801-6.92-5.63-14.22-10.04-20.42
			c-4.21,3.14-7.86,6.98-10.87,11.28c0.5701-3.61,2.4501-6.73,4.3-9.8c1.86-2.37-0.02-5.22-0.36-7.77
			c-0.8501-2.69-0.26-5.5,0.47-8.14c2.49-4.55,6.09-8.35,8.8199-12.72c-0.27-5.69-2.4299-11.19-1.98-16.95
			c1.04,0.19,2.09,0.39,3.15,0.59c1.47-3.39,3.47-6.54,4.6-10.06c1.36-5.8,0.77-11.81,1.75-17.65c1.42-7.73,1.73-15.64,3.5701-23.29
			c3.7599-11.92,7.3099-24.12,7.6799-36.7c0.4401-3.7-2.35-6.86-5.17-8.83c-6.21,15.01-11.74,30.58-13.21,46.88
			c-0.6799,5.0099-1.1699,10.0699-2.35,15c-1.15-4.29-1.04-8.85-2.72-12.9901c-1.12-2.92-2.15-5.87-3.02-8.86
			c-3.55,0.03-6.9,1.16-10.1801,2.36c2.15-5.28,1.6001-11.07,1.8501-16.63c0.49-9.04-1.27-17.97-1.6201-26.98
			c-1.3799-8.67-2.8199-17.36-5.0699-25.85c-2.89-9.11-3.89-18.67-6.42-27.88C1018.38,429.5,1018.26,428.09,1018.2,427.38
			 M1085.35,459.95c-2.74,6.9-4.5699,14.12-6.8199,21.19c-0.42,3.92-0.03,7.89-0.13,11.83c0.0599,7.41-1.47,14.69-2.4601,21.99
			c-0.95,8.99-1.61,18-2.2,27.02c-0.66,12.37,0.9301,24.69,1.05,37.05c0.72,9.66-0.37,19.3199-0.25,29
			c-1.38,13.0099,0.8999,26,0.58,39.03c0.1,4.62-0.5699,9.43,1.16,13.84c1.0699,2.88,1.72,5.95,3.1699,8.69
			c1.52,2.1,4.88,4.34,7.0701,1.77c2.3199-2.58,4.98-4.9,7.02-7.71c2.75-6.98-0.0901-14.4301,0.46-21.62
			c0.5699-8.7401,0.14-17.51,0.65-26.25c2.2999-19.98-1.3-39.92-2.62-59.84c-1.0701-11.33,1.03-22.61,1.39-33.92
			c0.8199-6.92-0.4601-13.81-0.89-20.71c-0.2101-5.82-1.13-11.58-1.5801-17.37C1089.0601,475.95,1087.85,467.77,1085.35,459.95
			 M1116.92,653.84c-4.92,1.74-8.5601,5.62-13.11,8.03c-3.42,2.57-6.77,5.23-10.14,7.87c-1.41,4.62-0.7201,9.28-0.2101,13.97
			c2.88-0.2401,5.16-2.19,7.5701-3.58c5.35-3.47,11-6.85,14.9399-11.99c2.78-3.55,6.3301-6.35,9.62-9.38
			c0.4401-3.25,0.16-6.54,0.0901-9.79C1122.52,650.17,1120.1,652.68,1116.92,653.84z"/>
		<path fill="#2B51E0" stroke="#2B51E0" stroke-width="0.0938" d="M802.71,460.81c3.94-1.86,7.97-4.09,12.46-4.01
			c-2.46,6.96-6.47,13.23-9.36,20.01c-4.41,9.04-8.21,18.4-10.7,28.16c-1.62,6.59-4.19,13.13-3.84,20.04
			c0.15,5.89-0.68,12.15,2.05,17.63c1.81,3.39,3.29,7.16,6.17,9.81c8.92,6.65,19.79,10.04,30.49,12.63c9.1,2.5,18.6,2.92,27.72,5.33
			c5.99,1.69,12.27,2.05,18.24,3.8701c2.98,0.86,5.86,2.7,9.09,2c0.14,0.1,0.42,0.31,0.56,0.41
			c-0.1801,11.58-3.51,22.83-4.1801,34.38c-1.33,11.53-5.1,22.69-5.67,34.33c-1.79-0.17-3.57-0.37-5.34-0.53
			c-2.79-4.89-8.55-6.46-13-9.38c-9.08-5.81-17.9-12.01-26.72-18.19c-4.02-2.73-9.02-3.01-13.61-4.07
			c-4.37-0.81-8.34-2.9-12.15-5.09c-4.22-2.37-7.33-6.32-11.79-8.3c-5.04-2.3-9.98-4.83-15.15-6.83c-0.29,4.38,2.21,8.12,4.2,11.8
			c2.88,5.01,5.69,10.06,8.61,15.05c-0.73,0.15-2.19,0.45-2.92,0.6c0.42,1.2599,0.86,2.53,1.52,3.71c2.84,4.15,3.93,9.3,7.32,13.1
			c4.45,4.95,8.43,10.36,13.45,14.78c-4.36,1.82-8.8,3.45-13.23,5.12c0.19,0.69,0.57,2.06,0.77,2.75
			c-3.34,3.54-5.96,7.65-8.81,11.57c0.4-2.78,1.63-5.29,2.86-7.78c2.3-7.12-1.11-14.17-3.42-20.8c-0.39-0.79-0.89-1.49-1.52-2.1
			c-3.83,9.32-8.56,18.24-12.49,27.52c-1.3,3.04-1.54,6.39-2.62,9.5c-4.19-1.57-4.67-6.82-6.57-10.29
			c-3.75-5.21-8.98-9.44-15.19-11.3c-2.59-0.5-4.74,1.36-6.82,2.57c2.65,5.5,8,9.09,10.35,14.75c1.5601,3.76,4.95,6.92,4.39,11.32
			c-1.4-0.42-3.39,0.09-4.21-1.41c-1.63-2.48-2.72-5.3-4.65-7.58c-5.49-6.61-11.36-12.96-18.09-18.34
			c-1.36,1.26-3.8199,2.22-3.5699,4.45c0.09,3.28,2.62,5.72,4.7,7.99c5.52,5.61,9.48,12.53,12.94,19.55
			c-8.97-0.22-17.76,1.76-26.58,3c-0.4301,2.21-2.75,5.71,0.34,6.96c5.12,2.47,10.91,0.67,16.2-0.16
			c9.79,0.0099,19.11,3.49,28.32,6.44c3.2,0.68,5.07,3.68,6.06,6.5699c1.19,4.27,0.43,8.92,2.14,13.08
			c1.42,3.57,3.14,7.02,4.56,10.61c-5.69-0.04-11.26,1.3-16.92,1.69c-7.38,0.47-15.3,2.26-20.8,7.51
			c-7.66,5.84-12.11,14.63-17.92,22.12c-1.24,0.39-2.46,0.81-3.68,1.22c-0.58-3.81-1.15-7.69-2.98-11.14
			c-1.73-4.99-3.14-10.1-5.14-15c-3.11-8.53-6.89-17.2-6.43-26.48c0.19-15.4,5.3199-30.15,9-44.95
			c6.52-22.93,11.14-46.33,17.47-69.31c10.05-33.78,17.78-68.8,34.91-99.92c1.39,7.35,2.5699,14.75,3.64,22.16
			c0.51,5.72,0.29,11.54,1.7,17.16c0.44,0.17,1.32,0.4901,1.76,0.66c-0.81-13.61-2.13-27.22-4.87-40.59
			c-0.41-0.12-1.21-0.35-1.61-0.47C773.11,484.31,785.93,469.48,802.71,460.81 M782.87,497.61c-2.2,7.69-4.46,15.43-5.2,23.44
			c-0.92,8.09-4,15.82-4.11,24.01c-0.02,5.26-3.6,9.42-5.8,13.92c-3.28,7.76-4.87,16.24-4.28,24.67c1.46,7.04,5,13.39,7.86,19.93
			c8.48,16.92,16.78,34.33,29.85,48.29c1.59-2.02-0.68-3.85-1.8-5.35c-11.17-13.28-18.67-29.09-26.38-44.51
			c-2.94-6.8-6.94-13.42-7.65-20.93c0.4-5.41,0.65-10.91,2.56-16.04c0.92-5.59,4.98-9.84,6.99-14.98c1.07-4.45,0.77-9.13,1.8-13.59
			c1.62-6.67,3.08-13.4,3.71-20.24c0.74-6.51,3.89-12.56,4.06-19.14L782.87,497.61z"/>
		<path fill="#2B51E0" stroke="#2B51E0" stroke-width="0.0938" d="M1018.44,539.43c3.59-1.35,6.21-4.31,9.2599-6.54
			c-0.6599,12.1-0.1899,24.23,1.7101,36.2c0.52,8.0099,3.1599,15.67,4.0499,23.62c-5.6599,3.18-6.9199,10.05-11.48,14.28
			c-7.38,8.48-16.76,14.82-26.2,20.77c-3.13,1.71-6.58,2.73-9.88,4.03c-4.39,1.85-9.2401,1.35-13.87,1.73
			c-6.32,0.37-12.97,0.95-18.96-1.56c-11.69-4.48-23.75-7.9-35.78-11.34c-3.45-1.17-4.92,3.24-5.85,5.71
			c-1.21,5.52-3.06,12.31,1.02,17.1c1.66,2.69,4.19,4.65,6.92,6.19c0.17,0.53,0.51,1.58,0.68,2.1c-8.93-2.5-18.1-3.97-27.25-5.4
			c-2.44-0.41-4.88-0.76-7.32-0.99c1.57-5.02,0.15-10.5,2.2-15.4c2.25-6.28,4.16-12.73,5.01-19.36c1.93-10.05,2.44-20.35,2.55-30.56
			c0.04-1.48,1.42-2.35,2.33-3.33c2.85-2.51,5.45-5.42,8.91-7.13c8.3-4.34,16.76-8.69,25.93-10.86c7.48-1.86,14.88-4,22.35-5.89
			c7.88-1.51,15.86-2.49,23.74-4.07c6.13-0.92,12.41-1.01,18.44-2.64C1004.17,544.07,1011.37,541.96,1018.44,539.43z"/>
		<path fill="#2B51E0" stroke="#2B51E0" stroke-width="0.0938" d="M873.01,649.37c5.13,0.02,10.26,0.22,15.38-0.2
			c0.34,0.03,1.02,0.1,1.35,0.14c5.11,0.92,10.21,1.87,15.33,2.73c22.92,4.09,44.81,12.22,67.03,18.98
			c6.12,1.68,11.51,5.14,17.31,7.62c-4.8799-0.37-8.7599-3.82-13.59-4.46c-3.85-0.58-7.76-2.74-11.63-1.91
			c-1.53,2.74-2.45,5.88-4.86,8.04c-3.35,3.1-4.67,7.77-8.25,10.65c-3.61,3.09-6.57,6.82-9.91,10.17
			c-4.48,4.33-7.21,10.05-11.46,14.58c-2.19,1.99-2.1,6.44,0.92,7.6c5.53,3.3,12.08,3.49,18.31,4.01c1.42-0.09,2.38,1.25,1.89,2.6
			c-0.54,2.31-1.05,5.33-3.53,6.32c-7.51,3.36-13.73,9.51-17.07,17.03c-1.88,5-0.24,10.35,2.21,14.84
			c-5.48,1.09-10.88,2.7-16.47,3.2c-13.95,0.65-27.92,2.55-41.8799,0.9c-11.09-0.75-22-3.54-32.14-8.08
			c-7.78-3.08-15.62-6-22.97-10.03c-4.67-2.54-9.79-4.38-13.99-7.67c-0.22-0.17-0.66-0.52-0.88-0.69c-0.44-0.19-1.32-0.57-1.75-0.77
			c7.7-14.6,7.48-31.83,5.9-47.83c-1.63-12.53-4.08-25.3-10.27-36.45c8.01-2.42,15.43-7.56,24.06-7.15c3.46-0.1,6.56-1.85,9.83-2.81
			c6.96,1.11,13.69,3.41,20.09,6.34c3.8101,2.53,5.35,7.15,8.44,10.35c3.84,2.83,7.96,5.33,12.34,7.27c1.64-1.06,3.3-2.07,4.98-3.05
			C879.51,663.89,876.33,656.22,873.01,649.37 M810.34,658.18c-0.09,3.63,0.46,7.22,1,10.8c0.69,11.31,1.72,22.61,2.1299,33.94
			c0.07,5.87-0.48,12.04,2.09,17.52c1.38,0.15,3.66,1.09,4.51-0.39c0.46-4.04-0.27-8.07-0.18-12.11c-0.04-2.75,1.83-5.12,1.68-7.89
			c-0.12-4.9,0.04-9.8,0.91-14.63c2.75-2.33,5.45,0.44,7.76,1.98c2.12-2.17,2.13-5.5,2.04-8.33c-1.75-8.27-5.9-15.83-10.6801-22.72
			C817.75,656.05,813.56,655.58,810.34,658.18z"/>
		<path fill="#2B51E0" stroke="#2B51E0" stroke-width="0.0938" d="M782.62,736.54c2.17,6.2401,4.87,12.32,8.38,17.94
			c0.5-0.04,1.51-0.12,2.02-0.16c-2.35,3.39-6.36,3.13-9.86,4.17c-9.43,6.43-19.16,12.48-28.0099,19.73
			c-2.86,2.78-5.58,5.76-7.92,8.9901c-3.69,8.28-3.58,17.78-7.63,25.9c-1.02,3.15,0.9,7.29,4.62,6.86
			c-4.35,5.19-7.5699,11.21-11.84,16.46c-0.43,0.93-2.61,3.08-0.3,3.31c3.69-3,5.9-7.3,8.54-11.16c5.6-8.86,13.07-16.29,19.54-24.49
			c10.31-11.39,22.19-21.27,34.53-30.38c4.26-2.82,7.08-7.22,9.45-11.64c-4.43,0.16-5.06,5.81-8.29,8
			c-10.56,8.29-21.64,16.08-30.86,25.92c-6.55,6.19-11.94,13.43-17.82,20.23c1.7-8.74,4.76-17.49,10.9-24.11
			c4.15-3.43,9.65-4.74,13.69-8.34c3.7-3.31,6.81-7.21,10.52-10.51c6.34-5.66,13.64-10.37,18.86-17.18c1.4-1.7,1.69-3.92,2.15-5.98
			c11.08,5.66,22,11.79,33.76,15.9901c10.82,4.67,22.18,8.56,34.02,9.45c8.93,1.04,17.98,1.56,26.95,0.62
			c10.14-1.12,20.51-0.7599,30.42-3.5c12.64-2.64,25.37-4.84,38.01-7.46c0.13,6.44,2.31,12.6,4.81,18.47
			c3.75,8.13,7.88,16.09,11.94,24.08c5.27,10.96,9.18,22.51,13.01,34.04c5.34,17.61,10.1,35.68,10.33,54.19
			c0.65,26.15-5.28,51.8-9.74,77.4c-1.17-9.09,0.24-18.26-0.6-27.36c-0.24-5.14-4.97-9.2-10.05-8.92c-2.57,8.2-3.02,16.86-4.5,25.29
			c-1.36,11.68-4.44,23.06-6.4301,34.63c-2.37,12.63-3.36,25.6-7.47,37.85c-2.35,9.29-5.2,18.46-7.13,27.86
			c-2.71,12.47-4.86,25.09-8.75,37.28c-3.35,12.34-7.16,24.55-11.28,36.65c-3.81,10.24-3.95,21.33-7.05,31.76
			c-1.23,5.36-2.89,11.83,0.5,16.72c2.42-1.9401,5.07-3.9401,6.08-7.02c3.34-9.6801,7.29-19.16,9.86-29.09
			c3.75-11.8,7.21-23.7101,9.35-35.92c2.07-8.58,3.34-17.36,5.96-25.79c4.14-10.4099,8.61-20.73,11.42-31.6
			c3.94-12.24,7.17-24.77,12.21-36.62l0.18,1.05c-7.18,45.9-14.21,91.96-16.66,138.4c-1.56,18.71-1.34,37.5-2.33,56.25
			c-0.66,5.7699-0.47,11.58-0.66,17.38c-0.96-14.42,1.89-28.8101,0.45-43.2101c-0.33-3.34-0.31-6.6899-0.67-10.01
			c-1.2-7.58-0.46-15.3199-1.78-22.89c-2.52,3.5701-5.35,7.02-7.1,11.0701c-3.0099,9.4-5.0699,19.09-6.95,28.78
			c-1.83,10.58-4.14,21.21-3.69,32.01c0.25,7.0699-0.63,14.23,0.8,21.23c0.84,4.22,1.56,8.47,2.16,12.74
			c0.76,6.5,5.16,11.8099,6.54,18.14c1.43,7.11,1.43,14.61,4.32,21.37c3.55,8.3199,6.36,17.0299,11.49,24.58
			c0.6,1.38,2.09,1.74,3.34,2.4c2.82,8.48,5.16,17.1,7.52,25.72c6,22.28,13.05,44.28,20.83,66
			c6.28,18.23,13.64,36.0701,20.15,54.2001c-10.38,3.5299-19.72,9.3799-29.76,13.7c-9.44,4.11-19.8199,6-30.1,5.62
			c-16.55-0.38-33.66-4.17-49.79,1.3099c-11.73,3.76-21.97,10.8401-33.2401,15.67c-2.37-1.33-1.9399-4.29-2.22-6.5499
			c-0.1-8.03-1.4-15.9901-1.22-24.02c0.2-8.7201-1.22-17.3501-2.14-25.99c-0.7-10.9601-5.02-21.1801-7.68-31.7201
			c-2.57-11.0399-5.52-21.99-8.28-32.98c-1.57-5.9399-2.73-12.01-5.2-17.65c-1.04-2.75-2.71-6.0299-0.46-8.6499
			c1.32,1.0699,3.08,1.97,3.39,3.87c2.26,9.3199,8.85,16.6699,12.39,25.47c3.64,8.85,8.86,16.88,14.36,24.6799
			c4.19,8.2101,9.58,15.7201,14.77,23.3201c1.28,2.4299,4.22,0.88,6.26,0.59c-2.87-6.87-7.65-12.76-10.09-19.8099
			c-4.03-11.3201-8.11-22.61-11.97-33.9801c-3.61-9.1-9.01-17.5299-11.07-27.1899c-3.11-10.72-5.54-21.66-9.67-32.05
			c-1.23-4-3.08-7.7899-3.92-11.8999c-1.72-10.62-3.89-21.2101-6.8199-31.5701c-7.35-19.34-14.5-38.76-21.91-58.09
			c-5.58-13.85-7.87-28.7001-11.76-43.05c-6.29-17.7-12.56-35.4199-19.23-52.98c-4.37-11.46-7.47-23.39-12.09-34.74
			c-3.7-6.84-6.53-14.08-10.1-20.97c-4.86-10.09-8.09-20.87-12.82-31.01c-5.08-8.9-8.86-19.69-18.63-24.55
			c-0.81,1.47-1.91,3.1-1.07,4.84c2.33,7.1,5.92,13.71,8.58,20.68c7.79,21.17,16.02,42.23,21.96,64.01
			c2.32,7.85,4.97,15.59,7.76,23.28c3.36,10.77,6.47,21.62,9.44,32.5c1.7599,6.99,5.47,13.4,6.3,20.63
			c2.07,18.9399,3.38,38.13,8.77,56.49c7.04,20.65,8.39,42.74,15.53,63.37c10.15,30.15,17.31,61.17,24.91,92.03
			c2.41,12.2799,4.12,24.6899,5.94,37.0699c0.29,5.04,1.56,9.9301,3.38,14.64c3.22,10.55,6.68,21.03,10.63,31.34
			c1.47,8.17,1.46,16.55,2.6,24.78c2.58,1.63,5.37,2.99,7.77,4.95c1.78,1.54-1.4,1.54-2.37,1.65c-4.47-2.08-8.79-4.5499-13.48-6.13
			c-18.6-6.4399-37.08,6.54-55.82,2.35c-10.6-43.84-12.85-89.0199-18.8-133.59c-3.21-23.24-7.86-46.24-12.84-69.15
			c-20.13-89.21-37.72-178.98-54.55-268.87c-4.84-27.05-8.65-54.4299-8.38-81.97c-0.06-11.5,0.25-23.02,1.69-34.43
			c2.23-27.24,14.48-52.94,13.7-80.51c-0.19-11.1-6.5-20.58-11.37-30.13c-4.27-8.03-7.56-17.56-4.96-26.63
			c5.24-9.45,11.88-18.03,18.19-26.78c5.5-7.87,13.76-14.35,23.56-15.41c7.05-0.37,13.99-2.05,21.08-1.98
			C778.25,737.89,781.02,738.59,782.62,736.54 M813.62,771.47c-1.98,4.41-4.15,8.72-6.2,13.1c-6.1,10.44-13,20.71-16.25,32.5
			c-1.59,4.71-2.98,9.5-4.67,14.19c0.41,0.38,1.24,1.13,1.65,1.5c2.17-5.22,3.49-10.74,5.4-16.06
			c3.18-11.32,10.01-21.06,15.77-31.16c2.02-4.7599,4.93-9.17,6.39-14.15C815.19,771.41,814.14,771.45,813.62,771.47 M945.06,776.49
			c1.52,2.63,3.36,5.06,4.93,7.68c3.45,5.97,8.78,10.57,12.36,16.45c6.39,10.19,12.45,20.65,17.25,31.69
			c2.01,3.65,3.54,7.56,3.83,11.76c0.46,7.05,3.27,13.59,5.1,20.35c1.96,8.42,3.9399,16.92,3.85,25.63
			c0.95,13.37-0.31,26.79,0.33,40.16c1.4-0.48,2.0099-1.7401,2.13-3.11c2.81-14.89,3.7599-30.05,4.54-45.16
			c0.51-6.38-1.23-12.6-1.97-18.88c-1.53-6.08-4.53-11.65-6.7-17.5c-1.38-4.76-2.59-9.56-3.92-14.32c-1.39-4.9-4.78-8.83-7.23-13.2
			c-4.52-6.89-7.18-14.75-10.32-22.31c-1.11-2.1-2.99-3.64-4.56-5.36c-4.38-4.37-7.86-9.5-11.73-14.29
			C950.31,776.21,947.68,776.33,945.06,776.49 M940.08,777.85c-1.63,10.38-3.39,20.7401-4.8,31.15
			c-2.9301,13.03-1.64,26.45-1.8,39.69c0.48-0.08,1.43-0.24,1.91-0.32c0.44-11.48-0.82-23.06,1.17-34.43
			c1.92-10.95,3.25-21.98,5.24-32.91C942.31,779.72,942.32,776.23,940.08,777.85 M776,972.98c4.54,7.99,9.2,15.96,14.73,23.33
			c1.23,1.4,1.31,3.3,1.45,5.1c-4.05-0.3199-6.89-4.71-11.19-3.67c-0.22,3.11-0.76,6.19-1.24,9.27c0.27,2.11,0.76,4.2,0.92,6.34
			c-1.52,0.98-3.27,1.92-3.93,3.73c-0.92,8.9,2.48,17.3799,4.47,25.89c3.02,9.24,7.02,18.12,10.46,27.2101
			c1.65,3.6899,1.7,7.8899,3.69,11.48c3.61,10.12,7.1,20.2799,10.55,30.47c6.65,17.2,13.52,34.33,18.96,51.96
			c3.08,10.6901,8.68,20.41,12.36,30.85c2.65,4.5901,8.85,8.7101,13.91,5.3401c3.4-1.4,4.48-5.1,5.97-8.1
			c1.77-4.17,4.09-8.4701,3.28-13.16c0.19-8.66-2.33-16.96-3.9-25.38c-1.24-6.72,0.46-14.01-2.82-20.25
			c-3.83-8.7001-6.54-17.87-10.84-26.36c-4.87-10.6901-8.6-21.85-13.23-32.64c-4.65-8.78-9.28-17.59-13.2599-26.7001
			c-1.78-3.84-4.13-7.4399-5.14-11.59c1.53,0.5,3,1.4,3.64,2.98c2.53,5.51,4.31,11.39,7.54,16.5601
			c3.77,5.98,6.48,12.58,10.85,18.1899c7.17,9.26,11.3,20.8101,20.08,28.8101c3.47,2.62,7.94,6.3199,12.49,4.16
			c-0.01-6.04-4.01-11.51-7.01-16.65c-3.17-5.79-6.7-11.36-9.96-17.09c-3.81-6.13-6.11-13.02-9.54-19.3501
			c-3.81-8.6-9.37-16.2899-13.16-24.8999c-3.57-5.2501-6.22-11.0201-9.33-16.53c-3.37-7.63-8.56-14.21-12.85-21.3101
			c-2.28-3.6899-5.95-6.22-8.22-9.91c-2.19-3.34-5.67-5.51-8.13-8.62c-3.2-3.9-7.75-6.21-11.87-8.95
			C772.04,965.74,774.95,969.98,776,972.98z"/>
		<path fill="#2B51E0" stroke="#2B51E0" stroke-width="0.0938" d="M1040.46,773.29c7.29-11.02,15.67-21.3,23.3401-32.07
			c8.63,7.04,17.21,14.15,25.7899,21.25c5.64,4.41,10.37,9.85,16.0801,14.2c6.1899,4.09,10.98,9.92,16.9299,14.33
			c-4.5,7.27-5.3199,15.89-7.61,23.95c-3.76,9.54-11.88,17.22-21.6,20.51c-4.39-4.61-9.6-8.35-13.76-13.19
			c-9.9401-10.51-18.55-22.15-27.39-33.58C1048.54,783.4,1043.88,778.7,1040.46,773.29z"/>
	</g>
	<g id="_x23_000126ff">
		<path fill="#000126" stroke="#000126" stroke-width="0.0938" d="M856.43,392.39c0.76,0.19,1.53,0.4,2.32,0.62
			c-5.74,5.88-9.17,13.44-13.53,20.29c-7.03,11.99-12.55,24.8-17.49,37.76c-0.67,1.75-1.92,3.17-3.01,4.67
			c-2.35,0.37-4.7,0.71-7.04,1.02c-7.18,15.65-15.94,30.75-20.32,47.53c-1.68,6.83-4.38,13.58-4.11,20.72
			c0.05,6.06-0.6,12.56,2.46,18.08c1.91,3.34,3.44,7.27,7,9.22c11.11,7.22,24.24,10.31,37.06,12.9c7.18,0.84,14.29,2.21,21.32,3.94
			c7.93,1.89,16.61,2.16,23.56,6.88l0.38,0.26c-3.23,0.7-6.11-1.14-9.09-2c-5.97-1.82-12.25-2.1801-18.24-3.8701
			c-9.12-2.41-18.62-2.83-27.72-5.33c-10.7-2.59-21.57-5.98-30.49-12.63c-2.88-2.65-4.36-6.42-6.17-9.81
			c-2.73-5.48-1.9-11.74-2.05-17.63c-0.35-6.91,2.22-13.45,3.84-20.04c2.49-9.76,6.29-19.12,10.7-28.16
			c2.89-6.78,6.9-13.05,9.36-20.01c-4.49-0.08-8.52,2.15-12.46,4.01c-16.78,8.67-29.6,23.5-38.56,39.89
			c-0.16,0.27-0.47,0.81-0.62,1.08c-17.13,31.12-24.86,66.14-34.91,99.92c-6.33,22.98-10.95,46.38-17.47,69.31
			c-3.6801,14.8-8.81,29.55-9,44.95c-0.46,9.28,3.3199,17.95,6.43,26.48c2,4.9,3.41,10.01,5.14,15c1.23,6.19,1,12.5,0.54,18.75
			c2.22-2.82,4.15-5.84,6.12-8.83c5.81-7.49,10.26-16.28,17.92-22.12c5.5-5.25,13.42-7.04,20.8-7.51
			c5.66-0.39,11.23-1.73,16.92-1.69c2.2,0.11,4.39,0.3,6.6,0.5c-1.6,2.05-4.37,1.35-6.61,1.58c-7.09-0.07-14.03,1.61-21.08,1.98
			c-9.8,1.06-18.06,7.54-23.56,15.41c-6.31,8.75-12.95,17.33-18.19,26.78c-2.6,9.07,0.69,18.6,4.96,26.63
			c4.87,9.55,11.18,19.03,11.37,30.13c0.78,27.57-11.47,53.27-13.7,80.51c-1.44,11.41-1.75,22.93-1.69,34.43
			c-0.27,27.54,3.54,54.92,8.38,81.97c16.83,89.89,34.42,179.66,54.55,268.87c4.98,22.91,9.63,45.91,12.84,69.15
			c5.95,44.5701,8.2,89.75,18.8,133.59c18.74,4.1901,37.22-8.7899,55.82-2.35c4.69,1.5801,9.01,4.05,13.48,6.13
			c1.99,1.09,4.11,0.13,5.98-0.74c11.27-4.83,21.51-11.91,33.2401-15.67c16.13-5.48,33.24-1.6899,49.79-1.3099
			c10.28,0.38,20.66-1.51,30.1-5.62c10.04-4.3201,19.38-10.17,29.76-13.7c-6.51-18.13-13.87-35.9701-20.15-54.2001
			c-7.78-21.72-14.83-43.72-20.83-66c-2.36-8.62-4.7-17.24-7.52-25.72c0.2-0.59,0.59-1.76,0.79-2.35l0.6,1.1799
			c3.91,9.37,5.92,19.41,8.75,29.15c11.11,40.61,25.84,80.11,41.26,119.26c-14.5,3.89-26.6,13.66-41.16,17.41
			c-0.46,0.13-1.39,0.37-1.85,0.49c-20.06,5.37-40.72-1.86-60.96,1.2999c-7.96,1.3101-15.37,4.65-22.5099,8.27
			c0.03,0.26,0.1,0.8,0.14,1.0701c-0.33,0.48-0.98,1.45-1.31,1.9399c-0.18-0.5-0.54-1.49-0.72-1.99
			c-7.13,3.5699-14.1,8.12-22.05,9.51c-6.04-1.78-11.29-5.61-17.4301-7.12c-4.66-1.25-9.54-1.39-14.3199-1.05
			c-0.46,0.0601-1.38,0.2001-1.84,0.27c-12.63,2.3-25.45,6.38-38.39,3.8101c-11.64-45.28-13.32-92.24-19.84-138.36
			c-6.18-43.2001-17.13-85.5-26.05-128.17c-10.48-49.38-20.3-98.91-29.87-148.47c-7.86-42.5601-17.75-85.03-19.33-128.4401
			c-0.76-25.54,0.53-51.39,6.92-76.22c4.15-17.64,9.65-35.5,8.12-53.83c-1.76-14.61-13.26-25.64-16.14-39.92
			c-2.62-10.4,2.33-20.69,1.68-31.11c-1.7-17.31-13.36-32.3-12.79-50.01c0.72-14.02,4.71-27.59,8.29-41.09
			c5.04-17.87,9.19-35.97,13.54-54.02c3.88-16.12,8.72-31.9901,13.18-47.96c6.85-23.67,14.04-47.48,25.65-69.34
			c10.45-19.8,26.17-37.89,47.36-46.37c4.66-2.4,10.13-0.43,14.9-2.35c1.65-0.6,2.43-2.32,3.02-3.85
			c5.64-14.72,12.03-29.24,20.46-42.61C849.58,402.29,852.43,396.92,856.43,392.39z"/>
	</g>
	<g id="_x23_000013ff">
		<path fill="#000013" stroke="#000013" stroke-width="0.0938" d="M999.27,415.36c0.33-0.34,0.97-1.03,1.3-1.38
			c6.85,6.95,15.81,12.02,25.53,13.43c11.61,1.39,23.67-0.2,34.92,3.69c10.25,3.29,17.74,11.63,24.13,19.89
			c9.8099,13.23,17.52,27.97,23.39,43.33c7.8999,21.21,12.59,43.44,16.49,65.69c7.49,42.95,11.4399,86.55,21.8099,128.98
			c0.74,6.31-0.24,12.69,0.3,19.03c-0.08,14.99-0.04,29.98-0.03,44.98c0.1,1.4-0.5599,2.67-1.34,3.78
			c-5.23,7.6299-9.25,16.0099-14.22,23.8c-3.4801,5.58-7.4501,10.9-10.02,16.99c-2.79,6.54-2.78,13.9-5.77,20.38
			c-4.3,9.34-12.76,16.21-22.3201,19.69c-20.8099-16.38-35.23-38.96-51.7799-59.27c-1.37-1.91-4.01-3.62-3.12-6.31
			c13.21-18.44,28.95-35.73,37.12-57.2c-5.01-17.84-10.37-35.65-16.36-53.2c-4.05-11.5699-8.6101-22.98-14.3301-33.8199
			c-9.12,7.05-13.73,17.95-19.52,27.5699c-7.77,13.86-19.1099,25.2401-27.35,38.77c-6.25,9.99-8.13,21.83-12.14,32.74
			c-2.67,8.1-6.97,15.49-11.27,22.8c-3.15,5.58-6.45,11.6201-6.13,18.2401c0.55,6.55,3.41,12.59,6.1,18.49
			c6,12.44,12.88,24.51,17.38,37.62c7.9901,21.51,14.84,43.83,16.21,66.86c0.52,11.24,0.06,22.53-1.4,33.69
			c-0.15,0.98-0.28,1.98-0.4,2.98c-0.91,8.78-2.66,17.44-4.09,26.15c-0.09,0.48-0.28,1.42-0.37,1.9
			c-3.67,18.52-6.66,37.16-9.59,55.8199c0.71,0.14,2.12,0.42,2.8199,0.5601c-0.45,0.36-1.36,1.09-1.8199,1.45
			c-0.32-0.03-0.96-0.1-1.28-0.14c-6.4,40.54-12.8,81.1299-16.1,122.06c5.46,0.36,10.95,0.4399,16.39,1.0599l1.09,0.6001
			c-6.1-0.2401-12.21-0.2301-18.31-0.3401c-0.62,9.5-0.96,19.01-1.53,28.51c-0.09-2.29-0.64-4.5-1.22-6.6799
			c2.45-46.4401,9.48-92.5,16.66-138.4c2.67-15.57,5.1-31.19,7.7-46.77c4.46-25.6,10.39-51.25,9.74-77.4
			c-0.23-18.51-4.99-36.58-10.33-54.19c-3.83-11.53-7.7401-23.08-13.01-34.04c-4.06-7.99-8.19-15.95-11.94-24.08
			c-2.5-5.87-4.68-12.03-4.81-18.47c-12.64,2.62-25.37,4.82-38.01,7.46c-9.91,2.7401-20.28,2.38-30.42,3.5
			c-8.97,0.94-18.02,0.42-26.95-0.62c-11.84-0.89-23.2-4.78-34.02-9.45c-11.76-4.2-22.68-10.33-33.76-15.9901
			c0.19-1.39,0.9-2.5699,1.7-3.67c4.2,3.29,9.32,5.13,13.99,7.67c7.35,4.03,15.19,6.95,22.97,10.03
			c10.14,4.54,21.05,7.33,32.14,8.08c13.96,1.65,27.93-0.25,41.8799-0.9c5.59-0.5,10.9901-2.11,16.47-3.2
			c11.2-1.85,22.32-4.18,33.42-6.53c1.74-0.02,2.06-1.93,2.71-3.17c1.18-3.03,2.64-5.94,4.07-8.86c3.56-6.47,7.65-12.67,10.2-19.64
			c2.61-6.43,4.2599-13.17,6.48-19.73c1.85-4.75,3.06-9.78,5.61-14.24c1.99-3.55,4.29-6.92,6.68-10.22
			c-3.74-2.87-7.85-5.27-12.2-7.08c-5.8-2.48-11.19-5.94-17.31-7.62c-22.22-6.76-44.11-14.89-67.03-18.98
			c-5.12-0.86-10.22-1.81-15.33-2.73c1.93-0.3,3.88-0.54,5.84-0.59c-0.93-0.79-1.88-1.61-2.77-2.4c9.15,1.43,18.32,2.9,27.25,5.4
			c11.7,2.4901,22.89,6.76,34.39,9.95c10.49,3.65,21.57,5.88,31.38,11.27c5.68,2.54,11.05,5.67,16.48,8.67
			c1.39,0.96,2.57-0.63,3.35-1.56c4.89-6.28,9.73-12.59,14.31-19.1c5.11-7.97,9.5801-16.33,14.39-24.48
			c3.01-4.3,6.66-8.14,10.87-11.28c4.41,6.2,6.96,13.5,10.04,20.42c8.89,21.88,15,44.74,21.99,67.27c0.4299,1.27,0.41,2.65-0.11,3.9
			c-3.22,7.81-7.62,15.04-11.85,22.3199l0.11,0.94c8.7,7.5,17.85,14.46,26.59,21.93c5.37,4.25,9.84,9.53,15.45,13.4901
			c5.6001,4.15,10.29,9.37,15.6901,13.77c8.52-10.37,13.83-22.92,21.36-33.98c1.14-1.88,0.92-4.13,0.97-6.22
			c-0.2-15.42,0.12-30.84-0.14-46.25c-0.26-5.22,0.52-10.53-0.84-15.64c-11.41-47.5-14.9-96.41-24.59-144.23
			c-5.86-29.52-14.66-59.1-31.7001-84.24c-6.9299-10.16-14.8199-20.95-26.76-25.44c-13.8799-5.32-29.2799-1.11-43.2399-5.85
			c0.06,0.71,0.18,2.12,0.25,2.82c-0.6-0.29-1.78-0.88-2.37-1.18c-0.15-0.65-0.44-1.96-0.58-2.62c-2.94-1.36-5.92-2.67-8.55-4.57
			c-0.57-0.47-1.13-0.94-1.67-1.41C1003.29,418.71,1001.26,417.05,999.27,415.36 M1040.46,773.29c3.42,5.41,8.0801,10.11,11.78,15.4
			c8.84,11.43,17.45,23.07,27.39,33.58c4.16,4.84,9.37,8.58,13.76,13.19c9.72-3.29,17.84-10.97,21.6-20.51
			c2.29-8.06,3.11-16.68,7.61-23.95c-5.95-4.41-10.74-10.24-16.9299-14.33c-5.7101-4.35-10.4401-9.79-16.0801-14.2
			c-8.58-7.1-17.1599-14.21-25.7899-21.25C1056.13,751.99,1047.75,762.27,1040.46,773.29z"/>
	</g>
	<g id="_x23_2438abff">
		<path fill="#2438AB" stroke="#2438AB" stroke-width="0.0938" d="M993.31,420.19c1.93-1.68,4-3.19,5.96-4.83
			c1.99,1.69,4.02,3.35,6.01,5.06c-0.1201,4.21-1.2401,8.5-0.03,12.66c3.24,13.8,8.48,27.37,8.61,41.71
			c-1.83,1.87-3.46,3.97-5.58,5.51c-5.03,0.91-10.21,0.21-15.28,0.84c-3.73,0.21-7.21,2.61-8.89,5.92
			c-2.32,4.17-5.64,7.98-9.92,10.2c0.42-4.76,1.4-9.45,1.84-14.21c1.14-11.97,6.84-23.01,7.67-35.04c0.67-8.44,1.8-16.84,2.4-25.29
			c1.75-0.04,3.51-0.15,5.28-0.25C992,421.7,992.65,420.94,993.31,420.19z"/>
	</g>
	<g id="_x23_000739ff">
		<path fill="#000739" stroke="#000739" stroke-width="0.0938" d="M1005.28,420.42c0.54,0.47,1.1,0.94,1.67,1.41
			c-1.8,11.54,4.07,22.15,6.16,33.21c3.69,14.67,3.7,29.95,2.49,44.95c-0.41,8.98-0.61,19.39-7.58,26.04
			c-5.31,6.06-13.18,8.9399-21,9.86c-14.18,3.23-28.59,5.18-42.99,7.1c-12.52,1.83-24.83,5.04-36.6201,9.58
			c-6.5099,3.33-13.22,6.41-19.29,10.5c0.01,1.49,0.38,2.96,0.69,4.42c-1.01-0.1-2.02-0.17-3.01-0.23c0.76,4.56,1.23,9.2,0.73,13.83
			c-0.07-3.15-0.27-6.31-1.29-9.31c-0.33-1.39-0.62-2.77-0.88-4.16c-5.22-2.06-10.08-4.99-15.53-6.43
			c-8.84-2.56-17.38-6.32-26.56-7.52c-6.62-0.98-12.55-4.23-18.79-6.42c-4.34-1.45-7.83-4.47-11.55-7c-3.23-2.1-5.43-5.41-7.31-8.69
			c-1.09-4.1-1.19-8.4-1.29-12.62c-0.14-7.37,3.35-14.08,5.68-20.89c4.18-12.12,8.6-24.17,11.98-36.54c0.42-1.45,0.5-2.97,0.57-4.45
			c1.03-0.02,2.06-0.03,3.11-0.04c-3.89,12.78-7.84,25.55-12.43,38.1c-2.1,6.82-5.43,13.27-6.62,20.35
			c-0.53,4.83-0.09,9.75,0.81,14.51c2.82,7.01,9.82,10.88,16.04,14.47c6.23,2.26,12.17,5.43,18.6801,6.84
			c10.63,1.41,20.6,5.56,30.78,8.72c4.85,1.4,9.18,4.07,13.85,5.94c-0.2-2.37-0.48-4.72-0.96-7.04
			c-1.75-8.62-1.83-17.5699-0.13-26.2l2-0.5c-1.44,9.47-1.5,19.19,0.63,28.57c6.48-3.76,13.16-7.16,19.91-10.41
			c8.37-3.18,16.99-5.76,25.77-7.58c16.25-3.19,32.87-4.23,49.01-8.05c5.95-1.47,12.41-1.63,17.76-4.94c3.81-2.03,6.98-5.12,9.5-8.6
			c3.89-6.71,3.85-14.69,4.31-22.2c0.13-8.08,1.27-16.15,0.28-24.21c-0.13-14.34-5.37-27.91-8.61-41.71
			C1004.04,428.92,1005.16,424.63,1005.28,420.42z"/>
		<path fill="#000739" stroke="#000739" stroke-width="0.0938" d="M1016.08,429.02c0.59,0.3,1.77,0.89,2.37,1.18
			c2.53,9.21,3.53,18.77,6.42,27.88c2.25,8.49,3.6901,17.18,5.0699,25.85c0.3501,9.01,2.1101,17.94,1.6201,26.98
			c-0.25,5.56,0.2999,11.35-1.8501,16.63c-0.6899,1.77-1.4299,3.53-2.01,5.35c-3.0499,2.23-5.6699,5.19-9.2599,6.54
			c-7.07,2.53-14.27,4.64-21.49,6.66c-6.03,1.6299-12.31,1.72-18.44,2.64c-7.88,1.58-15.86,2.56-23.74,4.07
			c-7.47,1.89-14.87,4.03-22.35,5.89c-9.17,2.17-17.63,6.52-25.93,10.86c-3.46,1.71-6.06,4.62-8.91,7.13
			c-0.91,0.98-2.29,1.85-2.33,3.33c-0.11,10.21-0.62,20.51-2.55,30.56c-1.25-4.55,0.84-9.03,0.67-13.6
			c0.4-6.81,0.02-13.68,1.07-20.4399c3.13-2.54,5.7-5.78,9.21-7.84c8.95-4.8,18.0699-9.61,28.03-11.95
			c8.27-2.18,16.48-4.63,24.83-6.51c10.74-1.36,21.31-4,32.13-4.78c6.85-0.77,13.39-3.05,19.97-4.98
			c4.97-1.7,10.45-2.77,14.39-6.5099c4.1-2.9901,5.54-8.19,6.13-12.98c0.49-8.34,0.79-16.73-0.42-25.03
			c-0.75-14.92-3.5599-29.7-7.7599-44.02C1019.31,444.3,1018.01,436.59,1016.08,429.02z"/>
		<path fill="#000739" stroke="#000739" stroke-width="0.0938" d="M795.85,770.07c3.23-2.19,3.86-7.84,8.29-8
			c-2.37,4.42-5.19,8.82-9.45,11.64c-12.34,9.11-24.22,18.99-34.53,30.38c-6.47,8.2-13.94,15.6299-19.54,24.49
			c-2.64,3.86-4.85,8.16-8.54,11.16c-2.31-0.23-0.13-2.38,0.3-3.31c4.27-5.25,7.49-11.27,11.84-16.46c1.01-1.23,2-2.48,2.95-3.75
			c5.88-6.8,11.27-14.04,17.82-20.23C774.21,786.15,785.29,778.36,795.85,770.07z"/>
		<path fill="#000739" stroke="#000739" stroke-width="0.0938" d="M813.62,771.47c0.52-0.02,1.57-0.06,2.09-0.08
			c-1.46,4.98-4.37,9.39-6.39,14.15c-5.76,10.1-12.59,19.84-15.77,31.16c-1.91,5.32-3.23,10.84-5.4,16.06
			c-0.41-0.37-1.2401-1.12-1.65-1.5c1.69-4.69,3.08-9.48,4.67-14.19c3.25-11.79,10.15-22.06,16.25-32.5
			C809.47,780.19,811.64,775.88,813.62,771.47z"/>
	</g>
	<g id="_x23_2b51dfff">
		<path fill="#2B51DF" stroke="#2B51DF" stroke-width="0.0938" d="M1006.95,421.83c2.63,1.9,5.61,3.21,8.55,4.57
			c0.14,0.66,0.43,1.97,0.58,2.62c1.93,7.57,3.23,15.28,4.87,22.91c4.2,14.32,7.0099,29.1,7.7599,44.02
			c1.2101,8.3,0.91,16.69,0.42,25.03c-0.59,4.79-2.03,9.99-6.13,12.98c-3.94,3.74-9.42,4.81-14.39,6.5099
			c-6.58,1.9301-13.12,4.21-19.97,4.98c-10.82,0.78-21.39,3.42-32.13,4.78c-8.35,1.88-16.56,4.33-24.83,6.51
			c-9.96,2.34-19.08,7.15-28.03,11.95c-3.51,2.06-6.08,5.3-9.21,7.84c-0.92-3.41-1.76-7.84-5.63-9.04
			c-0.31-1.46-0.68-2.93-0.69-4.42c6.07-4.09,12.78-7.17,19.29-10.5c11.79-4.54,24.1-7.75,36.6201-9.58
			c14.4-1.92,28.81-3.87,42.99-7.1c7.82-0.92,15.69-3.8,21-9.86c6.97-6.65,7.17-17.06,7.58-26.04c1.21-15,1.2-30.28-2.49-44.95
			C1011.02,443.98,1005.15,433.37,1006.95,421.83z"/>
	</g>
	<g id="_x23_202c96ff">
		<path fill="#202C96" stroke="#202C96" stroke-width="0.0938" d="M843.08,431.08c0.13-1.14,0.75-1.83,1.86-2.07
			c1.94,1.75,4.33,3.38,5.34,5.87c0.85,8.07-0.66,16.09-1.2401,24.12c-1.1,6.63-0.33,13.45-1.91,20.02
			c-1.6,6.35-3.15,12.72-5.27,18.93c-1.8,5.15-1.86,10.67-3.23,15.93c-2.45-0.44-4.96-1.08-6.96-2.6
			c-2.04-4.78-3.91-10.1-2.43-15.31c1.54-5.21,1.39-10.7,2.71-15.96c1.29-5.94,0.17-12.1,1.37-18.05
			C835.92,451.46,840.54,441.59,843.08,431.08z"/>
	</g>
	<g id="_x23_2435a7ff">
		<path fill="#2435A7" stroke="#2435A7" stroke-width="0.0938" d="M1085.35,459.95c2.5,7.82,3.7101,16,5.6,23.99
			c0.4501,5.79,1.37,11.55,1.5801,17.37c0.4299,6.9,1.71,13.79,0.89,20.71c-0.36,11.31-2.4601,22.59-1.39,33.92
			c1.3199,19.92,4.9199,39.86,2.62,59.84c-0.51,8.74-0.0801,17.5099-0.65,26.25c-0.55,7.1899,2.29,14.64-0.46,21.62
			c-2.04,2.81-4.7001,5.13-7.02,7.71c-2.1901,2.57-5.55,0.33-7.0701-1.77c-1.45-2.7401-2.1-5.81-3.1699-8.69
			c-1.73-4.41-1.0601-9.22-1.16-13.84c0.3199-13.03-1.96-26.02-0.58-39.03c-0.12-9.6801,0.97-19.34,0.25-29
			c-0.12-12.36-1.7101-24.6801-1.05-37.05c0.59-9.02,1.25-18.03,2.2-27.02c0.9901-7.3,2.52-14.58,2.4601-21.99
			c0.1-3.94-0.29-7.91,0.13-11.83C1080.78,474.07,1082.61,466.85,1085.35,459.95z"/>
	</g>
	<g id="_x23_1b1464ff">
		<path fill="#1B1464" stroke="#1B1464" stroke-width="0.0938" d="M1061.1899,485.15c2.8201,1.97,5.6101,5.13,5.17,8.83
			c-0.37,12.58-3.92,24.78-7.6799,36.7c-1.8401,7.65-2.15,15.56-3.5701,23.29c-0.98,5.84-0.39,11.85-1.75,17.65
			c-1.13,3.52-3.13,6.67-4.6,10.06c-1.0601-0.2-2.11-0.4-3.15-0.59c-0.45,5.7599,1.71,11.2599,1.98,16.95
			c-2.73,4.37-6.33,8.17-8.8199,12.72c-1.0601,1.7-2.13,3.4-3.17,5.11c-3.45-7.3-1.88-15.41-2.14-23.16
			c-0.89-7.95-3.5299-15.61-4.0499-23.62c-1.9-11.97-2.37-24.1-1.7101-36.2c0.5801-1.82,1.3201-3.58,2.01-5.35
			c3.28-1.2,6.63-2.33,10.1801-2.36c0.87,2.99,1.9,5.94,3.02,8.86c1.6799,4.14,1.5699,8.7,2.72,12.9901
			c1.1801-4.9301,1.67-9.9901,2.35-15C1049.45,515.73,1054.98,500.16,1061.1899,485.15z"/>
		<path fill="#1B1464" stroke="#1B1464" stroke-width="0.0938" d="M789.96,621.89c5.23-0.84,10.42,1.48,15.42,2.82
			c10.52,5.06,20.33,11.91,28.11,20.67c3.1,1,6.56,0.48,9.8,0.95c-5.33,0.73-10.74,0.04-16.04,1c-5.82,1.05-11.67,2.29-17.09,4.72
			c-5.02-4.42-9-9.83-13.45-14.78c-3.39-3.8-4.48-8.95-7.32-13.1C789.54,623.6,789.82,622.46,789.96,621.89z"/>
	</g>
	<g id="_x23_000042ff">
		<path fill="#000042" stroke="#000042" stroke-width="0.0938" d="M782.87,497.61l1.61-0.52c-0.17,6.58-3.32,12.63-4.06,19.14
			c-0.63,6.84-2.09,13.57-3.71,20.24c-1.03,4.46-0.73,9.14-1.8,13.59c-2.0099,5.14-6.0699,9.39-6.99,14.98
			c-1.91,5.13-2.16,10.63-2.56,16.04c0.71,7.51,4.71,14.13,7.65,20.93c7.71,15.42,15.21,31.23,26.38,44.51
			c1.12,1.5,3.39,3.33,1.8,5.35c-13.07-13.96-21.37-31.37-29.85-48.29c-2.86-6.54-6.4-12.89-7.86-19.93
			c-0.59-8.4301,1-16.91,4.28-24.67c2.2-4.5,5.78-8.66,5.8-13.92c0.11-8.19,3.19-15.92,4.11-24.01
			C778.41,513.04,780.67,505.3,782.87,497.61z"/>
	</g>
	<g id="_x23_00044fff">
		<path fill="#00044F" stroke="#00044F" stroke-width="0.0938" d="M763.53,501.78c0.15-0.27,0.46-0.81,0.62-1.08
			c0.4,0.12,1.2,0.35,1.61,0.47c2.74,13.37,4.06,26.98,4.87,40.59c-0.44-0.17-1.32-0.49-1.76-0.66c-1.41-5.62-1.19-11.44-1.7-17.16
			C766.1,516.53,764.92,509.13,763.53,501.78z"/>
	</g>
	<g id="_x23_2336aaff">
		<path fill="#2336AA" stroke="#2336AA" stroke-width="0.0938" d="M777.98,593.01c5.17,2,10.11,4.53,15.15,6.83
			c4.46,1.98,7.57,5.93,11.79,8.3c3.81,2.19,7.78,4.28,12.15,5.09c4.59,1.06,9.59,1.34,13.61,4.07
			c8.82,6.18,17.64,12.38,26.72,18.19c4.45,2.92,10.21,4.49,13,9.38c-9.05,0.19-18.05,1.43-27.11,1.46c-3.24-0.47-6.7,0.05-9.8-0.95
			c-7.78-8.76-17.59-15.61-28.11-20.67c-5-1.34-10.19-3.66-15.42-2.82c-0.14,0.57-0.42,1.71-0.57,2.28
			c-0.66-1.18-1.1-2.45-1.52-3.71c0.73-0.15,2.19-0.45,2.92-0.6c-2.92-4.99-5.73-10.04-8.61-15.05
			C780.19,601.13,777.69,597.39,777.98,593.01z"/>
		<path fill="#2336AA" stroke="#2336AA" stroke-width="0.0938" d="M859,649.07c5.96-0.74,11.99-0.54,17.99-0.52
			c3.8,0.04,7.63-0.07,11.4,0.62c-5.12,0.42-10.25,0.22-15.38,0.2c3.32,6.85,6.5,14.52,4.72,22.27c-1.68,0.98-3.34,1.99-4.98,3.05
			c-4.38-1.94-8.5-4.44-12.34-7.27c-3.09-3.2-4.6299-7.82-8.44-10.35c-6.4-2.93-13.1299-5.23-20.09-6.34
			C840.85,649.42,850,650.19,859,649.07z"/>
	</g>
	<g id="_x23_2337aaff">
		<path fill="#2337AA" stroke="#2337AA" stroke-width="0.0938" d="M1021.98,606.99c4.5601-4.23,5.8201-11.1,11.48-14.28
			c0.26,7.75-1.3099,15.86,2.14,23.16c1.04-1.71,2.11-3.41,3.17-5.11c-0.73,2.64-1.3201,5.45-0.47,8.14
			c0.34,2.55,2.22,5.4,0.36,7.77c-1.85,3.07-3.73,6.19-4.3,9.8c-4.8099,8.15-9.28,16.51-14.39,24.48
			c-4.58,6.51-9.42,12.82-14.31,19.1c-2.83-3.06-6.86-4.32-10.42-6.24c-8.19-4.67-17.46-6.8-26.34-9.69
			c-4.71-1.31-9.47-3.45-14.45-2.45c-11.5-3.19-22.69-7.46-34.39-9.95c-0.17-0.52-0.51-1.5699-0.68-2.1
			c-2.73-1.54-5.26-3.5-6.92-6.19c-4.08-4.79-2.23-11.58-1.02-17.1c0.93-2.47,2.4-6.88,5.85-5.71c12.03,3.44,24.09,6.86,35.78,11.34
			c5.99,2.5099,12.64,1.93,18.96,1.56c4.6299-0.38,9.48,0.12,13.87-1.73c3.3-1.3,6.75-2.32,9.88-4.03
			C1005.22,621.81,1014.6,615.47,1021.98,606.99z"/>
	</g>
	<g id="_x23_1a1464ff">
		<path fill="#1A1464" stroke="#1A1464" stroke-width="0.0938" d="M786.81,640.81c0.63,0.61,1.13,1.31,1.52,2.1
			c2.31,6.63,5.72,13.6801,3.42,20.8c-1.23,2.49-2.46,5-2.86,7.78c-2.64,4.97-5.1,10.08-6.45,15.56c-0.09-0.85-0.28-2.53-0.37-3.38
			c-3.93,7.89-7.07,16.35-7.52,25.21c1,5.58,2.75,10.99,4.12,16.49c0.22-0.6,0.67-1.79,0.89-2.39c0.33,4.63,1.56,9.17,3.06,13.56
			c-2.21-0.2-4.4-0.39-6.6-0.5c-1.42-3.59-3.14-7.04-4.56-10.61c-1.71-4.16-0.95-8.81-2.14-13.08c-0.99-2.89-2.86-5.89-6.06-6.5699
			c-9.21-2.95-18.53-6.4301-28.32-6.44c-5.29,0.83-11.08,2.6299-16.2,0.16c-3.09-1.25-0.77-4.75-0.34-6.96
			c8.8199-1.24,17.61-3.22,26.58-3c-3.46-7.02-7.42-13.94-12.94-19.55c-2.08-2.27-4.61-4.71-4.7-7.99
			c-0.25-2.23,2.21-3.19,3.5699-4.45c6.73,5.38,12.6,11.73,18.09,18.34c1.93,2.28,3.02,5.1,4.65,7.58
			c0.8199,1.5,2.81,0.9901,4.21,1.41c0.56-4.4-2.83-7.56-4.39-11.32c-2.35-5.66-7.7-9.25-10.35-14.75c2.08-1.21,4.23-3.07,6.82-2.57
			c6.21,1.86,11.44,6.09,15.19,11.3c1.9,3.47,2.38,8.72,6.57,10.29c1.08-3.11,1.32-6.46,2.62-9.5
			C778.25,659.05,782.98,650.13,786.81,640.81z"/>
		<path fill="#1A1464" stroke="#1A1464" stroke-width="0.0938" d="M802.36,744.97c0.43,0.2,1.31,0.58,1.75,0.77
			c0.22,0.17,0.66,0.52,0.88,0.69c-0.8,1.1-1.51,2.28-1.7,3.67c-0.46,2.06-0.75,4.28-2.15,5.98c-5.22,6.81-12.52,11.52-18.86,17.18
			c-3.71,3.3-6.82,7.2-10.52,10.51c-4.04,3.6-9.54,4.91-13.69,8.34c-6.14,6.62-9.2,15.37-10.9,24.11c-0.95,1.27-1.94,2.52-2.95,3.75
			c-3.72,0.4301-5.64-3.71-4.62-6.86c4.05-8.12,3.94-17.62,7.63-25.9c2.34-3.23,5.06-6.21,7.92-8.9901
			c8.85-7.25,18.58-13.3,28.0099-19.73c3.5-1.04,7.51-0.78,9.86-4.17C796.54,751.66,800.16,748.9,802.36,744.97z"/>
	</g>
	<g id="_x23_000010ff">
		<path fill="#000010" stroke="#000010" stroke-width="0.0938" d="M843.29,646.33c9.06-0.03,18.06-1.27,27.11-1.46
			c1.77,0.16,3.55,0.36,5.34,0.53c0.39,1.05,0.8,2.1,1.25,3.15c-6-0.02-12.03-0.22-17.99,0.52c-9,1.12-18.15,0.35-27.12,1.66
			c-3.27,0.96-6.37,2.71-9.83,2.81c-8.63-0.41-16.05,4.73-24.06,7.15l-0.29-0.77c-0.2-0.69-0.58-2.06-0.77-2.75
			c4.43-1.67,8.87-3.3,13.23-5.12c5.42-2.43,11.27-3.67,17.09-4.72C832.55,646.37,837.96,647.06,843.29,646.33z"/>
	</g>
	<g id="_x23_1a1465ff">
		<path fill="#1A1465" stroke="#1A1465" stroke-width="0.0938" d="M1116.92,653.84c3.1799-1.16,5.6-3.67,8.76-4.8701
			c0.0699,3.25,0.35,6.54-0.0901,9.79c-3.2899,3.03-6.84,5.83-9.62,9.38c-3.9399,5.14-9.59,8.52-14.9399,11.99
			c-2.41,1.39-4.6901,3.34-7.5701,3.58c-0.51-4.69-1.2-9.35,0.2101-13.97c3.37-2.64,6.72-5.3,10.14-7.87
			C1108.36,659.46,1112,655.58,1116.92,653.84z"/>
	</g>
	<g id="_x23_212b94ff">
		<path fill="#212B94" stroke="#212B94" stroke-width="0.0938" d="M810.34,658.18c3.22-2.6,7.41-2.13,11.2599-1.83
			c4.78,6.89,8.9301,14.45,10.6801,22.72c0.09,2.83,0.08,6.16-2.04,8.33c-2.31-1.54-5.01-4.31-7.76-1.98
			c-0.87,4.83-1.03,9.73-0.91,14.63c0.15,2.77-1.72,5.14-1.68,7.89c-0.09,4.04,0.64,8.07,0.18,12.11c-0.85,1.48-3.13,0.54-4.51,0.39
			c-2.57-5.48-2.02-11.65-2.09-17.52c-0.41-11.33-1.4399-22.63-2.1299-33.94C810.8,665.4,810.25,661.81,810.34,658.18z"/>
	</g>
	<g id="_x23_2d50d6ff">
		<path fill="#2D50D6" stroke="#2D50D6" stroke-width="0.0938" d="M954.45,661.67c4.98-1,9.74,1.14,14.45,2.45
			c8.88,2.89,18.15,5.02,26.34,9.69c3.56,1.92,7.59,3.18,10.42,6.24c-0.78,0.93-1.96,2.52-3.35,1.56c-5.43-3-10.8-6.13-16.48-8.67
			C976.02,667.55,964.94,665.32,954.45,661.67z"/>
	</g>
	<g id="_x23_23319eff">
		<path fill="#23319E" stroke="#23319E" stroke-width="0.0938" d="M964.19,672.27c3.87-0.83,7.78,1.33,11.63,1.91
			c4.83,0.64,8.71,4.09,13.59,4.46c4.35,1.81,8.46,4.21,12.2,7.08c-2.39,3.3-4.69,6.67-6.68,10.22c-2.55,4.46-3.76,9.49-5.61,14.24
			l-0.62-1.32c-2.33,3.26-3.55,7.12-5.24,10.72c-3.54,7.94-6.92,15.95-9.88,24.13c-0.73,1.85-0.87,3.86-0.94,5.84
			c-1.43,2.92-2.89,5.83-4.07,8.86c-0.65,1.2401-0.97,3.15-2.71,3.17c-11.1,2.35-22.22,4.68-33.42,6.53
			c-2.45-4.49-4.09-9.84-2.21-14.84c3.34-7.52,9.56-13.67,17.07-17.03c2.48-0.99,2.99-4.01,3.53-6.32c0.49-1.35-0.47-2.69-1.89-2.6
			c-6.23-0.52-12.78-0.71-18.31-4.01c-3.02-1.16-3.11-5.61-0.92-7.6c4.25-4.53,6.98-10.25,11.46-14.58
			c3.34-3.35,6.3-7.08,9.91-10.17c3.58-2.88,4.9-7.55,8.25-10.65C961.74,678.15,962.66,675.01,964.19,672.27z"/>
		<path fill="#23319E" stroke="#23319E" stroke-width="0.0938" d="M776,972.98c-1.05-3-3.96-7.24-0.27-9.49
			c4.12,2.74,8.67,5.05,11.87,8.95c2.46,3.11,5.94,5.28,8.13,8.62c2.27,3.69,5.94,6.22,8.22,9.91
			c4.29,7.1,9.48,13.6801,12.85,21.3101c3.11,5.5099,5.76,11.28,9.33,16.53c3.79,8.61,9.35,16.2999,13.16,24.8999
			c3.43,6.3301,5.73,13.2201,9.54,19.3501c3.26,5.73,6.79,11.2999,9.96,17.09c3,5.14,7,10.61,7.01,16.65
			c-4.55,2.1599-9.02-1.54-12.49-4.16c-8.78-8-12.91-19.55-20.08-28.8101c-4.37-5.61-7.08-12.21-10.85-18.1899
			c-3.23-5.17-5.01-11.05-7.54-16.5601c-0.64-1.58-2.11-2.48-3.64-2.98c1.01,4.15,3.36,7.75,5.14,11.59
			c3.98,9.1101,8.61,17.92,13.2599,26.7001c4.63,10.79,8.36,21.95,13.23,32.64c4.3,8.49,7.01,17.6599,10.84,26.36
			c3.28,6.24,1.58,13.53,2.82,20.25c1.57,8.42,4.09,16.72,3.9,25.38c0.81,4.6899-1.51,8.99-3.28,13.16c-1.49,3-2.57,6.7-5.97,8.1
			c-5.06,3.37-11.26-0.75-13.91-5.3401c-3.68-10.4399-9.28-20.1599-12.36-30.85c-5.44-17.63-12.31-34.76-18.96-51.96
			c-3.45-10.1901-6.94-20.35-10.55-30.47c-1.99-3.5901-2.04-7.79-3.69-11.48c-3.44-9.0901-7.44-17.9701-10.46-27.2101
			c-1.9901-8.51-5.39-16.99-4.47-25.89c0.66-1.81,2.41-2.75,3.93-3.73c-0.16-2.14-0.65-4.23-0.92-6.34
			c0.48-3.08,1.02-6.16,1.24-9.27c4.3-1.04,7.14,3.35,11.19,3.67c-0.14-1.8-0.22-3.7-1.45-5.1
			C785.2,988.94,780.54,980.97,776,972.98z"/>
	</g>
	<g id="_x23_202d96ff">
		<path fill="#202D96" stroke="#202D96" stroke-width="0.0938" d="M1119.0601,672.96c2.9099-1.88,6.4399-0.76,9.1399,0.97
			c1.6101,5.14,0.0901,11.61-4.61,14.66c-3.71,2.6299-7.6899,5.2599-9.64,9.56c5.92,3.18,12.7301-0.2401,19.04,0.55
			c4.28,0.68,8.63,1.72,12.34,4.08c0.26,15.41-0.0599,30.83,0.14,46.25c-0.0499,2.09,0.17,4.34-0.97,6.22
			c-0.23-13.77,0.15-27.54-0.22-41.3c-4.78-0.35-9.4301-1.88-14.25-1.64c-12.25,0.25-25.0701-0.82-36.66,3.92
			c-2.53,0.88-5.23,0.72-7.85,0.65c-1.0801-6.83-4.34-13.84-2.3201-20.76c3.13-1.75,7.16-1.56,9.87-4.14
			C1101.35,685.14,1108.76,676.83,1119.0601,672.96z"/>
	</g>
	<g id="_x23_3152d1ff">
		<path fill="#3152D1" stroke="#3152D1" stroke-width="0.0938" d="M774.55,708.88c0.45-8.86,3.59-17.32,7.52-25.21
			c0.09,0.85,0.28,2.53,0.37,3.38c-3.43,11.64-4.16,23.9-2.88,35.93c-0.22,0.6-0.67,1.79-0.89,2.39
			C777.3,719.87,775.55,714.46,774.55,708.88z"/>
	</g>
	<g id="_x23_3050daff">
		<path fill="#3050DA" stroke="#3050DA" stroke-width="0.0938" d="M983.46,719.58c1.69-3.6,2.91-7.46,5.24-10.72l0.62,1.32
			c-2.22,6.56-3.87,13.3-6.48,19.73c-2.55,6.97-6.64,13.17-10.2,19.64c0.07-1.98,0.21-3.99,0.94-5.84
			C976.54,735.53,979.92,727.52,983.46,719.58z"/>
	</g>
	<g id="_x23_364fc4ff">
		<path fill="#364FC4" stroke="#364FC4" stroke-width="0.0938" d="M713.72,757.44c1.83,3.45,2.4,7.33,2.98,11.14
			c1.22-0.41,2.44-0.83,3.68-1.22c-1.97,2.99-3.9,6.01-6.12,8.83C714.72,769.94,714.95,763.63,713.72,757.44z"/>
	</g>
	<g id="_x23_463933ff">
		<path fill="#463933" stroke="#463933" stroke-width="0.0938" d="M1008.77,806.71c7.21-13.68,19.9399-23.03,29.77-34.65
			c-0.89,2.69,1.75,4.4,3.12,6.31c16.5499,20.31,30.97,42.89,51.7799,59.27c0.1201,0.24,0.38,0.7,0.51,0.94
			c-3.7899-0.62-7.38,0.61-10.85,1.95c-2.38,1.05-5.16-0.05-7.46,1.09c-23.23,15.39-43.7001,34.58-67.39,49.31
			c-1.37-23.03-8.22-45.35-16.21-66.86c0.18,0.44,0.53,1.31,0.71,1.74c3.54-0.14,7.02-0.87,10.44-1.79
			C1004.2,818.02,1005.87,812.08,1008.77,806.71z"/>
	</g>
	<g id="_x23_1a1466ff">
		<path fill="#1A1466" stroke="#1A1466" stroke-width="0.0938" d="M945.06,776.49c2.62-0.16,5.25-0.28,7.89-0.41
			c3.87,4.79,7.35,9.92,11.73,14.29c1.57,1.72,3.45,3.26,4.56,5.36c3.14,7.56,5.8,15.42,10.32,22.31c2.45,4.37,5.84,8.3,7.23,13.2
			c1.33,4.76,2.54,9.56,3.92,14.32c2.17,5.85,5.17,11.42,6.7,17.5c0.7401,6.28,2.48,12.5,1.97,18.88
			c-0.78,15.11-1.73,30.27-4.54,45.16c-0.1201,1.37-0.73,2.63-2.13,3.11c-0.64-13.37,0.62-26.79-0.33-40.16
			c0.09-8.71-1.89-17.21-3.85-25.63c-1.83-6.76-4.64-13.3-5.1-20.35c-0.29-4.2-1.82-8.11-3.83-11.76
			c-4.8-11.04-10.86-21.5-17.25-31.69c-3.58-5.88-8.91-10.48-12.36-16.45C948.42,781.55,946.58,779.12,945.06,776.49z"/>
	</g>
	<g id="_x23_000043ff">
		<path fill="#000043" stroke="#000043" stroke-width="0.0938" d="M940.08,777.85c2.24-1.62,2.23,1.87,1.72,3.1801
			c-1.99,10.93-3.32,21.96-5.24,32.91c-1.99,11.37-0.73,22.95-1.17,34.43c-0.48,0.08-1.43,0.24-1.91,0.32
			c0.16-13.24-1.13-26.66,1.8-39.69C936.69,798.59,938.45,788.23,940.08,777.85z"/>
	</g>
	<g id="_x23_0a0000ff">
		<path fill="#0A0000" stroke="#0A0000" stroke-width="0.0938" d="M1006.85,924.62c13.08,8.89,25.38,18.9,37.3101,29.26
			c3.7899,23.46,3.27,47.38,7.0599,70.85c5.13,1.62,10.13,3.67,14.98,6.02c1.26,0.4301,1.0701,2.1,1.41,3.16
			c5.7001,35.89,9.75,72.02,14.29,108.0599l-1.2101-0.03c-25.2799-0.86-50.5699-1.83-75.83-3.22c-3.05-1.9-6.68-1.6699-10.17-1.49
			c-0.3-0.04-0.89-0.13-1.19-0.1699l-1.09-0.6001c29.17,1.26,58.33,2.6901,87.5101,3.6901c-4.75-35.88-8.5801-71.88-14.38-107.6
			c-22.55-11.04-47.8201-14.0701-72.14-19.0701c0.46-0.36,1.37-1.09,1.8199-1.45c11.57,2.11,23.13,4.28,34.63,6.77
			c-1.1899-14.62-1.03-29.3-2.13-43.92c0.0901-1.82-1.61-2.83-2.73-3.95c-6.98-6.06-15.07-10.61-23-15.28
			c0.09-0.48,0.28-1.42,0.37-1.9c8.53,4.9,17.18,9.81,24.54,16.41c1.08,1.07,2.6,2.14,2.61,3.86c1.22,14.97,0.71,30.11,2.46,45.02
			c5.53,1.95,11.4501,2.88,17,4.93c-1.5699-13.6-2.7-27.25-3.5399-40.92c-0.87-9.34-1.17-18.82-3.1801-28
			c-3.03-3.75-7.26-6.27-10.8-9.48c-7.71-6.38-15.73-12.36-23.77-18.3c-0.31,0.08-0.92,0.25-1.23,0.33
			C1006.57,926.6,1006.7,925.6,1006.85,924.62z"/>
	</g>
	<g id="_x23_8c6238ff">
		<path fill="#8C6238" stroke="#8C6238" stroke-width="0.0938" d="M1006.45,927.6c0.31-0.08,0.92-0.25,1.23-0.33
			c8.04,5.94,16.06,11.92,23.77,18.3c3.54,3.21,7.77,5.73,10.8,9.48c2.01,9.18,2.3101,18.66,3.1801,28
			c0.84,13.67,1.97,27.32,3.5399,40.92c-5.5499-2.05-11.47-2.98-17-4.93c-1.75-14.91-1.24-30.05-2.46-45.02
			c-0.01-1.72-1.53-2.79-2.61-3.86c-7.36-6.6-16.01-11.5099-24.54-16.41C1003.79,945.04,1005.54,936.38,1006.45,927.6z"/>
		<path fill="#8C6238" stroke="#8C6238" stroke-width="0.0938" d="M1003.07,1143.11c23.19,1.13,46.39,2.09,69.6,2.98
			c6.3999,20.28,15.13,39.85,19.73,60.6801c4.78,20.2,5.35,41.98-1.75,61.72c-40.0801,2.08-80.2401,3.52-120.36,3.41
			c-0.28-21.3,0.93-42.6,2.19-63.84c0.62,0.21,1.87,0.6299,2.49,0.84c8.3-7.7001,16.92-15.0701,24.9901-23.01
			c-8.94-0.21-17.88-0.09-26.81-0.09c-0.07-1.7301-0.14-3.4501-0.17-5.14c5.14-0.05,10.28,0.1899,15.42,0.0499
			c4.14,0.3401,8.31,0.37,12.47,0.4501C1001.69,1168.48,1002.15,1155.78,1003.07,1143.11z"/>
		<path fill="#8C6238" stroke="#8C6238" stroke-width="0.0938" d="M824.03,1741.89c9.86,11.1,12.25,27.38,24.12,37
			c5.78-0.29,10.98-3.9,13.77-8.9c4.05-6.3199,5.48-14.71,11.97-19.1899c5.76,17.47,9.84,35.71,10.05,54.1799
			c-0.1,9.6-1.28,19.88-7.12,27.85c-2.86,3.66-6.96,6.87-11.74,7.2301c-10.12,1.09-20.91,0.71-30.1-4.1001
			c-8-4.23-13.26-12.35-15.57-20.9299c-3.48-13.0701-2.67-26.79-1.16-40.0801C819.68,1763.85,821.49,1752.78,824.03,1741.89z"/>
		<path fill="#8C6238" stroke="#8C6238" stroke-width="0.0938" d="M1013.22,1752.99c7.13,3.5,10.7,11.4,11.3301,19
			c1.3899,16.08-2.7401,31.95-3.27,47.97c-0.8101,7.29,0.14,14.5801,0.67,21.86c-8.91,5.4401-19.71,4.8601-29.72,4.4501
			c2.21,17.5-3.13,36.54-16.73,48.33c-17.78,15.74-44.69,17.66-66.16,9.03c-0.45-7.58,0.17-15.55,4.1-22.23
			c6.43-11.28,18.6-17.4501,25.99-27.9601c4.48-0.99,8.34,1.8601,11.94,4.0701c1.45,0.66,3.39,2.05,4.93,0.8099
			c12.27-9.25,23.11-20.45,31.54-33.3099C1002.22,1803.59,1009.63,1778.3199,1013.22,1752.99z"/>
	</g>
	<g id="_x23_20298eff">
		<path fill="#20298E" stroke="#20298E" stroke-width="0.0938" d="M986.15,937.1c5.08-0.28,9.81,3.78,10.05,8.92
			c0.84,9.1-0.57,18.27,0.6,27.36c-2.6,15.58-5.03,31.2-7.7,46.77l-0.18-1.05c-5.04,11.85-8.27,24.38-12.21,36.62
			c-2.81,10.87-7.28,21.1901-11.42,31.6c-2.62,8.4301-3.89,17.2101-5.96,25.79c-2.14,12.21-5.6,24.12-9.35,35.92
			c-2.57,9.9299-6.52,19.4099-9.86,29.09c-1.01,3.08-3.66,5.08-6.08,7.02c-3.39-4.89-1.73-11.36-0.5-16.72
			c3.1-10.4301,3.2401-21.52,7.05-31.76c4.12-12.1,7.93-24.3101,11.28-36.65c3.89-12.1901,6.04-24.8101,8.75-37.28
			c1.93-9.4,4.78-18.5699,7.13-27.86c4.11-12.25,5.1-25.22,7.47-37.85c1.9901-11.57,5.07-22.95,6.4301-34.63
			C983.13,953.96,983.58,945.3,986.15,937.1z"/>
	</g>
	<g id="_x23_d69545ff">
		<path fill="#D69545" stroke="#D69545" stroke-width="0.0938" d="M992.12,1013.34c0.32,0.04,0.96,0.11,1.28,0.14
			c24.3199,5,49.59,8.03,72.14,19.0701c5.7999,35.72,9.63,71.72,14.38,107.6c-29.1801-1-58.34-2.4301-87.5101-3.6901
			c-5.44-0.62-10.93-0.7-16.39-1.0599C979.32,1094.47,985.72,1053.88,992.12,1013.34z"/>
	</g>
	<g id="_x23_1c1c77ff">
		<path fill="#1C1C77" stroke="#1C1C77" stroke-width="0.0938" d="M746.79,1023.93c-0.84-1.74,0.26-3.37,1.07-4.84
			c9.77,4.86,13.55,15.65,18.63,24.55c4.73,10.14,7.96,20.92,12.82,31.01c3.57,6.89,6.4,14.13,10.1,20.97
			c4.6201,11.35,7.72,23.28,12.09,34.74c6.67,17.5601,12.94,35.28,19.23,52.98c3.89,14.35,6.18,29.2001,11.76,43.05
			c7.41,19.33,14.56,38.75,21.91,58.09c2.93,10.36,5.1,20.9501,6.8199,31.5701c0.84,4.11,2.69,7.8999,3.92,11.8999
			c4.13,10.39,6.56,21.3301,9.67,32.05c2.06,9.66,7.46,18.09,11.07,27.1899c3.86,11.3701,7.94,22.66,11.97,33.9801
			c2.44,7.0499,7.22,12.9399,10.09,19.8099c-2.04,0.29-4.98,1.84-6.26-0.59c-5.19-7.6-10.58-15.11-14.77-23.3201
			c-5.5-7.7999-10.72-15.83-14.36-24.6799c-3.54-8.8-10.13-16.15-12.39-25.47c-0.31-1.9-2.0699-2.8-3.39-3.87
			c-2.25,2.62-0.58,5.8999,0.46,8.6499c2.47,5.64,3.63,11.7101,5.2,17.65c2.76,10.99,5.71,21.9401,8.28,32.98
			c2.66,10.54,6.98,20.76,7.68,31.7201c0.92,8.6399,2.34,17.2699,2.14,25.99c-0.1801,8.0299,1.12,15.99,1.22,24.02
			c0.28,2.2599-0.15,5.22,2.22,6.5499c-1.87,0.87-3.99,1.83-5.98,0.74c0.97-0.11,4.15-0.11,2.37-1.65
			c-2.4-1.96-5.19-3.3199-7.77-4.95c-1.14-8.23-1.13-16.61-2.6-24.78c-3.95-10.3099-7.41-20.7899-10.63-31.34
			c-1.82-4.71-3.09-9.6-3.38-14.64c-1.82-12.38-3.53-24.79-5.94-37.0699c-7.6-30.86-14.7599-61.88-24.91-92.03
			c-7.14-20.63-8.49-42.72-15.53-63.37c-5.39-18.36-6.7-37.55-8.77-56.49c-0.83-7.23-4.54-13.64-6.3-20.63
			c-2.97-10.88-6.08-21.73-9.44-32.5c-2.79-7.6901-5.44-15.4301-7.76-23.28c-5.94-21.78-14.17-42.84-21.96-64.01
			C752.71,1037.64,749.12,1031.03,746.79,1023.93z"/>
	</g>
	<g id="_x23_fbd383ff">
		<path fill="#FBD383" stroke="#FBD383" stroke-width="0.0938" d="M975.19,1136.72c6.1,0.11,12.21,0.1,18.31,0.3401
			c0.3,0.0399,0.89,0.1299,1.19,0.1699c-5.87,2.17-12.16,0.4401-18.21,1.27c-0.22,2.49-0.21,5.01,0.14,7.51
			c0.05,0.4299,0.15,1.28,0.2,1.71c-2.82,5.9401-1.11,12.78-1.68,19.14c0,0.55,0,1.65-0.01,2.2001
			c0.16,3.46-1.89,7.3999,0.31,10.5299c4.29,0.7101,8.76-0.33,12.96,1.12c-5.14,0.14-10.28-0.1-15.42-0.0499
			c-0.02-5.16,0.47-10.29,0.68-15.4301C974.23,1155.73,974.57,1146.22,975.19,1136.72z"/>
		<path fill="#FBD383" stroke="#FBD383" stroke-width="0.0938" d="M973.15,1185.8c8.93,0,17.87-0.12,26.81,0.09
			c-8.07,7.9399-16.69,15.3099-24.9901,23.01c-0.62-0.2101-1.87-0.63-2.49-0.84l0.81-1.1101
			C973.59,1199.9,973.25,1192.84,973.15,1185.8 M975.66,1187.5699c0.26,5.54,0.09,11.1001,0.45,16.64
			c4.38-3.2799,8.09-7.33,12.25-10.87c1.89-1.9099,4.49-3.2799,5.6-5.83C987.86,1187.55,981.76,1187.46,975.66,1187.5699z"/>
	</g>
	<g id="_x23_fed575ff">
		<path fill="#FED575" stroke="#FED575" stroke-width="0.0938" d="M976.48,1138.5c6.05-0.83,12.34,0.9,18.21-1.27
			c3.49-0.1799,7.12-0.41,10.17,1.49c25.26,1.39,50.55,2.36,75.83,3.22c-0.3199,1.3601,0.51,3.28-0.62,4.3401
			c-1.86,0.1699-3.73,0.0499-5.5599-0.05c-0.46-0.03-1.38-0.1-1.84-0.14c-23.2101-0.89-46.41-1.85-69.6-2.98
			c-0.92,12.67-1.38,25.37-2.2,38.05c-4.16-0.0801-8.33-0.11-12.47-0.4501c-4.2-1.45-8.67-0.4099-12.96-1.12
			c-2.2-3.13-0.15-7.0699-0.31-10.5299c3.11,4.98,11.13,5.2999,15.21,1.3199c5.92-5.55,7.89-15.79,2.6299-22.41
			c-4.18-4.35-11.1-3.59-16.35-1.96C976.27,1143.51,976.26,1140.99,976.48,1138.5z"/>
	</g>
	<g id="_x23_89513eff">
		<path fill="#89513E" stroke="#89513E" stroke-width="0.0938" d="M976.62,1146.01c5.25-1.63,12.17-2.39,16.35,1.96
			c5.26,6.62,3.29,16.86-2.6299,22.41c-4.08,3.98-12.1,3.66-15.21-1.3199c0.01-0.55,0.01-1.65,0.01-2.2001
			c0.3-0.34,0.91-1.03,1.21-1.37c2.81-0.62,6.61,0,8.29-2.88c1.38-2.04,3.37-5.22,1.1-7.35c-3.07-2.45-7.85-3.1901-8.92-7.54
			C976.77,1147.29,976.67,1146.4399,976.62,1146.01z"/>
	</g>
	<g id="_x23_080000ff">
		<path fill="#080000" stroke="#080000" stroke-width="0.0938" d="M1072.67,1146.09c0.46,0.04,1.38,0.11,1.84,0.14
			c7.12,21.17,16.03,41.84,20.5,63.8101c4.09,19.61,4.03,40.46-2.6801,59.5c-0.85,0.89-2.2899,0.5699-3.3999,0.77
			c-29.9401,1.8199-59.9401,2.72-89.9301,3.21c-9.63,0.37-19.32-0.13-28.9,0.7999c-0.91-2.34-1.37-4.83-1.37-7.3199
			c-0.1-11.62-0.12-23.23,0.72-34.8199c0.19-5.8,0-11.6101,0.66-17.38c0.99-18.75,0.77-37.54,2.33-56.25
			c0.58,2.1799,1.13,4.3899,1.22,6.6799c-0.21,5.14-0.7,10.27-0.68,15.4301c0.03,1.6899,0.1,3.4099,0.17,5.14
			c0.1,7.0399,0.44,14.1,0.14,21.1499l-0.81,1.1101c-1.26,21.24-2.47,42.5399-2.19,63.84c40.12,0.11,80.28-1.3301,120.36-3.41
			c7.1-19.74,6.53-41.52,1.75-61.72C1087.8,1185.9399,1079.0699,1166.37,1072.67,1146.09z"/>
		<path fill="#080000" stroke="#080000" stroke-width="0.0938" d="M986.75,1493.53c0.46-0.12,1.39-0.36,1.85-0.49
			c2.09,51.98-0.41,104.0499,2.72,156c1.76,27.22,5.1,54.5499,13.1,80.72c2.2,7.0599,4.48,14.2,8.27,20.61
			c2.21,1.78,4.99,2.85,6.9,5.05c5.84,5.87,7.06,14.63,7.1099,22.5499c-0.09,21.41-6.6099,42.8-2.46,64.1801
			c-8.34,6.7999-19.82,6.3199-29.95,6c1,12.97-1.38,26.5499-8.66,37.51c-7.92,12.35-21.34,20.59-35.6,23.4299
			c-14.08,3.05-28.9,1.16-42.28-3.9199c-0.89-8.28-0.27-17.05,3.92-24.41c5.27-9.8101,15.1-15.71,22.42-23.78
			c1.79-2.12,4.05-4.2,4.29-7.13c3.58-22.4199,17.13-41.4199,23.58-62.9199c3.33-10.5801,3.48-21.8101,2.85-32.78
			c-1.69-25.23-8.31-49.76-14.88-74.0701c-4.97-17.62-9.5-35.36-14.1-53.08c-5.53-20.85-11.48-41.58-17.48-62.3
			c-2.44,3.4501-3.29,7.77-5.12,11.5701c-9.74,24.26-19.5,48.58-26.94,73.6799c-7.05,24.01-12.17,48.91-11.52,74.0601
			c0.2,9.02,0.52,18.0599,1.36,27.04c5.67,19.08,10.41,38.87,9.47,58.9299c-0.52,8.66-2.28,17.8-7.89,24.71
			c-3.16,3.7401-7.57,6.89-12.6,7.2301c-9.41,0.96-19.26,0.74-28.11-2.9501c-6.93-2.86-12.7-8.2999-16.05-14.99
			c-4.43-8.59-5.64-18.4199-5.8-27.96c-0.14-15.17,2.31-30.22,5.09-45.0801c1.64-6.97,1.82-14.1599,3.37-21.1299
			c5.12-26.1201,16.35-50.76,19.64-77.27c4.98-48.8101,0.42-97.9,2.5-146.8101c0.46-0.0699,1.38-0.21,1.84-0.27
			c-2.2,49.14,2.54,98.48-2.58,147.51c-3.53,29.4601-17.23,56.5801-20.97,85.97c10.18,10.4,12.67,25.8401,22.83,36.2301
			c2.4,3.23,6.64,0.63,9.15-1.11c8.23-7.02,8.49-19.9301,18.01-25.89C872.6,1727.45,872.1,1706.49,875.9,1685.98
			c7.48-43.46,25.28-84.11,41.42-124.87c-5.16-18.3099-10.73-36.51-15.21-55c0.33-0.49,0.98-1.46,1.31-1.9399
			c11.76,45.49,26.2,90.25,37.68,135.8199c5.58,22.45,12.32,44.59,17.7401,67.08c5.2,21.91,9.43,44.4601,7.59,67.0701
			c-3.06,27.5499-22.6,49.92-26.41,77.26c5.71-0.38,10.09,3.4399,14.9,5.77c12.64-9.7001,23.87-21.3201,32.46-34.78
			c13.43-21.09,21.08-45.62,23.8-70.36c-8.26-16.67-12.55-34.9601-16-53.15c-8.48-49.12-7.21-99.1801-7.45-148.83
			C987.67,1531.21,987.58,1512.36,986.75,1493.53 M824.03,1741.89c-2.54,10.89-4.35,21.96-5.78,33.0599
			c-1.51,13.29-2.32,27.01,1.16,40.0801c2.31,8.58,7.57,16.7,15.57,20.9299c9.19,4.8101,19.98,5.1901,30.1,4.1001
			c4.78-0.3601,8.88-3.5701,11.74-7.2301c5.84-7.97,7.02-18.25,7.12-27.85c-0.21-18.47-4.29-36.71-10.05-54.1799
			c-6.49,4.48-7.92,12.87-11.97,19.1899c-2.79,5-7.99,8.61-13.77,8.9C836.28,1769.27,833.89,1752.99,824.03,1741.89
			 M1013.22,1752.99c-3.59,25.33-11,50.6-25.3799,72.02c-8.4301,12.86-19.27,24.0599-31.54,33.3099
			c-1.54,1.2401-3.48-0.1499-4.93-0.8099c-3.6-2.21-7.46-5.0601-11.94-4.0701c-7.39,10.51-19.56,16.6801-25.99,27.9601
			c-3.93,6.6799-4.55,14.65-4.1,22.23c21.47,8.63,48.3799,6.71,66.16-9.03c13.6-11.7899,18.94-30.83,16.73-48.33
			c10.01,0.41,20.81,0.99,29.72-4.4501c-0.53-7.2799-1.48-14.5699-0.67-21.86c0.53-16.02,4.6599-31.89,3.27-47.97
			C1023.92,1764.39,1020.35,1756.49,1013.22,1752.99z"/>
	</g>
	<g id="_x23_fed474ff">
		<path fill="#FED474" stroke="#FED474" stroke-width="0.0938" d="M975.14,1166.86c0.57-6.36-1.14-13.2,1.68-19.14
			c1.07,4.35,5.85,5.0901,8.92,7.54c2.27,2.13,0.28,5.3099-1.1,7.35c-1.68,2.88-5.48,2.26-8.29,2.88
			C976.05,1165.83,975.44,1166.52,975.14,1166.86z"/>
	</g>
	<g id="_x23_1d217eff">
		<path fill="#1D217E" stroke="#1D217E" stroke-width="0.0938" d="M967.45,1156.0699c1.32,7.5701,0.58,15.3101,1.78,22.89
			c0.36,3.3201,0.34,6.67,0.67,10.01c1.44,14.4-1.41,28.79-0.45,43.2101c-0.84,11.59-0.82,23.2-0.72,34.8199
			c0,2.49,0.46,4.98,1.37,7.3199c1.31,5.91,0.17,12.2301,2.29,18.03c-0.76,11.6801,4.7,22.4501,6.76,33.6901
			c-0.2,0.59-0.59,1.76-0.79,2.35c-1.25-0.66-2.74-1.02-3.34-2.4c-5.13-7.55-7.94-16.26-11.49-24.58
			c-2.89-6.76-2.89-14.26-4.32-21.37c-1.38-6.3301-5.78-11.64-6.54-18.14c-0.6-4.27-1.32-8.52-2.16-12.74
			c-1.43-7-0.55-14.16-0.8-21.23c-0.45-10.8,1.86-21.4301,3.69-32.01c1.88-9.6901,3.94-19.38,6.95-28.78
			C962.1,1163.09,964.93,1159.64,967.45,1156.0699z"/>
	</g>
	<g id="_x23_88503fff">
		<path fill="#88503F" stroke="#88503F" stroke-width="0.0938" d="M975.66,1187.5699c6.1-0.11,12.2-0.0199,18.3-0.0599
			c-1.11,2.55-3.71,3.92-5.6,5.83c-4.16,3.54-7.87,7.5901-12.25,10.87C975.75,1198.67,975.92,1193.11,975.66,1187.5699z"/>
	</g>
	<g id="_x23_4d4681ff">
		<path fill="#4D4681" stroke="#4D4681" stroke-width="0.0938" d="M972.39,1292.35c2.07,4.25,3.28,8.85,5.05,13.24
			c2.23,5.1901,2.01,10.9401,2.95,16.42c0.43,1.76-0.03,3.54-0.64,5.21l-0.6-1.1799C977.09,1314.8,971.63,1304.03,972.39,1292.35z"
			/>
	</g>
</g>
</svg>
