<svg width="225" height="641" xmlns="http://www.w3.org/2000/svg">

 <g id="imagebot_2">
  <path stroke="#000000" stroke-width="0.036" stroke-miterlimit="10" fill-rule="evenodd" d="M77.1285,160.312 C73.3845,163.522 68.8125,167.222 63.4125,171.582 C57.9405,175.972 51.7125,180.692 44.5845,186.272 C40.5525,186.992 36.6645,188.322 32.3445,190.412 C27.8805,192.392 22.8765,194.912 19.1325,198.512 C15.5325,202.042 13.4445,205.102 10.7805,211.722 C8.04447,218.382 4.69647,227.522 2.96847,237.892 C1.09647,248.122 0.0164687,262.702 0.0164687,272.882 C-0.0195312,282.962 1.34847,291.102 2.71647,297.872 C3.86847,304.422 2.96847,303.342 7.36047,312.522 C11.6805,321.772 18.7365,334.882 28.6725,352.662 C30.0405,352.702 31.3365,352.592 32.5605,352.192 C33.7845,351.722 34.7205,351.112 35.7645,350.212 C36.1605,353.092 36.2685,355.762 36.2325,358.062 C35.9805,360.362 35.1885,362.272 35.2605,364.182 C35.2605,365.942 36.1245,367.852 36.7365,369.082 C37.2405,370.232 37.9245,370.732 38.9325,371.272 C39.9405,371.702 41.2005,371.992 42.8565,371.992 L42.8565,379.342 C40.9485,379.372 38.8605,379.442 36.9885,379.842 C35.0805,380.202 32.9925,380.602 31.1205,381.322 C29.9325,396.622 29.3565,412.922 29.3925,431.362 C29.4285,449.722 30.0765,469.092 31.3365,490.582 C35.8365,490.652 40.4085,490.652 45.0525,490.582 C49.6965,490.402 54.3045,490.142 59.0205,489.822 L60.2445,461.922 C61.0365,467.542 62.0085,473.122 63.1605,478.812 C64.3485,484.492 65.9325,492.052 67.0845,495.942 C68.1285,499.692 68.3085,500.082 69.2805,501.562 C70.1445,502.932 71.0805,503.832 72.2325,504.262 C73.8165,513.582 74.9685,522.732 76.1205,531.982 C77.0925,541.272 78.1005,551.242 78.5685,559.372 C78.8925,567.332 78.6045,573.882 78.8205,579.722 C79.0005,585.402 79.3245,590.052 79.7925,593.652 C82.0245,593.682 84.0405,593.682 85.6965,593.652 C87.3885,593.542 88.7205,593.502 89.8365,593.402 L89.8365,595.122 C86.0205,596.492 81.9885,599.232 77.5965,603.192 C73.1325,607.262 66.8685,613.592 63.6645,618.852 C60.3165,623.962 58.5165,629.472 58.2645,633.282 C58.0125,636.962 59.4525,640.382 62.4405,640.632 C65.4285,640.702 70.7565,637.602 75.6525,634.262 C80.4405,630.762 85.4805,626.302 91.0605,620.322 L98.6565,620.322 C100.418,618.422 102.258,616.512 104.018,614.462 C105.678,612.372 108.228,610.392 109.168,608.082 C109.958,605.532 110.028,602.652 109.668,600.022 C109.348,597.432 108.668,594.982 107.478,592.682 C108.988,591.782 109.998,591.092 110.648,590.232 C111.218,589.332 111.438,588.642 111.148,587.782 C111.758,587.642 112.518,587.642 113.808,587.782 C114.998,587.822 116.548,588.032 118.458,588.282 C116.948,589.622 115.788,591.242 115.288,593.142 C114.748,595.022 114.888,597.142 115.038,599.522 C115.038,601.682 115.258,604.022 115.538,606.392 C116.518,608.952 118.028,611.142 119.938,612.982 C121.808,614.852 124.218,616.222 127.028,617.372 L134.618,615.682 C137.318,619.102 141.138,622.232 146.358,625.222 C151.508,628.172 161.118,633.002 165.478,633.282 C169.718,633.392 172.528,630.332 171.808,626.192 C170.838,621.912 164.938,613.772 160.328,608.592 C155.578,603.262 148.808,598.222 144.308,595.272 C139.878,592.392 136.278,590.982 133.648,591.202 L134.368,587.782 C136.168,587.462 137.938,587.172 139.518,587.062 C141.068,586.842 142.578,586.812 143.908,586.812 C142.618,570.902 142.328,556.242 143.188,542.022 C144.058,527.802 145.778,514.702 148.808,502.142 C150.178,501.962 151.218,500.482 152.478,497.422 C153.518,494.362 154.168,494.362 155.678,483.962 C157.118,473.232 159.208,449.902 161.548,434.532 C163.748,419.122 166.478,405.552 169.358,392.702 C173.578,391.982 176.638,390.612 178.688,388.452 C180.628,386.222 180.598,383.412 181.348,379.882 C182.068,376.282 182.648,372.142 183.078,367.172 C185.558,366.992 187.288,366.422 188.698,365.442 C189.918,364.292 190.528,363.252 190.928,361.052 C191.288,358.782 190.568,355.002 191.138,352.482 C191.678,349.962 192.618,347.842 194.098,346.112 C194.958,347.082 196.178,347.982 197.768,348.812 C199.278,349.602 201.148,350.222 203.378,350.792 C209.468,326.172 214.178,307.162 217.818,292.362 C221.378,277.672 223.898,272.132 224.698,263.242 C225.418,254.272 224.728,248.842 222.248,239.012 C219.578,229.002 213.248,212.622 209.498,204.312 C205.718,196.032 205.398,193.252 200.218,189.622 C194.888,185.912 187.718,183.462 178.178,182.272 C174.328,178.572 169.398,175.292 163.238,172.012 C157.018,168.742 149.818,165.712 141.248,162.942 C119.898,162.082 98.5135,161.212 77.1285,160.312 z" id="imagebot_64"/>
  <path fill-rule="evenodd" stroke="#000000" stroke-width="0.036" stroke-miterlimit="10" fill="#ffffff" d="M61.8295,175.042 L78.7855,161.612 L141.028,163.702 L155.468,170.002 C151.898,173.492 148.118,177.702 143.728,182.782 C139.298,187.782 133.358,195.202 129.508,200.162 C125.698,204.992 122.778,208.952 120.908,211.902 C119.648,205.672 118.168,200.342 116.078,195.342 C114.028,190.302 110.468,185.192 108.738,182.342 C106.938,179.462 105.818,178.022 105.388,178.172 C102.688,182.452 100.058,187.382 97.6505,192.822 C95.0945,198.332 92.9705,204.162 90.7385,210.862 C87.3185,205.172 83.8265,199.912 80.2625,194.942 C76.6265,189.832 72.1265,184.432 69.1385,181.082 C65.9685,177.742 63.6655,175.722 61.8295,175.042 z" id="imagebot_63"/>
  <path fill-rule="evenodd" stroke="#000000" stroke-width="0.036" stroke-miterlimit="10" fill="#a80000" d="M104.988,180.692 C102.078,187.352 99.8805,192.682 98.2605,196.822 C96.6045,200.962 95.5605,203.732 95.1285,205.422 C96.4245,208.592 97.6845,211.252 98.9085,213.812 C100.128,216.262 101.318,218.422 102.468,220.292 C102.908,220.432 103.628,220.432 104.778,220.292 C105.888,220.142 108.558,219.172 109.168,219.462 C109.568,219.572 108.878,220.792 107.688,221.332 C106.428,221.762 104.528,222.162 101.828,222.382 C100.058,228.962 98.4765,235.162 97.2165,241.242 C95.8845,247.322 94.8405,252.872 94.0845,258.412 C95.0925,260.002 96.6765,262.702 99.1245,266.802 C101.538,270.832 104.558,275.982 108.338,282.532 C109.238,279.042 110.248,275.332 111.908,271.012 C113.448,266.732 115.288,262.052 117.558,256.972 C115.868,250.172 114.458,243.582 113.348,237.062 C112.228,230.482 111.398,224.212 110.858,217.982 C112.948,215.642 114.568,213.742 115.868,212.122 C117.128,210.392 117.918,209.312 118.388,208.342 C117.128,202.612 115.438,197.392 113.168,192.822 C110.858,188.182 108.228,184.182 104.988,180.692 z" id="imagebot_62"/>
  <path fill-rule="evenodd" stroke="#000000" stroke-width="0.036" stroke-miterlimit="10" fill="#ffffff" d="M61.6125,175.862 L59.7045,177.122 C64.2765,188.392 68.1285,198.262 71.6565,207.292 C75.0405,216.222 76.6605,222.302 80.2605,230.552 C83.7885,238.722 87.9285,247.142 92.8245,256.112 C93.9405,248.622 95.1285,241.922 96.3885,236.022 C97.5765,230.012 98.8365,224.972 100.168,220.502 C98.3685,216.512 97.2165,213.482 96.1725,211.292 C95.1645,209.062 94.5885,207.722 94.3005,207.292 C93.4005,209.992 92.6805,211.652 91.9965,212.552 C91.3485,213.412 91.1325,213.522 90.0885,212.332 C88.9365,211.042 87.3885,208.522 84.8685,204.772 C82.0965,200.882 78.2805,194.302 74.3925,189.472 C70.5045,184.652 66.2925,180.112 61.6125,175.862 z" id="imagebot_61"/>
  <path fill-rule="evenodd" stroke="#000000" stroke-width="0.036" stroke-miterlimit="10" fill="#ffffff" d="M156.328,170.822 L157.768,171.262 C158.668,173.602 158.598,176.912 157.158,181.732 C155.678,186.522 152.728,192.932 149.418,199.552 C145.958,206.072 140.668,214.022 137.028,220.502 C133.328,226.772 130.298,231.772 127.388,237.462 C124.438,243.222 121.658,248.662 119.218,254.452 C117.488,246.892 116.048,240.452 115.038,234.542 C113.958,228.642 113.308,223.712 112.948,219.462 C113.958,218.022 114.998,216.622 116.078,215.252 C117.088,213.772 118.138,212.512 119.218,211.072 C119.428,211.762 119.718,212.262 120.078,212.732 C120.368,213.162 120.688,213.772 121.338,213.592 C121.878,213.272 121.878,213.382 123.858,210.862 C125.768,208.162 129.728,202.472 133.258,198.082 C136.748,193.582 141.568,188.362 144.808,184.652 C147.868,180.942 150.208,178.062 152.118,175.862 C154.098,173.562 155.318,171.832 156.328,170.822 z" id="imagebot_60"/>
  <path fill-rule="evenodd" stroke="#000000" stroke-width="0.036" stroke-miterlimit="10" fill="#999999" d="M58.2655,178.172 C55.7095,179.822 53.5855,181.302 51.3535,182.992 C49.1575,184.652 47.1775,186.122 45.2695,187.822 C47.2135,192.572 48.9055,197.032 50.4895,201.212 C51.9655,205.422 52.9015,208.982 54.7015,212.732 C56.4655,216.362 58.6255,219.752 61.1815,223.022 C61.7935,223.742 62.9095,224.182 64.5295,224.462 C66.1135,224.642 68.1655,224.642 70.8295,224.462 C71.4415,225.762 71.8375,227.672 71.8735,230.332 C71.9095,232.962 71.6935,236.202 71.2255,240.202 C71.9095,241.822 73.7815,244.982 76.6975,249.842 C79.6495,254.742 85.0855,263.702 88.8295,269.102 C92.3935,274.292 95.5615,278.072 98.4775,281.272 C101.398,284.552 103.768,286.742 106.038,288.402 L107.908,283.582 C103.158,277.382 98.8015,270.872 94.6975,263.882 C90.5215,256.832 87.2095,250.202 83.3935,241.672 C79.3975,232.962 75.4375,222.342 71.6575,212.732 C67.7695,203.012 63.0175,190.052 60.7495,184.252 C58.4805,178.422 57.6525,176.442 58.2655,178.172 z" id="imagebot_59"/>
  <path fill-rule="evenodd" stroke="#000000" stroke-width="0.036" stroke-miterlimit="10" fill="#999999" d="M159.678,172.082 C162.778,173.202 165.728,174.862 168.678,176.912 C171.628,179.032 174.398,181.372 177.278,184.472 C175.698,188.792 173.788,193.322 171.418,198.512 C168.968,203.662 165.328,211.292 163.028,215.032 C160.648,218.522 160.038,218.812 157.588,220.072 C155.068,221.332 151.978,222.122 148.158,222.592 C147.368,223.922 147.148,226.082 147.508,229.072 C147.868,232.022 148.738,235.802 150.248,240.412 C146.788,245.672 143.148,250.852 139.338,256.112 C135.488,261.332 132.318,266.042 127.208,271.622 C121.908,277.202 115.648,282.892 108.128,289.232 C108.088,288.112 108.878,285.162 110.648,280.232 C112.478,275.152 115.648,265.902 118.598,259.672 C121.408,253.482 123.678,249.482 127.208,243.112 C130.558,236.492 135.308,227.602 139.118,220.902 C142.938,214.202 146.648,208.552 149.808,203.122 C152.908,197.572 155.568,192.682 157.368,188.032 C158.988,183.282 159.458,177.922 159.898,175.252 C160.218,172.552 160.148,171.542 159.678,172.082 z" id="imagebot_58"/>
  <path stroke="#000000" stroke-width="0.036" stroke-miterlimit="10" fill-rule="evenodd" d="M37.3845,112.472 C37.3125,116.392 37.9605,120.712 39.1845,125.572 C40.3725,130.362 42.1365,136.262 44.6205,141.482 C47.0685,146.632 49.8405,151.922 53.4765,156.682 C56.9685,161.502 60.9645,165.712 65.6085,169.712 C70.1805,173.492 75.1845,176.982 81.1965,179.502 C87.2445,182.022 94.8405,183.892 101.468,184.572 C107.978,185.042 114.098,184.502 120.108,182.952 C126.088,181.302 131.958,178.812 137.288,175.502 C142.508,172.082 147.288,167.042 151.258,163.012 C154.928,158.872 157.558,155.272 160.108,151.102 C162.698,146.882 164.928,142.492 166.808,138.062 C168.608,133.562 170.008,128.522 171.158,124.462 C172.238,120.352 172.958,116.792 173.318,113.622 C174.358,114.122 175.698,114.382 177.318,114.382 C178.938,114.342 181.168,114.412 182.898,113.482 C184.548,112.402 185.988,110.882 187.068,108.402 C188.008,105.882 188.728,101.922 188.688,98.4654 C188.548,94.7934 187.498,90.0774 186.528,87.2344 C185.448,84.4254 184.228,82.6984 182.718,81.6184 C181.058,80.4664 179.078,80.3224 177.318,80.3584 C175.548,80.3224 173.968,80.5744 172.418,81.2574 C173.358,77.6944 173.358,73.3734 172.418,67.8654 C171.378,62.3574 169.578,55.1574 166.618,48.4974 C163.488,41.7294 157.658,32.5494 154.668,27.7624 C151.688,23.0454 151.648,22.2534 149.128,19.9494 C146.608,17.5014 143.728,15.0174 139.658,13.3254 C135.478,11.4174 130.408,10.0854 124.578,9.32937 C118.638,8.43038 111.828,8.24937 104.698,8.93337 C97.3955,9.58037 88.8995,11.0934 81.7355,14.0084 C74.4995,16.9604 68.0915,21.3534 62.3675,26.5004 C56.5355,31.5764 51.6395,37.8054 47.6795,44.0684 C43.6835,50.1524 40.8755,58.2884 38.8235,63.0764 C36.6275,67.7564 36.0155,69.6284 35.1875,72.2924 C34.3595,74.9924 33.9995,76.9734 34.1075,78.6284 C34.2155,80.1054 34.5755,80.8974 35.5835,81.1494 C33.0995,80.9694 31.1555,81.5084 29.6075,82.6254 C28.0235,83.7054 27.1235,85.5414 26.3315,87.8464 C25.3955,90.1144 24.4595,92.8504 24.3515,96.1984 C24.2795,99.5104 24.3875,104.802 25.7915,107.612 C27.0875,110.242 30.3275,111.822 32.3075,112.652 C34.2895,113.372 35.8365,113.442 37.3845,112.472 z" id="imagebot_57"/>
  <path fill-rule="evenodd" stroke="#000000" stroke-width="0.036" stroke-miterlimit="10" fill="#fcdec9" d="M41.7055,81.3294 C44.0095,80.1054 46.4935,78.4854 49.1575,76.4704 C51.7495,74.3464 54.9895,71.6824 57.4735,69.0544 C59.9215,66.1734 61.8655,63.0054 63.4495,60.5224 C64.8535,58.1464 65.6455,56.1664 65.9695,54.7264 C71.7655,56.2024 77.1655,57.0304 82.4575,57.6424 C87.7495,58.0014 92.7535,57.9654 97.4695,57.8224 C102.038,57.6784 105.498,57.8584 109.778,57.1024 C114.028,56.2744 118.638,54.4744 122.638,53.1064 C126.518,51.6294 129.758,50.4424 132.788,48.5704 C135.668,46.5904 137.968,44.3944 139.838,41.6944 C141.318,44.7904 142.828,48.0664 144.518,51.6664 C146.218,55.1944 147.838,59.0464 149.778,63.0784 C151.648,67.0744 153.628,72.0424 155.578,75.6064 C157.338,79.0624 159.208,81.9784 160.648,83.9214 C162.018,85.7224 162.518,85.9384 163.708,86.6574 C164.858,87.2694 165.938,87.7374 167.348,87.9174 C167.098,88.5654 167.018,89.2854 166.988,90.0774 C166.918,90.7254 167.018,92.3464 167.168,92.5984 C167.278,92.7784 167.458,92.4904 167.708,91.8774 C167.888,91.2664 167.998,90.0414 168.428,89.1784 C168.788,88.1694 169.328,87.1984 170.048,86.2624 C170.658,85.2174 171.558,84.0664 172.608,83.3814 C173.578,82.6254 174.838,82.0144 176.388,81.9424 C177.858,81.7264 180.268,81.5464 181.818,82.6624 C183.328,83.7784 184.738,86.2984 185.638,88.8184 C186.358,91.1944 186.718,93.9654 186.718,97.1334 C186.748,100.232 186.388,104.732 185.638,107.282 C184.768,109.622 183.328,111.142 181.458,111.962 C179.438,112.792 175.918,112.972 174.228,112.362 C172.528,111.642 171.738,108.762 171.158,108.182 C170.408,107.612 170.188,108.042 170.228,108.902 C170.188,109.622 171.448,110.632 171.518,112.902 C171.558,115.102 171.418,117.722 170.408,122.302 C169.178,126.802 167.278,134.182 164.828,139.722 C162.308,145.192 159.278,150.162 155.898,154.912 C152.548,159.562 149.018,163.802 144.628,167.802 C140.058,171.722 134.118,175.902 128.898,178.532 C123.568,180.982 119.108,182.422 113.168,182.992 C107.048,183.572 99.3435,183.242 93.1155,182.022 C86.7795,180.652 81.5235,178.352 75.9795,175.112 C70.3995,171.722 64.6395,167.122 60.0675,162.262 C55.4235,157.252 51.6075,150.952 48.6195,145.842 C45.5955,140.622 43.7235,135.942 42.1755,131.512 C40.4835,126.942 39.5475,122.692 38.9715,119.342 C38.3595,116.032 38.2515,113.402 38.6475,111.602 C39.7275,110.382 40.5555,109.342 40.9875,108.332 C41.4195,107.252 41.3475,105.562 41.1675,105.592 C40.8075,105.522 40.1595,107.362 39.3675,108.332 C38.5395,109.262 37.5675,110.882 36.3075,111.392 C34.7595,111.712 32.7795,111.712 31.0515,110.852 C29.2875,109.912 27.4515,108.332 26.5155,105.952 C25.5435,103.582 25.2915,99.7274 25.6155,96.7394 C25.8315,93.5714 26.8395,89.8994 27.9555,87.6674 C28.9995,85.3634 30.4755,84.3554 31.9515,83.5274 C33.3195,82.6634 35.0475,82.8794 36.3075,82.8074 C37.3515,82.6624 37.9635,82.5194 38.8275,82.8074 C39.8355,82.9514 40.8435,83.2394 41.7075,84.0674 C42.3915,84.7514 42.6435,87.2354 43.0035,87.4874 C43.2555,87.6314 43.5075,86.5154 43.3635,85.5074 C43.1085,84.4244 42.6045,83.1284 41.7055,81.3294 z" id="imagebot_56"/>
  <path stroke="#000000" stroke-width="0.036" stroke-miterlimit="10" fill-rule="evenodd" d="M32.1285,95.2964 C32.3805,94.1814 32.6685,92.4524 33.3885,91.4814 C34.0725,90.4734 34.9725,89.3574 35.9445,88.9604 C36.7005,88.4204 37.6725,87.7724 38.4645,88.4204 C39.1485,89.0324 40.5165,91.5174 40.6245,92.3804 C40.6965,93.0284 39.3645,93.1014 39.0045,92.7404 C38.5005,92.2004 38.3205,90.4724 37.9245,90.0404 C37.4565,89.5364 36.8085,89.5004 36.1245,90.2214 C35.4045,90.8684 33.7485,92.7414 33.3885,94.1814 C32.8845,95.5134 32.9205,97.3854 33.2085,98.5364 C33.3525,99.6164 33.8205,100.332 34.4685,100.692 C35.0805,100.872 36.6285,99.8684 37.0245,100.152 C37.3125,100.442 37.0245,101.812 36.3045,102.172 C35.5125,102.352 33.1365,102.322 32.4885,101.632 C31.6965,100.842 31.9845,99.0764 31.9485,97.9964 C31.7695,96.9534 31.8765,96.2334 32.1285,95.2964 z" id="imagebot_55"/>
  <path stroke="#000000" stroke-width="0.036" stroke-miterlimit="10" fill-rule="evenodd" d="M180.518,98.6094 C180.378,97.4214 180.228,95.7294 179.798,94.6494 C179.228,93.3894 178.468,92.3804 177.678,91.7694 C176.958,91.1934 176.058,90.2924 175.268,90.8694 C174.328,91.3014 172.668,93.7494 172.528,94.4704 C172.278,95.1544 173.538,95.4064 174.078,95.0814 C174.548,94.6494 174.938,92.8864 175.558,92.5614 C176.018,92.0934 176.708,92.2374 177.318,92.9934 C177.928,93.7854 179.078,95.8374 179.408,97.3494 C179.618,98.7524 179.298,100.522 178.978,101.672 C178.578,102.602 177.998,103.432 177.388,103.612 C176.668,103.612 175.268,102.572 174.978,102.712 C174.618,102.892 174.618,104.372 175.378,104.802 C176.058,105.052 178.358,105.372 179.228,104.802 C179.948,104.112 180.128,102.352 180.308,101.312 C180.518,100.332 180.598,99.5814 180.518,98.6094 z" id="imagebot_54"/>
  <path stroke="#000000" stroke-width="0.036" stroke-miterlimit="10" fill-rule="evenodd" d="M176.198,95.1174 C176.058,95.4774 177.028,96.9534 177.318,97.9974 C177.458,99.0054 177.528,100.732 177.678,101.092 C177.858,101.272 178.288,100.302 178.398,99.4384 C178.398,98.5014 177.968,96.5224 177.678,95.8374 C177.278,95.0444 176.238,94.7564 176.198,95.1174 z" id="imagebot_53"/>
  <path stroke="#000000" stroke-width="0.036" stroke-miterlimit="10" fill-rule="evenodd" d="M92.2125,86.5854 C92.2125,88.9974 94.1565,90.9414 96.5685,90.9414 S100.928,88.9974 100.928,86.5854 C100.928,84.2094 98.9805,82.2664 96.5685,82.2664 S92.2125,84.2094 92.2125,86.5854 z" id="imagebot_52"/>
  <path stroke="#000000" stroke-width="0.036" stroke-miterlimit="10" fill-rule="evenodd" d="M109.778,86.7654 C109.778,89.1774 111.728,91.1204 114.138,91.1204 C116.508,91.1204 118.458,89.1774 118.458,86.7654 C118.458,84.3894 116.508,82.4454 114.138,82.4454 C111.728,82.4454 109.778,84.3894 109.778,86.7654 z" id="imagebot_51"/>
  <path stroke="#000000" stroke-width="0.036" stroke-miterlimit="10" fill-rule="evenodd" d="M87.1725,75.1724 C88.4325,74.6324 91.5645,74.0214 94.0485,73.7334 C96.3165,73.3374 100.528,73.2654 101.288,73.3734 C101.968,73.4814 100.958,73.8414 98.5485,74.4534 C95.9925,74.9574 88.6845,76.3254 86.7765,76.4704 C84.9045,76.5044 85.8765,75.5694 87.1725,75.1724 z" id="imagebot_50"/>
  <path stroke="#000000" stroke-width="0.036" stroke-miterlimit="10" fill-rule="evenodd" d="M115.178,74.4894 C116.408,74.5254 119.788,74.9574 122.128,75.6414 C124.468,76.1814 128.248,77.5484 129.008,77.9454 C129.578,78.2694 128.468,78.3774 126.058,77.9814 C123.498,77.4774 116.188,76.1094 114.388,75.5334 C112.518,74.9574 113.888,74.3804 115.178,74.4894 z" id="imagebot_49"/>
  <path stroke="#000000" stroke-width="0.036" stroke-miterlimit="10" fill-rule="evenodd" d="M68.1655,58.8294 C69.3535,59.3694 72.5215,59.8734 75.0415,60.4854 C77.4535,60.9894 81.5575,61.4934 82.6375,61.5654 C83.4655,61.3494 82.6015,60.5934 81.0175,60.1254 C79.4335,59.7294 75.5455,59.5494 73.3855,59.1894 C71.1175,58.7214 68.8495,57.5334 67.9855,57.5694 C66.9405,57.4974 67.0485,58.2894 68.1655,58.8294 z" id="imagebot_48"/>
  <path stroke="#000000" stroke-width="0.036" stroke-miterlimit="10" fill-rule="evenodd" d="M140.738,52.4934 C141.248,54.1494 142.178,56.9574 143.258,58.8294 C144.088,60.5584 146.028,63.0414 146.178,62.8254 C146.138,62.4294 144.948,58.9014 143.978,56.6694 C142.868,54.3294 141.208,49.5054 140.558,48.8574 C140.058,48.1724 140.168,50.7294 140.738,52.4934 z" id="imagebot_47"/>
  <path stroke="#000000" stroke-width="0.036" stroke-miterlimit="10" fill-rule="evenodd" d="M84.0775,61.0254 C84.0775,61.3134 84.7615,61.5654 85.6255,61.5654 C86.4535,61.5654 87.1735,61.3134 87.1735,61.0254 C87.1735,60.7014 86.4535,60.4854 85.6255,60.4854 C84.7605,60.4854 84.0775,60.7014 84.0775,61.0254 z" id="imagebot_46"/>
  <path stroke="#000000" stroke-width="0.036" stroke-miterlimit="10" fill-rule="evenodd" d="M146.968,64.1934 C146.678,64.3374 146.828,65.0574 147.218,65.7774 C147.658,66.5334 148.198,67.0014 148.448,66.8574 C148.698,66.7124 148.588,65.9934 148.198,65.2734 C147.758,64.5174 147.218,64.0484 146.968,64.1934 z" id="imagebot_45"/>
  <path stroke="#000000" stroke-width="0.036" stroke-miterlimit="10" fill-rule="evenodd" d="M76.1215,130.002 L77.7415,129.282 C78.3175,132.592 79.2895,135.722 80.6575,138.682 C81.8815,141.592 83.5735,144.402 85.8775,146.812 C88.2175,149.082 91.0255,150.952 94.5895,152.432 C98.1175,153.792 102.548,155.602 106.898,155.342 C111.118,154.952 116.188,152.822 119.758,150.632 C123.138,148.432 125.698,145.052 127.708,142.132 C129.658,138.962 130.698,135.252 131.668,132.522 C132.538,129.782 133.178,127.552 133.328,125.822 L135.488,126.002 C134.408,129.782 133.178,133.462 131.668,136.882 C130.198,140.372 128.498,143.752 126.448,146.632 C124.328,149.442 121.918,151.492 118.638,153.332 C115.218,154.952 110.358,156.462 106.148,156.602 C101.858,156.602 97.0735,155.852 93.1495,153.902 C89.0815,151.852 84.9055,148.292 82.2775,145.012 C79.6135,141.772 78.3535,137.132 77.3815,134.682 C76.3365,132.122 75.8695,130.612 76.1215,130.002 z" id="imagebot_44"/>
  <path stroke="#000000" stroke-width="0.036" stroke-miterlimit="10" fill-rule="evenodd" d="M74.5005,129.822 C75.5085,129.212 76.5885,128.922 77.7405,128.562 C78.9285,128.092 81.4125,126.762 81.7365,127.082 C81.9885,127.332 80.4405,128.952 79.1805,130.002 C77.6685,130.972 74.9685,132.192 73.5645,132.702 C72.1605,132.992 70.6125,132.632 70.8645,132.162 C71.0445,131.582 73.2765,130.432 74.5005,129.822 z" id="imagebot_43"/>
  <path stroke="#000000" stroke-width="0.036" stroke-miterlimit="10" fill-rule="evenodd" d="M136.528,125.462 C135.228,125.212 134.258,124.892 133.068,124.892 C131.668,124.492 129.078,124.102 128.898,124.282 C128.718,124.562 130.338,125.862 131.958,126.622 C133.398,127.262 136.568,127.952 138.008,128.092 C139.478,128.092 140.708,127.412 140.558,127.012 C140.238,126.542 137.788,125.752 136.528,125.462 z" id="imagebot_42"/>
  <path fill-rule="evenodd" stroke="#000000" stroke-width="0.036" stroke-miterlimit="10" fill="#4c4c4c" d="M64.9245,54.2214 C64.2045,56.4894 62.9805,58.5764 61.6485,60.8804 C60.2085,63.1124 58.6965,64.9484 56.4285,67.5044 C53.9805,69.8804 50.1285,73.3364 47.3925,75.5324 C44.5125,77.6564 41.8485,79.6364 39.9405,80.3564 C37.9605,80.9684 36.5925,80.3564 35.9805,79.3484 C35.2965,78.1964 35.7645,76.5034 36.4125,73.8394 C36.9885,71.1044 37.8885,67.5754 39.7965,63.1114 C41.7045,58.5034 44.4765,51.8434 47.6805,46.7314 C50.7405,41.4394 54.1245,36.6514 58.2645,32.2234 C62.2965,27.6874 66.9045,23.5824 72.0885,20.3434 C77.2005,17.1034 82.3845,14.8344 88.6125,13.1434 C94.6965,11.3784 102.578,10.2994 108.518,9.90337 C114.318,9.43537 118.748,9.86737 123.748,10.6234 C128.568,11.1994 133.648,11.9554 138.008,14.0074 C142.398,15.9874 146.538,19.6954 149.598,22.9004 C152.408,25.9964 153.598,29.2364 155.678,32.7644 C157.878,36.2914 160.358,40.2874 162.308,43.7804 C164.108,47.0564 165.038,48.8204 166.518,52.6724 C167.848,56.4884 169.718,62.3934 170.618,66.4964 C171.418,70.4204 171.558,73.4804 171.598,76.2524 C171.558,78.9164 171.418,81.0764 170.768,82.7324 C169.978,84.3164 169.078,85.7204 167.668,85.9724 C166.228,86.0074 164.538,85.7204 162.598,83.5964 C160.508,81.3274 158.378,77.3314 156.078,73.0124 C153.778,68.5124 151.468,63.1484 149.018,57.6044 C146.428,52.0604 143.948,46.4084 141.138,40.2514 C142.288,38.4514 143.078,36.2914 143.518,33.6274 C143.868,30.7834 143.698,25.4554 143.658,24.1594 C143.518,22.9714 143.188,24.6994 142.978,26.2834 C142.648,27.8314 142.868,30.3154 142.258,32.9074 C141.568,35.3914 140.818,38.4514 139.018,41.1154 C136.998,43.5634 134.768,45.7234 130.808,47.8844 C126.668,49.9724 120.148,52.4914 114.998,53.9324 C109.818,55.3004 105.528,55.7324 100.208,56.2004 C94.7695,56.4524 88.0015,56.3084 82.9615,56.0564 C77.8855,55.8394 73.7455,55.3714 70.3975,54.6524 C67.0495,53.6444 64.8175,52.3484 62.7295,50.9084 C60.4255,49.3244 57.6895,46.5534 57.0055,46.1924 C56.2855,45.9044 57.6895,48.3164 58.4455,49.2524 C59.0935,50.0084 60.0295,50.4044 61.1095,51.2694 C62.1885,52.0254 63.4135,53.1054 64.9245,54.2214 z" id="imagebot_41"/>
  <path stroke="#000000" stroke-width="0.036" stroke-miterlimit="10" fill-rule="evenodd" d="M46.0245,72.7964 C46.4925,71.9334 49.4445,70.2044 50.8485,69.0174 C52.1085,67.8654 52.8645,67.1454 54.2325,65.7414 C55.6005,64.1574 58.4085,60.5214 59.1645,60.1254 C59.6685,59.6934 59.2005,61.7454 58.1925,63.2224 C57.1125,64.6984 55.1325,66.8584 53.3685,68.7304 C51.5685,70.5304 49.0845,72.8704 47.8605,73.6624 C46.5645,74.2014 45.4845,73.5884 46.0245,72.7964 z" id="imagebot_40"/>
  <path stroke="#000000" stroke-width="0.036" stroke-miterlimit="10" fill-rule="evenodd" d="M43.0725,75.6054 C43.1805,75.8214 43.7565,75.6774 44.3325,75.2814 C44.9085,74.9214 45.2685,74.4534 45.1245,74.2374 C45.0165,74.0574 44.4405,74.2014 43.8645,74.5614 C43.2895,74.9574 42.9285,75.4244 43.0725,75.6054 z" id="imagebot_39"/>
  <path stroke="#000000" stroke-width="0.036" stroke-miterlimit="10" fill-rule="evenodd" d="M64.3495,47.4894 C65.3935,48.3174 68.5255,50.0094 71.1175,51.1614 C73.4935,52.0984 76.2655,53.0334 79.4335,53.5734 C82.6015,54.0054 88.8655,54.1854 90.3055,54.1134 C91.6735,53.9334 89.5855,53.4294 87.7845,53.1414 C85.8405,52.8894 81.8445,52.7454 79.2885,52.4204 C76.6245,51.8454 74.5005,51.1964 72.5205,50.4774 C70.5405,49.7564 68.9925,49.0004 67.7325,48.3534 C66.4005,47.6684 65.3205,46.5534 64.7805,46.5174 C64.1685,46.3364 63.2325,46.6614 64.3495,47.4894 z" id="imagebot_38"/>
  <path stroke="#000000" stroke-width="0.036" stroke-miterlimit="10" fill-rule="evenodd" d="M76.1925,48.8934 C76.3365,49.4694 77.4525,51.4854 78.1725,52.4204 C78.8205,53.3204 79.7565,54.0404 80.0085,54.0044 C80.1165,53.8244 79.2885,52.4204 78.8925,51.5924 C78.3165,50.6934 77.8485,49.1454 77.3445,48.7484 C76.8765,48.2454 75.9775,48.2454 76.1925,48.8934 z" id="imagebot_37"/>
  <path stroke="#000000" stroke-width="0.036" stroke-miterlimit="10" fill-rule="evenodd" d="M73.3845,49.7564 C73.3125,50.1164 73.9605,51.1964 74.5005,51.8804 C74.9325,52.4204 76.1925,53.5364 76.3365,53.4294 C76.4445,53.2124 75.4725,51.6284 75.2205,51.0174 C74.9685,50.3694 74.6805,49.7214 74.5005,49.6134 C74.1765,49.3614 73.3495,49.3614 73.3845,49.7564 z" id="imagebot_36"/>
  <path stroke="#000000" stroke-width="0.036" stroke-miterlimit="10" fill-rule="evenodd" d="M106.688,51.2694 C108.878,50.1534 115.758,48.1014 119.678,46.4814 C123.538,44.8614 126.918,43.2054 129.828,41.6574 C132.568,39.9654 134.868,38.2734 136.598,37.0134 C138.328,35.5734 139.408,34.4924 140.278,34.0614 C141.068,33.7374 141.678,33.9164 141.278,34.7454 C140.738,35.4304 138.908,36.8334 137.318,38.1294 C135.698,39.2814 133.868,40.6504 131.528,42.0894 C129.078,43.4934 125.838,45.3654 122.778,46.8774 C119.578,48.2814 115.538,49.6864 112.768,50.6934 C109.888,51.5924 107.118,52.5294 106.108,52.6724 C105.028,52.7094 104.378,52.2414 106.688,51.2694 z" id="imagebot_35"/>
  <path stroke="#000000" stroke-width="0.036" stroke-miterlimit="10" fill-rule="evenodd" d="M107.548,27.6894 C109.388,27.2934 113.738,26.9694 117.848,26.8614 C121.878,26.6814 127.128,26.6814 131.088,27.0054 C134.868,27.2224 138.908,28.0144 140.558,28.5544 C142.108,29.0584 141.608,29.9934 140.708,30.1024 C139.728,30.1024 137.428,29.1294 134.768,28.8414 C131.918,28.5184 127.748,28.2304 124.328,28.2664 C120.868,28.2664 117.308,28.4104 114.458,28.6984 C111.438,28.8064 108.518,29.1664 107.258,29.0944 C106.148,28.9134 105.638,27.9774 107.548,27.6894 z" id="imagebot_34"/>
  <path stroke="#000000" stroke-width="0.036" stroke-miterlimit="10" fill-rule="evenodd" d="M111.478,14.8364 C113.418,15.5214 122.018,16.6014 126.738,18.2214 C131.418,19.8404 137.178,23.7294 139.588,24.7374 C141.898,25.6014 141.538,24.5214 140.848,23.8734 C140.058,23.0454 137.898,21.9654 135.338,20.6334 C132.678,19.2304 128.828,17.5014 125.438,16.2784 C121.878,15.0184 117.238,13.9744 114.858,13.7224 C112.478,13.4334 109.458,14.0814 111.478,14.8364 z" id="imagebot_33"/>
  <path stroke="#000000" stroke-width="0.036" stroke-miterlimit="10" fill-rule="evenodd" d="M145.208,28.2654 C145.818,29.3804 149.418,32.5134 150.998,34.6014 C152.618,36.6174 153.698,39.4244 154.678,40.3974 C155.398,41.2964 156.368,41.1534 155.938,40.1094 C155.398,38.9574 153.698,35.8254 152.118,33.7734 C150.498,31.6494 147.798,28.6974 146.648,27.8334 C145.388,26.8254 144.488,27.1134 145.208,28.2654 z" id="imagebot_32"/>
  <path stroke="#000000" stroke-width="0.036" stroke-miterlimit="10" fill-rule="evenodd" d="M145.638,36.2934 C146.318,36.8694 148.658,40.2894 150.028,42.8104 C151.258,45.2574 152.188,48.6784 152.838,50.6944 C153.238,52.3864 153.088,53.6464 152.978,54.0784 C152.838,54.7264 152.838,54.8704 152.408,53.9344 C151.938,52.7824 151.178,49.6504 150.278,47.3104 C149.128,44.8264 147.218,41.2264 146.358,39.4254 C145.488,37.4454 145.058,35.7524 145.638,36.2934 z" id="imagebot_31"/>
  <path stroke="#000000" stroke-width="0.036" stroke-miterlimit="10" fill-rule="evenodd" d="M158.638,74.7054 C159.138,75.8214 161.008,79.1334 162.308,80.7534 C163.418,82.1574 164.648,83.0584 165.548,83.4534 C166.368,83.6694 166.988,82.9134 167.098,82.7334 C167.058,82.5174 166.088,82.6974 165.548,82.3004 C164.858,81.7964 164.108,81.0044 163.418,80.0694 C162.628,78.9894 161.728,77.4414 161.148,76.3974 C160.468,75.3894 159.998,74.3094 159.608,74.1284 C159.028,73.7694 158.238,73.5884 158.638,74.7054 z" id="imagebot_30"/>
  <path stroke="#000000" stroke-width="0.036" stroke-miterlimit="10" fill-rule="evenodd" d="M167.808,82.5534 C167.988,82.7334 168.528,82.4814 169.038,82.0134 C169.538,81.5444 169.788,81.0404 169.608,80.8614 C169.468,80.6814 168.928,80.9334 168.428,81.4014 C167.918,81.8694 167.668,82.3734 167.808,82.5534 z" id="imagebot_29"/>
  <path stroke="#000000" stroke-width="0.036" stroke-miterlimit="10" fill-rule="evenodd" d="M139.588,18.9054 C139.698,17.3574 140.668,14.2254 140.988,11.8494 C141.208,9.47337 140.418,6.34037 140.708,5.08038 C140.888,3.85637 141.818,3.56837 142.258,4.21638 C142.538,4.79238 142.828,6.34037 142.828,8.32037 C142.788,10.2284 142.648,13.4684 142.258,15.5204 C141.788,17.4634 140.988,19.5164 140.558,20.1644 C140.098,20.6324 139.448,20.3454 139.588,18.9054 z" id="imagebot_28"/>
  <path stroke="#000000" stroke-width="0.036" stroke-miterlimit="10" fill-rule="evenodd" d="M143.118,20.0214 C144.018,18.6894 147.328,16.0254 149.168,13.9734 C150.928,11.7414 152.298,9.58037 153.558,7.34938 C154.598,4.97338 155.398,1.37238 156.078,0.437375 C156.728,-0.570625 157.988,0.365375 157.768,1.98538 C157.378,3.64137 155.828,7.38538 154.238,10.3014 C152.698,13.0724 150.028,16.4924 148.338,18.4734 C146.498,20.3454 144.338,21.5694 143.518,21.8574 C142.538,21.9644 142.218,21.3534 143.118,20.0214 z" id="imagebot_27"/>
  <path stroke="#000000" stroke-width="0.036" stroke-miterlimit="10" fill-rule="evenodd" d="M147.478,22.7214 C148.228,21.8574 150.098,19.8054 152.258,19.0484 C154.278,18.2564 158.818,17.9334 160.038,18.0764 C161.188,18.1844 160.398,19.3014 159.318,19.7684 C158.088,20.1274 154.928,19.5164 153.268,20.3084 C151.508,20.9554 150.138,23.3314 149.168,23.9804 C148.158,24.5204 147.548,24.0164 147.328,23.8354 C146.968,23.6214 146.648,23.4414 147.478,22.7214 z" id="imagebot_26"/>
  <path stroke="#000000" stroke-width="0.036" stroke-miterlimit="10" fill-rule="evenodd" d="M81.3405,175.832 C82.3125,176.512 84.8325,177.952 87.2445,178.892 C89.5845,179.752 92.6805,180.512 95.2725,181.012 C97.7925,181.412 101.028,181.842 102.078,181.732 C102.938,181.552 102.008,180.652 100.638,180.292 C98.9805,179.862 95.8485,179.792 93.3285,179.252 C90.7365,178.532 87.9645,177.302 85.9845,176.552 C84.0045,175.652 82.2405,174.572 81.5205,174.422 C80.7285,174.322 80.2965,174.962 81.3405,175.832 z" id="imagebot_25"/>
  <path stroke="#000000" stroke-width="0.036" stroke-miterlimit="10" fill-rule="evenodd" d="M104.238,180.692 C104.058,180.692 103.658,181.122 103.878,181.442 C103.948,181.592 104.528,182.132 104.778,182.092 C105.028,182.022 105.248,181.232 105.278,181.082 C105.068,180.762 104.528,180.582 104.238,180.692 z" id="imagebot_24"/>
  <path stroke="#000000" stroke-width="0.036" stroke-miterlimit="10" fill-rule="evenodd" d="M78.6765,172.442 C78.3525,172.522 78.1725,172.912 78.2805,173.242 C78.2445,173.382 78.9645,173.922 79.1805,173.882 C79.3965,173.782 79.7205,173.062 79.7205,172.842 C79.5045,172.522 78.9645,172.332 78.6765,172.442 z" id="imagebot_23"/>
  <path fill-rule="evenodd" stroke="#000000" stroke-width="0.036" stroke-miterlimit="10" fill="#666666" d="M43.2165,188.792 C38.9685,189.762 35.0445,191.202 31.1565,193.112 C27.1965,194.802 23.3445,196.742 20.1765,199.912 C16.9725,203.042 14.9925,205.602 12.4365,212.302 C9.73647,219.032 6.28047,230.762 4.55247,240.022 C2.78847,249.202 2.42847,258.452 2.21247,266.942 C1.96047,275.372 2.50047,283.722 3.14847,290.202 C3.65247,296.572 3.97647,300.352 5.48847,305.032 C6.89247,309.572 9.52047,313.382 11.8245,317.742 C14.0205,321.992 16.0725,325.622 18.9525,330.742 C21.7245,335.852 24.9645,341.542 28.6725,348.202 C31.2285,344.702 33.8565,341.722 36.4125,339.382 C38.9685,336.962 41.1285,335.312 44.0085,333.982 C46.7445,332.502 49.7325,331.422 52.9725,330.742 C52.1445,327.462 51.1005,323.182 49.4085,317.742 C47.7525,312.202 44.4765,303.522 43.0725,298.232 C41.5245,292.902 41.2005,288.652 40.4445,286.172 C39.6525,283.682 39.9045,283.902 38.2845,283.362 C36.3765,282.682 31.2285,282.462 30.2205,282.142 C29.2485,281.632 31.3725,280.842 32.8485,280.732 C34.3605,280.662 37.4925,281.242 38.8965,281.202 C40.0485,280.952 39.8685,281.132 40.3005,279.512 C40.6245,277.742 40.8405,273.392 41.3805,271.012 C41.8485,268.602 42.5685,266.912 43.5405,265.112 C44.4405,263.162 46.0965,261.362 47.1045,259.712 C48.0045,257.982 48.9045,256.432 49.4085,254.922 C48.4725,254.132 47.4645,253.012 46.7805,251.432 C45.9165,249.772 44.7285,246.282 44.7645,245.522 C44.7285,244.772 46.0965,246.062 46.7805,247.072 C47.4285,248.122 47.5365,250.172 48.6525,251.432 C49.7325,252.512 51.8205,253.052 52.9725,253.592 C53.8365,253.952 53.5125,254.022 54.5205,254.202 C55.4925,254.342 58.9845,254.132 59.3085,254.522 C59.4885,254.852 57.6165,255.962 56.2125,256.222 C54.8085,256.322 53.0085,256.222 50.9565,255.602 C50.4525,257.762 49.5885,259.822 48.5085,261.622 C47.3205,263.312 45.2325,264.322 44.3325,266.442 C43.3965,268.602 43.2525,272.062 43.0725,274.322 C42.7485,276.342 42.9645,278.002 42.6045,279.292 C42.1365,280.522 40.8765,281.312 40.7685,282.212 C40.6245,283.002 41.4525,282.422 41.9925,284.372 C42.3165,286.202 42.4605,289.162 43.5405,293.372 C44.6205,297.442 47.1045,304.312 48.6525,308.992 C50.0205,313.562 51.2085,317.602 52.2165,320.942 C53.0805,324.222 53.9445,326.672 54.3765,328.682 C54.7725,330.662 54.7725,331.962 54.5205,332.722 C54.0525,333.722 54.4485,334.622 55.3125,335.962 C56.1765,337.182 58.5525,338.302 59.9565,339.992 C61.1085,341.542 62.0445,343.192 63.1965,345.532 C64.3485,347.802 65.8605,351.362 67.0485,353.742 C68.1645,356.082 69.7485,357.482 70.1445,359.322 C70.3965,361.052 70.5405,363.102 69.0645,363.962 C67.5885,364.652 64.9605,364.542 61.3245,363.642 C62.8725,364.862 63.5565,365.872 63.8085,367.202 C63.9885,368.462 63.8445,369.982 62.2605,370.912 C60.6045,371.672 57.8685,372.032 53.9085,371.992 L54.0525,379.442 C55.2045,379.262 56.6085,379.262 58.5525,379.442 C60.4245,379.622 62.6925,379.982 65.3565,380.522 L65.3565,391.042 C70.8285,390.642 75.5805,390.392 79.7565,390.422 C83.8605,390.392 86.9925,391.002 89.9805,390.892 C92.8245,390.682 94.3725,391.502 97.3965,389.342 C100.458,387.002 104.018,383.262 108.228,377.572 C105.528,369.472 103.808,360.832 102.648,351.262 C101.468,341.612 101.108,330.562 101.568,320.482 C102.038,310.322 103.228,300.502 105.278,290.702 C101.498,287.502 97.7925,283.722 94.1565,279.222 C90.4845,274.682 87.3885,270.182 83.3205,263.782 C79.0725,257.262 74.6085,249.522 69.3885,240.412 C69.7845,237.532 70.0365,234.942 70.1445,232.492 C70.1805,229.972 70.1805,227.882 70.0005,225.832 C67.8045,226.372 65.8965,226.442 64.1325,226.052 C62.4045,225.582 60.8565,224.792 59.4885,223.242 C57.9765,221.552 56.5725,219.142 55.1325,216.292 C53.6205,213.302 52.3965,210.352 50.4885,205.782 C48.4735,201.062 46.0975,195.632 43.2165,188.792 z" id="imagebot_22"/>
  <path fill-rule="evenodd" stroke="#000000" stroke-width="0.036" stroke-miterlimit="10" fill="#666666" d="M179.368,185.482 C182.648,185.622 185.958,186.302 189.448,187.382 C192.978,188.322 196.828,189.402 199.888,191.992 C202.618,194.552 204.238,197.752 206.688,203.262 C209.248,208.732 212.308,218.092 214.898,224.972 C217.388,231.812 219.978,238.972 221.418,244.122 C222.718,249.092 222.898,251.032 222.928,255.392 C222.818,259.672 222.718,263.022 221.238,270.442 C219.658,277.892 216.158,291.212 214.078,299.992 C211.918,308.782 210.658,314.282 208.748,322.492 C206.838,330.562 204.748,338.982 202.628,348.162 C201.438,344.962 199.598,341.972 196.978,338.912 C194.348,335.812 190.388,332.102 187.038,330.022 C183.578,327.782 178.288,327.962 176.458,326.092 C174.578,324.152 175.268,322.202 175.588,318.752 C175.808,315.152 176.488,309.712 177.638,305.072 C178.578,300.422 179.948,295.712 181.598,291.062 C183.298,286.202 186.858,280.082 187.718,276.882 C188.438,273.712 187.288,273.602 186.208,272.092 C185.058,270.432 182.758,268.892 181.238,267.302 C179.588,265.652 177.788,264.062 176.818,262.552 C175.838,261.042 175.518,259.742 175.448,258.122 C175.338,256.292 176.018,252.872 175.948,252.152 C175.738,251.322 174.508,252.472 174.218,253.662 C173.938,254.772 174.188,257.292 173.718,258.992 C172.998,260.532 171.408,261.362 170.478,263.412 C169.508,265.362 168.388,269.822 168.248,271.122 C168.138,272.272 168.968,271.872 169.618,270.762 C170.118,269.502 170.518,265.752 171.338,264.102 C172.028,262.412 173.038,261.432 174.078,261.042 C174.798,262.842 175.768,264.352 177.138,265.972 C178.398,267.552 180.598,268.852 181.928,270.252 C183.148,271.372 184.558,272.132 185.018,273.492 C185.378,274.832 185.458,275.942 184.658,278.642 C183.758,281.342 181.638,285.912 180.238,289.732 C178.828,293.402 177.568,296.252 176.458,301.182 C175.268,306.182 173.788,315.042 173.398,319.142 C172.998,322.992 173.248,323.532 173.718,324.942 C174.038,326.382 174.508,327.102 175.268,327.492 C174.548,328.612 173.468,329.692 172.168,330.592 C170.728,331.422 168.718,331.562 167.238,332.972 C165.688,334.412 165.078,337.002 163.458,338.942 C161.698,340.742 158.528,341.792 157.298,343.732 C156.008,345.602 155.828,348.122 155.938,349.892 C155.898,351.442 156.368,352.622 157.478,353.312 C158.638,353.952 160.108,353.882 162.448,353.492 C162.448,354.032 161.948,354.502 161.078,355.182 C159.998,355.682 157.658,356.192 156.978,357.232 C156.258,358.312 156.398,360.112 156.978,361.522 C157.558,362.812 158.668,364.322 160.038,364.942 C161.298,365.402 162.778,364.972 164.318,364.762 C165.798,364.502 167.238,364.002 168.788,363.392 C168.998,365.442 169.468,366.812 170.478,367.492 C171.448,368.072 173.178,367.892 174.398,367.492 C175.518,367.062 176.488,366.272 177.318,365.122 C177.818,365.582 178.538,365.982 179.188,366.302 C179.908,366.632 180.558,366.812 181.418,366.992 C180.958,370.372 180.598,373.612 180.058,376.562 C179.518,379.552 179.588,382.252 178.328,384.662 C176.958,386.902 176.348,388.772 172.168,390.142 C167.818,391.362 160.218,392.152 152.878,392.372 C145.458,392.552 134.948,392.402 128.428,391.502 C121.948,390.602 117.268,389.022 114.248,386.902 C111.508,380.992 109.418,374.152 107.588,366.382 C105.718,358.382 104.018,349.422 103.478,340.062 C102.868,330.662 103.378,319.222 104.168,311.012 C104.818,302.802 106.108,296.142 107.768,291.032 C111.118,289.082 114.718,286.462 118.708,283.002 C122.668,279.472 127.208,274.972 131.348,270.182 C135.448,265.322 139.118,259.022 142.788,254.062 C146.318,249.052 149.308,244.342 152.188,240.052 C150.998,235.732 150.098,232.492 149.628,229.792 C149.128,227.132 148.908,225.262 149.128,224.182 C152.258,224.212 154.998,223.532 157.478,222.272 C159.858,220.972 161.508,219.682 163.818,216.292 C166.088,212.662 168.528,206.392 171.158,201.242 C173.718,196.022 176.448,190.912 179.368,185.482 z" id="imagebot_21"/>
  <path stroke="#000000" stroke-width="0.036" stroke-miterlimit="10" fill-rule="evenodd" d="M108.988,316.052 C109.308,319.112 111.368,321.382 113.558,321.162 C115.758,320.912 117.308,318.242 116.978,315.182 C116.658,312.162 114.608,309.852 112.368,310.112 C110.178,310.322 108.668,312.992 108.988,316.052 z" id="imagebot_20"/>
  <path fill-rule="evenodd" stroke="#000000" stroke-width="0.036" stroke-miterlimit="10" fill="#294b70" d="M110.208,316.442 C110.428,318.352 111.728,319.792 113.128,319.652 C114.498,319.502 115.468,317.812 115.258,315.902 C115.068,313.962 113.778,312.522 112.368,312.662 C110.968,312.842 110.028,314.502 110.208,316.442 z" id="imagebot_19"/>
  <path stroke="#000000" stroke-width="0.036" stroke-miterlimit="10" fill-rule="evenodd" d="M108.628,346.832 C108.948,349.852 111.008,352.162 113.198,351.902 C115.428,351.692 116.948,349.022 116.618,345.962 C116.298,342.902 114.248,340.642 112.048,340.852 C109.818,341.102 108.308,343.772 108.628,346.832 z" id="imagebot_18"/>
  <path fill-rule="evenodd" stroke="#000000" stroke-width="0.036" stroke-miterlimit="10" fill="#294b70" d="M109.888,347.192 C110.068,349.132 111.368,350.572 112.768,350.432 C114.178,350.252 115.108,348.592 114.928,346.652 C114.718,344.742 113.418,343.302 112.008,343.442 C110.648,343.592 109.668,345.282 109.888,347.192 z" id="imagebot_17"/>
  <path fill-rule="evenodd" stroke="#000000" stroke-width="0.036" stroke-miterlimit="10" fill="#e0e0e0" d="M195.428,344.782 C195.458,344.632 195.638,344.342 196.108,343.912 C196.508,343.482 197.078,342.902 197.838,342.182 C198.878,343.372 199.778,344.562 200.398,345.602 C200.968,346.652 201.368,347.622 201.578,348.522 C199.928,348.162 198.668,347.512 197.658,346.972 C196.608,346.402 195.818,345.532 195.428,344.782 z" id="imagebot_16"/>
  <path fill-rule="evenodd" stroke="#000000" stroke-width="0.036" stroke-miterlimit="10" fill="#e8ccba" d="M177.318,328.362 C176.528,329.622 175.338,330.562 173.898,331.602 C172.418,332.542 169.578,332.822 168.428,334.012 C167.128,335.132 167.418,336.822 166.368,338.262 C165.178,339.562 162.848,340.962 161.578,342.182 C160.218,343.302 159.208,344.162 158.698,345.602 C158.058,347.012 157.878,349.312 158.158,350.572 C158.378,351.622 159.058,352.342 160.218,352.442 C161.298,352.592 163.058,352.442 164.678,351.442 C166.158,350.252 167.888,347.732 169.288,345.962 C170.508,344.092 172.238,341.072 172.528,341.182 C172.708,341.322 171.768,344.922 170.838,346.832 C169.718,348.632 168.458,350.532 167.058,352.122 C165.728,353.632 164.468,354.782 163.128,355.722 C161.688,356.552 159.818,356.802 159.028,357.592 S158.198,359.682 158.528,360.652 C158.708,361.592 159.678,362.962 160.758,363.392 C161.838,363.752 163.348,363.462 165.008,363.062 C166.518,362.562 168.168,362.022 169.968,360.332 C171.768,358.492 174.438,353.452 175.618,352.302 C176.598,351.112 176.598,352.232 176.308,353.132 C175.908,353.852 174.728,355.542 173.718,357.092 C172.668,358.672 171.488,360.442 170.148,362.522 C170.078,363.752 170.408,364.612 170.978,365.262 C171.558,365.912 172.568,366.342 173.568,366.122 C174.468,365.662 175.448,364.682 176.638,363.212 C177.748,361.702 179.328,359.212 180.408,357.412 C181.348,355.402 182.028,352.842 182.608,352.122 C183.218,351.402 184.048,352.122 183.978,353.312 C183.688,354.352 182.318,356.762 181.418,358.602 C180.478,360.292 179.618,362.062 178.688,363.752 C179.578,364.832 180.658,365.402 181.928,365.622 C183.148,365.692 184.698,365.552 186.028,364.762 C187.178,363.892 188.588,362.522 189.268,360.652 C189.738,358.602 189.768,355.072 189.948,352.982 C190.168,350.822 189.918,349.712 190.998,347.842 C192.038,345.862 193.908,343.592 196.468,341.182 C194.058,337.902 191.718,335.242 189.448,333.332 C187.108,331.282 184.838,330.342 182.788,329.552 C180.768,328.682 178.898,328.292 177.318,328.362 z" id="imagebot_15"/>
  <path fill-rule="evenodd" stroke="#000000" stroke-width="0.036" stroke-miterlimit="10" fill="#e8ccba" d="M34.9735,343.552 C35.5495,344.632 36.0535,345.962 36.4855,347.842 C36.8095,349.672 37.2415,352.122 37.3495,354.352 C37.2775,356.552 37.2055,358.852 36.9895,360.832 C36.8095,362.602 36.2695,363.932 36.4855,365.262 C36.5935,366.562 37.1695,367.602 38.2135,368.532 C39.2215,369.402 40.6975,369.972 42.6415,370.412 C42.8215,366.522 43.2895,363.392 44.1895,360.472 C45.0535,357.592 46.6735,354.102 47.9335,353.312 C49.1215,352.512 50.3095,353.672 51.3535,355.362 C52.1815,356.872 53.1535,360.292 53.5855,362.702 C54.0175,365.082 54.2335,367.422 54.0895,369.722 C55.6015,370.162 56.9695,370.372 58.1935,370.232 C59.3455,370.012 60.9295,369.802 61.4335,369.042 C61.7935,368.142 61.6855,366.992 61.1095,365.442 C60.5335,363.862 59.2375,361.232 58.1935,359.792 C57.0775,358.202 55.7815,357.272 54.4495,356.552 C54.6295,355.002 54.3415,353.312 53.5855,351.622 C52.7575,349.822 50.4895,347.302 49.8415,346.142 C49.0135,344.882 48.9415,343.982 49.4815,344.422 C50.0575,344.742 52.3975,346.472 53.5855,348.342 C54.6295,350.212 55.5295,352.412 56.1415,355.362 C57.8335,357.382 59.2735,358.922 60.6055,360.152 C61.8295,361.302 62.6935,361.952 64.0255,362.382 C65.3215,362.742 68.0575,363.212 68.6335,362.382 C69.0655,361.412 68.2375,359.032 67.2655,356.912 C66.1495,354.712 64.0615,351.832 62.8015,349.382 C61.6135,346.792 61.5055,344.022 60.2455,342.182 C58.7695,340.382 56.1055,340.172 54.7735,338.622 C53.5495,337.002 52.6855,335.062 52.5775,332.642 C49.5535,332.902 46.6375,333.872 43.6855,335.702 C40.7695,337.542 37.8165,340.062 34.9735,343.552 z" id="imagebot_14"/>
  <path fill-rule="evenodd" stroke="#000000" stroke-width="0.036" stroke-miterlimit="10" fill="#e0e0e0" d="M29.3205,351.622 C29.9325,349.672 30.6165,348.232 31.3725,347.152 C32.0925,346.072 32.8845,345.392 33.7485,345.102 C34.1805,345.532 34.5765,346.112 34.7925,346.832 C34.9365,347.482 35.0445,348.272 34.9725,349.202 C34.0365,349.922 33.1725,350.502 32.2365,350.932 S30.3295,351.542 29.3205,351.622 z" id="imagebot_13"/>
  <path fill-rule="evenodd" stroke="#000000" stroke-width="0.036" stroke-miterlimit="10" fill="#77605b" d="M44.4045,378.982 C44.3325,374.982 44.3325,371.602 44.4045,368.682 C44.3685,365.662 44.3325,363.532 44.8725,361.342 C45.4125,359.032 46.7805,355.902 47.8605,355.252 C48.8325,354.602 49.9125,354.822 50.8125,357.452 C51.5685,360.072 52.3245,366.812 52.6845,370.552 C52.9725,374.192 52.9725,376.852 52.6845,378.972 L49.8765,378.972 C50.1645,377.502 50.1645,376.352 50.0205,375.372 C49.6965,374.262 49.2285,373.542 48.6165,373.362 C47.9685,373.252 46.7805,373.902 46.4565,374.902 C45.9885,375.802 45.8805,377.062 46.1325,378.832 C45.5575,378.872 44.9805,378.902 44.4045,378.982 z" id="imagebot_12"/>
  <path fill-rule="evenodd" stroke="#000000" stroke-width="0.036" stroke-miterlimit="10" fill="#77605b" d="M33.3165,383.192 C35.9805,382.432 39.0045,381.822 42.3885,381.502 C45.7725,380.992 49.5885,380.782 53.2965,380.852 C56.9325,380.962 60.2445,381.422 63.7725,382.252 C63.1245,390.172 62.4405,399.572 61.7205,411.272 C60.8205,422.932 59.8125,441.802 59.2365,451.482 C58.6965,460.882 58.6245,461.922 58.4445,468.082 C58.1205,474.272 57.7605,480.892 57.3645,488.382 C52.6125,488.742 48.2925,488.812 44.2605,488.992 C40.1565,489.062 36.5925,489.062 33.1725,488.992 C32.2005,471.712 31.6245,457.062 31.3005,444.212 C31.0125,431.282 31.1565,419.332 31.3005,412.672 C31.2285,406.082 30.7605,409.762 31.1565,404.932 C31.4805,400.002 32.2005,392.802 33.3165,383.192 z" id="imagebot_11"/>
  <path stroke="#000000" stroke-width="0.036" stroke-miterlimit="10" fill-rule="evenodd" d="M47.3205,385.532 C46.0965,394.312 45.1605,404.282 44.3685,415.882 C43.3965,427.402 42.6765,442.592 42.4965,454.362 C42.3525,466.132 42.6765,476.392 43.6125,485.822 C43.9365,461.632 44.4765,441.652 45.0885,424.772 C45.6655,407.962 46.4565,395.072 47.3205,385.532 z" id="imagebot_10"/>
  <path fill-rule="evenodd" stroke="#000000" stroke-width="0.036" stroke-miterlimit="10" fill="#666666" d="M108.918,380.742 C107.298,383.152 105.498,385.352 103.518,387.182 C101.468,389.092 99.8085,390.782 96.7485,391.832 C93.4725,392.662 89.4765,392.262 84.9045,392.442 C80.3685,392.512 72.9525,392.192 69.7485,392.442 C66.4365,392.552 65.0325,392.942 65.3925,393.482 C64.4565,401.332 63.8085,408.752 63.3045,416.312 C62.7285,423.802 62.6565,431.002 62.2605,438.202 C61.7925,445.292 61.2885,451.952 60.7485,458.612 L60.6045,458.792 C62.2245,467.642 63.5925,474.772 64.7805,480.532 S66.6885,489.752 67.6605,492.992 C68.5605,496.232 69.4245,498.172 70.3605,499.762 C71.2605,501.302 71.6925,501.742 73.2045,502.312 C74.6805,502.892 77.8845,502.852 79.2165,503.212 C80.5125,503.542 81.2325,504.042 81.0165,504.262 C80.7645,504.472 79.1085,504.542 77.8485,504.542 C76.5885,504.582 75.1485,504.542 73.4925,504.402 C74.3565,508.362 75.1485,512.572 75.9045,517.322 C76.6605,522.042 77.4525,526.832 77.9925,532.482 S78.8565,545.372 79.2165,550.952 C79.5405,556.532 79.9365,560.922 80.1165,565.642 C80.2245,570.392 79.9365,575.182 80.1165,579.172 C80.2605,583.132 80.8005,586.982 81.0165,589.222 C81.1605,591.382 81.2325,592.382 81.1605,592.202 C83.4285,592.352 85.7685,592.382 88.2165,592.352 C90.6285,592.352 92.8245,592.242 95.7045,592.062 S103.118,591.632 105.318,591.302 C107.478,591.022 107.728,590.982 108.588,590.262 C109.458,589.502 110.068,588.462 110.388,586.952 C110.358,584.032 110.318,578.592 110.248,570.312 C110.208,561.962 110.288,550.592 110.108,537.592 C109.928,524.562 109.308,504.472 109.208,492.912 C109.098,481.432 109.308,476.392 109.488,469.082 C109.668,461.742 110.248,454.362 110.248,449.322 C110.208,444.282 109.928,440.932 109.348,439.092 C108.668,438.952 107.768,438.842 106.648,438.802 C105.528,438.732 103.298,438.982 102.758,438.802 S102.828,437.902 103.518,437.762 C104.198,437.582 105.638,437.832 106.788,437.902 C107.948,437.982 109.098,438.162 110.388,438.192 C111.728,438.262 113.988,438.092 114.608,438.192 C115.218,438.342 114.608,438.772 113.988,438.952 C113.418,439.132 112.408,439.242 111.008,439.242 C111.468,443.482 111.688,449.532 111.618,457.702 C111.508,465.912 110.648,478.372 110.568,488.022 C110.468,497.592 110.968,505.082 111.148,514.872 C111.328,524.702 111.508,538.022 111.618,546.372 C111.688,554.652 111.728,557.642 111.758,564.372 C111.798,571.142 111.798,578.412 111.758,586.552 C113.418,586.482 115.148,586.512 117.158,586.692 C119.138,586.882 121.088,587.592 123.608,587.592 C126.128,587.562 128.968,586.872 132.168,586.552 C135.378,586.232 138.798,585.902 142.648,585.652 C141.568,572.762 141.028,561.752 141.028,552.032 C140.988,542.342 141.858,534.422 142.508,527.872 C143.148,521.322 144.088,517.322 144.918,513.042 C145.708,508.762 146.498,505.262 147.328,502.382 C146.028,502.242 144.848,502.242 143.728,502.382 C142.578,502.492 141.068,503.282 140.558,503.142 C140.058,502.922 139.948,501.702 140.708,501.342 C141.458,500.982 143.658,501.192 145.058,501.022 C146.468,500.842 147.828,501.772 149.128,500.302 C150.388,498.782 151.538,496.412 152.578,492.162 C153.558,487.912 153.808,485.182 155.108,475.062 C156.438,464.872 158.958,442.192 160.358,431.892 C161.768,421.672 162.268,420.662 163.528,414.042 C164.758,407.422 166.118,400.322 167.708,392.442 C163.138,393.052 158.488,393.522 153.628,393.812 C148.698,394.062 143.688,394.272 138.618,394.092 C133.508,393.912 127.638,393.702 123.318,392.732 C118.958,391.792 115.538,390.352 112.808,388.412 C111.618,386.682 110.748,385.352 110.178,384.302 C110.178,384.272 110.138,384.232 110.138,384.232 C110.108,384.162 110.068,384.122 110.028,384.052 C109.998,383.982 109.998,383.942 109.958,383.902 C109.388,382.792 109.168,382.182 109.348,381.932 L108.918,380.742 z" id="imagebot_9"/>
  <path fill-rule="evenodd" stroke="#000000" stroke-width="0.036" stroke-miterlimit="10" fill="#77605b" d="M106.508,594.112 C106.398,594.512 105.608,595.302 104.268,596.342 C102.908,597.322 100.998,598.682 98.4045,600.302 C99.1245,601.992 99.0165,603.622 98.2245,605.312 C97.2885,606.782 96.1365,607.652 93.2565,610.132 C90.2325,612.652 84.3645,618.522 80.6565,620.642 C76.9485,622.622 72.0885,623.962 71.3325,622.552 C70.4685,621.042 73.2045,615.862 75.6525,612.402 C77.9205,608.802 82.8165,604.122 85.4805,601.712 C88.1085,599.222 90.1245,598.002 91.5285,597.892 C90.9885,597.422 90.7725,597.032 90.4845,596.702 C90.3045,596.342 90.0525,596.062 90.1245,595.842 C87.3165,597.032 84.2925,599.262 80.6565,602.392 C76.8765,605.492 72.0165,610.312 68.5965,614.632 C65.2125,618.992 61.9725,624.062 60.8205,628.062 C59.4525,631.952 59.6325,636.412 61.3605,637.712 C63.0525,638.822 67.1205,637.202 71.1885,634.792 C75.1485,632.202 80.9445,626.372 85.1205,622.732 C89.1525,619.022 92.2845,616.322 95.4885,613.082 C98.5485,609.742 102.618,604.802 104.088,603.442 C105.608,602.102 105.168,603.362 104.448,604.982 C103.628,606.572 101.788,608.912 99.0885,612.552 L98.5845,617.372 C100.668,615.282 102.508,613.522 104.088,611.542 C105.708,609.562 107.258,608.122 108.048,605.852 C108.628,603.512 108.308,599.842 108.048,597.892 C107.728,595.912 107.258,594.652 106.508,594.112 z" id="imagebot_8"/>
  <path fill-rule="evenodd" stroke="#000000" stroke-width="0.036" stroke-miterlimit="10" fill="#77605b" d="M93.4005,598.252 C94.1205,598.032 95.2005,598.322 95.8125,599.112 C96.4245,599.872 97.8645,601.532 97.2165,603.262 C96.3165,604.882 94.0845,606.752 91.3485,609.272 C88.4685,611.792 84.0045,616.072 81.0165,618.232 C77.9205,620.212 75.1845,621.332 73.9245,621.182 C72.6645,620.932 72.4845,619.422 73.9245,617.042 C75.2565,614.562 79.3605,609.732 82.2045,606.862 C85.0485,603.942 88.6485,601.172 90.6645,599.802 C92.4645,598.402 92.5375,598.252 93.4005,598.252 z" id="imagebot_7"/>
  <path fill-rule="evenodd" stroke="#000000" stroke-width="0.036" stroke-miterlimit="10" fill="#77605b" d="M119.108,589.292 C118.278,589.832 117.588,590.872 117.198,592.562 C116.728,594.262 116.548,596.632 116.508,599.122 C116.438,601.382 116.328,604.732 117.018,606.682 C117.588,608.582 118.308,609.092 120.148,610.672 C121.878,612.152 124.288,613.772 127.528,615.682 L128.568,611.182 C126.558,609.992 124.828,609.022 123.248,607.722 C121.628,606.422 118.998,604.082 119.108,603.762 C119.208,603.332 120.828,603.762 123.568,605.492 C126.198,607.042 130.908,610.712 134.798,613.592 C138.578,616.502 142.148,620.102 146.178,622.732 C150.138,625.142 154.818,627.382 158.418,628.742 C161.868,630.182 165.508,631.412 167.378,631.012 C169.358,630.442 170.148,628.462 169.608,625.652 C168.818,622.702 165.938,617.872 163.058,614.092 C159.958,610.242 155.968,606.242 152.188,603.082 C148.368,599.762 144.118,596.742 140.988,594.982 C137.898,593.182 135.478,592.422 133.758,592.562 C134.188,593.182 134.398,593.752 134.258,594.292 S133.718,595.302 133.068,595.842 C136.388,596.892 139.548,598.152 142.718,600.162 C145.888,602.102 149.808,604.592 152.008,607.222 C154.058,609.772 154.818,612.912 154.958,614.962 C154.928,616.832 154.928,618.952 152.188,618.412 C149.348,617.662 142.108,613.232 138.398,610.822 C134.658,608.332 131.848,605.962 129.978,604.122 S127.028,600.852 127.028,599.802 C125.078,599.912 123.568,599.692 122.198,598.762 C120.728,597.782 119.498,596.022 118.928,594.442 C118.388,592.852 118.488,591.092 119.108,589.292 z" id="imagebot_6"/>
  <path fill-rule="evenodd" stroke="#000000" stroke-width="0.036" stroke-miterlimit="10" fill="#77605b" d="M129.258,599.982 C129.728,601.492 131.558,603.582 133.938,605.672 C136.318,607.652 140.058,609.992 143.228,611.862 C146.248,613.622 150.248,616.142 152.008,616.362 C153.598,616.432 153.628,614.342 153.238,612.722 C152.698,610.892 152.078,608.622 149.598,606.352 C147.038,604.052 141.748,600.912 138.578,599.292 C135.448,597.532 132.458,596.412 130.988,596.522 C129.398,596.672 128.678,598.322 129.258,599.982 z" id="imagebot_5"/>
  <polygon transform="translate(-0.00153125, 0.002375)" fill-rule="evenodd" stroke="#000000" stroke-width="0.036" stroke-miterlimit="10" fill="#77605b" points="97.362 613.59 97.218 618.41 92.395 618.77" id="imagebot_4"/>
  <polygon transform="translate(-0.00153125, 0.002375)" fill-rule="evenodd" stroke="#000000" stroke-width="0.036" stroke-miterlimit="10" fill="#77605b" points="130.12 612.04 129.11 615.68 133.07 614.81" id="imagebot_3"/>
  <title>imagebot_2</title>
 </g>
 <metadata>image/svg+xmlOpenclipartMan in Suit2006-10-06T16:14:35Uploaded by "World Label" for conversion to SVG and publication on OCAL.\n\n\nAdded a business man body to the man's face cartoon.https://openclipart.org/detail/395/man-in-suit-by-gerald_gGerald_Gcartoonexternalsourcefacemanpeopleremixsuitworldlabel</metadata>
</svg>