<?xml version="1.0" encoding="UTF-8"?>
<!DOCTYPE svg PUBLIC "-//W3C//DTD SVG 1.1//EN" "http://www.w3.org/Graphics/SVG/1.1/DTD/svg11.dtd">
<svg version="1.1" xmlns="http://www.w3.org/2000/svg" xmlns:xlink="http://www.w3.org/1999/xlink" x="0" y="0" width="809" height="1110" viewBox="0, 0, 809, 1110">
  <defs>
    <clipPath id="Clip_1">
      <path d="M-0,0.03 L808.979,0.03 L808.979,1109.94 L-0,1109.94 z"/>
    </clipPath>
  </defs>
  <g id="Layer_1">
    <g clip-path="url(#Clip_1)">
      <path d="M41.155,417.756 C23.774,385.803 19.105,351.334 19.162,316.113 C19.245,264.745 27.428,214.529 47.16,166.99 C83.547,79.324 149.197,25.353 241.888,6.555 C327.581,-10.823 407.387,6.995 480.702,54.227 C484.512,56.681 488.276,56.945 492.363,57.434 C523.536,61.161 552.529,71.242 579.158,87.882 C625.017,116.538 652.977,158.342 667.88,209.564 C679.127,248.222 681.4,287.795 679.356,327.759 C677.635,361.426 673.393,394.694 662.954,426.909 C660.552,434.322 657.749,441.626 654.704,448.8 C653.433,451.796 653.387,453.512 656.003,455.881 C676.246,474.203 672.016,507.564 659.969,522.136 C652.195,531.539 641.752,535.772 630.224,537.943 C623.186,539.269 616.041,540.257 608.889,539.949 C604.393,539.755 603.462,541.741 602.888,545.589 C596.599,587.801 587.468,629.282 570.025,668.507 C557.865,695.853 541.911,720.57 519.198,740.486 C511.288,747.423 502.818,753.609 493.466,758.428 C490.22,760.101 490.348,761.303 492.02,764.223 C520.229,813.455 543.21,864.889 556.3,920.324 C561.214,941.135 563.927,962.177 560.279,983.655 C553.444,1023.89 517.681,1034.27 491.379,1028.49 C478.698,1025.71 467.141,1020.43 456.32,1013.43 C453.555,1011.64 452.486,1011.23 451.837,1015.33 C447.368,1043.59 442.617,1071.8 437.937,1100.03 C436.67,1107.67 433.878,1110 426.127,1110 C338.149,1110 250.172,1110 162.195,1110 C154.016,1110 149.878,1106.43 149.235,1098.41 C147.358,1075.02 145.721,1051.61 144.824,1028.16 C143.952,1005.35 143.596,982.534 144.235,959.727 C145.974,897.683 152.051,836.243 171.088,776.729 C173.11,770.409 175.522,764.212 177.833,757.987 C178.47,756.269 178.725,755.091 176.584,754.145 C127.253,732.337 100.351,691.821 83.759,642.719 C73.364,611.957 68.109,580.175 64.985,547.978 C64.15,539.366 63.353,530.737 63.036,522.097 C62.906,518.542 61.463,517.582 58.388,517.277 C50.936,516.538 43.56,515.344 36.319,513.344 C12.693,506.817 0.82,492.662 0.041,469.979 C-0.792,445.716 11.116,427.987 33.558,420.127 C35.903,419.306 38.303,418.642 41.155,417.756" fill="#6E4100"/>
      <path d="M808.931,663.659 C808.931,696.931 789.616,720.301 757.19,726.971 C746.935,729.08 736.6,730.807 726.378,733.054 C708.303,737.026 694.094,746.729 684.082,762.412 C681.306,766.761 678.657,771.213 675.587,775.348 C671.279,781.151 663.336,782.487 657.248,778.787 C651.174,775.098 648.494,767.238 651.935,760.916 C665.588,735.834 683.953,716.035 712.462,707.715 C724.637,704.162 737.113,702.189 749.551,700.042 C768.696,696.738 778.049,685.271 781.424,670.603 C782.553,665.698 782.216,660.715 781.043,655.766 C775.687,633.167 751.549,611.582 728.479,608.86 C717.308,607.542 709.064,611.802 703.704,621.694 C701.793,625.22 700.646,629.032 699.441,632.844 C696.923,640.809 689.329,644.871 681.791,642.508 C674.411,640.194 670.438,632.854 672.568,625.028 C678.141,604.554 689.001,588.513 710.551,582.547 C726.323,578.181 741.704,580.931 756.123,588.09 C782.241,601.06 800.81,620.67 808.323,649.556 C809.607,654.49 808.539,659.51 808.931,663.659" fill="#FF7164"/>
    </g>
    <path d="M601.79,823.98 C601.842,808.182 609.752,799.226 627.295,795.121 C640.445,792.044 651.316,796.649 656.853,807.643 C662.51,818.874 659.101,833.445 649.235,842.08 C637.651,852.218 621.724,849.949 611.062,843.39 C604.201,839.169 601.777,831.936 601.79,823.98" fill="#FF7164"/>
    <path d="M78.547,439.376 C78.158,409.241 77.386,379.091 80.017,349.01 C83.406,310.27 90.772,272.591 110.183,238.242 C131.393,200.708 163.588,176.025 202.867,159.819 C234.077,146.941 266.642,141.371 300.346,142.076 C302.329,142.118 303.658,142.551 304.898,144.277 C326.72,174.653 356.383,195.538 388.923,212.655 C438.082,238.513 490.535,254.473 545.27,263.184 C554.632,264.674 564.063,265.772 573.491,266.776 C576.004,267.044 577.184,267.913 578.194,270.206 C588.669,293.986 594.8,318.866 598.041,344.603 C601.776,374.269 598.602,403.774 596.627,433.302 C594.727,461.692 592.514,490.066 588.972,518.313 C582.706,568.271 573.881,617.623 552.796,663.874 C540.641,690.535 524.645,714.429 501.093,732.575 C485.562,744.542 468.13,752.416 449.049,756.721 C447.488,757.073 445.956,757.631 444.355,756.28 C431.865,745.745 418.016,746.538 405.449,754.546 C396.644,760.156 388.042,761.196 378.336,761.166 C367.445,761.134 357.05,759.738 346.522,756.541 C319.941,748.468 292.936,741.834 265.099,739.882 C251.091,738.899 237.056,739.154 225.142,748.599 C223.261,750.089 220.946,748.971 218.879,748.609 C166.464,739.425 131.346,708.679 109.746,661.052 C96.433,631.695 89.437,600.651 85.045,568.917 C80.404,535.39 78.834,501.657 78.559,467.847 C78.482,458.357 78.547,448.866 78.547,439.376" fill="#FEF5E2"/>
    <path d="M317.874,18.328 C347.938,19.963 377.167,25.771 405.502,35.964 C434.363,46.347 461.135,60.622 485.641,79.114 C490.143,82.511 494.377,82.18 498.544,78.086 C499.901,76.753 500.958,76.408 502.867,76.783 C546.13,85.296 582.851,105.231 611.626,139.001 C638.009,169.965 651.428,206.54 658.069,246.132 C662.641,273.39 663.106,300.84 661.727,328.265 C659.827,366.073 654.525,403.352 640.049,438.794 C638.291,443.1 636.713,444.184 632.175,442.401 C627.603,440.605 622.546,439.776 617.623,439.229 C614.439,438.876 613.746,437.679 613.952,434.853 C614.727,424.242 615.26,413.612 616.113,403.008 C617.53,385.383 617.462,367.784 616.099,350.156 C614.307,326.983 609.467,304.477 601.904,282.533 C600.604,278.76 599.208,275.01 597.642,271.341 C596.579,268.852 597.264,268.228 599.828,268.047 C606.544,267.573 610.15,264.178 609.943,258.927 C609.739,253.726 605.775,250.543 599.042,250.329 C527.506,248.059 460.275,229.294 396.756,196.891 C372.165,184.346 349.624,168.672 330.722,148.257 C319.069,135.671 309.699,121.642 304.099,105.28 C301.998,99.138 297.588,96.622 292.345,98.393 C287.464,100.041 285.534,104.789 287.424,110.78 C288.123,112.996 289.055,115.14 289.908,117.307 C290.75,119.444 291.628,121.567 292.62,124.017 C283.293,124.735 274.356,125.178 265.478,126.148 C219.644,131.153 177.892,146.66 141.43,175.268 C103.314,205.174 82.125,245.425 71.088,291.733 C65.951,313.289 63.336,335.187 61.854,357.287 C60.74,373.892 61.303,390.537 60.047,407.123 C57.455,406.969 57.639,404.657 57.149,403.098 C53.738,392.243 51.939,381.04 50.835,369.768 C50.237,363.663 49.707,357.53 49.58,351.351 C48.911,319.015 52.904,287.21 60.031,255.757 C67.236,223.963 77.209,193.099 92.121,164.001 C107.587,133.822 126.741,106.236 151.717,83.143 C190.011,47.737 235.053,26.229 286.899,19.439 C292.318,18.73 297.83,18.462 303.329,18.648 C306.326,18.648 309.322,18.647 312.316,18.648 C314.166,18.51 316.052,18.964 317.874,18.328" fill="#868C91"/>
    <path d="M225.033,1100.99 C206.287,1100.99 187.811,1100.95 169.336,1101.04 C166.149,1101.06 167.034,1098.86 166.88,1097.29 C164.759,1075.58 163.437,1053.82 162.532,1032.03 C160.885,992.405 160.975,952.794 164.059,913.244 C167.939,863.497 175.525,814.463 192.852,767.327 C194.759,762.14 196.822,760.953 201.935,762.807 C206.426,764.436 211.318,764.97 216.041,765.949 C217.315,766.214 218.707,766.047 219.004,767.918 C221.083,781.026 230.544,787.97 241.028,793.955 C243.044,795.106 244.302,796.496 245.116,798.649 C247.522,805.012 250.097,811.311 252.627,817.627 C255.604,825.058 258.886,826.623 266.799,824.227 C268.352,836.087 274.235,844.991 285.047,850.368 C286.543,851.113 286.575,852.171 286.432,853.625 C285.483,863.283 289.201,871.189 295.977,877.766 C297.654,879.394 298.609,880.884 298.466,883.329 C295.661,931.174 292.923,979.023 290.191,1026.87 C289.992,1030.36 290.429,1033.96 289.729,1037.34 C288.093,1045.23 291.2,1050.5 297.246,1055.35 C304.631,1061.28 311.275,1068.12 318.321,1074.48 C323.456,1079.12 327.209,1079.18 332.396,1074.71 C340.847,1067.42 349.174,1059.98 357.639,1052.71 C360.389,1050.35 361.642,1047.55 361.518,1043.96 C360.399,1011.36 359.292,978.761 358.225,946.159 C357.761,932.016 357.565,917.862 356.897,903.73 C356.667,898.874 358.564,898.237 362.93,899.566 C358.451,905.2 360.766,909.991 364.145,915.006 C384.414,945.081 406.82,973.307 434.403,997.106 C436.101,998.572 436.599,999.939 436.218,1002.23 C430.926,1034.07 425.73,1065.92 420.625,1097.78 C420.178,1100.57 418.956,1101.06 416.392,1101.05 C359.733,1100.98 303.074,1100.97 246.416,1101.07 C243.42,1101.08 242.548,1100.2 242.08,1097.32 C233.211,1042.82 224.176,988.337 215.288,933.834 C213.172,920.862 211.522,907.815 209.536,894.821 C208.519,888.17 204.712,884.634 199.662,885.264 C194.031,885.967 191.104,890.6 192.193,897.669 C196.148,923.323 200.121,948.975 204.246,974.602 C209.745,1008.76 215.384,1042.9 220.982,1077.04 C222.271,1084.9 223.636,1092.75 225.033,1100.99" fill="#FEFEFE"/>
    <path d="M427.761,850.118 C444.923,868.839 462.139,887.613 479.349,906.391 C488.688,916.58 497.999,926.794 507.362,936.961 C511.745,941.72 516.942,942.395 520.917,938.845 C524.923,935.267 524.822,929.881 520.503,925.166 C491.957,894.002 463.386,862.86 434.815,831.72 C434.029,830.863 433.254,829.6 432.28,829.377 C426.325,828.014 428.768,824.483 430.071,821.297 C433.489,812.933 438.286,805.349 443.509,798.028 C448.295,791.321 452.43,784.343 452.909,775.854 C453.024,773.798 454.282,773.52 455.768,773.102 C460.404,771.797 465.115,770.676 469.616,768.998 C472.688,767.854 474.22,768.418 475.931,771.263 C485.113,786.526 493.212,802.357 500.781,818.449 C516.932,852.791 531.101,887.882 539.452,925.054 C543.334,942.334 546.267,959.834 543.462,977.52 C539.08,1005.14 518.481,1017.93 491.456,1010.47 C476.239,1006.27 463.277,997.936 451.173,988.155 C423.441,965.744 401.495,938.199 381.333,909.083 C380.342,907.651 380.151,906.662 381.375,905.202 C396.67,886.957 411.901,868.658 427.156,850.378 C427.24,850.277 427.422,850.259 427.761,850.118" fill="#FEFEFE"/>
    <path d="M259.957,756.963 C279.191,757.648 297.783,762.295 316.407,766.508 C340.082,771.863 363.01,779.792 385.874,787.857 C393.541,790.562 396.26,789.372 400.424,782.278 C405.383,773.832 412.81,768.516 422.511,766.658 C427.128,765.774 431.039,767.08 433.946,770.951 C436.648,774.551 435.215,778.004 433.29,781.163 C429.748,786.978 425.793,792.541 422.216,798.336 C413.702,812.124 407.796,826.799 407.876,843.317 C407.888,845.806 406.564,847.34 405.214,848.977 C399.073,856.424 392.478,863.54 386.834,871.344 C381.127,879.237 373.165,882.156 364.422,881.656 C347.442,880.685 330.858,877.148 315.265,869.971 C313.18,869.011 311.23,867.622 309.457,866.144 C303.543,861.217 302.52,856.898 305.35,849.807 C308.449,842.043 305.699,837.129 297.579,836.034 C293.964,835.547 290.984,833.989 288.462,831.358 C281.764,824.374 283.735,817.214 293.1,814.682 C301.564,812.394 303.9,810.337 303.827,805.24 C303.754,800.133 301.211,798.178 292.895,795.779 C276.102,790.934 259.619,785.259 244.823,775.643 C241.631,773.568 238.55,771.294 237.007,767.507 C235.46,763.709 236.178,761.227 240.302,759.737 C246.688,757.428 253.268,756.988 259.957,756.963" fill="#FEF5E2"/>
    <path d="M302.936,19.035 C242.344,23.775 190.021,46.963 146.9,89.917 C110.258,126.418 86.422,170.656 71.17,219.681 C57.495,263.637 49.577,308.558 51.256,354.782 C51.902,372.553 53.782,390.237 60.047,407.122 C60.325,409.545 60.602,411.967 60.94,414.923 C57.807,412.392 56.564,409.152 54.997,406.199 C45.01,387.378 40.12,367.005 38.273,346.028 C32.817,284.068 41.425,223.807 66.347,166.951 C100.267,89.57 160.193,42.535 242.558,24.138 C262.431,19.699 282.593,17.463 303.008,18.132 C303.338,18.361 303.437,18.57 303.306,18.762 C303.182,18.944 303.059,19.035 302.936,19.035" fill="#FEFEFE"/>
    <path d="M343.711,1036.64 C344.612,1040.06 343.042,1042.23 340.482,1044.29 C336.207,1047.74 332.151,1051.46 328.105,1055.18 C326.342,1056.8 325.134,1057.05 323.204,1055.16 C318.698,1050.73 313.965,1046.52 309.159,1042.41 C307.219,1040.75 307.037,1038.85 307.164,1036.63 C309.166,1001.75 311.152,966.872 313.138,931.994 C313.847,919.538 314.6,907.083 315.216,894.622 C315.402,890.843 316.322,889.388 320.521,890.952 C325.32,892.739 330.406,893.859 335.451,894.841 C338.356,895.406 339.142,896.685 339.223,899.503 C339.843,921.123 340.633,942.738 341.35,964.355 C342.149,988.464 342.926,1012.57 343.711,1036.64" fill="#FFBF71"/>
    <path d="M61.704,467.293 C61.704,477.279 61.662,487.266 61.745,497.251 C61.76,498.951 61.953,500.306 59.575,499.927 C49.732,498.356 39.762,497.314 30.729,492.551 C23.203,488.583 19.15,482.245 18.072,473.952 C15.202,451.868 25.905,438.052 48.759,434.226 C60.859,432.2 60.859,432.2 60.859,444.306 C60.859,448.139 60.859,451.971 60.859,455.804 C60.859,459.634 60.859,463.463 60.859,467.293 C61.141,467.293 61.423,467.293 61.704,467.293" fill="#FEF5E2"/>
    <path d="M612.827,522.224 C611.67,522.327 610.513,522.435 609.356,522.532 C607.168,522.716 606.14,522.29 606.44,519.532 C608.249,502.859 609.843,486.161 611.468,469.468 C611.806,465.998 611.951,462.51 612.218,459.033 C612.363,457.149 612.887,456.026 615.316,456.434 C621.887,457.536 628.323,458.97 634.346,461.932 C648.711,468.995 654.432,480.505 651.891,497.3 C649.806,511.082 641.59,518.56 625.712,520.967 C621.449,521.614 617.141,521.965 612.853,522.451 C612.845,522.376 612.836,522.3 612.827,522.224" fill="#FEF5E2"/>
    <path d="M302.936,19.035 C302.99,18.737 303.014,18.436 303.008,18.132 C306.323,17.686 309.628,17.786 312.926,18.302 C313.298,18.494 313.411,18.66 313.268,18.803 C313.14,18.931 313.004,18.996 312.859,18.996 C309.551,19.009 306.243,19.022 302.936,19.035" fill="#D0D2D5"/>
    <path d="M312.859,18.996 C312.899,18.767 312.922,18.535 312.926,18.302 C314.576,18.311 316.225,18.319 317.875,18.328 C316.362,19.744 314.556,18.964 312.859,18.996" fill="#A6AAAE"/>
    <path d="M151.755,546.192 C138.035,545.346 124.576,543.222 113.102,535 C104.585,528.896 98.132,521.181 99.021,509.646 C99.741,500.298 104.615,492.827 111.119,486.832 C122.316,476.514 136.012,471.361 151.246,472.209 C172.021,473.366 187.338,482.618 195.481,502.379 C199.558,512.273 197.539,521.911 189.904,529.522 C179.457,539.936 167.169,546.735 151.755,546.192" fill="#FFE0C5"/>
    <path d="M526.721,490.91 C544.436,490.92 558.828,500.072 566.935,518.964 C570.015,526.143 568.279,535.683 562.932,541.653 C553.906,551.729 542.92,558.702 529.31,558.779 C511.545,558.88 494.532,555.484 482.189,540.744 C476.205,533.599 476.034,521.589 481.835,512.76 C491.789,497.612 506.095,490.828 526.721,490.91" fill="#FFE0C5"/>
    <path d="M261.041,418.607 C261.078,425.982 259.039,432.695 254.455,438.523 C245.458,449.961 229.38,448.311 222.923,435.324 C217.009,423.43 220.632,406.035 230.799,397.511 C237.538,391.861 245.362,391.997 251.951,397.88 C258.122,403.391 261.036,410.044 261.041,418.607" fill="#6E4100"/>
    <path d="M417.929,430.36 C418.274,420.462 421.41,411.75 429.277,405.307 C435.636,400.099 443.085,400.37 449.313,405.678 C462.084,416.564 462.22,438.461 449.585,449.607 C440.618,457.518 427.227,455.242 421.418,444.762 C418.95,440.311 417.73,435.513 417.929,430.36" fill="#6E4100"/>
    <path d="M330.028,646.822 C344.551,647.047 354.689,654.547 362.017,666.457 C364.421,670.365 363.253,674.707 359.719,676.952 C356.157,679.213 351.915,678.367 349.304,674.399 C345.33,668.361 340.644,663.264 333.177,662.088 C324.306,660.69 317.274,664.333 311.642,671.008 C310.574,672.274 309.731,673.727 308.74,675.061 C306.015,678.731 301.859,679.685 298.244,677.498 C294.738,675.378 293.82,671.062 296.007,666.981 C302.485,654.893 316.046,646.874 330.028,646.822" fill="#6E4100"/>
    <path d="M445.61,274.267 C434.583,274.338 424.124,266.634 420.725,256.064 C419.494,252.235 420.724,249.445 424.152,247.794 C427.778,246.047 430.597,247.578 432.608,250.77 C433.399,252.027 433.858,253.494 434.651,254.75 C439.325,262.147 447.088,263.331 453.741,257.707 C454.122,257.385 454.439,256.987 454.827,256.675 C457.862,254.233 461.076,254.115 463.795,256.846 C466.701,259.764 466.483,263.064 463.748,266.189 C459.435,271.116 452.51,274.223 445.61,274.267" fill="#6E4100"/>
    <path d="M244.971,237.229 C254.068,237.331 260.476,240.787 265.485,246.873 C268.048,249.987 268.113,253.461 265.063,256.239 C262.192,258.855 259.011,258.463 256.088,255.901 C246.48,247.481 240.723,248.329 233.745,259.207 C231.554,262.623 228.662,263.958 224.845,262.177 C221.339,260.541 220.217,256.746 222.271,252.843 C227.29,243.302 235.021,237.74 244.971,237.229" fill="#6E4100"/>
    <path d="M346.068,469.149 C346.385,474.529 344.477,477.334 340.95,478.785 C337.461,480.221 333.95,479.762 331.344,476.833 C326.84,471.774 325.1,465.536 325.033,458.951 C324.992,455.037 327.711,452.571 331.36,451.542 C334.847,450.559 338.565,451.287 340.197,454.433 C342.822,459.494 344.484,465.053 346.068,469.149" fill="#6E4100"/>
  </g>
</svg>
