<?xml version="1.0" encoding="UTF-8" standalone="no"?>
<!-- Created with Inkscape (http://www.inkscape.org/) -->

<svg
   id="svg27183"
   sodipodi:docname="silhouette-meeting.svg"
   viewBox="0 0 410 410"
   version="1.1"
   inkscape:version="1.2.1 (9c6d41e410, 2022-07-14)"
   xmlns:inkscape="http://www.inkscape.org/namespaces/inkscape"
   xmlns:sodipodi="http://sodipodi.sourceforge.net/DTD/sodipodi-0.dtd"
   xmlns="http://www.w3.org/2000/svg"
   xmlns:svg="http://www.w3.org/2000/svg"
   xmlns:rdf="http://www.w3.org/1999/02/22-rdf-syntax-ns#"
   xmlns:cc="http://creativecommons.org/ns#"
   xmlns:dc="http://purl.org/dc/elements/1.1/">
  <defs
     id="defs10" />
  <sodipodi:namedview
     id="base"
     bordercolor="#666666"
     inkscape:pageshadow="2"
     inkscape:window-y="-8"
     pagecolor="#ffffff"
     inkscape:window-height="1017"
     inkscape:window-maximized="1"
     inkscape:zoom="1.0289025"
     inkscape:window-x="-8"
     showgrid="false"
     borderopacity="1.0"
     inkscape:current-layer="layer1"
     inkscape:cx="281.85372"
     inkscape:cy="237.14589"
     inkscape:window-width="1920"
     inkscape:pageopacity="0.0"
     inkscape:document-units="px"
     inkscape:showpageshadow="2"
     inkscape:pagecheckerboard="0"
     inkscape:deskcolor="#d1d1d1" />
  <g
     id="layer1"
     inkscape:label="Layer 1"
     inkscape:groupmode="layer"
     transform="translate(0 -642.36)">
    <g
       id="g3939"
       transform="matrix(.59112 0 0 .59112 1037.9 843.42)">
      <path
         id="path3873-9"
         d="m-1206.9 343.56c-10.27-3.0032-17.86-9.3324-22.677-18.912-5.02-9.9825-17.044-52.565-21.177-75-12.914-70.096-7.0765-153.57 15.456-221 5.0458-15.1 6.3165-29.916 4.6579-54.314-0.6612-9.7274-2.0568-23.496-3.1012-30.597l-1.8989-12.911 5.6449-5.0888c19.712-17.77 38.855-41.245 47.987-58.847 3.442-6.6342 4.1181-16.389 1.6508-23.818-2.0499-6.1718-8.4634-13.108-14.766-15.969-4.8961-2.2228-15.79-2.6101-21.902-0.77875-5.4043 1.6192-11.814 7.5459-16.262 15.036-2.0534 3.4582-6.2584 9.8028-9.3444 14.099-5.2299 7.2811-5.6716 7.6546-6.5036 5.5-1.6083-4.165-0.094-21.667 2.5996-30.056 6.1989-19.302 17.645-28.684 36.089-29.581 11.084-0.53907 17.752 0.86619 28.506 6.0075 15.453 7.3878 29.148 23.583 36.137 42.732 8.3286 22.821 15.642 53.192 18.563 77.086 2.0122 16.463 1.4674 57.643-1.0121 76.5-3.8996 29.657-14.333 45.529-35.243 53.616l-6.1646 2.384-2.5472 8.5c-3.0246 10.093-7.9162 34.124-10.076 49.5-2.6656 18.977-3.5459 32.324-3.5468 53.778 0 40.831 5.486 74.026 19.423 117.49 5.0402 15.719 5.6779 22.155 3.0666 30.948-3.3378 11.239-13.1 20.685-24.491 23.695-7.2801 1.9242-12.481 1.9234-19.068-0.003zm-190.53-357.93c-12.467-7.6113-14.064-26.549-3.0551-36.215 3.9975-3.5099 7.4172-4.6103 27.152-8.7377 34.489-7.213 68.654-22.499 95.855-42.886 17.863-13.389 37.73-35.073 48.56-53.004 4.0786-6.7524 6.2108-9.2159 9.7937-11.316 12.039-7.0553 27.069-2.4407 32.91 10.104 5.0929 10.937 1.7735 20.287-15.252 42.962-33.723 44.914-85.631 78.724-146.19 95.223-30.147 8.213-41.243 9.0756-49.771 3.869zm115.24-190.07c-15.7-4.0536-32.42-16.798-39.897-30.414-20.294-36.95-3.2183-80.212 37.161-94.146 7.357-2.5388 21.791-3.4534 30.641-1.9414 4.2517 0.72641 10.64 2.9642 16.451 5.763 7.947 3.8275 10.809 5.9036 17.509 12.7 13.118 13.307 18.814 27.256 18.834 46.125 0.012 11.341-1.6382 18.198-6.8454 28.44-8.6889 17.09-25.901 30.405-43.998 34.038-7.1095 1.427-23.33 1.1204-29.856-0.56434z"
         sodipodi:nodetypes="cssssscssssssssssssssscssssssccssssssssssssssssssss"
         style="fill:#e12d0e"
         inkscape:connector-curvature="0" />
      <path
         id="path3873-9-8"
         d="m-1611 343.56c10.27-3.0032 17.86-9.3324 22.677-18.912 5.02-9.9825 17.044-52.565 21.177-75 12.914-70.096 7.0765-153.57-15.456-221-5.0458-15.1-6.3165-29.916-4.6579-54.314 0.6612-9.7274 2.0568-23.496 3.1012-30.597l1.8989-12.911-5.6449-5.0888c-19.712-17.77-38.855-41.245-47.987-58.847-3.442-6.6342-4.1181-16.389-1.6508-23.818 2.0499-6.1718 8.4634-13.108 14.766-15.969 4.8961-2.2228 15.79-2.6101 21.902-0.77875 5.4043 1.6192 11.814 7.5459 16.262 15.036 2.0534 3.4582 6.2584 9.8028 9.3444 14.099 5.2299 7.2811 5.6716 7.6546 6.5036 5.5 1.6083-4.165 0.094-21.667-2.5996-30.056-6.1989-19.302-17.645-28.684-36.089-29.581-11.084-0.53907-17.752 0.86619-28.506 6.0075-15.453 7.3878-29.148 23.583-36.137 42.732-8.3286 22.821-15.642 53.192-18.563 77.086-2.0122 16.463-1.4674 57.643 1.0121 76.5 3.8996 29.657 14.333 45.529 35.243 53.616l6.1646 2.384 2.5472 8.5c3.0246 10.093 7.9162 34.124 10.076 49.5 2.6656 18.977 3.5459 32.324 3.5468 53.778 0 40.831-5.486 74.026-19.423 117.49-5.0402 15.719-5.6779 22.155-3.0666 30.948 3.3378 11.239 13.1 20.685 24.491 23.695 7.2801 1.9242 12.481 1.9234 19.068-0.003zm190.53-357.93c12.467-7.6113 14.064-26.549 3.0551-36.215-3.9975-3.5099-7.4172-4.6103-27.152-8.7377-34.489-7.213-68.654-22.499-95.855-42.886-17.863-13.389-37.73-35.073-48.56-53.004-4.0786-6.7524-6.2108-9.2159-9.7937-11.316-12.039-7.0553-27.069-2.4407-32.91 10.104-5.0929 10.937-1.7735 20.287 15.252 42.962 33.723 44.914 85.631 78.724 146.19 95.223 30.147 8.213 41.243 9.0756 49.771 3.869zm-115.24-190.07c15.7-4.0536 32.42-16.798 39.897-30.414 20.294-36.95 3.2183-80.212-37.161-94.146-7.357-2.5388-21.791-3.4534-30.641-1.9414-4.2517 0.72641-10.64 2.9642-16.451 5.763-7.947 3.8275-10.809 5.9036-17.509 12.7-13.118 13.307-18.814 27.256-18.834 46.125-0.012 11.341 1.6382 18.198 6.8454 28.44 8.6889 17.09 25.901 30.405 43.998 34.038 7.1095 1.427 23.33 1.1204 29.856-0.56434z"
         sodipodi:nodetypes="cssssscssssssssssssssscssssssccssssssssssssssssssss"
         style="fill:#e12d0e"
         inkscape:connector-curvature="0" />
    </g>
    <path
       style="fill:#000000;stroke-width:1.462"
       d="m 65.747985,397.46813 c -7.127448,-7.12744 -6.964864,-12.43632 1.27858,-41.7493 4.925954,-17.51628 5.48622,-22.60934 5.666537,-51.5112 0.236368,-37.8862 -3.792451,-62.81566 -11.059887,-68.43618 -2.35981,-1.82503 -6.806795,-5.26348 -9.882191,-7.641 -8.749233,-6.76381 -11.37899,-15.58881 -12.430361,-41.71409 -1.049084,-26.06846 0.946109,-41.25338 8.618253,-65.59141 4.092459,-12.98233 6.639086,-17.50212 14.040553,-24.919333 19.420399,-19.461719 43.577061,-13.312004 47.645301,12.129373 0.71601,4.47767 0.91978,8.52328 0.45282,8.99024 -0.46695,0.46695 -3.63456,-3.19965 -7.03912,-8.14801 -6.829401,-9.926197 -13.401433,-13.442642 -21.712084,-11.617317 -6.614263,1.452736 -13.29273,9.411117 -13.29273,15.840257 0,8.7531 13.819804,29.31581 27.554787,40.99922 l 5.202417,4.42533 -1.100911,24.75377 c -0.902529,20.29319 -0.482852,26.85146 2.328981,36.39486 16.30366,55.33494 16.54157,108.60715 0.71389,159.85122 -5.169302,16.73624 -12.018501,23.81783 -23.036252,23.81783 -6.392786,0 -9.297682,-1.22336 -13.948583,-5.87426 z"
       id="path254"
       transform="translate(0,642.36)" />
    <path
       style="fill:#000000;stroke-width:1.462"
       d="m 316.92329,397.99689 c -4.36378,-4.01356 -7.06061,-9.70462 -10.82318,-22.83987 -14.29798,-49.91482 -13.82454,-101.99724 1.39591,-153.56168 3.47039,-11.75712 3.86406,-16.89224 2.89609,-37.77659 l -1.12025,-24.16986 12.48693,-13.2368 c 19.61422,-20.7921 24.28662,-33.00547 16.44198,-42.97831 -8.41486,-10.697766 -21.72611,-8.434419 -31.43923,5.34569 -3.39707,4.81946 -6.48381,8.45532 -6.85944,8.0797 -1.78772,-1.78772 2.3849,-17.656201 6.09423,-23.176373 12.52351,-18.637301 43.57784,-7.232539 53.71253,19.726033 8.75226,23.28125 11.98667,44.10896 11.06531,71.25395 -0.95057,28.00527 -3.37078,36.5033 -12.37944,43.46767 -3.0754,2.37752 -7.52238,5.81597 -9.88219,7.641 -7.25802,5.61324 -11.29332,30.54598 -11.07622,68.43618 0.16526,28.84481 0.73027,34.0295 5.61345,51.5112 8.27779,29.63439 8.43997,34.65731 1.348,41.7493 -7.99227,7.99226 -19.12671,8.20655 -27.47448,0.52876 z"
       id="path256"
       transform="translate(0,642.36)" />
    <path
       style="fill:#000000;stroke-width:1.462"
       d="m 275.05035,76.983263 c -14.77746,-6.841742 -22.35391,-18.508871 -22.35391,-34.423231 0,-20.428611 15.82394,-35.7566664 36.91346,-35.7566664 20.00146,0 34.86597,13.7521764 36.52804,33.7945934 2.29118,27.628529 -26.18939,47.912791 -51.08759,36.385304 z"
       id="path258"
       transform="translate(0,642.36)" />
    <path
       style="fill:#000000;stroke-width:1.462"
       d="M 105.00481,76.294885 C 91.871027,69.584732 84.969937,59.634154 83.982513,45.983157 82.33539,23.21191 97.635977,6.8033656 120.51676,6.8033656 c 21.10876,0 36.93256,15.3199814 36.93256,35.7566664 0,15.91436 -7.57646,27.581489 -22.35392,34.423231 -10.39406,4.812293 -19.74274,4.598424 -30.09059,-0.688378 z"
       id="path260"
       transform="translate(0,642.36)" />
    <path
       style="fill:#000000;stroke-width:1.462"
       d=""
       id="path262"
       transform="translate(0,642.36)" />
    <path
       style="fill:#000000;stroke-width:1.462"
       d="M 168.14032,189.28481 C 135.17973,179.96102 102.30107,158.32737 83.941977,133.8836 72.991104,119.30333 71.096381,110.99014 77.419852,105.26748 c 3.677586,-3.32817 11.463525,-4.22728 14.975678,-1.72937 1.104377,0.78546 5.320724,6.00258 9.36966,11.5936 19.64892,27.13246 49.72239,44.90688 91.13423,53.86336 6.54639,1.41584 11.98906,9.15236 10.2635,14.58912 -3.39982,10.71188 -12.22765,12.14878 -35.0226,5.70062 z"
       id="path264"
       transform="translate(0,642.36)" />
    <path
       style="fill:#000000;stroke-width:1.462"
       d="m 211.17051,190.48273 c -7.59099,-7.59099 -4.26772,-19.30976 6.07582,-21.42498 15.05779,-3.07927 43.21808,-13.47232 53.70533,-19.82089 14.44345,-8.74349 28.12569,-21.24864 37.66022,-34.42027 3.92171,-5.41771 8.03397,-10.49302 9.13834,-11.27848 3.7169,-2.64353 12.07089,-1.51585 15.31342,2.06711 5.74986,6.35352 3.90959,13.93966 -6.85986,28.27838 -18.69431,24.89008 -51.36636,46.14165 -85.29425,55.47972 -17.42429,4.79574 -25.74932,5.1091 -29.73902,1.11941 z"
       id="path266"
       transform="translate(0,642.36)" />
    <path
       style="fill:#000000;stroke-width:0.129223"
       d=""
       id="path283"
       transform="translate(0,642.36)" />
    <path
       style="fill:#000000;stroke-width:0.129223"
       d="m 216.24448,194.14081 c -4.30003,-0.81526 -7.81279,-3.70034 -9.46944,-7.77737 -1.05251,-2.59024 -1.24246,-6.65206 -0.43147,-9.22638 1.11091,-3.52636 3.56221,-6.38821 6.63622,-7.74769 1.51314,-0.66918 4.59848,-1.46683 11.559,-2.98834 3.45905,-0.75611 7.00993,-1.56847 7.89084,-1.80522 1.7663,-0.47472 2.38486,-0.54613 1.31914,-0.15228 -2.53594,0.93717 -10.50813,3.1779 -15.147,4.25734 -2.08986,0.4863 -3.7525,0.98063 -4.55299,1.35368 -4.37707,2.03981 -7.01661,6.15838 -7.01661,10.94826 0,3.45412 1.24554,6.45525 3.82238,9.20998 3.40659,3.64179 9.72077,4.00284 21.94925,1.25509 20.33425,-4.56912 40.35408,-13.20604 58.18494,-25.10205 9.10054,-6.0715 16.71207,-12.28277 23.9431,-19.5384 4.06618,-4.08002 6.38175,-6.65409 9.32395,-10.36483 12.5032,-15.76918 14.94923,-24.42297 8.74253,-30.93004 -1.15095,-1.20665 -2.61292,-2.06135 -4.63891,-2.71201 -3.93221,-1.26284 -8.34278,-0.97852 -10.64049,0.68593 -0.97752,0.70811 -3.82779,4.17333 -7.99256,9.71692 -5.50631,7.3293 -7.91717,10.20309 -12.63304,15.05888 -2.33878,2.40816 -7.43461,7.20773 -7.7904,7.33747 -0.0919,0.0335 2.10357,-2.20862 4.87882,-4.98252 8.26245,-8.25842 11.65468,-12.48801 18.514,-23.08411 1.23495,-1.90772 2.76942,-3.65167 3.86589,-4.39367 3.70433,-2.50675 8.80952,-3.08225 12.8344,-1.44679 3.5326,1.43542 6.51209,4.6114 7.79977,8.31414 1.70507,4.90292 0.46568,9.23541 -4.99388,17.45691 -18.40745,27.71962 -47.89838,49.10078 -83.4197,60.47994 -7.85876,2.51753 -18.15991,5.10159 -23.96762,6.0123 -2.53703,0.39784 -6.89877,0.48174 -8.57012,0.16486 z"
       id="path285"
       transform="translate(0,642.36)" />
    <path
       style="fill:#000000;stroke-width:0.129223"
       d="m 350.43815,234.38062 c 0.26712,-0.21946 2.53451,-1.98683 5.03866,-3.92749 6.17511,-4.78559 8.21414,-6.95516 10.13624,-10.7852 3.45757,-6.88965 5.01649,-18.85632 5.272,-40.46913 0.17751,-15.01588 -0.68867,-25.767 -3.04803,-37.83253 -1.804,-9.2255 -4.90653,-19.86821 -8.35437,-28.6583 -5.627,-14.345751 -17.72983,-25.199112 -30.94368,-27.749122 -9.52227,-1.837608 -17.99424,1.537085 -22.86418,9.107634 -2.05549,3.195356 -4.87974,11.505458 -5.86108,17.245708 -0.53561,3.13296 -0.43291,5.60515 0.23285,5.60515 0.3993,0 2.52999,-2.40853 4.68334,-5.29402 1.10624,-1.48236 2.42195,-3.2432 2.92381,-3.91299 1.1902,-1.58845 3.51267,-4.23472 3.62126,-4.12613 0.0467,0.0467 -0.18692,0.41769 -0.51911,0.82447 -0.33218,0.40679 -1.51036,2.16994 -2.61817,3.91812 -4.17155,6.58289 -7.87524,11.58318 -8.24304,11.1288 -0.84653,-1.0458 -0.88007,-6.40507 -0.0756,-12.07376 1.47571,-10.398074 6.02146,-17.968783 12.79089,-21.302558 3.53707,-1.741918 6.58787,-2.352059 11.85495,-2.370919 5.72355,-0.02049 8.84499,0.725076 14.60393,3.488225 8.84192,4.242361 16.76858,13.350682 21.00553,24.136902 3.68869,9.39049 7.98397,25.6164 10.17029,38.41944 1.54977,9.07544 1.72676,11.30873 1.84342,23.26068 0.21237,21.75726 -0.93689,33.87506 -4.07367,42.95273 -2.60111,7.5275 -7.04027,13.11968 -13.19185,16.61829 -1.62768,0.92572 -4.3417,2.19501 -4.69342,2.19501 -0.0972,0 0.0419,-0.17956 0.30899,-0.39901 z"
       id="path287"
       transform="translate(0,642.36)" />
    <path
       style="fill:#000000;stroke-width:0.129223"
       d="m 309.96684,179.41226 c -0.0486,-1.57515 -0.97099,-9.41291 -1.65276,-14.04424 l -0.74611,-5.06843 0.80919,-0.77315 c 2.25423,-2.15383 4.68734,-4.32754 4.76125,-4.25364 0.0458,0.0458 -0.80817,1.03301 -1.89773,2.19378 -1.90365,2.02808 -1.98101,2.13986 -1.98101,2.86254 0,0.41363 0.19649,4.8993 0.43665,9.96816 0.24015,5.06886 0.40375,9.33862 0.36355,9.48834 -0.0402,0.14973 -0.0821,-0.0183 -0.093,-0.37336 z"
       id="path289"
       transform="translate(0,642.36)" />
    <path
       style="fill:#000000;stroke-width:0.129223"
       d="m 338.65942,271.59988 c -0.0235,-0.8441 0.53131,-6.21056 1.02357,-9.90009 0.72231,-5.41369 1.70022,-10.36714 2.8385,-14.37796 0.59858,-2.10914 2.27254,-6.61658 2.40723,-6.48189 0.0377,0.0377 -0.35296,1.7242 -0.86819,3.74772 -1.59188,6.25196 -3.45975,15.51746 -4.63825,23.00786 -0.24532,1.55918 -0.5128,3.26011 -0.5944,3.77984 -0.14477,0.92203 -0.14886,0.92748 -0.16846,0.22452 z"
       id="path291"
       transform="translate(0,642.36)" />
    <path
       style="fill:#000000;stroke-width:0.129223"
       d="m 300.94749,359.20417 c -0.14571,-0.23578 -1.9553,-8.57723 -2.41133,-11.11523 -2.45986,-13.69029 -3.63171,-26.56061 -3.82481,-42.00777 -0.37622,-30.09515 3.96872,-60.01703 12.57406,-86.59271 1.36689,-4.22134 2.18075,-7.35528 2.64546,-10.1869 0.4903,-2.9875 0.52066,-3.10596 0.42748,-1.66806 -0.22074,3.40659 -1.10599,7.54676 -3.15536,14.75704 -1.81944,6.40132 -2.93743,10.61609 -3.87873,14.62263 -5.48452,23.34427 -7.85945,44.51073 -7.58575,67.6076 0.17153,14.4752 1.17892,26.10995 3.48845,40.28966 0.58798,3.60998 2.51409,13.54787 2.73976,14.13595 0.0923,0.24043 0.0151,0.29617 -0.41002,0.29617 -0.28802,0 -0.56217,-0.0623 -0.60921,-0.13838 z"
       id="path293"
       transform="translate(0,642.36)" />
    <path
       style="fill:#000000;stroke-width:0.129223"
       d="m 326.40226,404.53223 c -7.5167,-1.58491 -12.85366,-5.98993 -15.92834,-13.14694 -1.75805,-4.09228 -5.58345,-16.62344 -8.18577,-26.81481 -0.70147,-2.74715 -1.27541,-5.04727 -1.27541,-5.11137 0,-0.0641 0.22328,-0.11656 0.49618,-0.11656 h 0.49618 l 0.54815,2.3624 c 2.49555,10.75531 5.8383,21.87646 8.14624,27.10217 1.74476,3.95051 3.20492,6.1908 5.61668,8.61755 6.28535,6.32438 14.75583,7.95169 22.25934,4.27636 2.37427,-1.16295 4.13191,-2.47637 6.28432,-4.69602 3.54153,-3.65218 4.64984,-6.32335 4.64853,-11.20358 -0.002,-5.62142 -1.17215,-11.06168 -6.80926,-31.64417 -2.86474,-10.45986 -3.83966,-15.61526 -4.48851,-23.73541 -0.28982,-3.62692 -0.32563,-5.76833 -0.0594,-3.55156 1.67409,13.9392 4.49646,26.7066 9.34322,42.26548 1.84007,5.90695 2.4787,8.14466 2.93411,10.28105 0.52607,2.46786 0.70445,5.64026 0.42471,7.55342 -1.15838,7.92223 -7.07894,14.74244 -14.71996,16.95672 -3.43959,0.99675 -6.8641,1.20976 -9.73101,0.60527 z"
       id="path295"
       transform="translate(0,642.36)" />
    <path
       style="fill:#000000;stroke-width:0.129223"
       d="m 310.52558,207.618 c 0.31129,-1.55644 0.4599,-8.88838 0.28953,-14.28411 -0.30448,-9.64325 -1.49344,-34.55614 -1.52735,-32.00343 -0.0113,0.85046 0.092,3.82709 0.22962,6.61472 0.13759,2.78763 0.2442,5.68694 0.2369,6.44291 -0.012,1.24429 -0.0513,1.07341 -0.41448,-1.80401 -0.22067,-1.74818 -0.68911,-5.20936 -1.04098,-7.69152 l -0.63975,-4.51302 0.41372,-0.44406 c 0.79039,-0.84836 3.77458,-3.54836 3.84453,-3.47841 0.0387,0.0387 -0.50479,0.70892 -1.20774,1.48939 -0.70296,0.78048 -1.27584,1.47458 -1.27307,1.54247 0.003,0.0679 0.24967,-0.14718 0.54866,-0.47792 0.29899,-0.33073 3.53239,-3.77125 7.18533,-7.64558 9.32612,-9.89136 11.9495,-12.86778 15.54659,-17.63874 5.02783,-6.66858 7.70408,-11.79396 8.79186,-16.83755 0.44197,-2.04926 0.39646,-5.42744 -0.098,-7.27377 -0.81864,-3.05681 -2.74748,-6.12497 -5.4201,-8.6216 -7.07304,-6.607274 -16.68801,-5.599393 -24.91882,2.6121 -1.9767,1.97205 -2.37565,2.46112 -6.16361,7.5558 -2.40256,3.23138 -4.44732,5.58385 -4.85344,5.58385 -0.1311,0 -0.27548,-0.17395 -0.32085,-0.38657 -0.0454,-0.21262 -0.11518,-0.5412 -0.15515,-0.7302 -0.0508,-0.24006 -0.0787,-0.19782 -0.0926,0.14016 -0.0243,0.58962 0.25287,1.14843 0.56961,1.14843 0.4233,0 2.74433,-2.65731 5.42503,-6.21103 2.93601,-3.89217 4.82087,-6.20528 4.95068,-6.07548 0.0472,0.0472 -0.0322,0.2216 -0.17649,0.38755 -0.14428,0.16594 -1.33384,1.96067 -2.64347,3.98827 -3.8269,5.92487 -7.04357,10.31604 -7.55682,10.31604 -0.49097,0 -0.67486,-1.37566 -0.65455,-4.89661 0.0818,-14.17609 5.30559,-24.812062 14.08147,-28.670589 3.35725,-1.476098 5.93229,-1.911943 11.24082,-1.902595 4.45761,0.0079 5.97066,0.218623 9.11847,1.270235 6.11156,2.041732 10.56125,4.848751 15.36518,9.692894 4.77869,4.818687 8.29912,10.218965 10.82371,16.603365 3.73405,9.44296 8.10341,26.19896 10.37169,39.77423 1.37031,8.20107 1.56728,11.40819 1.56694,25.51392 -3.4e-4,14.64439 -0.35055,21.137 -1.56848,29.079 l -0.36228,2.3624 h -0.50766 c -0.46244,0 -0.49914,-0.0421 -0.41205,-0.47248 0.6436,-3.18059 1.42351,-12.64427 1.53782,-18.66027 0.0737,-3.87886 0.0489,-3.65214 -0.23195,2.12347 -0.30858,6.34493 -0.84976,12.51952 -1.38917,15.84955 l -0.18786,1.15973 H 339.6332 310.41939 Z m 60.37066,-29.58893 c -0.0297,-1.15208 -0.0539,-0.16181 -0.0538,2.20059 10e-5,2.3624 0.0244,3.30501 0.054,2.09468 0.0296,-1.21032 0.0295,-3.14319 -1.7e-4,-4.29527 z m -7e-5,-8.48571 c -0.0309,-0.92625 -0.0564,-0.2151 -0.0566,1.58032 -1.6e-4,1.79543 0.0252,2.55326 0.0563,1.68408 0.0311,-0.86918 0.0312,-2.33816 3.4e-4,-3.2644 z m -0.18947,-5.07735 c -0.65585,-15.92229 -4.4867,-34.16707 -10.51264,-50.06747 -2.81273,-7.42183 -6.04527,-12.63996 -10.97807,-17.721358 -3.61882,-3.727834 -7.57343,-6.671718 -11.64563,-8.669223 -1.9496,-0.956322 -4.76044,-2.070606 -5.71756,-2.266578 -0.28348,-0.05805 0.33504,0.202874 1.37449,0.57982 10.0277,3.63642 18.83673,11.661724 24.09512,21.951419 3.25725,6.37382 7.63304,19.99062 9.92794,30.89423 1.70255,8.08921 2.95391,17.79713 3.28749,25.50395 0.0616,1.42292 0.15065,2.58714 0.19792,2.58714 0.0473,0 0.0342,-1.25637 -0.0291,-2.79193 z m -70.48017,-54.63075 c 1.03346,-5.10411 3.26613,-11.607254 5.1281,-14.936777 2.42386,-4.334262 6.53623,-7.705876 11.26783,-9.23817 2.48801,-0.805725 3.62633,-0.958338 7.06932,-0.947771 2.7573,0.0085 3.46236,0.06992 5.32053,0.463776 1.17811,0.249711 2.16872,0.427321 2.20135,0.394689 0.10497,-0.104969 -2.93555,-0.753648 -4.52303,-0.964964 -1.92782,-0.256619 -6.07199,-0.122498 -7.78165,0.251845 -6.40526,1.40247 -11.55677,5.407535 -14.34191,11.150188 -2.24806,4.635244 -4.82853,13.493754 -5.01479,17.215324 l -0.0688,1.37449 0.15222,-1.29819 c 0.0837,-0.714 0.34959,-2.273 0.59083,-3.46444 z"
       id="path297"
       transform="translate(0,642.36)" />
    <path
       style="fill:#000000;stroke-width:0.129223"
       d="m 310.46678,208.02008 c 0.002,-0.0709 0.0818,-0.90201 0.17635,-1.84697 0.44317,-4.429 0.13582,-17.14869 -0.87597,-36.2521 -0.17518,-3.30736 -0.28307,-4.77635 -0.23978,-3.26441 0.0433,1.51193 0.11333,4.1793 0.15563,5.92748 l 0.0769,3.1785 -0.24006,-1.80402 c -0.13202,-0.99221 -0.60344,-4.45641 -1.04758,-7.69822 l -0.80753,-5.89422 0.5827,-0.60706 c 1.01529,-1.05774 3.59686,-3.37501 3.67401,-3.29787 0.0408,0.0408 -0.46415,0.67258 -1.12202,1.40404 -0.65788,0.73145 -1.19442,1.38513 -1.19232,1.45261 0.002,0.0675 0.1374,-0.042 0.30067,-0.24323 0.16327,-0.20126 3.24141,-3.48715 6.84032,-7.30196 9.67067,-10.25085 12.49827,-13.45193 15.9915,-18.10375 6.28581,-8.3706 9.05715,-14.58218 9.04525,-20.27369 -0.007,-3.41459 -0.71964,-5.73329 -2.67445,-8.70355 -3.10628,-4.719856 -7.7624,-7.64362 -12.73091,-7.994253 -5.96609,-0.421033 -12.67786,3.288699 -18.08721,9.997183 -1.00608,1.2477 -4.70975,6.27109 -4.62358,6.27109 0.0403,0 1.05557,-1.29502 2.25627,-2.87783 2.51828,-3.31969 4.37462,-5.58911 4.48308,-5.48066 0.0894,0.0894 -5.84347,9.12533 -7.25876,11.05532 -1.59899,2.18051 -2.84722,3.66018 -3.08768,3.66018 -0.50243,0 -0.68117,-1.22669 -0.67591,-4.6389 0.0147,-9.5556 2.43608,-17.85134 6.7903,-23.263956 3.54047,-4.401053 8.49607,-6.950072 14.54314,-7.480575 5.79259,-0.508178 10.45555,0.04229 14.74169,1.74029 5.80296,2.298896 9.62808,4.861504 14.09302,9.441506 3.664,3.758416 6.874,8.374525 9.08887,13.070165 4.57027,9.68921 10.69158,33.33005 12.62489,48.75806 0.55494,4.42846 0.70128,8.55217 0.70121,19.75826 -1.1e-4,14.79243 -0.36461,21.55587 -1.57178,29.1649 l -0.36117,2.2765 h -0.4804 c -0.31306,0 -0.50778,-0.10474 -0.55898,-0.30067 -0.0748,-0.28635 -0.0795,-0.28635 -0.0985,0 -0.0189,0.28509 -1.53292,0.30067 -29.22779,0.30067 -16.06432,0 -29.20586,-0.058 -29.20342,-0.12886 z m 58.8953,-2.3624 c -0.009,-0.38652 -0.046,-0.32206 -0.14917,0.25772 -0.18448,1.03679 -0.16846,1.84946 0.0186,0.94496 0.0782,-0.37799 0.13693,-0.91919 0.13054,-1.20268 z m 0.15293,-1.50134 c -0.0411,-0.21372 -0.0763,-0.0793 -0.0782,0.29866 -0.002,0.37799 0.0317,0.55285 0.0747,0.38858 0.043,-0.16427 0.0446,-0.47353 0.003,-0.68724 z m 0.81292,-8.15745 c 0.14753,-2.1183 0.25696,-4.36814 0.24318,-4.99964 -0.0144,-0.65777 -0.0866,-0.0841 -0.16906,1.34308 -0.0792,1.37019 -0.26107,3.96024 -0.40415,5.75567 -0.39749,4.98771 -0.43891,5.85485 -0.17727,3.71106 0.13148,-1.07729 0.35977,-3.69186 0.5073,-5.81017 z m 0.3913,-8.42431 c -0.0394,-0.25987 -0.0716,-0.0472 -0.0716,0.47248 0,0.51973 0.0322,0.73234 0.0716,0.47248 0.0394,-0.25987 0.0394,-0.6851 0,-0.94496 z m 0.16611,-16.56902 c -0.0548,-0.13706 -0.0956,-0.0964 -0.1038,0.10381 -0.007,0.18111 0.0331,0.28259 0.0902,0.2255 0.0571,-0.0571 0.0632,-0.20528 0.0136,-0.32931 z m -0.16362,-6.37292 c -0.036,-0.39876 -0.0651,-0.0292 -0.0646,0.82128 5.2e-4,0.85047 0.03,1.17672 0.0655,0.72501 0.0355,-0.4517 0.0351,-1.14754 -0.001,-1.54629 z m -61.33689,-2.65789 c -0.0371,-0.35436 -0.0674,-0.0644 -0.0674,0.64429 0,0.70872 0.0303,0.99865 0.0674,0.64429 0.0371,-0.35436 0.0371,-0.93422 0,-1.28858 z m 60.95368,-3.03563 c -0.45867,-5.36564 -1.857,-15.56725 -2.10043,-15.32382 -0.0416,0.0416 0.12366,1.2998 0.36715,2.79608 0.78453,4.82082 1.50848,11.02916 1.76975,15.1768 0.0744,1.1812 0.15969,1.80602 0.18953,1.3885 0.0298,-0.41753 -0.0719,-2.23443 -0.226,-4.03756 z m -2.57722,-18.14007 c -0.26254,-1.32814 -0.50981,-2.38234 -0.54948,-2.34267 -0.0397,0.0397 0.14165,1.15982 0.40293,2.48922 0.26129,1.3294 0.50855,2.3836 0.54948,2.34267 0.0409,-0.0409 -0.14039,-1.16107 -0.40293,-2.48922 z m -0.69679,-3.34076 c -0.0647,-0.3448 -0.15197,-0.59255 -0.19397,-0.55055 -0.042,0.042 -0.0234,0.35847 0.0413,0.70327 0.0647,0.34479 0.15197,0.59254 0.19397,0.55054 0.042,-0.042 0.0234,-0.35847 -0.0412,-0.70326 z m -0.43226,-1.8872 c -0.11808,-0.52764 -0.24782,-0.92621 -0.28832,-0.88571 -0.0405,0.0405 0.023,0.50534 0.14106,1.03298 0.11808,0.52764 0.24782,0.92621 0.28832,0.88572 0.0405,-0.0405 -0.023,-0.50535 -0.14106,-1.03299 z m -0.38579,-1.50488 c -0.0548,-0.13706 -0.0956,-0.0963 -0.1038,0.10381 -0.007,0.18111 0.0331,0.28259 0.0902,0.2255 0.0571,-0.0571 0.0632,-0.20528 0.0136,-0.32931 z m -0.17181,-0.68724 c -0.0548,-0.13706 -0.0956,-0.0964 -0.1038,0.1038 -0.007,0.18112 0.0331,0.2826 0.0902,0.2255 0.0571,-0.0571 0.0632,-0.20528 0.0136,-0.3293 z m -0.17181,-0.68724 c -0.0548,-0.13706 -0.0956,-0.0964 -0.1038,0.1038 -0.007,0.18112 0.0331,0.28259 0.0902,0.2255 0.0571,-0.0571 0.0632,-0.20528 0.0136,-0.3293 z m -0.39025,-1.58483 c -0.15809,-0.62938 -0.31927,-1.11248 -0.35818,-1.07357 -0.0389,0.0389 0.0586,0.58568 0.2167,1.21506 0.15809,0.62937 0.31927,1.11248 0.35818,1.07357 0.0389,-0.0389 -0.0586,-0.58569 -0.2167,-1.21506 z m -0.51254,-1.89281 c -0.0632,-0.25179 -0.14804,-0.42467 -0.18853,-0.38417 -0.0405,0.0405 -0.0219,0.27964 0.0413,0.53143 0.0632,0.2518 0.14804,0.42467 0.18854,0.38417 0.0405,-0.0405 0.0219,-0.27964 -0.0413,-0.53143 z m -0.5139,-1.80555 c -0.16219,-0.57803 -0.32582,-1.02003 -0.36363,-0.98222 -0.0378,0.0378 0.063,0.54263 0.22404,1.12182 0.16103,0.57919 0.32466,1.02119 0.36363,0.98222 0.039,-0.039 -0.0618,-0.54379 -0.22404,-1.12182 z m -0.60622,-2.05685 c -0.11618,-0.38779 -0.24287,-0.67345 -0.28153,-0.63479 -0.0387,0.0387 0.0248,0.38757 0.14096,0.77536 0.11619,0.38779 0.24288,0.67345 0.28153,0.63479 0.0387,-0.0387 -0.0248,-0.38757 -0.14096,-0.77536 z m -1.53295,-4.77415 c -1.28063,-3.85714 -3.08758,-8.73928 -3.43504,-9.28105 -0.25106,-0.39144 -0.26593,-0.43434 1.1148,3.21549 0.58984,1.55919 1.60231,4.43539 2.24993,6.39157 0.64763,1.95617 1.20823,3.52595 1.24579,3.48839 0.0376,-0.0376 -0.4914,-1.75404 -1.17548,-3.8144 z m -61.15655,-4.64812 0.93909,-0.98791 -0.95036,0.90201 c -0.92744,0.88025 -1.36908,1.10656 -1.36908,0.70156 0,-0.11025 -0.0464,-0.15405 -0.10311,-0.0973 -0.14647,0.14647 0.0833,0.4696 0.33388,0.4696 0.11577,0 0.63308,-0.44457 1.14958,-0.98792 z m -1.60661,-0.0752 c -0.0549,-0.13706 -0.0956,-0.0964 -0.1038,0.1038 -0.007,0.18111 0.0332,0.28259 0.0902,0.2255 0.0571,-0.0571 0.0632,-0.20528 0.0136,-0.3293 z m 2.97523,-1.42818 c 0.22194,-0.23624 0.36486,-0.42953 0.31762,-0.42953 -0.0473,0 -0.26749,0.19329 -0.48943,0.42953 -0.22194,0.23624 -0.36486,0.42952 -0.31761,0.42952 0.0472,0 0.26749,-0.19328 0.48942,-0.42952 z m -2.97353,-1.24236 c -0.0436,-0.16717 -0.0821,-0.072 -0.0856,0.21149 -0.003,0.28349 0.0321,0.42026 0.0792,0.30394 0.0471,-0.11632 0.0499,-0.34827 0.006,-0.51543 z m 3.74668,0.2974 c 0.17104,-0.189 0.27232,-0.34363 0.22507,-0.34363 -0.0472,0 -0.22585,0.15463 -0.39688,0.34363 -0.17104,0.18899 -0.27232,0.34362 -0.22507,0.34362 0.0472,0 0.22584,-0.15463 0.39688,-0.34362 z m -3.5755,-1.67516 c -0.0432,-0.16537 -0.0786,-0.0301 -0.0786,0.30067 0,0.33074 0.0353,0.46604 0.0786,0.30067 0.0432,-0.16537 0.0432,-0.43597 0,-0.60134 z m 0.5409,-2.62012 c -0.0202,-0.403 -0.45467,1.40796 -0.45342,1.88992 6.1e-4,0.23624 0.10578,-0.0344 0.23372,-0.60133 0.12794,-0.56698 0.2268,-1.14684 0.2197,-1.28859 z m 57.42188,-0.49724 c -0.57345,-1.14395 -1.08031,-2.07992 -1.12635,-2.07992 -0.046,0 0.39602,0.96309 0.98236,2.1402 0.58633,1.17712 1.09319,2.11308 1.12634,2.07993 0.0331,-0.0332 -0.4089,-0.99625 -0.98235,-2.14021 z m -57.2766,-0.22221 c -0.0549,-0.13706 -0.0956,-0.0964 -0.10381,0.1038 -0.007,0.18111 0.0331,0.28259 0.0902,0.2255 0.0571,-0.0571 0.0632,-0.20528 0.0136,-0.3293 z m 0.54854,-2.11543 c -0.0249,-0.29075 -0.46783,1.18054 -0.46553,1.5463 0.001,0.18899 0.10972,-0.043 0.2412,-0.51543 0.13147,-0.47248 0.23242,-0.93637 0.22433,-1.03087 z m 55.07447,-0.73019 c -3.56236,-6.127752 -9.75964,-12.496034 -15.53662,-15.965317 -1.51025,-0.906957 -4.53159,-2.464935 -4.76432,-2.456763 -0.0728,0.0026 0.8728,0.526486 2.10125,1.164291 7.15757,3.716185 13.24633,9.460737 17.65447,16.656449 0.92588,1.51138 1.33944,1.9675 0.54522,0.60134 z m -54.93577,0.0966 c -0.0548,-0.13706 -0.0956,-0.0964 -0.1038,0.1038 -0.007,0.18112 0.0331,0.2826 0.0902,0.22551 0.0571,-0.0571 0.0632,-0.20528 0.0136,-0.32931 z m 0.54572,-1.68589 c 0,-0.16245 -0.0546,-0.13069 -0.14765,0.0859 -0.0812,0.18899 -0.14766,0.4596 -0.14766,0.60134 0,0.16244 0.0546,0.13069 0.14766,-0.0859 0.0812,-0.18899 0.14765,-0.45959 0.14765,-0.60133 z m 1.47197,-4.295277 c 0.0798,-0.298518 0.0663,-0.350922 -0.0443,-0.171811 -0.0876,0.141744 -0.21093,0.451008 -0.27412,0.687248 -0.0799,0.29851 -0.0663,0.35092 0.0443,0.17181 0.0876,-0.14175 0.21093,-0.451007 0.27412,-0.687247 z m 0.43684,-1.116771 c 0,-0.0945 -0.0749,-0.05584 -0.16654,0.0859 -0.0916,0.141744 -0.16655,0.335031 -0.16655,0.429527 0,0.0945 0.0749,0.05584 0.16655,-0.08591 0.0916,-0.141744 0.16654,-0.335031 0.16654,-0.429527 z m 2.90528,-5.537106 c 1.15083,-1.617695 3.06616,-3.541146 4.57376,-4.593165 1.41001,-0.983921 1.77658,-1.302877 0.97355,-0.84709 -0.94145,0.534344 -3.19982,2.404667 -4.07214,3.372436 -1.33561,1.481746 -2.47209,3.194493 -3.45015,5.199572 -0.50703,1.039456 -0.92029,1.967235 -0.91835,2.061731 0.002,0.0945 0.45495,-0.755968 1.0067,-1.88992 0.55175,-1.133953 1.40073,-2.620556 1.88663,-3.303564 z m 8.36547,-6.878685 c -0.0768,-0.07682 -2.1595,0.962004 -2.1595,1.077139 0,0.045 0.50006,-0.164765 1.11125,-0.466155 0.61119,-0.301391 1.0829,-0.576334 1.04825,-0.610984 z m 20.34773,0.747183 c -0.23624,-0.126183 -0.62282,-0.277545 -0.85906,-0.336359 -0.23624,-0.05881 -0.12027,0.04179 0.25772,0.22356 0.77752,0.373908 1.25943,0.464305 0.60134,0.112799 z m -1.5463,-0.600315 c -0.14175,-0.08019 -0.45101,-0.193047 -0.68725,-0.250789 -0.35802,-0.08751 -0.34372,-0.06366 0.0859,0.143279 0.55061,0.265206 1.03229,0.351324 0.60134,0.10751 z m -18.04015,-0.35918 c 0.14175,-0.0916 0.1804,-0.166549 0.0859,-0.166549 -0.0945,0 -0.28779,0.07495 -0.42953,0.166549 -0.14174,0.0916 -0.1804,0.166549 -0.0859,0.166549 0.0945,0 0.28779,-0.07495 0.42953,-0.166549 z m 14.77574,-0.687244 c -0.23624,-0.07566 -0.58416,-0.137559 -0.77315,-0.137559 -0.27209,0 -0.25421,0.02863 0.0859,0.137559 0.23624,0.07566 0.58415,0.137559 0.77315,0.137559 0.27209,0 0.2542,-0.02864 -0.0859,-0.137559 z m -12.41692,-0.103803 c -0.0571,-0.05709 -0.20528,-0.06319 -0.3293,-0.01356 -0.13706,0.05485 -0.0963,0.09556 0.1038,0.103803 0.18112,0.0075 0.28259,-0.03315 0.2255,-0.09024 z m 1.33512,-0.239819 c 0.46298,-0.117809 0.47172,-0.131481 0.0859,-0.134357 -0.23624,-0.0018 -0.62281,0.0587 -0.85905,0.134357 -0.33658,0.107791 -0.35517,0.136866 -0.0859,0.134357 0.18899,-0.0018 0.57557,-0.06222 0.85906,-0.134357 z m 9.75027,0.05802 c -0.11812,-0.04766 -0.31141,-0.04766 -0.42953,0 -0.11812,0.04766 -0.0215,0.08666 0.21476,0.08666 0.23624,0 0.33289,-0.039 0.21477,-0.08666 z m -0.85579,-0.170721 c -0.11632,-0.04706 -0.34826,-0.04993 -0.51543,-0.0064 -0.16717,0.04356 -0.072,0.08207 0.21149,0.08557 0.28349,0.0035 0.42026,-0.03214 0.30394,-0.0792 z m -7.30323,-0.177162 c -0.16427,-0.043 -0.47353,-0.04456 -0.68724,-0.0035 -0.21372,0.0411 -0.0793,0.07628 0.29866,0.07819 0.37799,0.0019 0.55285,-0.03172 0.38858,-0.07472 z m 5.62481,-0.06167 c -0.47248,-0.07359 -1.8255,-0.124686 -3.0067,-0.113542 l -2.14763,0.02026 2.31944,0.101184 c 1.2757,0.05565 2.62871,0.106745 3.0067,0.113541 0.63252,0.01137 0.61884,0.0017 -0.17181,-0.121445 z"
       id="path299"
       transform="translate(0,642.36)" />
    <path
       style="fill:#000000;stroke-width:0.129223"
       d=""
       id="path301"
       transform="translate(0,642.36)" />
    <path
       style="fill:#000000;stroke-width:0.129223"
       d="m 327.98706,139.16782 c 0,-0.0579 0.41211,-0.62297 0.91581,-1.25577 2.92731,-3.67765 6.4442,-8.73828 8.58355,-12.35132 3.00838,-5.08071 3.69548,-7.51054 3.50651,-12.40036 -0.1069,-2.7661 -0.41945,-4.2458 -1.28961,-6.10528 -1.48991,-3.18387 -4.64284,-6.44505 -7.72446,-7.98966 -1.94552,-0.975159 -3.65356,-1.279537 -7.25621,-1.293072 -1.74818,-0.0066 -3.64239,0.04211 -4.20937,0.108161 l -1.03086,0.120101 0.68724,-0.263297 c 1.28231,-0.49128 3.76458,-0.91733 5.35786,-0.919609 4.79502,-0.0069 9.45273,2.497795 12.72799,6.844396 6.34114,8.41533 4.07356,17.91847 -7.81942,32.77026 -1.96738,2.45684 -2.44903,2.99482 -2.44903,2.73545 z"
       id="path303"
       transform="translate(0,642.36)" />
    <path
       style="fill:#000000;stroke-width:0.129223"
       d="m 310.59034,206.38788 c 0.25139,-3.41278 0.13922,-15.64288 -0.2139,-23.32334 -0.18899,-4.11057 -0.37189,-7.04854 -0.40643,-6.52881 -0.0462,0.69461 -0.23657,-0.42056 -0.71868,-4.20937 -0.36072,-2.83488 -0.87745,-6.67905 -1.14828,-8.5426 l -0.49242,-3.38827 1.46881,-1.42447 c 2.42706,-2.3538 3.08954,-2.94954 3.17971,-2.85937 0.0473,0.0472 -0.42128,0.64162 -1.04118,1.32083 -0.61989,0.6792 -1.09358,1.23491 -1.05264,1.23491 0.11058,0 14.05174,-14.87369 16.18442,-17.267 5.45284,-6.11921 10.06626,-12.52093 12.49082,-17.33262 1.95889,-3.88754 2.11391,-4.63376 2.11008,-10.15713 -0.002,-3.45201 -0.25787,-4.8227 -1.30094,-6.97962 -1.63301,-3.37686 -5.08243,-6.79632 -8.26002,-8.188267 -1.82568,-0.79974 -3.22355,-0.97986 -7.61436,-0.981137 l -4.12582,-0.0012 -1.80165,0.899926 c -3.80476,1.900468 -7.54079,5.292718 -11.07185,10.053018 -0.26285,0.35436 -0.43666,0.64429 -0.38625,0.64429 0.0504,0 0.38818,-0.40551 0.75059,-0.90114 1.03784,-1.41934 3.1722,-3.94481 3.25983,-3.85718 0.21271,0.21271 -7.35317,11.43808 -9.22618,13.68873 -1.39402,1.67508 -1.66112,1.3488 -1.82532,-2.22978 -0.11438,-2.49269 0.15699,-6.48398 0.64537,-9.4923 2.06256,-12.704864 8.57827,-20.602164 18.46866,-22.384747 2.14061,-0.385811 7.61772,-0.526339 10.06212,-0.258168 3.50481,0.384505 6.96683,1.502138 10.98134,3.545068 7.55695,3.845635 14.3009,11.003872 18.7612,19.913697 4.62926,9.24735 10.95427,33.27302 13.00392,49.39564 0.56331,4.43103 0.70904,8.47888 0.71058,19.73696 0.002,15.50817 -0.4215,22.93528 -1.74005,30.50694 -0.18724,1.07523 -0.2188,1.12757 -0.67984,1.12757 -0.26591,0 -0.52247,-0.0967 -0.57013,-0.21477 -0.0693,-0.17181 -0.0894,-0.17181 -0.10023,0 -0.0108,0.17092 -5.97708,0.21477 -29.22228,0.21477 h -29.20872 z m 59.26584,-5.40878 c -0.0436,-0.16717 -0.0821,-0.072 -0.0856,0.21149 -0.004,0.28349 0.0321,0.42026 0.0792,0.30394 0.0471,-0.11632 0.0499,-0.34826 0.006,-0.51543 z m 0.17426,-1.97709 c -0.0411,-0.21372 -0.0763,-0.0793 -0.0782,0.29866 -0.002,0.37799 0.0317,0.55285 0.0747,0.38858 0.043,-0.16426 0.0446,-0.47352 0.003,-0.68724 z m 0.17358,-2.31909 c -0.0395,-0.26116 -0.0729,-0.0883 -0.0742,0.38421 -10e-4,0.47248 0.031,0.68616 0.0718,0.47484 0.0408,-0.21131 0.0418,-0.59789 0.002,-0.85905 z m 0.17159,-2.57953 c -0.0394,-0.25986 -0.0716,-0.0472 -0.0716,0.47248 0,0.51973 0.0322,0.73235 0.0716,0.47248 0.0394,-0.25986 0.0394,-0.68509 0,-0.94496 z m 0.16781,-2.57389 c -0.0436,-0.16717 -0.0821,-0.072 -0.0856,0.21149 -0.004,0.28349 0.0321,0.42026 0.0792,0.30394 0.0471,-0.11632 0.0499,-0.34826 0.006,-0.51543 z m -60.64145,-18.639 c -0.0348,-0.49927 -0.0637,-0.13461 -0.0641,0.81035 -4.5e-4,0.94496 0.028,1.35345 0.0633,0.90776 0.0353,-0.44568 0.0356,-1.21883 8.1e-4,-1.71811 z m -0.17329,-3.69586 c -0.0372,-0.35647 -0.0682,-0.10692 -0.069,0.55456 -7.6e-4,0.66147 0.0297,0.95312 0.0676,0.64812 0.038,-0.30501 0.0386,-0.84621 10e-4,-1.20268 z m 60.81411,-7.21989 c -0.0432,-0.16537 -0.0786,-0.0301 -0.0786,0.30067 0,0.33074 0.0354,0.46604 0.0786,0.30067 0.0432,-0.16537 0.0432,-0.43597 0,-0.60134 z m -0.16873,-2.31744 c -0.0411,-0.21372 -0.0763,-0.0793 -0.0782,0.29866 -0.002,0.37799 0.0317,0.55285 0.0747,0.38858 0.043,-0.16427 0.0446,-0.47353 0.003,-0.68724 z m -0.17181,-2.06173 c -0.0411,-0.21372 -0.0763,-0.0793 -0.0782,0.29866 -0.002,0.37799 0.0317,0.55285 0.0747,0.38858 0.043,-0.16427 0.0446,-0.47353 0.003,-0.68724 z m -0.17489,-1.63421 c -0.0432,-0.16537 -0.0786,-0.0301 -0.0786,0.30067 0,0.33073 0.0354,0.46603 0.0786,0.30067 0.0432,-0.16537 0.0432,-0.43597 0,-0.60134 z m -0.17118,-1.54303 c -0.0436,-0.16717 -0.0821,-0.072 -0.0856,0.21149 -0.004,0.28349 0.0321,0.42026 0.0792,0.30394 0.0471,-0.11632 0.0499,-0.34826 0.006,-0.51543 z m -0.17244,-1.54957 c -0.0432,-0.16537 -0.0786,-0.0301 -0.0786,0.30067 0,0.33074 0.0354,0.46604 0.0786,0.30067 0.0432,-0.16537 0.0432,-0.43597 0,-0.60134 z m -0.17646,-1.28858 c -0.0477,-0.11812 -0.0867,-0.0215 -0.0867,0.21476 0,0.23624 0.039,0.33289 0.0867,0.21477 0.0477,-0.11812 0.0477,-0.31141 0,-0.42953 z m -0.16654,-1.28531 c -0.0436,-0.16717 -0.0821,-0.072 -0.0856,0.21149 -0.004,0.28349 0.0321,0.42026 0.0792,0.30394 0.0471,-0.11632 0.0499,-0.34827 0.006,-0.51543 z m -0.17708,-1.29185 c -0.0477,-0.11812 -0.0867,-0.0215 -0.0867,0.21476 0,0.23624 0.039,0.33288 0.0867,0.21476 0.0477,-0.11812 0.0477,-0.3114 0,-0.42952 z m -0.16654,-1.11351 c -0.0436,-0.16716 -0.0821,-0.072 -0.0856,0.2115 -0.003,0.28349 0.0321,0.42026 0.0792,0.30394 0.0471,-0.11632 0.0499,-0.34827 0.006,-0.51544 z m -0.17709,-1.12004 c -0.0477,-0.11812 -0.0867,-0.0215 -0.0867,0.21477 0,0.23624 0.039,0.33288 0.0867,0.21476 0.0477,-0.11812 0.0477,-0.31141 0,-0.42953 z m -0.17181,-1.03086 c -0.0477,-0.11812 -0.0867,-0.0215 -0.0867,0.21476 0,0.23624 0.039,0.33289 0.0867,0.21477 0.0477,-0.11812 0.0477,-0.31141 0,-0.42953 z m -0.17181,-1.03087 c -0.0477,-0.11812 -0.0867,-0.0215 -0.0867,0.21477 0,0.23624 0.039,0.33288 0.0867,0.21476 0.0477,-0.11812 0.0477,-0.31141 0,-0.42953 z m -0.51185,-2.73823 c -0.0548,-0.13706 -0.0956,-0.0964 -0.1038,0.1038 -0.007,0.18112 0.0331,0.28259 0.0902,0.2255 0.0571,-0.0571 0.0632,-0.20528 0.0135,-0.3293 z m -0.17181,-0.85906 c -0.0548,-0.13706 -0.0956,-0.0964 -0.1038,0.1038 -0.007,0.18112 0.0331,0.2826 0.0902,0.22551 0.0571,-0.0571 0.0632,-0.20528 0.0135,-0.32931 z m -0.17181,-0.85905 c -0.0549,-0.13706 -0.0956,-0.0964 -0.1038,0.1038 -0.007,0.18112 0.0331,0.28259 0.0902,0.2255 0.0571,-0.0571 0.0632,-0.20528 0.0136,-0.3293 z M 341.4621,116.61394 c 0.0642,-0.55523 -0.0113,-0.37715 -0.23775,0.56111 -0.18248,0.75597 -0.32856,1.4518 -0.32464,1.5463 0.0155,0.37442 0.47414,-1.34397 0.56239,-2.10741 z m 0.22254,-2.31364 c -0.0382,-0.30881 -0.0703,-0.0976 -0.0713,0.4694 -10e-4,0.56697 0.0303,0.81963 0.0695,0.56146 0.0392,-0.25817 0.04,-0.72206 0.002,-1.03086 z m -0.005,-2.66615 c -0.40289,-5.20003 -4.94641,-11.27212 -10.19739,-13.628072 -2.77885,-1.246787 -6.32832,-1.613521 -9.2218,-0.952804 -0.73996,0.168966 -1.3146,0.337991 -1.27698,0.375611 0.0376,0.03762 0.64304,-0.05552 1.34538,-0.206974 2.80627,-0.60516 6.08609,-0.302593 8.78525,0.81045 5.35949,2.210079 9.9525,8.258409 10.39422,13.687689 0.0557,0.6851 0.1403,1.24563 0.18791,1.24563 0.0476,0 0.0402,-0.59919 -0.0166,-1.33153 z m -41.58046,-1.62147 c -0.0548,-0.13706 -0.0956,-0.0963 -0.1038,0.10381 -0.007,0.18111 0.0332,0.28259 0.0902,0.2255 0.0571,-0.0571 0.0632,-0.20528 0.0136,-0.32931 z m 4.76147,-14.185136 c 0.2492,-0.496104 0.41444,-0.902007 0.36719,-0.902007 -0.0969,0 -0.95075,1.640789 -0.95075,1.826938 0,0.194497 0.10429,0.0292 0.58356,-0.924931 z m 41.68193,-1.654119 c 0,-0.03568 -0.1353,-0.170979 -0.30067,-0.300669 -0.2725,-0.213711 -0.27858,-0.207634 -0.0649,0.06487 0.22445,0.286194 0.36554,0.377207 0.36554,0.235801 z M 307.45565,91.83294 c 0.17104,-0.188992 0.27232,-0.343622 0.22507,-0.343622 -0.0473,0 -0.22584,0.15463 -0.39688,0.343622 -0.17103,0.188992 -0.27231,0.343622 -0.22507,0.343622 0.0473,0 0.22585,-0.15463 0.39688,-0.343622 z m 1.11677,-1.288582 c 0.22194,-0.23624 0.36487,-0.429527 0.31762,-0.429527 -0.0473,0 -0.26749,0.193287 -0.48943,0.429527 -0.22193,0.23624 -0.36486,0.429527 -0.31761,0.429527 0.0472,0 0.26749,-0.193287 0.48942,-0.429527 z m 18.16543,-5.859468 c -0.0571,-0.05709 -0.20528,-0.06319 -0.3293,-0.01356 -0.13706,0.05485 -0.0963,0.09556 0.1038,0.103802 0.18111,0.0075 0.28259,-0.03315 0.2255,-0.09024 z m -2.1417,-0.188952 c -0.21131,-0.04078 -0.59789,-0.04184 -0.85905,-0.0023 -0.26116,0.03949 -0.0883,0.07286 0.38421,0.07415 0.47248,0.0013 0.68616,-0.03102 0.47484,-0.0718 z"
       id="path305"
       transform="translate(0,642.36)" />
    <path
       style="fill:#000000;stroke-width:0.129223"
       d=""
       id="path307"
       transform="translate(0,642.36)" />
    <path
       style="fill:#000000;stroke-width:0.0646117"
       d="m 258.23182,155.29242 c 2.9349,-1.43541 6.38634,-3.1791 7.67815,-3.87904 9.0292,-4.8923 17.1241,-10.46118 23.25911,-16.0011 0.82614,-0.746 1.05696,-0.87278 0.51134,-0.28084 -0.19707,0.21379 -0.34161,0.41674 -0.3212,0.451 0.0811,0.13615 -4.76554,4.12798 -7.62474,6.27992 -4.10935,3.09286 -8.67408,6.15052 -12.01018,8.04496 -2.37826,1.35052 -6.35437,3.28028 -10.19664,4.94882 -1.7962,0.78002 -2.44589,0.99875 -1.29584,0.43628 z"
       id="path311"
       transform="translate(0,642.36)" />
    <path
       style="fill:#000000;stroke-width:0.0646117"
       d=""
       id="path313"
       transform="translate(0,642.36)" />
    <path
       style="fill:#000000;stroke-width:0.0646117"
       d="m 216.81392,194.19192 c -2.87729,-0.36552 -5.91168,-2.01924 -7.80156,-4.25181 -1.46159,-1.72663 -2.35295,-3.52211 -2.8005,-5.64109 -0.30891,-1.46259 -0.39208,-4.19877 -0.17053,-5.61046 0.54398,-3.46618 2.83629,-6.90165 5.75859,-8.63034 1.84399,-1.09081 3.5083,-1.56124 13.10058,-3.70293 2.76401,-0.61713 5.90728,-1.33742 6.98506,-1.60066 1.07777,-0.26323 1.98047,-0.45771 2.006,-0.43218 0.0476,0.0476 -2.28775,0.81067 -4.35216,1.42198 -2.59391,0.76809 -6.32687,1.77673 -9.47178,2.55925 -1.83124,0.45565 -3.31488,0.84312 -3.29697,0.86103 0.0507,0.0507 2.61691,-0.5292 5.08021,-1.14794 13.47786,-3.38546 33.57775,-10.74812 44.75674,-16.39456 2.54492,-1.28543 3.66742,-1.91297 5.75567,-3.21776 12.18952,-7.61632 23.93767,-18.01272 32.76593,-28.99586 1.50245,-1.86918 2.24618,-2.84197 3.87496,-5.06842 2.43875,-3.33361 4.92445,-6.52733 6.7323,-8.64989 l 0.78222,-0.91839 7.8174,-0.005 7.81739,-0.005 0.77522,0.79473 c 1.20684,1.23722 2.23061,2.87955 2.73425,4.3863 0.32019,0.95788 0.47966,1.83014 0.56841,3.10906 l 0.0775,1.11677 -0.0326,-1.11677 c -0.018,-0.61422 -0.0948,-1.43816 -0.17065,-1.83097 -0.39408,-2.03964 -1.41271,-3.92555 -3.03094,-5.61151 l -0.81335,-0.8474 h 0.81244 0.81244 l 0.59406,0.69396 c 1.5856,1.85226 2.74485,4.17643 3.17236,6.36026 0.80811,4.12785 -0.66495,8.35872 -5.40638,15.52808 -8.56818,12.95568 -19.86096,24.83654 -33.02811,34.74812 -14.50829,10.92111 -30.97946,19.4338 -49.19023,25.42267 -8.67851,2.85406 -20.74162,5.87419 -26.15821,6.549 -1.2343,0.15377 -6.15101,0.24304 -7.05572,0.12812 z m 4.95103,-0.94879 c 7.86794,-0.49517 21.58169,-3.98183 33.73505,-8.57698 20.18349,-7.63131 39.70815,-19.48993 54.61596,-33.17187 3.18084,-2.91927 7.60054,-7.37087 10.1495,-10.22275 3.52699,-3.94612 7.96482,-9.76266 10.6681,-13.98236 3.06545,-4.78503 5.0558,-9.47951 5.25331,-12.39061 0.0417,-0.61408 0.038,-0.60475 -0.0783,0.19899 -0.58373,4.03318 -2.87991,8.79071 -7.30608,15.13769 -2.86254,4.1048 -5.84816,7.86066 -9.38762,11.80944 -1.74575,1.94765 -7.33879,7.55606 -9.37297,9.39874 -19.52438,17.68632 -44.45777,31.23359 -70.29847,38.19585 -7.21729,1.94456 -12.20626,2.96286 -16.62282,3.3929 -1.5859,0.15442 -4.64376,0.17589 -5.74262,0.0403 -3.12903,-0.38601 -5.19667,-1.39353 -6.86662,-3.34594 -1.78662,-2.08881 -2.80488,-4.1655 -3.26656,-6.66201 -0.0612,-0.33073 -0.11434,-0.48536 -0.11818,-0.34362 -0.0126,0.46591 0.40333,2.07951 0.77955,3.02425 0.80738,2.02739 2.45561,4.26737 4.00531,5.4433 2.18053,1.6546 5.4332,2.33285 9.85349,2.05466 z M 207.0937,181.75448 c -0.0197,-0.12993 -0.0358,-0.0236 -0.0358,0.23624 0,0.25987 0.0161,0.36618 0.0358,0.23624 0.0197,-0.12993 0.0197,-0.34254 0,-0.47248 z m 0,-1.97582 c -0.0197,-0.12993 -0.0358,-0.0236 -0.0358,0.23624 0,0.25986 0.0161,0.36617 0.0358,0.23624 0.0197,-0.12993 0.0197,-0.34255 0,-0.47248 z m 0.0839,-0.68561 c -0.0218,-0.0836 -0.041,-0.036 -0.0428,0.10575 -0.002,0.14174 0.0161,0.21013 0.0396,0.15197 0.0235,-0.0582 0.025,-0.17414 0.003,-0.25772 z m 0.83004,-2.76124 c 1.2587,-2.95743 3.81443,-5.37366 6.97078,-6.5903 0.28349,-0.10928 0.47172,-0.20057 0.41828,-0.20288 -0.0534,-0.002 -0.35424,0.0926 -0.66845,0.21084 -2.06235,0.77626 -3.99464,2.22784 -5.336,4.00852 -1.02462,1.36018 -1.97954,3.50629 -2.14986,4.83162 -0.0248,0.19331 0.0683,-0.0738 0.20696,-0.59349 0.13867,-0.51973 0.3899,-1.26867 0.55829,-1.66431 z m 8.62267,-7.107 c -0.0285,-0.0285 -0.10264,-0.0316 -0.16465,-0.007 -0.0685,0.0274 -0.0482,0.0478 0.0519,0.0519 0.0906,0.004 0.1413,-0.0166 0.11275,-0.0451 z"
       id="path315"
       transform="translate(0,642.36)" />
    <path
       style="fill:#000000;stroke-width:0.0646117"
       d="m 216.70811,194.17774 c -2.79997,-0.35958 -5.85455,-2.03723 -7.68652,-4.22162 -1.5845,-1.88932 -2.46069,-3.72729 -2.9071,-6.09817 -0.19493,-1.03531 -0.21885,-4.60029 -0.037,-5.51821 0.72535,-3.66177 3.27365,-7.10118 6.43054,-8.6792 1.57994,-0.78976 4.09686,-1.46305 12.34955,-3.30357 2.78763,-0.6217 5.93627,-1.3408 6.99697,-1.59801 1.0607,-0.2572 1.96915,-0.45329 2.01878,-0.43574 0.14238,0.0504 -2.65466,0.94019 -5.75134,1.82971 -2.82499,0.81148 -6.27036,1.72926 -9.17469,2.44397 -0.84101,0.20696 -1.491,0.38899 -1.44442,0.40452 0.0466,0.0155 0.93999,-0.16983 1.98539,-0.4119 15.28534,-3.53942 40.66745,-13.00716 50.85625,-18.9698 7.8648,-4.6026 16.81003,-11.5019 24.18183,-18.65103 5.56497,-5.39686 9.53249,-9.96241 14.56242,-16.75738 2.86417,-3.86922 4.95281,-6.54419 6.82795,-8.74469 l 0.60067,-0.70491 h 7.81616 7.81616 l 0.68912,0.66577 0.68913,0.66577 -0.64212,-0.66577 -0.64213,-0.66577 h 0.82613 0.82614 l 0.59984,0.70872 c 1.60284,1.89378 2.65835,4.00571 3.16641,6.33553 0.23704,1.08708 0.21882,3.42317 -0.0359,4.603 -0.62575,2.89818 -2.32703,6.32804 -5.55721,11.20361 -3.53525,5.33603 -7.37522,10.27181 -12.09684,15.54888 -2.0961,2.3427 -7.61992,7.89104 -9.99146,10.03582 -13.76123,12.44543 -29.63979,22.37274 -47.63477,29.78138 -8.14424,3.35303 -16.62905,6.11726 -26.06303,8.49096 -6.53183,1.64348 -10.93837,2.51027 -13.80393,2.71532 -1.47976,0.10588 -4.92387,0.10159 -5.77094,-0.007 z m 4.92798,-0.93588 c 8.24218,-0.5093 22.20389,-4.10275 34.90875,-8.98477 20.10819,-7.72684 39.6711,-19.79658 54.43294,-33.58351 1.64992,-1.54096 6.63113,-6.51711 7.94972,-7.94165 6.1063,-6.59694 12.50279,-15.4628 15.04595,-20.85444 0.73431,-1.55677 1.74021,-4.17758 1.64135,-4.27644 -0.0195,-0.0195 -0.12437,0.24388 -0.23298,0.58535 -1.84003,5.78498 -8.09515,15.11226 -16.1126,24.02621 -2.525,2.80734 -7.3633,7.58462 -10.56794,10.43467 -15.44513,13.73611 -35.00925,25.30989 -55.19426,32.65194 -9.93014,3.61197 -21.9209,6.74905 -29.03604,7.59653 -1.73732,0.20694 -2.82877,0.27267 -4.72481,0.28452 -1.2934,0.008 -1.77184,0.0316 -1.33153,0.0656 1.14584,0.0882 1.74128,0.0875 3.22145,-0.004 z m -3.9588,-0.1158 c -0.0197,-0.0178 -0.3064,-0.0534 -0.63714,-0.0791 -0.38712,-0.0301 -0.49423,-0.0226 -0.30067,0.0211 0.31597,0.0713 0.99916,0.11355 0.93781,0.0581 z m -2.18344,-0.39023 c -0.51972,-0.13363 -1.09586,-0.30635 -1.28029,-0.38379 -0.18444,-0.0774 -0.35033,-0.12583 -0.36866,-0.10749 -0.0952,0.0952 1.95936,0.7272 2.37915,0.73187 0.11812,0.001 -0.21047,-0.10695 -0.7302,-0.24059 z m -2.31944,-0.84765 c -0.89869,-0.47939 -1.37243,-0.83237 -2.11859,-1.57853 -1.4635,-1.4635 -2.74986,-3.53263 -3.3414,-5.3747 -0.10966,-0.34147 -0.21537,-0.60486 -0.23492,-0.58531 -0.084,0.0839 0.474,1.54233 0.938,2.45179 0.85753,1.68077 2.28748,3.47729 3.46806,4.35707 0.56365,0.42005 1.64995,1.05305 1.80428,1.05138 0.0472,-8.6e-4 -0.1847,-0.14527 -0.51543,-0.3217 z m -5.73994,-7.85183 c -0.0274,-0.0685 -0.0478,-0.0482 -0.0519,0.0519 -0.004,0.0906 0.0166,0.1413 0.0451,0.11275 0.0285,-0.0285 0.0316,-0.10264 0.007,-0.16465 z m -0.11023,-0.57664 c -0.0315,-0.19689 -0.0753,-0.33995 -0.0973,-0.31793 -0.022,0.022 -0.013,0.19988 0.02,0.39524 0.033,0.19536 0.0768,0.33843 0.0973,0.31793 0.0205,-0.0205 0.0115,-0.19836 -0.02,-0.39524 z m -0.14927,-0.71731 c -0.0238,-0.0591 -0.0433,-0.0107 -0.0433,0.10738 0,0.11812 0.0195,0.16644 0.0433,0.10738 0.0238,-0.0591 0.0238,-0.1557 0,-0.21476 z m -0.0841,-0.76778 c -0.0274,-0.0685 -0.0478,-0.0482 -0.0519,0.0519 -0.004,0.0906 0.0166,0.14129 0.0451,0.11275 0.0285,-0.0286 0.0316,-0.10264 0.007,-0.16465 z m 0.25772,-3.77984 c -0.0274,-0.0685 -0.0478,-0.0482 -0.0519,0.0519 -0.004,0.0906 0.0166,0.14129 0.0451,0.11275 0.0285,-0.0285 0.0316,-0.10264 0.007,-0.16465 z m 0.18695,-0.58523 c 0,-0.0812 -0.0273,-0.0654 -0.0738,0.0429 -0.0406,0.0945 -0.0738,0.22979 -0.0738,0.30067 0,0.0812 0.0273,0.0653 0.0738,-0.043 0.0406,-0.0945 0.0738,-0.22979 0.0738,-0.30066 z m 0.52142,-1.41745 c 0,-0.0472 -0.0552,0.0107 -0.12277,0.12886 -0.0675,0.11812 -0.12277,0.25342 -0.12277,0.30067 0,0.0472 0.0553,-0.0107 0.12277,-0.12886 0.0675,-0.11812 0.12277,-0.25342 0.12277,-0.30067 z m 1.14791,-2.01235 c 0.61031,-0.89437 2.08691,-2.34816 3.04563,-2.99858 0.43679,-0.29634 1.22927,-0.75205 1.76106,-1.01269 0.53178,-0.26064 0.87024,-0.44853 0.75212,-0.41754 -0.39581,0.10387 -1.75456,0.79847 -2.40536,1.22964 -1.26846,0.84039 -2.49104,2.04691 -3.32228,3.27865 -0.32334,0.47914 -0.97341,1.6621 -0.97178,1.76839 6.6e-4,0.0432 0.15767,-0.20846 0.34889,-0.55929 0.19123,-0.35083 0.5475,-0.93069 0.79172,-1.28858 z m 8.11271,-5.12675 c -0.0285,-0.0285 -0.10264,-0.0316 -0.16466,-0.007 -0.0685,0.0274 -0.0482,0.0478 0.0519,0.0519 0.0905,0.004 0.14129,-0.0166 0.11275,-0.0451 z m 118.37377,-51.7652 c -0.0274,-0.0685 -0.0478,-0.0482 -0.0519,0.0519 -0.004,0.0906 0.0166,0.1413 0.0451,0.11276 0.0285,-0.0285 0.0316,-0.10264 0.007,-0.16466 z m 0.18443,-0.62818 c -0.002,-0.13812 -0.016,-0.1297 -0.0713,0.0429 -0.0941,0.29373 -0.0941,0.51958 0,0.30067 0.0406,-0.0945 0.0727,-0.24913 0.0713,-0.34362 z m 0.0715,-0.49396 c -0.0238,-0.0591 -0.0433,-0.0107 -0.0433,0.10738 0,0.11812 0.0195,0.16645 0.0433,0.10739 0.0238,-0.0591 0.0238,-0.15571 0,-0.21477 z m 0.0859,-0.42952 c -0.0238,-0.0591 -0.0433,-0.0107 -0.0433,0.10738 0,0.11812 0.0195,0.16644 0.0433,0.10738 0.0238,-0.0591 0.0238,-0.1557 0,-0.21476 z m 0.0885,-0.47085 c -0.0218,-0.0836 -0.041,-0.036 -0.0428,0.10575 -0.002,0.14174 0.0161,0.21013 0.0396,0.15197 0.0235,-0.0582 0.025,-0.17414 0.003,-0.25772 z m 0.0851,-0.55465 c -0.0274,-0.0685 -0.0478,-0.0482 -0.0519,0.0519 -0.004,0.0906 0.0166,0.1413 0.0451,0.11275 0.0285,-0.0286 0.0316,-0.10264 0.007,-0.16465 z m 0.088,-1.72248 c -0.0205,-0.10686 -0.0381,-0.0397 -0.0391,0.14933 -9.5e-4,0.189 0.0159,0.27643 0.0374,0.19429 0.0215,-0.0821 0.0223,-0.23676 0.002,-0.34362 z m -0.086,-1.03187 c -0.0205,-0.1063 -0.0372,-0.0193 -0.0372,0.19329 0,0.21262 0.0168,0.2996 0.0372,0.19329 0.0205,-0.10631 0.0205,-0.28027 0,-0.38658 z m -0.23497,-1.27785 c -0.35206,-1.38041 -1.0429,-2.78761 -1.94248,-3.95668 -0.20828,-0.27069 -0.42543,-0.52103 -0.48254,-0.55633 -0.0571,-0.0353 0.036,0.10798 0.20699,0.31839 1.06543,1.31133 1.95744,3.17594 2.23813,4.67846 0.0612,0.32768 0.12301,0.51475 0.13734,0.4157 0.0143,-0.099 -0.0565,-0.50384 -0.15744,-0.89954 z"
       id="path317"
       transform="translate(0,642.36)" />
    <path
       style="fill:#000000;stroke-width:0.0228437"
       d="m 311.31472,157.41937 c 0,-0.0101 0.18666,-0.21933 0.41481,-0.46497 0.77036,-0.82943 1.40752,-1.58346 1.40752,-1.66569 0,-0.0833 -0.42235,0.25083 -1.27194,1.00637 -0.23835,0.21197 -0.43922,0.37956 -0.44636,0.37241 -0.007,-0.007 0.31123,-0.31252 0.7075,-0.67861 4.81801,-4.45104 9.61301,-9.50886 14.11429,-14.88792 l 0.51422,-0.6145 h 0.18046 c 0.16748,0 0.17747,0.004 0.13884,0.0532 -0.0818,0.10438 -1.14119,1.3035 -1.46849,1.66211 -1.05026,1.15072 -5.00481,5.4031 -7.07609,7.609 -2.30211,2.45174 -7.15218,7.58832 -7.18309,7.60742 -0.0174,0.0108 -0.0317,0.0113 -0.0317,10e-4 z"
       id="path319"
       transform="translate(0,642.36)" />
    <path
       style="fill:#000000;stroke-width:0.0228437"
       d=""
       id="path321"
       transform="translate(0,642.36)" />
    <path
       style="fill:#000000;stroke-width:0.0228437"
       d="m 310.26976,180.90422 c -0.008,-0.0543 -0.0231,-0.31055 -0.0328,-0.56947 -0.0262,-0.69302 -0.13326,-2.69004 -0.16771,-3.12834 -0.0486,-0.61818 -0.066,-0.75105 -0.0897,-0.68337 -0.0117,0.0334 -0.004,0.51177 0.0172,1.06303 0.0411,1.07003 0.054,2.25416 0.0243,2.22444 -0.01,-0.01 -0.0305,-0.22745 -0.0458,-0.48342 -0.0814,-1.36323 -0.39855,-4.325 -0.85003,-7.93695 -0.40135,-3.21099 -0.67068,-5.16425 -1.2731,-9.23314 l -0.27431,-1.8527 0.19039,-0.18024 c 0.10472,-0.0991 0.46377,-0.44082 0.7979,-0.7593 2.00653,-1.91261 4.46516,-4.11185 4.52733,-4.04968 0.0402,0.0402 -0.81032,1.01909 -1.85558,2.13554 -0.68057,0.72692 -1.0774,1.17331 -1.07625,1.21067 10e-4,0.0446 0.31013,-0.27552 2.41432,-2.50316 7.92897,-8.39414 12.60899,-13.41743 14.21458,-15.25722 l 0.36169,-0.41445 h 9.36303 9.36303 v 20.25824 20.25823 h -17.79672 -17.79671 z m -0.35484,-7.49222 c -0.0157,-0.3914 -0.034,-0.71715 -0.0408,-0.72389 -0.0565,-0.0565 -0.0523,1.24843 0.006,1.83037 l 0.0213,0.2126 0.0211,-0.30372 c 0.0116,-0.16705 0.008,-0.62396 -0.007,-1.01536 z m -0.16481,-3.66195 c -0.009,-0.25057 -0.0252,-0.51709 -0.0356,-0.59226 l -0.0188,-0.13668 -0.0256,0.10631 c -0.0267,0.1109 -0.007,1.09073 0.0261,1.27563 l 0.0188,0.1063 0.0259,-0.15186 c 0.0143,-0.0835 0.0184,-0.35687 0.009,-0.60744 z"
       id="path323"
       transform="translate(0,642.36)" />
    <path
       style="fill:#000000;stroke-width:0.0228437"
       d="m 310.26975,180.9346 c -0.007,-0.0376 -0.0424,-0.68338 -0.0777,-1.43509 -0.0744,-1.58326 -0.14444,-2.67532 -0.18408,-2.87017 -0.0187,-0.092 -0.0231,0.0717 -0.0136,0.50114 0.0404,1.80789 0.0508,2.70111 0.0312,2.68302 -0.012,-0.0111 -0.0409,-0.3049 -0.0643,-0.653 -0.19792,-2.94082 -1.01312,-9.53818 -2.05007,-16.59115 -0.18279,-1.24322 -0.33234,-2.26261 -0.33234,-2.2653 0,-0.008 1.49281,-1.42412 2.05139,-1.94597 1.71113,-1.5986 3.41308,-3.09302 3.46425,-3.04185 0.0396,0.0396 -0.79531,0.99908 -1.95002,2.2409 -0.76104,0.81847 -1.00189,1.09189 -0.96183,1.09189 0.0385,0 1.54197,-1.58387 6.09793,-6.42391 5.96969,-6.34191 9.04982,-9.66135 10.4767,-11.29066 l 0.39234,-0.44799 h 9.36427 9.36428 v 20.25824 20.25823 h -17.79751 -17.79752 z m -0.3707,-7.82843 c -0.0198,-0.38653 -0.0258,-0.42182 -0.0488,-0.28854 -0.0276,0.15968 -0.007,1.27676 0.0303,1.6401 0.0323,0.31432 0.0473,-0.78795 0.0185,-1.35156 z m -0.1611,-3.51816 c -0.0275,-0.51689 -0.0589,-0.70737 -0.0679,-0.4125 -0.009,0.30585 0.008,1.06467 0.0267,1.18198 l 0.0197,0.12149 0.0248,-0.18224 c 0.0136,-0.10022 0.0122,-0.41916 -0.003,-0.70873 z"
       id="path325"
       transform="translate(0,642.36)" />
    <path
       style="fill:#000000;stroke-width:0.0228437"
       d="m 309.70739,169.53491 c 0.001,-0.0354 0.009,-0.0426 0.0183,-0.0183 0.009,0.0219 0.008,0.0481 -0.002,0.0582 -0.0101,0.0101 -0.0173,-0.008 -0.016,-0.0399 z"
       id="path327"
       transform="translate(0,642.36)" />
    <path
       style="fill:#000000;stroke-width:0.0228437"
       d="m 310.26907,180.9346 c -0.008,-0.0376 -0.0359,-0.53303 -0.0624,-1.10099 -0.0965,-2.06408 -0.17236,-3.19111 -0.21753,-3.23232 -0.0106,-0.01 -0.0104,0.20801 4e-4,0.48363 0.0108,0.27563 0.0257,1.00684 0.0332,1.62492 0.0149,1.23411 -0.0104,1.27244 -0.0903,0.13667 -0.21376,-3.04094 -1.08878,-9.98946 -2.20274,-17.49197 -0.0829,-0.5583 -0.15072,-1.0246 -0.15072,-1.03624 0,-0.0416 2.1473,-2.06483 3.37189,-3.17705 1.23954,-1.1258 2.10518,-1.86359 2.14262,-1.82615 0.0456,0.0456 -0.58705,0.77359 -1.96096,2.25644 -0.71398,0.7706 -0.9712,1.06238 -0.92076,1.04448 0.0432,-0.0153 0.4803,-0.47225 2.77236,-2.89792 7.04424,-7.45485 11.96617,-12.7364 13.6355,-14.63179 l 0.52831,-0.59985 h 9.36517 9.36518 v 20.25824 20.25823 h -17.79751 -17.79752 z m -0.37061,-7.73731 c -0.0196,-0.39443 -0.0269,-0.44368 -0.0454,-0.30372 -0.0247,0.18777 -0.005,1.20141 0.0277,1.45786 0.0333,0.25756 0.0461,-0.58014 0.0177,-1.15414 z m -0.18924,-3.97993 c -0.0217,-0.13067 -0.0282,-0.0434 -0.0307,0.4112 -0.002,0.31739 0.007,0.63174 0.0192,0.69856 0.0335,0.1812 0.0448,-0.90902 0.0115,-1.10976 z"
       id="path329"
       transform="translate(0,642.36)" />
    <path
       style="fill:#000000;stroke-width:0.0228437"
       d="m 258.43678,168.19165 v -12.81128 l 0.69096,-0.29938 c 5.07569,-2.19916 9.07321,-4.17486 11.91349,-5.88804 3.82504,-2.30716 8.16386,-5.29463 11.8907,-8.18729 l 0.66819,-0.51863 18.61623,-2.8e-4 18.61622,-2.9e-4 -0.0761,0.0835 c -0.0419,0.0459 -0.28703,0.32262 -0.54479,0.61486 -1.40815,1.59651 -2.97026,3.26641 -4.70414,5.02873 -0.52698,0.53563 -0.36362,0.3782 0.36304,-0.34985 1.93201,-1.93571 3.14931,-3.2186 4.46011,-4.70042 l 0.59685,-0.67472 0.70898,-0.001 0.70898,-0.001 -0.13191,0.15784 c -0.4805,0.57495 -2.08574,2.38289 -3.00144,3.38045 -2.81028,3.0615 -6.1212,6.36188 -9.11229,9.08328 -12.36112,11.24662 -26.61293,20.49747 -42.73388,27.73857 l -0.34953,0.157 -1.30197,-0.008 -1.30198,-0.008 0.74034,-0.33218 c 10.46533,-4.69563 20.48225,-10.41235 29.85206,-17.03676 6.08343,-4.30095 11.85509,-9.01974 16.78062,-13.71948 0.45103,-0.43036 0.94989,-0.91586 1.10858,-1.0789 0.1587,-0.16304 0.002,-0.023 -0.34928,0.31113 -7.76998,7.40141 -16.46659,14.09987 -26.10829,20.10959 -6.85441,4.2724 -13.79189,7.9717 -21.23902,11.3254 l -0.96902,0.43638 h -2.89584 -2.89584 z m 55.35327,-20.23363 c 0.26688,-0.26728 0.47841,-0.48596 0.47006,-0.48596 -0.008,0 -0.23355,0.21868 -0.50043,0.48596 -0.26688,0.26727 -0.47841,0.48595 -0.47006,0.48595 0.008,0 0.23355,-0.21868 0.50043,-0.48595 z"
       id="path331"
       transform="translate(0,642.36)" />
    <path
       style="fill:#000000;stroke-width:0.0228437"
       d="m 258.43678,168.1902 v -12.81274 l 0.96431,-0.41857 c 4.82561,-2.09458 8.74888,-4.03516 11.53383,-5.70501 3.80517,-2.28157 8.42407,-5.46328 12.1461,-8.3668 l 0.51355,-0.40062 h 18.61803 c 17.72863,0 18.61584,0.003 18.57227,0.0532 -0.83859,0.97426 -2.39598,2.67946 -3.71013,4.06228 -0.46814,0.49261 -0.50403,0.53567 -0.18983,0.22779 0.81032,-0.79401 2.49464,-2.58997 3.55326,-3.78878 l 0.48934,-0.55414 0.70871,-1.5e-4 0.7087,-1.5e-4 -0.0906,0.1139 c -0.26022,0.32715 -2.00248,2.29078 -3.01125,3.39388 -2.32837,2.54607 -5.43078,5.67179 -8.03502,8.09537 -12.41142,11.55046 -27.13111,21.22815 -43.52061,28.6133 l -0.66583,0.30002 -1.30836,-0.002 -1.30835,-0.002 0.18223,-0.0867 c 0.10023,-0.0477 0.61959,-0.28433 1.15414,-0.52592 16.58427,-7.49514 32.57311,-17.95942 44.81414,-29.32968 0.66819,-0.62065 2.17876,-2.06335 2.29309,-2.19007 0.0501,-0.0555 -0.16173,0.13793 -0.47076,0.42993 -2.15936,2.04028 -3.79992,3.51927 -5.84665,5.27084 -9.01789,7.71744 -19.33293,14.71979 -30.38735,20.62841 -3.43312,1.83501 -7.546,3.85159 -11.14212,5.46308 l -0.77002,0.34506 h -2.89742 -2.89741 z m 55.3229,-20.20181 c 0.0992,-0.10023 0.1735,-0.18224 0.16514,-0.18224 -0.008,0 -0.0963,0.082 -0.19551,0.18224 -0.0992,0.10023 -0.1735,0.18223 -0.16515,0.18223 0.008,0 0.0963,-0.082 0.19552,-0.18223 z m 2.3994,-2.3994 c 0.18318,-0.18376 0.32623,-0.3341 0.31787,-0.3341 -0.008,0 -0.16506,0.15034 -0.34824,0.3341 -0.18318,0.18375 -0.32623,0.33409 -0.31787,0.33409 0.008,0 0.16506,-0.15034 0.34824,-0.33409 z"
       id="path333"
       transform="translate(0,642.36)" />
    <path
       style="fill:#000000;stroke-width:0.0646117"
       d="m 274.75436,78.311133 c -6.33819,-2.854576 -12.33764,-7.605808 -16.22139,-12.846426 -3.49184,-4.711791 -6.04933,-11.306359 -6.86485,-17.701269 -1.29309,-10.139655 1.58812,-20.27449 8.03479,-28.262898 4.47579,-5.546188 10.45741,-9.7969472 17.55697,-12.4766417 3.52748,-1.3314292 7.64992,-1.9422742 13.14354,-1.9475543 2.62821,-0.00253 4.04995,0.083119 5.71271,0.3441295 4.68164,0.7348984 12.72744,4.2772151 16.36499,7.2049965 2.15391,1.733633 5.28265,4.912892 7.31533,7.433456 3.80939,4.723717 6.24171,10.11573 7.24153,16.053188 0.79658,4.730547 0.79373,10.829243 -0.007,14.915731 -0.81872,4.178401 -3.03557,9.264942 -5.84064,13.401252 -4.12978,6.089697 -10.26378,11.138568 -17.04856,14.032592 l -1.03736,0.442479 -1.66867,-0.0034 -1.66867,-0.0034 1.11677,-0.372147 c 13.43442,-4.47682 23.21944,-16.128669 25.07566,-29.859703 0.46266,-3.422402 0.40045,-7.582364 -0.16764,-11.209714 -1.05092,-6.71038 -3.66469,-12.713806 -7.76088,-17.82548 -0.83792,-1.045661 -2.98256,-3.249667 -4.09389,-4.207233 -7.49374,-6.456879 -17.46989,-9.4458741 -28.23638,-8.4600149 -4.96773,0.4548812 -9.44449,1.7244645 -13.80996,3.9164239 -3.51384,1.764342 -6.26133,3.747941 -9.02087,6.512756 -2.12477,2.128842 -3.71421,4.136573 -5.08534,6.423668 -4.59506,7.66469 -6.12627,16.624974 -4.49133,26.282166 1.51789,8.96585 6.05789,16.421676 13.3546,21.931671 3.54474,2.676751 8.11903,5.114162 12.11037,6.453005 l 1.25064,0.419512 -1.97583,-0.0021 -1.97582,-0.0021 -1.30285,-0.586775 z"
       id="path335"
       transform="translate(0,642.36)" />
    <path
       style="fill:#000000;stroke-width:0.0646117"
       d="m 286.49472,80.954839 c -4.03119,-0.19091 -6.38826,-0.6084 -9.23484,-1.635692 l -1.03086,-0.372026 1.90478,-0.0231 1.90479,-0.0231 1.14486,0.29838 c 1.34178,0.349704 3.00123,0.666285 4.62403,0.882144 1.66402,0.221343 6.39683,0.219697 8.11806,-0.0028 1.51203,-0.195475 3.09896,-0.497521 4.61479,-0.878351 1.14621,-0.287966 1.22406,-0.295963 2.83488,-0.291189 l 1.65631,0.0049 -0.68724,0.258888 c -1.90051,0.715928 -4.51368,1.362502 -6.3745,1.577234 -2.44455,0.282092 -6.15065,0.362172 -9.47506,0.204733 z"
       id="path337"
       transform="translate(0,642.36)" />
    <path
       style="fill:#000000;stroke-width:0.0646117"
       d="m 116.7298,80.967155 c -2.59666,-0.148203 -4.07741,-0.366645 -6.12652,-0.90379 -2.20502,-0.578015 -4.24314,-1.349509 -6.48586,-2.455104 -3.9653,-1.954778 -7.082053,-4.17459 -10.29508,-7.332358 -3.218495,-3.16314 -5.591052,-6.400957 -7.539221,-10.288734 -2.178033,-4.346497 -3.198319,-7.659617 -3.658517,-11.88011 -0.174656,-1.60177 -0.147733,-7.533744 0.04191,-9.234837 0.715107,-6.414404 2.428582,-11.27842 5.689334,-16.150227 1.721616,-2.572223 3.467947,-4.625855 6.289684,-7.396479 3.171511,-3.114061 4.930227,-4.349096 8.97271,-6.3009616 3.00962,-1.4531599 6.78279,-2.8550074 9.00382,-3.3451883 4.55515,-1.0053203 12.50512,-0.7774568 17.56767,0.5035274 3.7184,0.9408718 8.94164,3.4842649 12.56089,6.1163665 3.919,2.850093 7.25488,6.304308 9.77529,10.122066 3.34688,5.069618 5.36098,10.734294 6.01719,16.923376 0.19318,1.821964 0.19657,5.334183 0.007,7.230708 -0.66928,6.695228 -3.15772,13.535599 -6.75007,18.555052 -4.45431,6.223824 -12.24761,11.951625 -19.6068,14.410307 -2.27867,0.761295 -3.77237,1.047102 -6.77123,1.295618 -1.88965,0.156595 -6.91503,0.232198 -8.69218,0.130768 z m 7.61836,-0.726663 c 3.98578,-0.556509 7.55186,-1.678213 11.60452,-3.650186 4.6066,-2.241512 8.14059,-4.6884 11.29859,-7.822983 1.4484,-1.437659 2.2829,-2.385921 3.31502,-3.766935 4.08737,-5.469041 6.30021,-11.801257 6.81911,-19.513445 0.12458,-1.851674 0.057,-5.525586 -0.13105,-7.128293 -0.76358,-6.506497 -3.03887,-12.342174 -6.72806,-17.256182 -1.8838,-2.509226 -4.31385,-4.954494 -6.77869,-6.821141 C 135.69685,8.1844309 125.12573,5.6617341 114.17372,7.2238042 97.777213,9.5624161 86.296314,21.029291 84.191627,37.169277 c -0.7296,5.595002 -0.306999,11.774531 1.153138,16.861899 2.678998,9.334092 8.805731,16.466805 18.729705,21.805031 4.59464,2.471517 9.29873,4.028476 13.40125,4.435548 0.51973,0.05157 1.06093,0.109717 1.20268,0.129216 0.6006,0.08262 4.77482,-0.03552 5.66976,-0.160479 z"
       id="path339"
       transform="translate(0,642.36)" />
    <path
       style="fill:#000000;stroke-width:0.0646117"
       d="m 37.970848,166.2915 c 0.0062,-0.62552 0.294338,-5.34098 0.392447,-6.42143 0.540005,-5.94701 2.294299,-15.71755 4.426761,-24.65487 2.350558,-9.85137 5.725043,-20.74829 8.0606,-26.02936 2.740636,-6.19701 6.96825,-12.09501 11.693212,-16.313339 2.902345,-2.591142 5.692392,-4.443305 9.006986,-5.979255 4.29325,-1.989449 7.322436,-2.873927 10.911141,-3.185894 1.497561,-0.130183 6.026619,-0.05232 7.438072,0.127873 7.110351,0.907747 12.079313,3.991618 15.709313,9.749622 1.46895,2.330085 3.10951,6.225277 3.82098,9.072183 0.84824,3.39415 1.4717,8.65163 1.47204,12.41334 2.6e-4,2.42951 -0.19717,3.75964 -0.63312,4.26647 -0.20182,0.23463 -0.20245,0.23474 -0.44457,0.0761 -0.37793,-0.24763 -0.66445,-0.58301 -1.8385,-2.15198 -1.99574,-2.66707 -4.74994,-6.73722 -6.56877,-9.70732 -1.27871,-2.08809 -2.338481,-3.51802 -3.517558,-4.74618 -0.328807,-0.34249 -0.578069,-0.64247 -0.553916,-0.66662 0.05085,-0.0508 1.293291,1.22443 2.19568,2.25372 1.024334,1.16838 1.944854,2.35962 3.264304,4.22429 2.68147,3.78951 4.44696,6.05214 5.77856,7.40574 0.92182,0.93705 1.32022,1.19859 1.52058,0.99823 0.41396,-0.41396 0.2939,-3.72978 -0.28376,-7.83698 -0.94779,-6.73883 -3.07495,-12.096683 -6.5313,-16.450893 -0.76494,-0.963648 -2.72415,-2.912893 -3.639693,-3.621183 -1.85782,-1.437261 -4.119733,-2.694411 -6.134035,-3.409241 -8.140048,-2.888715 -17.579776,-0.875517 -26.295277,5.60796 -2.741744,2.039589 -5.8048,4.935727 -8.684188,8.210957 -3.136451,3.56763 -5.297378,7.05964 -7.215199,11.65959 -2.151042,5.15934 -5.498735,15.87341 -7.671086,24.55079 -2.368948,9.46268 -3.85328,19.04207 -4.30565,27.78723 -0.0501,0.96858 -0.112379,2.00267 -0.138391,2.29797 l -0.04729,0.53691 H 38.56472 c -0.326975,0 -0.594215,-0.029 -0.593867,-0.0644 z"
       id="path341"
       transform="translate(0,642.36)" />
    <path
       style="fill:#000000;stroke-width:0.0646117"
       d="m 114.78322,165.07288 c -12.94032,-9.13214 -23.992333,-19.83161 -32.926744,-31.87646 -6.325853,-8.52814 -9.007573,-13.43694 -9.613625,-17.5974 -0.164641,-1.13023 -0.0636,-3.20048 0.209211,-4.2865 1.184311,-4.71461 4.547205,-8.41847 8.997115,-9.90933 1.538362,-0.51539 2.266145,-0.62295 4.241522,-0.62682 1.564321,-0.003 1.923863,0.0225 2.706023,0.19204 2.558467,0.55474 4.822768,1.68899 6.411188,3.21153 1.169884,1.12137 1.920869,2.14714 3.853572,5.26362 4.284548,6.90881 9.547428,13.45666 16.319468,20.30397 4.33123,4.37937 8.02486,7.66325 11.98732,10.65751 16.14074,12.19686 36.58421,21.36799 57.21304,25.66629 l 1.15973,0.24165 -1.61914,0.0234 -1.61914,0.0234 -1.89813,-0.52428 c -14.88989,-4.11267 -28.57946,-9.73964 -40.25501,-16.54643 -15.01986,-8.7565 -27.50148,-19.80083 -37.25145,-32.96187 -5.915814,-7.98549 -8.738441,-11.51041 -10.170306,-12.70078 -0.828035,-0.68837 -2.352837,-1.23865 -4.010406,-1.44729 -1.129532,-0.14218 -3.416248,-0.0595 -4.632854,0.16746 -2.842685,0.53036 -5.130299,1.61036 -6.794713,3.20784 -5.026992,4.82482 -4.333713,11.4042 2.304068,21.86614 2.291605,3.61184 5.828991,8.34976 8.99439,12.04695 7.869767,9.19189 18.031561,18.17138 29.259181,25.85496 0.70872,0.48501 1.32531,0.91595 1.37019,0.95764 0.0474,0.0441 -0.44125,0.0758 -1.16739,0.0758 h -1.24901 z"
       id="path343"
       transform="translate(0,642.36)" />
    <path
       style="fill:#000000;stroke-width:0.0646117"
       d="m 69.431931,119.08939 c -1.065869,-2.81597 -1.483112,-5.00653 -1.307769,-6.86589 0.589727,-6.25352 6.767174,-13.335962 12.957396,-14.855656 2.645489,-0.649465 5.650828,-0.680319 7.993946,-0.08207 0.951097,0.242837 2.054944,0.641534 3.00743,1.086249 0.898571,0.419542 1.026011,0.575954 0.196171,0.240766 -1.723766,-0.69626 -4.765145,-1.038251 -7.85859,-0.883669 -3.93026,0.1964 -6.032072,0.879106 -8.550531,2.77737 -2.277141,1.71637 -4.4201,4.27006 -5.471727,6.52048 -1.565852,3.35083 -1.828251,8.5307 -0.635096,12.53709 0.289445,0.9719 0.129613,0.74286 -0.33123,-0.47467 z"
       id="path345"
       transform="translate(0,642.36)" />
    <path
       style="fill:#000000;stroke-width:0.0646117"
       d="m 95.483922,153.97235 c -7.044604,-6.12398 -13.890686,-14.03472 -19.392362,-22.40813 -1.761018,-2.68023 -4.284554,-6.97702 -4.166806,-7.09477 0.02377,-0.0238 0.169362,0.18083 0.323548,0.45466 0.93426,1.6592 2.899764,4.70964 4.555212,7.06963 4.849971,6.9141 11.735434,14.94186 18.207928,21.22864 1.06308,1.03258 1.894216,1.87578 1.846968,1.87379 -0.04725,-0.002 -0.665768,-0.50772 -1.374488,-1.12382 z"
       id="path347"
       transform="translate(0,642.36)" />
    <path
       style="fill:#000000;stroke-width:0.0646117"
       d="m 99.742827,183.40816 c -0.03534,-0.22226 1.047733,-24.41676 1.099213,-24.55493 0.05,-0.13407 0.18417,-0.0455 0.89318,0.58938 0.66416,0.59472 0.82608,0.78466 0.79363,0.93093 -0.11671,0.52604 -1.35933,9.336 -1.58293,11.22262 -0.26987,2.27706 -0.74853,6.97812 -1.02776,10.09389 -0.08892,0.99221 -0.16782,1.76536 -0.175333,1.71811 z"
       id="path349"
       transform="translate(0,642.36)" />
    <path
       style="fill:#000000;stroke-width:0.0646117"
       d="m 183.83769,193.7851 c -4.24627,-0.73513 -12.57815,-2.78232 -18.77034,-4.61197 -16.93693,-5.00447 -32.83275,-12.3871 -46.91768,-21.79039 l -1.47369,-0.98386 1.22515,-0.0237 1.22515,-0.0237 2.09551,1.36258 c 11.20956,7.28888 22.95751,13.21966 35.20167,17.77101 9.27276,3.44683 20.6016,6.46289 27.50014,7.32133 2.92907,0.36448 5.67329,0.45746 7.69509,0.26072 5.49301,-0.53452 8.98081,-3.00486 10.92766,-7.73984 0.64388,-1.56603 0.87993,-2.45032 0.93814,-3.51444 0.2324,-4.24908 -3.02051,-9.28178 -7.5804,-11.72794 -1.16806,-0.62661 -2.04562,-0.89981 -5.19396,-1.61698 -2.50064,-0.56962 -7.53631,-1.80737 -8.20397,-2.0165 -0.18186,-0.057 0.22881,-0.0829 1.39504,-0.0881 l 1.65276,-0.007 2.59956,0.56482 c 6.51338,1.4152 9.15364,2.26899 10.93239,3.53522 2.55783,1.82084 4.44014,4.85405 5.01862,8.08716 0.44,2.45917 0.27955,4.69453 -0.5071,7.06465 -0.66107,1.99181 -1.66691,3.64127 -3.08913,5.06586 -1.33338,1.3356 -2.66784,2.21266 -4.36141,2.8665 l -0.79139,0.30554 -5.65152,-0.0117 c -3.10834,-0.006 -5.74817,-0.0284 -5.86629,-0.0489 z"
       id="path351"
       transform="translate(0,642.36)" />
    <path
       style="fill:#000000;stroke-width:0.0646117"
       d="m 111.50529,262.47532 c 0,-0.20387 -0.62673,-4.20174 -1.03557,-6.6059 -1.96307,-11.54345 -4.37718,-22.05329 -7.91273,-34.44809 -1.25451,-4.39799 -1.65487,-5.96227 -2.08585,-8.14962 -0.502479,-2.55027 -1.00796,-6.87243 -0.980889,-8.38718 l 0.01075,-0.60134 0.07358,0.68725 c 0.379022,3.53995 1.056319,7.16969 1.884949,10.10167 0.1836,0.64964 0.73859,2.43095 1.23331,3.95848 3.65507,11.28547 6.39721,22.33554 8.4596,34.08986 0.62127,3.54088 1.46962,8.92594 1.46962,9.32872 0,0.0915 -0.13569,0.12088 -0.55838,0.12088 -0.34965,0 -0.55839,-0.0354 -0.55839,-0.0947 z"
       id="path353"
       transform="translate(0,642.36)" />
    <path
       style="fill:#000000;stroke-width:0.0646117"
       d="m 59.529555,234.7045 c -5.365862,-2.18338 -9.426814,-5.16155 -12.48997,-9.15971 -4.133441,-5.39514 -6.644475,-12.61542 -7.946961,-22.85085 -0.980353,-7.70399 -1.485505,-22.79953 -1.154914,-34.51252 l 0.05152,-1.82549 h 0.599141 0.59914 l -0.07163,1.95435 c -0.159032,4.33904 -0.05584,13.03994 0.23154,19.52202 0.999954,22.55506 3.29221,31.55207 9.662704,37.92573 1.20115,1.20174 1.827093,1.71211 6.95728,5.67272 4.831765,3.73022 4.731945,3.65078 4.581058,3.64576 -0.06269,-0.002 -0.521196,-0.16949 -1.018912,-0.37201 z"
       id="path355"
       transform="translate(0,642.36)" />
    <path
       style="fill:#000000;stroke-width:0.0646117"
       d="m 71.614978,274.57512 c -1.260217,-10.27492 -4.178171,-25.25022 -6.459546,-33.15119 -0.260762,-0.90308 -0.459981,-1.6561 -0.442709,-1.67337 0.04951,-0.0495 1.043686,2.06676 1.431246,3.04667 2.577509,6.51696 4.41836,16.45992 5.497747,29.6949 0.197627,2.42322 0.300104,4.0806 0.252287,4.08029 -0.01875,-8e-5 -0.144307,-0.8989 -0.279025,-1.9973 z"
       id="path357"
       transform="translate(0,642.36)" />
    <path
       style="fill:#000000;stroke-width:0.0646117"
       d="m 113.59981,323.58884 c 0.0323,-0.46311 0.11434,-1.59584 0.18227,-2.51717 0.15785,-2.14122 0.3516,-5.4971 0.491,-8.50464 0.1492,-3.21899 0.14876,-17.22671 -6.4e-4,-20.53141 -0.46136,-10.20507 -1.23097,-18.71277 -2.53954,-28.07317 l -0.19565,-1.39952 0.56388,0.025 0.56388,0.025 0.31772,2.3624 c 1.11348,8.27931 1.88135,17.27718 2.30562,27.01727 0.14887,3.41762 0.20397,14.40234 0.0918,18.29786 -0.13243,4.59863 -0.38652,9.58305 -0.67876,13.31535 l -0.0605,0.77315 -0.5499,0.0259 -0.5499,0.0259 z"
       id="path359"
       transform="translate(0,642.36)" />
    <path
       style="fill:#000000;stroke-width:0.0646117"
       d="m 77.658539,404.78471 c -4.010804,-0.55528 -7.291657,-1.87635 -10.367915,-4.17477 -1.089313,-0.81388 -3.330955,-3.05739 -4.152331,-4.15579 -1.600826,-2.14075 -2.707786,-4.38528 -3.389572,-6.87287 -0.845144,-3.08364 -0.945373,-5.81936 -0.335189,-9.14894 0.438486,-2.39267 1.042213,-4.61359 2.568745,-9.4496 5.384861,-17.05906 8.43039,-30.72821 9.962379,-44.71379 0.119038,-1.08671 0.252803,-2.30442 0.297255,-2.70602 0.214624,-1.93903 -0.112342,4.89461 -0.386366,8.07511 -0.372339,4.32161 -0.998033,8.45998 -1.896297,12.5422 -0.738835,3.35768 -1.396172,5.88323 -3.555087,13.65897 -3.597386,12.95666 -5.02576,19.17133 -5.637036,24.52601 -0.09715,0.85101 -0.147832,1.9741 -0.149255,3.30736 -0.0018,1.71764 0.02685,2.18536 0.192316,3.13555 0.632512,3.63226 2.327118,6.35879 6.09622,9.80849 3.269693,2.99262 5.535706,4.11283 9.29174,4.59344 1.39005,0.17786 5.364434,0.15378 6.61472,-0.0401 3.47528,-0.53885 6.17309,-1.69473 8.762358,-3.75424 0.899918,-0.7158 2.686808,-2.54042 3.447622,-3.52042 2.560024,-3.29756 4.712582,-7.53448 6.679794,-13.14797 1.75536,-5.00898 4.42453,-14.62686 6.18541,-22.28804 2.54299,-11.06393 4.53396,-23.52232 5.4811,-34.29775 l 0.1529,-1.73959 h 0.53792 0.53792 v 0.26867 c 0,0.14776 -0.0785,1.14319 -0.17441,2.21206 -0.90335,10.06589 -2.35667,19.65454 -4.25925,28.10159 -2.78495,12.3645 -7.43272,28.61601 -10.208057,35.69375 -2.273573,5.79811 -6.083651,9.93928 -11.302732,12.28493 -1.84455,0.829 -4.284269,1.54098 -6.165673,1.79932 -1.178548,0.16182 -3.668816,0.16307 -4.829229,0.002 z"
       id="path361"
       transform="translate(0,642.36)" />
  </g>
  <metadata
     id="metadata7">
    <rdf:RDF>
      <cc:Work>
        <dc:format>image/svg+xml</dc:format>
        <dc:type
           rdf:resource="http://purl.org/dc/dcmitype/StillImage" />
        <cc:license
           rdf:resource="http://creativecommons.org/licenses/publicdomain/" />
        <dc:publisher>
          <cc:Agent
             rdf:about="http://openclipart.org/">
            <dc:title>Openclipart</dc:title>
          </cc:Agent>
        </dc:publisher>
      </cc:Work>
      <cc:License
         rdf:about="http://creativecommons.org/licenses/publicdomain/">
        <cc:permits
           rdf:resource="http://creativecommons.org/ns#Reproduction" />
        <cc:permits
           rdf:resource="http://creativecommons.org/ns#Distribution" />
        <cc:permits
           rdf:resource="http://creativecommons.org/ns#DerivativeWorks" />
      </cc:License>
    </rdf:RDF>
  </metadata>
</svg>
