<?xml version="1.0" encoding="UTF-8"?>
<!DOCTYPE svg PUBLIC "-//W3C//DTD SVG 1.1//EN" "http://www.w3.org/Graphics/SVG/1.1/DTD/svg11.dtd">
<svg version="1.1" xmlns="http://www.w3.org/2000/svg" xmlns:xlink="http://www.w3.org/1999/xlink" x="0" y="0" width="855" height="868" viewBox="0, 0, 855, 868">
  <defs>
    <clipPath id="Clip_1">
      <path d="M0.06,0.86 L854.375,0.86 L854.375,868 L0.06,868 z"/>
    </clipPath>
  </defs>
  <g id="Layer_1">
    <g clip-path="url(#Clip_1)">
      <path d="M278.544,860.139 C277.352,866.446 275.583,868.04 269.818,867.999 C264.503,867.962 262.437,865.946 261.416,859.622 C257.335,834.333 253.283,809.04 249.204,783.751 C248.993,782.444 248.628,781.163 248.172,779.147 C240.062,789.021 231.837,798.066 222.644,806.164 C212.07,815.478 200.479,823.139 187.141,827.973 C164.533,836.168 143.38,831.574 123.617,819.688 C113.991,813.899 104.917,810.985 93.184,811.555 C68.897,812.736 48.761,800.854 30.369,786.152 C22.631,779.966 16.39,772.39 12.261,763.24 C3.217,743.196 7.695,723.844 24.668,709.912 C26.724,708.224 28.893,706.666 31.077,705.142 C38.405,700.028 37.866,700.152 36.119,691.242 C32.964,675.158 25.254,661.05 18.271,646.555 C10.758,630.963 3.908,615.075 0.919,597.862 C0.296,594.273 -0.001,590.583 0,586.94 C0.004,576.811 4.877,569.687 13.752,564.936 C31.452,555.46 50.557,549.778 69.635,544.046 C81.091,540.605 92.644,537.478 104.202,534.391 C106.806,533.695 107.999,533.299 106.29,530.306 C96.104,512.467 88.58,493.512 83.166,473.713 C82.547,471.448 81.736,470.237 78.895,470.116 C52.933,469.006 36.568,453.77 33.53,427.989 C32.493,419.196 32.498,410.359 34.011,401.609 C34.327,399.782 33.912,398.387 33.234,396.865 C0.206,322.674 3.677,249.003 37.593,176.331 C57.827,132.977 87.531,97.039 127.402,70.066 C150.486,54.449 175.529,43.855 203.773,42.209 C204.923,42.142 206.021,42.083 206.96,41.137 C221.192,26.803 239.433,20.002 258.222,14.668 C299.441,2.966 341.564,-2.021 384.204,2.528 C428.459,7.248 470.14,21.255 509.33,42.392 C512.961,44.35 515.476,44.55 519.13,42.317 C548.66,24.261 581.067,20.354 614.78,23.711 C651.122,27.329 684.076,39.896 712.304,63.201 C757.375,100.411 777.209,148.775 773.576,206.885 C772.151,229.668 767.019,251.999 764.801,274.693 C762.96,293.528 762.075,312.372 770.68,330.013 C783.268,355.819 805.068,369.321 832.409,374.995 C836.632,375.871 840.959,376.369 845.265,376.69 C849.49,377.005 852.806,378.458 854.008,382.739 C855.254,387.179 853.22,390.397 849.634,392.972 C829.703,407.286 808.012,417.929 784.135,423.725 C754.014,431.036 724.693,429.238 696.758,414.781 C684.093,408.226 673.017,399.487 662.652,389.068 C659.253,398.809 654.905,407.718 651.004,416.802 C648.793,421.951 649.859,428.249 648.519,433.947 C643.908,453.565 632.198,465.508 612.149,469.672 C603.719,471.423 598.057,478.32 595.426,485.908 C583.248,521.027 565.54,552.613 538.775,578.73 C518.025,598.978 493.943,614.122 467.128,624.994 C464.735,625.964 462.645,626.496 463.538,630.114 C471.469,662.25 480.158,694.124 494.342,724.21 C497.003,729.854 496.949,729.854 500.974,725.257 C505.252,720.371 509.29,715.23 513.953,710.74 C518.339,706.517 519.732,701.605 520.394,695.788 C521.958,682.047 526.13,669.177 535.177,658.298 C537.222,655.838 539.381,653.218 542.224,652.053 C547.762,649.784 549.514,645.446 551.302,640.224 C557.742,621.414 572.357,612.868 591.1,610.025 C600.904,608.538 610.715,608.965 620.456,610.476 C623.259,610.911 624.352,610.629 624.391,607.55 C624.436,603.901 624.956,600.254 625.328,596.613 C625.901,590.994 628.812,588.072 634.374,588.066 C683.7,588.016 733.026,588.021 782.352,588.06 C787.634,588.064 791.013,590.7 791.367,595.464 C794.23,634.067 795.327,672.634 787.049,710.803 C784.543,722.362 780.754,733.527 774.499,743.725 C771.768,748.178 768.424,752.061 764.539,755.496 C760.934,758.684 756.903,760.304 751.855,760.265 C726.693,760.071 701.528,760.011 676.367,760.244 C663.221,760.366 652.768,755.307 644.679,745.255 C642.751,742.86 640.906,742.455 637.997,742.403 C625.203,742.174 612.847,743.367 600.832,748.516 C595.265,750.901 588.686,750.454 582.535,750.012 C579.222,749.774 577.546,750.829 575.898,753.694 C564.635,773.27 551.401,791.344 534.463,806.481 C525.039,814.903 514.604,821.715 502.219,824.776 C483.93,829.296 468.098,823.653 453.947,812.104 C443.922,803.921 435.846,793.99 428.552,783.38 C427.64,782.054 426.711,780.739 425.301,778.718 C423.231,790.81 421.37,802.112 419.349,813.385 C416.707,828.117 413.998,842.837 411.193,857.538 C410.149,863.014 407.206,865.522 402.531,865.471 C397.886,865.42 395.461,863.05 394.163,857.291 C392.71,855.06 393.605,852.8 394.049,850.528 C399.54,822.416 404.251,794.167 408.887,765.906 C409.115,764.515 409.746,763.026 408.799,761.348 C399.029,764.57 389.431,768.264 379.705,771.586 C372.308,774.114 365.115,777.258 357.455,778.988 C355.506,779.428 354.273,780.671 353.21,782.222 C351.892,784.143 350.621,786.104 348.931,787.739 C343.797,792.706 337.572,792.663 333.493,786.843 C329.965,781.81 325.722,779.164 319.777,777.381 C306.077,773.275 292.77,767.887 279.239,763.203 C277.98,762.767 276.744,762.265 275.53,761.717 C268.233,758.428 266.299,753.282 269.477,745.827 C270.423,743.607 272.025,741.618 272.259,739.233 C271.692,738.817 271.378,738.778 271.028,738.857 C261.445,741.008 261.333,741.068 262.692,750.728 C267.355,783.87 272.754,816.898 278.211,849.916 C278.762,853.254 280.436,856.675 278.544,860.139" fill="#6E4100"/>
    </g>
    <path d="M278.544,860.139 C273.311,827.488 268.059,794.841 262.859,762.185 C261.892,756.114 261.194,749.999 260.241,743.925 C259.863,741.514 260.507,740.289 263.023,739.686 C267.022,738.726 270.93,737.383 275.463,736.026 C274.577,740.086 272.503,743.051 270.981,746.212 C267.397,753.657 269.068,758.031 276.93,760.855 C291.47,766.077 305.808,772.093 320.695,776.012 C327.403,777.778 330.983,781.193 334.599,786.131 C338.694,791.723 345.067,791.466 349.071,785.6 C352.133,781.116 355.128,778.137 361.144,776.417 C378.026,771.589 394.376,764.902 411.484,758.751 C406.105,791.762 400.712,824.623 394.163,857.29 C382.392,858.453 370.578,857.848 358.786,858.155 C332.04,858.851 305.292,859.481 278.544,860.139" fill="#FFCF71"/>
    <path d="M702.152,559.764 C701.953,542.536 709.943,530.377 725.155,522.604 C735.387,517.375 746.584,514.303 756.503,508.404 C769.945,500.409 772.147,480.521 760.753,470.098 C752.52,462.567 741.007,464.126 734.957,473.592 C731.951,478.293 732.654,480.33 737.895,482.073 C738.683,482.335 739.5,482.513 740.279,482.801 C744.696,484.434 747.066,488.448 746.047,492.528 C744.959,496.879 741.272,499.676 736.698,498.961 C719.632,496.292 711.757,482.264 718.858,468.047 C725.188,455.375 735.835,448.578 750.207,448.803 C765.203,449.037 775.202,457.389 781.169,470.353 C790.225,490.027 782.309,513.163 763.451,523.867 C755.322,528.481 746.552,531.721 737.875,535.074 C724.005,540.432 717.114,549.982 718.515,565.073 C718.927,569.503 716.828,572.557 712.656,573.782 C708.978,574.863 705.75,573.736 703.455,570.485 C702.561,569.219 702.163,567.792 702.155,566.255 C702.144,564.092 702.152,561.928 702.152,559.764" fill="#DBA76F"/>
    <path d="M91.451,429.031 C88.456,411.394 87.268,393.543 88.748,375.804 C92.922,325.75 106.129,278.331 133.114,235.46 C164.228,186.03 208.702,154.046 263.914,136.252 C267.703,135.031 267.831,136.928 268.555,139.594 C283.339,194.036 312.892,238.818 356.954,273.988 C365.309,280.657 374.25,286.528 385.183,288.096 C397.834,289.911 407.359,285.027 413.173,273.674 C419.01,262.274 420.239,249.869 420.507,237.315 C420.603,232.824 420.522,228.33 420.522,223.753 C422.666,223.414 422.888,225.321 423.631,226.358 C459.585,276.578 508.27,306.091 569.092,315.889 C571.884,316.339 574.732,317.074 577.502,316.892 C582.359,316.573 583.898,318.886 585.014,323.276 C595.269,363.645 596.098,404.21 588.168,445.026 C585.432,444.388 585.545,441.89 585.014,439.948 C582.303,430.035 577.793,421.074 571.77,412.728 C557.661,393.178 530.647,385.043 507.311,398.153 C486.052,410.096 474.211,428.78 472.796,453.146 C471.629,473.242 481.532,488.046 498.542,497.743 C510.424,504.518 523.634,507.546 537.455,506.498 C552.847,505.331 563.877,496.537 573.472,485.359 C574.79,483.823 575.656,481.405 578.469,482.032 C569.89,509.365 556.25,533.896 537.453,555.498 C506.329,591.27 466.31,611.632 420.738,621.96 C377.125,631.844 333.101,633.049 288.818,627.171 C286.322,626.839 285.167,625.968 284.227,623.642 C279.5,611.943 273.847,600.568 269.89,588.625 C266.724,579.071 265.526,568.866 263.443,558.952 C263.135,557.488 262.694,556.05 262.434,554.579 C261.723,550.568 260.161,547.184 255.813,546.118 C251.549,545.071 248.598,547.114 245.889,550.276 C238.539,558.859 229.277,564.44 218.295,567.199 C189.918,574.33 160.616,556.957 153.328,528.64 C150.632,518.165 147.201,516.451 137.278,520.637 C134.068,521.992 130.784,523.208 127.687,524.787 C124.658,526.331 122.904,526.23 121.145,522.739 C116.888,514.295 112.107,506.115 109.137,497.072 C111.399,496.137 112.863,497.955 114.616,498.7 C128.108,504.431 141.787,508.399 156.789,505.819 C167.95,503.9 176.364,497.721 183.852,489.961 C187.411,486.272 190.536,482.13 193.355,477.768 C201.138,465.723 203.265,452.882 199.264,439.09 C195.391,425.738 189.035,413.965 178.586,404.403 C159.935,387.333 131.869,388.384 112.715,404.055 C105.362,410.072 99.619,417.231 95.088,425.495 C94.271,426.985 93.883,429.118 91.451,429.031" fill="#FEF8EA"/>
    <path d="M196.203,60.277 C201.13,58.055 206.351,59.158 211.437,59.051 C217.974,58.914 219.757,57.858 221.662,51.427 C222.198,49.617 223.461,48.728 224.819,47.769 C238.936,37.793 255.041,32.481 271.535,28.317 C305.322,19.787 339.726,16.177 374.468,18.409 C403.843,20.296 432.17,27.853 459.679,38.223 C509.578,57.035 552.877,85.834 589.381,124.746 C625.793,163.56 649.032,208.977 657.119,261.745 C663.481,303.256 659.226,343.959 646.536,383.875 C646.335,384.508 646.167,385.156 645.906,385.764 C645.785,386.046 645.479,386.25 645.018,386.747 C643.362,384.514 641.854,382.229 640.096,380.156 C633.272,372.113 624.429,368.532 614.007,369.012 C610.691,369.164 609.551,368.419 609.206,364.825 C607.823,350.422 605.209,336.193 601.857,322.116 C601.295,319.758 601.334,318.145 603.441,316.494 C606.518,314.082 607.235,310.671 605.833,307.04 C604.399,303.326 601.422,302.084 597.539,301.869 C570.769,300.389 544.705,295.492 520.104,284.493 C471.516,262.769 437.279,226.898 416.228,178.211 C414.696,174.666 413.509,170.941 408.994,170.087 C403.017,168.956 398.544,172.809 399.172,179.237 C400.125,188.991 401.895,198.668 402.771,208.427 C404.335,225.836 405.529,243.293 400.423,260.411 C399.718,262.775 398.755,265.16 397.422,267.219 C394.807,271.26 391.226,272.789 386.261,271.287 C375.553,268.048 367.215,261.133 359.097,254.004 C321.511,221.003 296.2,180.378 283.937,131.79 C282.598,126.484 281.909,121.016 280.813,115.644 C279.717,110.275 276.714,107.722 272.047,107.993 C267.518,108.256 264.666,110.838 264.404,116.138 C264.242,119.421 262.061,119.367 260.184,119.951 C241.534,125.753 223.646,133.291 206.594,142.851 C187.465,153.576 170.115,166.62 154.534,182.036 C141.56,176.345 132.846,166.392 126.993,153.843 C121.852,142.822 119.854,131.082 120.077,118.919 C120.14,115.519 121.324,112.938 123.634,110.495 C139.741,93.464 157.762,78.888 178.224,67.375 C183.902,64.18 189.841,61.709 196.203,60.277" fill="#DBA76F"/>
    <path d="M817.345,392.951 C796.007,404.214 773.589,411.424 749.168,411.054 C719.518,410.605 695.451,398.012 674.768,377.463 C669.612,372.341 668.188,367.848 669.953,360.523 C676.107,334.983 677.808,308.872 676.131,282.702 C672.538,226.629 653.105,176.47 618.187,132.441 C594.715,102.845 566.772,78.117 535.137,57.522 C533.927,56.734 532.351,56.281 531.828,54.424 C537.834,51.333 543.857,48.253 550.352,46.208 C582.171,41.8 612.341,48.044 641.227,61.053 C680.6,78.785 709.078,107.473 725.521,147.586 C732.065,163.548 735.433,180.26 736.883,197.541 C738.545,217.356 735.174,236.689 733.159,256.173 C731.567,271.563 729.781,286.908 729.624,302.429 C729.17,347.469 757.11,376.704 794.803,387.47 C800.735,389.165 806.771,390.366 812.959,390.759 C814.624,390.864 816.816,390.377 817.345,392.951" fill="#DBA76F"/>
    <path d="M212.074,585.332 C226.085,583.813 237.847,578.832 248.871,570.843 C249.198,572.567 249.479,573.648 249.6,574.748 C252.017,596.7 263.602,615.433 271.049,635.611 C279.33,658.049 288.623,680.132 293.852,703.586 C295.538,711.148 295.54,711.286 288.201,713.916 C260.004,724.021 230.925,731.108 202.087,739.03 C188.256,742.828 175.771,750.065 162.494,755.31 C154.312,758.542 146.265,762.118 138.146,765.513 C136.678,766.127 135.276,767.166 133.693,765.398 C127.414,758.384 119.057,756.555 110.175,756.614 C107.504,756.632 106.936,756.104 107.718,753.683 C109.207,749.075 108.359,744.293 107.369,739.913 C106.007,733.887 99.796,732.031 95.215,728.983 C92.267,727.021 88.63,726.566 85.132,726.58 C82.367,726.591 81.858,725.756 82.193,723.073 C83.095,715.849 82.244,708.786 78.945,702.175 C78.218,700.718 77.552,699.61 79.726,698.708 C85.277,696.407 85.642,689.519 83.027,686.01 C80.171,682.177 73.787,681.039 69.709,685.113 C66.174,688.644 62.303,689.315 58.043,690.141 C56.616,690.417 55.272,691.125 53.873,691.641 C49.103,666.691 35.429,645.455 25.986,622.507 C21.808,612.354 18.261,602.008 16.794,591.029 C16.067,585.591 17.593,581.797 22.667,579.185 C39.175,570.688 56.86,565.424 74.517,560.118 C86.605,556.486 98.964,553.726 110.966,549.848 C119.155,547.201 127.012,543.459 134.864,539.873 C137.935,538.47 139.278,538.96 140.243,542.113 C140.917,544.315 142.06,546.395 143.153,548.443 C146.214,554.174 146.224,554.118 140.402,557.498 C121.788,568.307 103.843,580.04 88.6,595.447 C84.135,599.961 80.158,604.875 77.2,610.532 C69.706,624.868 73.256,639.037 86.69,648.015 C90.695,650.693 94.899,653.075 99.026,655.569 C103.569,658.313 105.815,662.293 105.551,667.62 C105.18,675.098 104.485,682.573 104.447,690.052 C104.311,716.868 126.099,736.651 152.899,734.476 C171.125,732.997 185.255,724.004 196.975,710.72 C204.047,702.704 212.2,696.469 222.079,692.32 C228.205,689.746 234.063,686.554 239.505,682.671 C255.225,671.454 260.226,655.069 253.423,636.946 C250.059,627.984 244.833,620.084 239.361,612.318 C232.65,602.791 226.33,592.902 215.04,587.928 C214.188,587.553 213.564,586.662 212.074,585.332" fill="#FEFEE8"/>
    <path d="M708.281,604.871 C729.092,604.871 749.903,604.956 770.712,604.789 C774.277,604.761 775.413,605.492 775.601,609.343 C777.154,641.138 777.749,672.878 771.268,704.28 C768.807,716.2 765.263,727.761 758.114,737.917 C755.301,741.913 752.016,743.673 746.872,743.608 C723.734,743.313 700.588,743.266 677.451,743.579 C667.554,743.713 660.542,739.494 655.407,731.565 C647.535,719.409 644.479,705.591 642.466,691.564 C638.548,664.265 638.894,636.866 640.962,609.422 C641.277,605.25 642.858,604.784 646.35,604.806 C666.993,604.938 687.637,604.871 708.281,604.871" fill="#B5E4FE"/>
    <path d="M121.235,687.503 C121.598,681.884 122.032,675.748 122.384,669.606 C123.175,655.802 116.934,646.013 105.092,639.425 C102.33,637.888 99.552,636.36 96.917,634.622 C89.314,629.609 88.198,624.822 92.973,616.929 C98.055,608.529 105.37,602.171 112.936,596.146 C125.858,585.857 139.755,577.032 154.198,569.033 C156.703,567.646 158.319,567.617 160.708,569.618 C169.524,577 179.682,581.816 190.996,584.106 C193.246,584.562 195.4,584.803 195.906,587.956 C197.049,595.072 201.887,599.394 207.637,603.276 C223.607,614.056 232.806,629.985 238.906,647.611 C242.013,656.587 236.984,663.67 229.662,668.957 C224.37,672.778 218.555,675.711 212.585,678.235 C202.403,682.539 193.872,689 186.577,697.184 C178.723,705.995 170.199,713.757 158.277,716.682 C142.013,720.672 128.866,714.435 122.623,699.829 C120.971,695.966 121.389,691.997 121.235,687.503" fill="#FF7164"/>
    <path d="M578.469,482.032 C575.271,485.366 572.024,488.654 568.883,492.041 C555.54,506.431 538.963,510.541 520.271,506.746 C509.181,504.495 498.493,501.027 489.626,493.27 C474.749,480.254 468.409,464.197 472.326,444.751 C476.548,423.788 487.707,407.396 506.66,396.964 C531.371,383.364 559.945,392.16 574.525,414.262 C579.992,422.549 584.246,431.256 586.504,440.937 C586.834,442.352 587.602,443.665 588.168,445.026 C585.923,457.621 583.064,470.054 578.469,482.032" fill="#FFD5BA"/>
    <path d="M91.451,429.031 C95.198,422.791 98.532,416.265 103.524,410.865 C113.251,400.343 124.747,392.899 139.264,391.076 C168.299,387.431 187.757,406.24 197.247,429.088 C202.829,442.528 205.209,456.176 198.859,470.069 C194.176,480.315 187.343,488.825 178.864,496.373 C168.413,505.675 156.25,508.929 142.956,507.835 C131.011,506.851 119.471,503.603 109.137,497.072 C99.684,475.316 94.097,452.556 91.451,429.031" fill="#FFD5BA"/>
    <path d="M196.203,60.277 C168.835,71.826 145.674,89.281 125.205,110.592 C122.616,113.288 121.29,115.976 121.346,119.759 C121.728,145.25 129.793,166.649 152.914,180.251 C153.575,180.639 153.998,181.433 154.533,182.037 C149.795,187.087 145.056,192.138 140.318,197.19 C137.815,198.804 135.216,198.191 132.592,197.567 C116.224,193.675 101.145,186.771 86.847,178.035 C81.774,174.935 81.44,174.951 78.767,180.468 C65.278,208.312 56.702,237.612 53.826,268.419 C50.797,300.85 52.766,332.93 62.411,364.277 C62.888,365.827 63.646,367.452 62.355,369.014 C55.515,370.795 49.065,373.327 43.819,379.101 C38.475,366.843 34.839,354.511 32.475,341.847 C16.276,255.046 40.698,180.129 99.573,115.695 C119.895,93.454 144,76.146 172.56,65.702 C180.176,62.917 187.888,60.182 196.203,60.277" fill="#FEFEFE"/>
    <path d="M817.345,392.951 C807.655,391.575 797.922,390.452 788.641,387.05 C757.291,375.56 736.191,354.815 729.834,321.164 C726.871,305.481 728.229,289.646 729.749,273.887 C731.857,252.047 736.1,230.363 735.916,208.359 C735.284,132.674 687.501,75.194 619.629,54.22 C597.64,47.426 575.105,44.734 552.089,46.837 C551.535,46.887 550.933,46.429 550.353,46.208 C567.382,39.959 585.096,38.822 602.963,39.672 C644.756,41.659 681.53,56.162 711.9,85.254 C737.867,110.128 752.419,140.818 756.499,176.573 C759.123,199.564 755.24,222.044 751.872,244.594 C749.169,262.696 746.56,280.795 747.119,299.199 C748.351,339.761 771.248,371.564 809.904,386.07 C813.779,387.524 817.745,388.733 821.931,390.145 C820.633,391.798 818.845,392.152 817.345,392.951" fill="#FEFEFE"/>
    <path d="M448.37,639.298 C450.858,648.578 452.985,657.013 455.384,665.37 C463.279,692.867 471.91,720.086 486.496,744.971 C487.084,745.975 487.69,746.971 488.344,747.932 C492.115,753.473 498.079,753.963 502.592,748.933 C509.481,741.253 516.325,733.528 523.002,725.665 C525.085,723.213 526.48,722.596 529.317,724.848 C538.18,731.882 547.252,738.661 556.384,745.345 C558.978,747.243 559.679,748.514 557.712,751.597 C547.458,767.662 536.238,782.891 521.598,795.294 C514.305,801.472 506.391,806.802 496.898,808.833 C483.2,811.764 472.21,805.832 462.381,797.147 C448.699,785.06 439.239,769.794 430.483,754.034 C429.828,752.855 429.694,751.652 429.925,750.22 C435.776,713.936 441.553,677.64 447.36,641.349 C447.422,640.961 447.713,640.609 448.37,639.298" fill="#FEFEFE"/>
    <path d="M62.355,369.014 C52.708,339.011 49.576,308.176 51.626,276.884 C53.946,241.464 63.452,207.882 79.209,176.041 C81.019,172.383 82.495,173.584 84.764,175.034 C100.15,184.868 116.475,192.567 134.404,196.521 C136.331,196.946 138.346,196.975 140.319,197.189 C106.604,237.064 87.471,283.641 77.467,334.361 C75.508,344.294 73.859,354.319 72.762,364.377 C72.318,368.448 70.923,369.415 67.341,368.986 C65.704,368.79 64.019,368.992 62.355,369.014" fill="#DBA76F"/>
    <path d="M128.655,803.429 C136.404,798.42 142.055,792.603 142.273,783.26 C142.313,781.535 143.926,781.413 145.103,780.908 C164.012,772.796 182.677,764.034 201.919,756.806 C214.605,752.04 228.119,749.476 241.27,745.952 C241.97,745.765 243.149,745.111 243.34,746.269 C243.943,749.922 246.037,753.674 243.425,757.29 C231.094,774.358 217.628,790.366 200.077,802.402 C188.626,810.255 176.317,815.749 162.008,815.168 C149.993,814.68 139.604,809.555 128.655,803.429" fill="#FEFEFE"/>
    <path d="M88.811,795.401 C66.723,791.869 44.671,781.791 29.733,760.04 C20.112,746.033 23.151,732.328 36.662,721.949 C43.392,716.779 50.724,712.53 58.09,708.321 C61.551,706.344 63.044,707.448 64.365,710.686 C67.483,718.328 65.333,727.655 59.054,732.913 C54.773,736.497 53.689,740.714 56.034,744.666 C58.347,748.564 62.684,749.647 67.802,747.411 C71.935,745.604 76.168,744.196 80.615,743.432 C82.776,743.06 84.92,742.987 87.014,743.767 C91.438,745.417 92.544,749.072 89.54,752.718 C87.432,755.278 84.955,757.531 82.797,760.054 C81.077,762.065 79.406,764.165 78.042,766.424 C75.926,769.93 76.245,773.51 78.984,776.543 C81.604,779.444 85.049,779.978 88.578,778.486 C95.063,775.745 101.765,773.89 108.772,773.387 C114.235,772.995 119.38,773.753 123.028,778.654 C126.283,783.027 126.166,784.991 121.435,787.836 C112.501,793.209 102.562,794.891 88.811,795.401" fill="#FEF8EA"/>
    <path d="M633.487,417.067 C633.686,422.391 632.926,428.323 631.139,434.085 C627.687,445.216 618.634,452.383 607.458,453.273 C604.82,453.483 603.793,453.08 604.362,450.195 C608.37,429.898 610.201,409.377 610.266,388.705 C610.275,386.042 611.602,385.775 613.578,385.616 C620.805,385.035 626.577,388.258 629.763,394.913 C633.008,401.69 633.562,408.974 633.487,417.067" fill="#FEF8EA"/>
    <path d="M362.493,689.433 C362.658,680.454 362.677,680.365 371.116,682.143 C382.034,684.442 392.689,687.532 402.374,693.32 C404.32,694.483 405.913,695.591 405.204,698.38 C401.472,713.06 392.962,723.508 378.718,729.185 C375.805,730.346 374.672,729.718 373.707,726.85 C370.32,716.788 366.767,706.781 363.14,696.802 C362.245,694.339 362.415,691.914 362.493,689.433" fill="#FF7164"/>
    <path d="M49.496,417.604 C49.626,409.33 50.253,402.885 52.571,396.731 C55.304,389.476 60.696,385.739 68.111,385.571 C70.637,385.514 71.58,386.296 71.617,388.969 C71.901,409.3 73.466,429.532 77.505,449.487 C78.344,453.635 76.567,453.436 73.751,453.028 C61.356,451.229 52.742,441.974 50.52,427.784 C49.903,423.849 49.714,419.847 49.496,417.604" fill="#FEF8EA"/>
    <path d="M536.512,703.036 C537.2,691.233 539.873,680.023 547.131,670.417 C553.115,662.497 560.053,661.309 568.529,666.253 C572.648,668.655 573.662,673.438 576.568,676.815 C577.995,678.473 575.422,679.951 573.68,680.318 C570.279,681.034 566.818,681.492 563.364,681.923 C559.854,682.36 556.525,683.338 553.49,685.122 C547.853,688.435 547.555,695.929 552.988,699.542 C554.542,700.575 555.868,701.495 556.728,703.272 C562.36,714.913 570.534,724.313 581.666,731.04 C582.188,731.355 582.61,731.834 584.111,733.126 C575.721,732.837 568.444,734.53 562.089,728.781 C557.065,724.236 551.439,720.357 546.081,716.182 C545.735,711.088 546.213,705.981 545.906,700.652 C542.553,700.769 540.181,704.724 536.512,703.036" fill="#FEF8EA"/>
    <path d="M596.135,683.961 C597.842,680.364 600.28,678.749 602.701,677.026 C607.994,673.258 609.28,668.035 606.128,663.85 C603.194,659.954 595.899,659.014 591.742,662.733 C588.062,666.025 587.35,663.338 586.461,660.836 C585.321,657.627 584.967,654.232 587.204,651.329 C589.144,648.811 592.004,649.508 594.601,650.016 C611.204,653.265 627.675,678.689 623.921,695.206 C622.053,703.424 615.846,707.972 607.591,707.067 C605.882,706.88 603.505,707.149 603.304,704.698 C603.129,702.56 604.43,700.835 606.635,700.311 C608.821,699.793 610.753,698.93 612.102,697.124 C614.048,694.517 614.366,691.572 613.14,688.621 C611.712,685.183 608.809,683.645 605.227,683.566 C602.423,683.505 599.611,683.795 596.135,683.961" fill="#FEF8EA"/>
    <path d="M422.913,688.214 C417.555,682.934 412.007,679.081 405.919,676.085 C403.68,674.983 404.097,674.029 405.124,672.313 C410.163,663.897 412.966,654.75 413.497,644.95 C413.664,641.872 414.697,640.072 418.143,639.798 C420.929,639.576 423.73,638.837 426.392,637.934 C430.154,636.658 430.96,637.933 430.368,641.513 C428.116,655.118 425.998,668.744 423.832,682.363 C423.571,684.002 423.316,685.642 422.913,688.214" fill="#FFCF70"/>
    <path d="M622.866,634.947 C622.866,635.826 622.928,636.334 622.855,636.822 C622.569,638.724 623.888,641.652 621.991,642.318 C619.706,643.119 616.852,642.575 614.496,640.953 C607.383,636.055 599.685,632.758 590.85,632.873 C581.868,632.99 575.306,636.999 571.311,645.103 C570.56,646.626 570.24,649.185 567.686,647.732 C565.526,646.503 567.365,644.736 567.955,643.458 C573.624,631.173 584.577,627.446 596.805,626.226 C604.437,625.464 612.085,626.108 619.692,627.175 C625.783,628.029 622.162,632.479 622.866,634.947" fill="#B5E3FE"/>
    <path d="M359.969,646.923 C358.899,651.284 357.123,654.622 355.392,658.007 C354.249,660.242 352.687,660.981 350.22,660.914 C344.402,660.753 338.567,660.68 332.756,660.936 C329.675,661.072 327.806,660.06 326.426,657.362 C324.777,654.137 322.861,651.051 321.666,647.009 C334.488,647.448 346.882,647.577 359.969,646.923" fill="#FEF7E9"/>
    <path d="M396.69,645.681 C395.432,653.775 393.304,660.639 388.655,666.57 C387.439,668.122 386.191,668.615 384.399,668.031 C384.086,667.929 383.75,667.898 383.429,667.816 C379.438,666.794 375.447,665.768 371.456,664.743 C372.835,661.089 374.783,657.538 375.467,653.759 C376.684,647.039 380.273,644.322 386.938,644.809 C389.204,644.975 391.541,644.356 393.828,643.987 C395.878,643.656 397.17,643.968 396.69,645.681" fill="#FEFEFD"/>
    <path d="M311.294,717.005 C312.366,706.9 310.038,697.231 307.191,687.706 C306.193,684.37 306.694,682.91 310.16,682.341 C321.926,680.41 319.861,679.342 320.376,690.138 C320.618,695.207 318.543,699.48 317.006,703.979 C315.512,708.354 313.843,712.668 312.25,717.01 C311.93,717.323 311.611,717.337 311.294,717.005" fill="#FF7063"/>
    <path d="M342.148,729.721 C343.603,738.368 344.897,747.047 346.578,755.65 C347.476,760.242 343.706,762.373 342.114,765.641 C341.767,766.353 340.866,766.197 340.474,765.593 C338.96,763.257 335.796,761.282 336.15,758.567 C337.42,748.82 339.349,739.159 341.029,729.465 C341.402,729.55 341.775,729.636 342.148,729.721" fill="#FDFDFC"/>
    <path d="M310.932,664.742 C301.158,668.229 301.158,668.229 297.804,658.975 C296.287,654.787 294.763,650.602 293.26,646.409 C293.153,646.111 293.192,645.76 293.167,645.434 C301.773,644.251 302.49,644.74 305.604,652.665 C307.169,656.649 309.051,660.509 310.932,664.742" fill="#FDFDFD"/>
    <path d="M418.533,715.118 C416.828,725.933 415.123,736.748 413.246,748.653 C410.028,743.676 407.418,739.51 404.666,735.439 C403.355,733.499 404.476,732.566 405.744,731.319 C410.775,726.372 414.641,720.6 417.465,714.132 C418.394,713.841 418.808,714.107 418.533,715.118" fill="#FECE6F"/>
    <path d="M320.49,748.129 C319.495,758.15 319.493,758.155 310.264,754.879 C304.331,752.773 298.395,750.674 292.481,748.516 C291.088,748.008 288.94,748.028 290.261,745.335 C291.279,743.258 292.047,742.198 294.663,743.456 C299.439,745.751 304.553,747.12 309.762,748.268 C313.539,749.101 316.606,748.621 319.406,746.059 C321.311,745.94 320.841,747.066 320.49,748.129" fill="#FF7063"/>
    <path d="M361.689,745.169 C369.457,751.541 376.256,747.185 383.113,745.498 C384.707,745.106 386.245,744.408 387.735,743.698 C390.477,742.391 390.785,744.93 391.617,746.246 C392.91,748.292 390.679,748.346 389.715,748.706 C382.27,751.48 374.77,754.107 367.307,756.835 C365.053,757.659 363.576,757.694 363.328,754.646 C363.105,751.903 362.41,749.198 361.689,745.169" fill="#FF7062"/>
    <path d="M536.512,703.036 C539.941,701.561 543.369,700.087 547.551,698.288 C546.507,704.674 548.946,710.558 546.081,716.182 C544.219,714.889 542.466,713.386 540.472,712.347 C536.502,710.278 535.442,707.156 536.512,703.036" fill="#FDFDFD"/>
    <path d="M346.097,684.852 C346.882,688.764 345.764,691.449 340.251,690.857 C337.451,690.556 336.43,689.546 336.609,686.889 C336.698,685.578 336.62,684.254 336.581,682.936 C336.432,677.811 339.931,675.453 344.674,677.494 C346.303,678.195 346.303,678.195 346.097,684.852" fill="#F96E5F"/>
    <path d="M588.556,715.208 C582.095,711.052 577.656,706.048 574.128,700.17 C573.647,699.368 572.657,698.211 573.975,697.696 C575.915,696.937 578.312,695.885 580.06,697.706 C581.994,699.719 587.154,697.866 586.365,702.998 C585.745,707.032 587.236,710.761 588.556,715.208" fill="#B4E2FC"/>
    <path d="M633.587,725.91 C626.103,726.171 619.395,726.222 611.696,724.364 C618.449,722.735 624.188,721.209 629.048,717.578 C630.646,716.384 630.975,717.739 631.341,718.896 C632.034,721.088 632.742,723.274 633.587,725.91" fill="#B4E1FA"/>
    <path d="M311.294,717.005 C311.613,717.007 311.932,717.008 312.25,717.01 C311.496,719.369 310.817,721.756 309.973,724.082 C307.508,730.878 307.482,730.868 300.177,727.324 C305.15,724.881 309.345,722.036 311.294,717.005" fill="#F96E5E"/>
    <path d="M418.533,715.118 C418.177,714.79 417.821,714.461 417.465,714.132 C417.844,713.091 418.223,712.049 418.875,710.256 C419.528,712.444 419.613,713.807 418.533,715.118" fill="#C29442"/>
    <path d="M320.49,748.129 C320.129,747.439 319.767,746.749 319.406,746.059 C319.822,745.287 320.238,744.514 320.836,743.403 C321.728,745.419 321.461,746.813 320.49,748.129" fill="#D06043"/>
    <path d="M332.005,530.954 C310.777,530.481 292.704,525.578 277.761,511.955 C275.169,509.592 272.679,507.082 270.969,504.03 C269.057,500.616 269.301,497.096 272.594,494.654 C276.038,492.101 279.681,492.61 282.356,495.921 C296.395,513.301 315.396,517.596 336.391,516.522 C349.781,515.838 362.753,513.172 374.732,506.858 C382.974,502.515 390.002,496.841 393.992,488.074 C395.844,484.001 399.241,483.104 403.142,484.347 C406.728,485.489 408.306,489.909 406.683,493.947 C403.621,501.562 398.321,507.482 391.939,512.455 C377.822,523.454 361.306,528.001 343.9,530.011 C339.446,530.525 334.957,530.726 332.005,530.954" fill="#6E4100"/>
    <path d="M226.804,361.901 C216.573,362.046 208.422,370.423 207.554,381.685 C207.038,388.372 204.094,391.454 198.602,391.054 C193.457,390.68 190.483,386.536 190.886,380.274 C191.583,369.449 195.84,360.341 204.311,353.473 C206.598,351.619 207.392,350.584 205.238,347.825 C200.812,342.154 199.231,335.385 199.181,328.205 C199.153,324.239 200.825,321.592 204.766,321.35 C208.951,321.092 211.182,323.643 211.361,327.791 C211.596,333.244 212.795,338.297 216.617,342.466 C218.504,344.523 220.438,345.442 223.517,345.23 C240.368,344.071 252.871,352.79 257.392,368.424 C258.97,373.882 257.05,378.512 252.613,379.948 C247.566,381.582 243.472,379.286 241.429,373.675 C238.314,365.122 234.183,361.797 226.804,361.901" fill="#6E4100"/>
    <path d="M495.181,380.947 C495.225,387.395 492.204,391.048 486.82,391.059 C481.634,391.069 478.551,387.673 478.361,381.547 C478.124,373.902 474.591,368.207 468.125,364.373 C458.543,358.692 449.172,362.012 445.168,372.454 C443.889,375.791 442.636,379.05 438.719,380.044 C431.684,381.831 426.482,376.029 428.639,368.62 C430.583,361.944 433.949,356.001 439.564,351.746 C442.127,349.804 442.786,348.481 440.813,345.533 C437.306,340.293 436.205,334.194 436.201,327.928 C436.199,323.995 438.153,321.417 442.116,321.336 C446.007,321.255 448.198,323.562 448.367,327.573 C448.501,330.746 448.827,333.926 450.165,336.823 C452.394,341.647 455.05,345.146 461.552,345.252 C479.418,345.541 495.056,362.576 495.181,380.947" fill="#6E4100"/>
    <path d="M221.552,205.095 C230.979,205.063 238.371,208.666 242.796,217.278 C244.901,221.373 244.012,225.18 240.854,226.854 C237.599,228.58 234.092,227.274 231.964,223.147 C229.441,218.256 225.19,216.768 220.296,217.359 C214.665,218.038 208.999,219.298 206.413,225.403 C204.561,229.774 201.668,231.562 198.08,230.079 C193.968,228.38 193.724,224.943 194.698,221.294 C196.921,212.959 207.949,205.685 219.053,205.101 C219.884,205.057 220.719,205.095 221.552,205.095" fill="#6E4100"/>
    <path d="M339.641,376.248 C341.222,376.345 343.447,377.114 344.894,379.083 C346.949,381.88 348.977,384.741 350.611,387.791 C352.775,391.828 351.417,396.411 347.776,398.672 C343.97,401.036 339.488,400.376 336.673,396.734 C334.652,394.12 332.725,391.365 331.215,388.436 C328.231,382.648 332.427,376.068 339.641,376.248" fill="#6E4300"/>
    <path d="M258.372,703.13 C258.395,708.031 252.977,713.091 247.789,713.013 C243.356,712.947 239.577,709.139 239.544,704.704 C239.506,699.811 244.957,694.777 250.18,694.881 C254.849,694.974 258.351,698.501 258.372,703.13" fill="#6E4300"/>
    <path d="M50.898,618.032 C46.205,618.03 42.301,614.05 42.438,609.408 C42.615,603.428 46.519,599.053 51.695,599.033 C56.428,599.015 60.322,602.913 60.21,607.557 C60.071,613.272 55.838,618.034 50.898,618.032" fill="#6F4300"/>
    <path d="M120.799,636.428 C108.492,636.214 102.929,628.022 107.253,617.489 C110.7,609.096 116.78,602.704 124.118,597.604 C128.4,594.628 133.276,595.753 135.953,599.712 C138.528,603.52 137.733,607.875 133.827,611.194 C132.434,612.378 130.901,613.411 129.597,614.682 C127.1,617.117 123.975,619.22 128.898,622.808 C131.574,624.759 131.43,628.635 130.002,631.635 C128.016,635.808 124.101,636.642 120.799,636.428" fill="#FEFEFE"/>
    <path d="M161.966,589.6 C161.972,594.521 156.325,600.051 151.19,600.152 C146.373,600.246 142.476,596.461 142.568,591.778 C142.672,586.427 148.395,581.058 153.847,581.194 C158.315,581.306 161.96,585.08 161.966,589.6" fill="#FEFDFD"/>
  </g>
</svg>
