<?xml version="1.0" encoding="UTF-8"?>
<!DOCTYPE svg PUBLIC "-//W3C//DTD SVG 1.1//EN" "http://www.w3.org/Graphics/SVG/1.1/DTD/svg11.dtd">
<svg version="1.1" xmlns="http://www.w3.org/2000/svg" xmlns:xlink="http://www.w3.org/1999/xlink" x="0" y="0" width="870" height="1116" viewBox="0, 0, 870, 1116">
  <defs>
    <clipPath id="Clip_1">
      <path d="M-0,0.33 L869.236,0.33 L869.236,1115.94 L-0,1115.94 z"/>
    </clipPath>
  </defs>
  <g id="Layer_1">
    <g clip-path="url(#Clip_1)">
      <path d="M609.219,806.556 C605.068,829.283 601.571,852.14 595.917,874.569 C595.126,877.708 596.167,878.416 598.981,878.271 C601.473,878.142 603.977,878.244 606.476,878.244 C688.277,878.244 770.077,878.244 851.877,878.246 C853.376,878.246 854.886,878.156 856.372,878.3 C860.733,878.72 863.745,881.864 863.789,886.218 C863.833,890.57 861.745,893.569 857.409,894.533 C855.492,894.959 853.447,894.905 851.46,894.905 C780.156,894.922 708.851,894.914 637.547,894.95 C635.652,894.951 633.635,894.366 631.239,895.87 C642.957,898.169 654.16,900.321 665.138,903.423 C681.182,907.956 696.809,913.479 710.91,922.641 C715.26,925.467 719.184,928.792 722.757,932.553 C734.613,945.032 735.239,960.82 724.046,973.93 C721.482,976.933 721.472,977.934 725.208,979.713 C737.275,985.459 748.621,992.376 757.672,1002.48 C773.291,1019.91 772.869,1040.49 756.605,1057.38 C746.258,1068.13 733.571,1075.34 720.166,1081.4 C692.242,1094.02 662.701,1101.1 632.671,1106.32 C587.915,1114.09 542.753,1116.75 497.402,1115.82 C441.833,1114.7 386.832,1109.04 333.478,1092.38 C311.004,1085.37 289.205,1076.7 271.364,1060.63 C260.475,1050.82 253.584,1039 256.046,1023.6 C257.879,1012.14 264.763,1003.68 273.213,996.326 C283.489,987.387 295.378,981.076 307.801,975.761 C311.147,974.329 313.786,972.68 315.495,969.291 C317.29,965.731 319.956,962.674 322.779,959.826 C332.991,949.526 345.552,948.203 357.575,956.338 C359.943,957.941 361.986,958.847 364.887,957.782 C366.6,957.153 367.226,956.522 367.2,954.703 C367.05,944.068 372.196,935.949 379.826,929.187 C393.474,917.092 410.105,910.824 427.135,905.458 C439.834,901.457 452.831,898.641 465.941,896.352 C466.088,895.899 467.501,895.7 466.69,895.343 C464.693,894.465 462.426,894.899 460.269,894.899 C344.488,894.888 228.707,894.892 112.927,894.867 C110.958,894.866 108.93,895.309 107.013,894.445 C102.361,892.761 100.595,889.294 101.432,884.63 C102.246,880.093 105.445,878.247 111.769,878.247 C219.864,878.243 327.959,878.244 436.054,878.244 C442.133,878.244 442.136,878.242 441.09,872.259 C437.656,852.606 434.224,832.953 430.771,813.304 C430.6,812.329 430.235,811.388 429.96,810.431 C427.126,803.532 426.65,796.29 425.981,789.836 C423.62,793.936 420.304,798.851 416.998,803.772 C415.608,805.839 414.246,807.928 411.927,809.111 C404.756,818.279 398.01,827.782 390.048,836.325 C386.292,840.353 382.271,844.075 378.253,847.826 C364.22,860.926 348.606,863.511 330.833,856.099 C310.38,847.57 292.147,835.486 274.556,822.301 C266.432,816.211 258.608,809.721 250.661,803.395 C249.262,802.281 248.188,800.801 245.914,801.624 C227.294,808.362 210.324,803.616 194.91,792.93 C171.53,776.722 155.342,754.981 148.816,726.981 C144.753,709.551 147.002,692.553 155.574,676.655 C161.155,666.304 169.438,658.789 180.51,654.749 C183.336,653.719 183.612,652.525 182.991,650.082 C180.738,641.223 178.529,632.352 176.437,623.454 C175.973,621.481 175.4,620.266 173.097,619.947 C148.79,616.586 134.751,601.101 125.909,579.629 C124.205,575.491 122.548,571.282 121.459,566.957 C120.638,563.698 119.772,562.745 116.569,564.582 C112.544,566.89 108.298,568.832 104.07,570.762 C99.244,572.965 95.026,571.873 92.515,567.243 C71.205,527.953 67.467,478.067 101.638,440.79 C115.772,425.372 114.105,427.748 130.015,433.218 C138.972,436.297 147.933,439.366 156.926,442.339 C158.45,442.843 159.909,443.962 161.927,443.301 C161.713,421.423 162.241,399.488 164.07,377.606 C170.779,297.29 189.273,220.392 231.723,150.831 C263.335,99.03 305.209,57.687 359.811,30.204 C407.822,6.039 458.887,-2.618 512.306,1.193 C541.152,3.251 569.206,9.186 597.01,16.938 C605.714,19.364 615.002,19.735 623.866,21.96 C669.363,33.382 708.686,56.165 743.861,86.748 C791.111,127.829 820.638,180.027 839.971,238.755 C856.94,290.301 865.901,343.284 868.392,397.377 C871.781,470.987 864.985,543.679 847.591,615.33 C839.388,649.121 828.804,682.142 815.903,714.445 C801.182,751.306 774.981,777.306 740.183,795.226 C736.88,796.927 735.092,798.613 734.797,802.498 C734.433,807.278 732.998,811.937 731.31,816.476 C724.765,834.063 711.624,841.539 693.197,837.938 C671.825,833.762 653.396,823.338 636.009,810.746 C634.398,809.579 632.726,808.497 631.083,807.376 C624.149,804.045 619.121,798.233 613.168,793.148 C610.687,797.578 612.1,802.723 609.219,806.556" fill="#6E4100"/>
      <path d="M63.932,202.083 C70.509,202.163 73.574,204.669 75.015,211.123 C77.951,224.27 81.019,237.389 83.739,250.579 C84.354,253.565 85.787,254.692 88.452,255.417 C99.039,258.297 109.587,261.319 120.142,264.312 C125.313,265.778 127.542,268.957 127.469,274.645 C127.399,280.023 125.17,283.101 120.197,284.52 C109.806,287.486 99.446,290.573 88.983,293.261 C85.576,294.137 84.197,295.712 83.501,299.122 C80.875,311.992 77.858,324.782 75.041,337.613 C73.669,343.863 70.35,346.715 64.042,346.862 C57.8,347.006 54.098,344.213 52.721,338.108 C49.758,324.968 46.813,311.823 43.991,298.653 C43.372,295.767 42.191,294.185 39.101,293.386 C28.48,290.642 17.954,287.528 7.399,284.529 C2.327,283.088 -0.054,279.726 0.001,274.204 C0.053,268.995 2.396,265.736 7.316,264.324 C17.703,261.344 28.077,258.309 38.529,255.576 C41.836,254.711 43.367,253.104 44.065,249.769 C46.791,236.751 49.759,223.783 52.688,210.808 C54.116,204.486 57.385,202.003 63.932,202.083" fill="#FFCF00"/>
    </g>
    <path d="M107.013,894.445 C108.676,894.39 110.339,894.286 112.002,894.286 C230.625,894.279 349.249,894.279 467.873,894.279 C469.529,894.279 471.185,894.279 473.54,894.279 C470.907,896.537 468.501,896.736 465.941,896.352 C464.331,894.112 461.995,895.289 460.045,895.288 C344.442,895.224 228.839,895.235 113.236,895.193 C111.166,895.192 108.931,895.944 107.013,894.445" fill="#9E8462"/>
    <path d="M411.927,809.111 C416.548,802.105 421.168,795.098 426.533,786.963 C427.797,795.615 428.878,803.023 429.96,810.431 C423.949,809.991 417.938,809.551 411.927,809.111" fill="#DCBF5C"/>
    <path d="M609.219,806.556 C610.004,801.398 610.789,796.241 611.697,790.279 C618.595,796.363 624.839,801.869 631.082,807.375 C623.762,807.99 616.514,806.648 609.219,806.556" fill="#DBBF5A"/>
    <path d="M549.081,22.679 C566.063,25.958 582.912,29.873 599.225,35.604 C604.377,37.415 609.377,35.95 614.309,37.019 C651.59,45.099 684.583,62.209 714.918,84.908 C764.618,122.099 797.824,171.117 818.776,229.061 C833.669,270.249 843.265,312.602 848.167,356.091 C850.836,379.769 852.156,403.489 852.333,427.316 C853.053,524.428 836.109,618.209 800.132,708.511 C788.352,738.079 767.722,759.624 740.919,775.877 C738.18,777.539 736.79,778.1 736.587,773.769 C734.682,733.029 726.613,693.317 716.048,654.059 C715.043,650.321 716.086,648.696 719.131,646.536 C751.001,623.925 768.9,593.203 772.129,554.102 C773.018,543.332 772.055,532.861 767.548,522.913 C766.73,521.107 766.753,519.458 767.357,517.616 C769.429,511.296 771.531,504.979 773.34,498.581 C774.079,495.967 775.424,495.45 777.935,495.391 C804.2,494.775 821.22,478.698 824.099,452.331 C825.55,439.041 825.162,425.985 819.606,413.656 C813.773,400.713 803.552,394.023 789.164,394.386 C785.752,394.472 784.211,394.11 783.678,389.846 C776.309,330.914 758.624,275.903 721.042,228.699 C701.847,204.592 678.842,184.864 652.077,169.571 C649.522,168.111 647.643,166.857 647.475,163.329 C647.298,159.611 644.776,156.999 640.781,156.304 C636.62,155.58 633.753,157.444 631.518,160.735 C622.8,173.567 613.158,185.681 602.726,197.147 C555.955,248.554 498.868,283.967 433.362,306.364 C398.531,318.273 363.218,328.337 326.808,334.052 C302.444,337.876 277.967,340.326 253.398,335.5 C250.629,334.956 247.937,334.01 245.162,333.516 C240.427,332.672 236.342,334.985 235.184,338.943 C233.8,343.668 236.002,347.784 240.915,349.61 C241.849,349.957 242.842,350.149 243.763,350.523 C246.93,351.808 251.788,350.835 253.166,353.666 C254.343,356.085 252.479,360.044 251.81,363.291 C249.962,372.258 248.651,381.304 247.635,390.397 C247.383,392.655 247.033,394.255 243.903,394.43 C223.332,395.576 212.131,406.068 209.059,426.512 C207.392,437.612 207.512,448.665 209.765,460.241 C206.517,459.139 203.738,458.196 200.96,457.253 C198.91,451.867 198.844,446.146 198.779,440.566 C198.539,419.905 197.864,399.201 198.844,378.583 C201.441,323.951 211.039,270.75 233.492,220.379 C241.053,203.417 250.217,187.409 260.439,171.966 C265.218,164.746 266.332,164.473 273.58,168.944 C291.522,180.011 310.614,187.835 331.682,190.566 C344.373,192.212 358.534,190.537 372.533,185.028 C363.891,184.143 355.688,182.341 347.739,179.438 C324.197,170.84 311.653,153.339 306.671,129.398 C305.335,122.979 306.671,118.644 311.717,114.121 C336.045,92.316 362.495,73.647 391.337,58.337 C421.28,42.443 452.755,30.904 486.206,24.995 C504.797,21.712 523.474,19.962 542.347,22.042 C544.584,22.31 546.728,23.596 549.081,22.679" fill="#DCBF5C"/>
    <path d="M267.304,461.38 C261.769,426.844 261.936,392.462 269.902,358.254 C270.483,355.758 271.109,354.526 273.972,354.588 C324.936,355.683 373.458,343.029 421.509,328.008 C467.621,313.592 511.243,293.962 550.716,265.674 C582.747,242.72 611.072,215.968 634.951,184.599 C637.232,181.603 638.773,181.234 642.1,183.143 C694.398,213.147 728.955,257.685 748.923,313.948 C760.609,346.877 768.275,380.701 767.959,415.921 C767.798,433.925 766.165,451.808 762.777,469.511 C760.508,471.821 760.089,469.429 759.665,468.111 C758.184,463.502 756.276,459.099 754.203,454.724 C746.224,437.881 733.34,428.717 714.444,427.544 C700.98,426.708 688.721,428.752 677.917,437.38 C661.725,450.31 653.619,479.896 661.854,498.811 C668.815,514.799 681.982,522.991 698.738,526.134 C701.618,526.674 705.159,525.895 706.992,529.308 C703.163,534.657 699.223,538.712 691.346,537.821 C686.463,537.268 682.441,541.816 679.092,545.609 C670.711,555.103 664.932,566.262 660.776,577.989 C656.459,590.17 649.131,599.815 640.2,608.724 C632.457,616.448 625.856,624.997 624.892,636.509 C624.68,639.038 622.818,639.155 621.125,639.731 C602.958,645.919 584.282,649.911 565.284,652.377 C529.763,656.989 494.248,656.816 458.825,651.41 C413.618,644.511 371.933,629.29 337.15,598.469 C312.55,576.671 294.542,550.249 282.957,519.472 C284.003,516.543 285.815,518.288 287.126,518.98 C294.872,523.072 303.067,525.605 311.774,526.545 C325.514,528.028 338.369,525.47 349.611,517.274 C365.175,505.928 370.554,490.291 367.1,471.647 C365.196,461.373 360.69,452.087 354.332,443.746 C347.067,434.217 337.368,429.291 325.562,427.651 C318.666,426.693 311.955,427.418 305.25,428.358 C288.16,430.756 278.145,441.954 271.01,456.578 C270.122,458.397 270.081,460.978 267.304,461.38" fill="#FEF8EA"/>
    <path d="M290.509,735.747 C302.326,745.046 313.544,753.873 324.76,762.701 C329.209,766.203 333.62,769.753 338.109,773.2 C343.509,777.346 348.092,776.703 352.105,771.093 C373.62,741.016 392.447,709.252 410.893,677.251 C413.634,672.497 416.389,667.75 418.984,662.917 C419.924,661.168 420.805,660.706 422.867,661.19 C431.766,663.279 440.697,665.27 449.684,666.927 C452.692,667.481 453.153,669.484 453.954,671.616 C472.94,722.166 491.939,772.712 510.904,823.27 C512.095,826.446 513.267,829.502 516.776,830.872 C521.493,832.713 525.971,830.494 528.071,824.947 C535.427,805.52 542.716,786.067 550.007,766.616 C562.082,734.405 574.172,702.199 586.147,669.951 C587.241,667.006 588.666,665.466 591.944,664.883 C598.153,663.778 604.259,662.07 610.385,660.524 C615.804,659.157 619.257,661.22 620.966,666.811 C630.974,699.549 641.036,732.271 651.011,765.019 C652.175,768.84 654.163,771.652 658.259,772.345 C664.766,773.446 669.308,767.615 667.223,760.706 C661.755,742.579 656.186,724.482 650.643,706.378 C647.43,695.885 644.257,685.378 640.914,674.926 C640.05,672.224 639.952,670.998 643.416,670.293 C661.007,666.709 678.553,662.885 696.049,658.864 C699.469,658.078 700.3,659.217 701.029,662.129 C710.01,697.995 717.695,734.087 719.654,771.137 C720.315,783.626 720.038,796.139 716.307,808.245 C712.409,820.89 706.827,823.982 693.75,820.903 C674.74,816.426 658.412,806.632 643.108,794.931 C632.24,786.62 622.221,777.353 613.076,767.169 C610.003,763.745 606.729,761.073 601.826,763.122 C596.963,765.154 597.09,769.15 596.792,773.82 C596.192,783.242 594.437,792.609 592.85,801.947 C589.087,824.079 585.405,846.226 580.327,868.119 C579.422,872.024 578.146,872.434 574.766,871.215 C568.361,868.904 561.817,866.977 555.359,864.808 C552.383,863.809 549.509,863.691 546.644,865.094 C546.348,865.239 545.992,865.27 545.705,865.428 C519.584,879.871 491.121,879.034 462.634,878.347 C459.197,878.264 458.994,876.505 458.577,874.116 C454.083,848.4 449.425,822.711 445.078,796.97 C442.419,781.225 440.261,765.396 437.796,749.617 C436.988,744.445 433.029,741.16 428.587,741.678 C423.709,742.246 419.91,746.466 421.273,751.65 C423.293,759.33 420.25,765.036 416.464,771.078 C404.256,790.563 391.703,809.781 376.024,826.726 C371.039,832.113 365.59,836.977 359.274,840.837 C354.722,843.619 350.047,844.177 344.925,842.815 C332.055,839.394 320.61,832.98 309.447,826.017 C293.883,816.308 279.412,805.094 265.151,793.586 C262.63,791.551 263.171,790.482 265.128,788.691 C271.812,782.574 274.614,774.798 274.338,765.868 C274.289,764.26 274.325,763.035 275.798,761.989 C284.514,755.806 288.348,746.767 290.509,735.747" fill="#B9DEFE"/>
    <path d="M342.683,755.364 C325.65,741.931 308.945,728.713 292.162,715.595 C290.496,714.292 290.207,712.747 289.852,710.914 C287.81,700.369 284.608,690.219 278.039,681.538 C269.925,670.815 259.49,664.04 245.618,663.546 C242.365,663.431 239.263,664.195 236.437,665.567 C233.694,666.899 233.024,665.729 232.461,663.405 C228.391,646.601 224.27,629.809 220.155,613.017 C219.671,611.038 220.086,609.648 221.941,608.385 C244.277,593.173 248.202,570.857 245.564,546.182 C244.591,537.073 242.431,528.169 239.539,519.456 C238.376,515.95 237.016,512.524 234.523,509.774 C232.578,507.628 233.099,506.624 235.513,505.479 C241.376,502.697 247.213,499.838 252.916,496.744 C256.197,494.964 257.271,495.647 258.272,499.267 C265.918,526.922 277.593,552.744 294.333,576.139 C321.192,613.678 357.309,638.713 400.364,654.301 C401.464,654.699 402.61,654.921 403.525,656.079 C384.486,689.759 364.837,723.151 342.683,755.364" fill="#DCBF5C"/>
    <path d="M543.008,22.536 C518.1,21.81 493.49,24.007 469.243,29.925 C420.598,41.797 377.216,64.391 337.533,94.518 C327.847,101.872 318.589,109.736 309.591,117.925 C307.581,119.754 306.976,121.459 307.295,123.98 C311.423,156.625 331.317,177.103 364.149,182.457 C368.081,183.098 372.01,183.719 377.539,183.566 C369.853,188.539 362.612,190.428 355.156,191.506 C327.427,195.515 302.601,186.875 278.86,173.709 C276.095,172.176 273.169,170.779 270.773,168.775 C267.17,165.76 265.372,167.184 263.097,170.481 C238.967,205.445 223.013,243.955 213.088,285.096 C206.401,312.815 202.597,340.943 200.872,369.402 C199.388,393.874 199.901,418.336 200.388,442.808 C200.483,447.625 200.764,452.438 200.959,457.253 C194.664,455.14 188.395,452.941 182.058,450.959 C179.876,450.277 178.869,449.416 178.83,446.878 C177.484,359.521 189.534,274.663 227.068,194.835 C255.923,133.466 298.148,83.794 357.88,50.286 C395.556,29.151 436.217,18.62 479.378,17.295 C500.764,16.638 521.936,18.253 543.008,21.71 C543.227,21.894 543.299,22.077 543.226,22.261 C543.154,22.444 543.081,22.536 543.008,22.536" fill="#FEFEFE"/>
    <path d="M304.858,995.233 C301.391,1009.62 302.703,1022.56 312.276,1033.77 C313.391,1035.07 312.716,1036.18 312.455,1037.47 C309.95,1049.75 314.706,1060.67 325.015,1066.43 C335.252,1072.15 347.318,1070.25 356.493,1061.21 C358.129,1059.6 359.008,1059.41 360.96,1060.66 C372.272,1067.94 384.626,1068.93 397.41,1065.91 C400.04,1065.29 401.539,1065.62 403.442,1067.58 C411.817,1076.17 423.425,1078.02 434.082,1072.46 C436.503,1071.19 437.468,1071.15 438.972,1073.71 C444.907,1083.81 454.735,1088.28 465.993,1086.44 C476.222,1084.76 484.587,1076.83 486.583,1065.99 C487.229,1062.47 488.463,1062.36 491.347,1062.66 C547.016,1068.59 602.345,1067.05 657.032,1054.21 C676.008,1049.76 694.5,1043.67 710.975,1032.81 C721.971,1025.57 730.856,1016.66 732.22,1002.09 C739.511,1006.75 745.653,1011.96 749.985,1019.03 C754.438,1026.29 754.042,1033.56 749.39,1040.61 C744.317,1048.31 737.176,1053.74 729.421,1058.39 C708.082,1071.21 684.621,1078.54 660.629,1084.22 C619.03,1094.07 576.745,1098.46 534.052,1099.59 C493.369,1100.66 452.827,1099.09 412.538,1093.29 C375.111,1087.9 338.194,1080.35 303.967,1063.31 C293.951,1058.32 284.475,1052.43 277.336,1043.53 C269.58,1033.86 269.637,1024.81 277.353,1014.97 C282.655,1008.21 294.581,999.56 304.858,995.233" fill="#FEFEFE"/>
    <path d="M396.003,937.125 C406.778,928.951 419.413,924.771 432.036,920.725 C439.772,918.246 447.742,916.46 455.667,914.619 C460.508,913.494 461.142,914.312 460.016,919.053 C455.392,938.52 466.2,951.629 487.272,952.314 C494.975,952.564 502.445,950.643 510.085,950.31 C515.818,950.059 520.87,951.469 525.663,954.531 C530.283,957.483 535.014,960.278 539.819,962.92 C552.485,969.883 565.139,969.766 576.959,961.346 C587.937,953.524 599.889,950.651 613.153,951.279 C621.406,951.67 628.401,953.892 633.73,960.565 C636.098,963.531 638.914,966.163 641.684,968.781 C646.559,973.39 652.433,975.908 659.097,976.598 C658.491,979.045 656.279,979.241 654.433,979.732 C634.088,985.146 613.364,988.222 592.395,989.903 C574.461,991.341 556.505,992.464 538.527,991.793 C504.19,990.512 470.048,987.588 436.896,977.629 C425.983,974.351 415.553,970.066 405.994,963.791 C403.189,961.949 400.678,959.774 398.431,957.295 C392.82,951.107 392.042,944.569 396.003,937.125" fill="#DCA55C"/>
    <path d="M267.304,461.38 C269.953,456.234 272.232,450.934 275.555,446.098 C282.585,435.871 291.714,429.232 304.142,427.227 C315.905,425.33 327.444,425.011 338.733,429.759 C351.457,435.112 358.604,445.558 363.918,457.445 C369.681,470.337 371.917,483.68 366.565,497.417 C359.691,515.058 346.148,524.222 328.079,527.403 C312.741,530.104 298.445,526.88 285.083,519.104 C284.207,518.595 283.551,518.684 282.957,519.473 C275.702,502.55 271.408,484.791 268.083,466.761 C267.755,464.98 267.561,463.174 267.304,461.38" fill="#FFD5BA"/>
    <path d="M706.992,529.308 C702.905,527.316 698.318,527.658 694.034,526.507 C674.295,521.202 661.19,509.147 657.467,488.783 C654.809,474.247 660.001,461.128 667.182,448.532 C676.423,432.321 691.03,425.953 708.543,425.659 C733.86,425.234 750.575,437.936 759.24,462.583 C760.071,464.947 759.32,468.398 762.778,469.51 C760.913,480.821 757.931,491.857 754.639,502.818 C754.098,504.619 753.686,506.252 750.983,505.398 C741.597,502.433 734.958,506.722 729.533,513.904 C729.033,514.566 728.443,515.223 728.169,515.982 C725.723,522.756 722.463,528.124 713.717,526.444 C711.27,525.974 709.203,528.234 706.992,529.308" fill="#FFD5BA"/>
    <path d="M163.907,707.55 C164.078,699.226 166.687,688.24 174.349,678.948 C182.426,669.154 200.181,665.343 211.862,670.331 C224.082,675.548 229.665,697.949 219.438,706.409 C215.659,709.535 215.715,714.569 218.609,718.039 C221.455,721.451 226.18,721.972 230.278,719.036 C233.83,716.491 237.503,714.299 241.81,713.382 C244.672,712.773 247.4,712.731 249.506,715.382 C251.629,718.055 251.073,720.807 249.562,723.285 C247.056,727.392 244.207,731.291 241.488,735.268 C236.818,742.1 238.819,747.727 246.748,750.026 C256.645,752.896 261.162,767.492 254.594,775.376 C245.25,786.591 231.992,790.48 218.236,786.041 C190.747,777.169 163.794,739.939 163.907,707.55" fill="#FEF8EA"/>
    <path d="M694.83,554.384 C694.83,556.636 694.856,558.097 694.826,559.557 C694.727,564.268 697.15,567.089 701.57,568.129 C705.69,569.099 709.685,566.574 711.053,562.046 C712.301,557.919 713.034,553.635 714.278,549.506 C714.812,547.735 715.016,545.629 717.067,544.192 C718.689,547.532 718.9,550.921 718.873,554.388 C718.831,559.939 721.584,563.41 726.268,563.873 C731.249,564.365 734.862,561.336 735.456,555.63 C736.265,547.857 736.711,540.033 739.037,532.516 C740.316,528.384 741.694,522.381 745.575,522.089 C749.808,521.771 751.398,527.802 752.891,531.739 C757.64,544.268 756.286,557.069 752.909,569.512 C744.052,602.145 725.941,627.26 693.775,640.801 C680.302,646.473 665.84,647.742 651.898,651.291 C642.94,653.572 642.9,653.26 641.476,643.963 C640.562,637.994 642.359,632.829 645.797,628.056 C650.391,621.679 656.252,616.446 661.461,610.625 C666.503,604.991 670.51,598.815 673.19,591.677 C676.927,581.723 681.203,571.978 687.039,563.029 C689,560.022 690.803,556.795 694.83,554.384" fill="#FEF8EA"/>
    <path d="M129.032,450.606 C164.091,462.563 199.15,474.519 235.239,486.827 C195.557,506.561 156.763,525.853 117.968,545.145 C113.095,537.965 110.872,529.688 109.287,521.422 C104.864,498.366 108.072,476.677 122.478,457.385 C124.384,454.832 126.347,452.383 129.032,450.606" fill="#DCA55C"/>
    <path d="M425.126,1019.48 C423.098,1013.04 421.135,1006.58 417.687,999.641 C430.69,1003.94 442.988,1007.2 455.481,1009.72 C475.874,1013.82 496.476,1016.15 517.222,1017.5 C534.18,1018.6 551.162,1018.91 568.107,1018.18 C609.411,1016.4 650.293,1011.86 689.185,996.508 C694.274,994.499 699.159,991.969 704.138,989.681 C706.307,991.228 706.07,993.362 705.527,995.539 C704.186,1000.91 701.236,1005.18 696.843,1008.57 C684.985,1017.73 671.152,1022.57 657.011,1026.54 C637.399,1032.04 617.303,1034.85 597.057,1036.99 C573.464,1039.48 549.802,1039.5 526.219,1038.62 C494.06,1037.42 462.163,1033.47 431.397,1023.19 C429.068,1022.41 426.469,1021.98 425.126,1019.48" fill="#DCA55C"/>
    <path d="M396.003,937.125 C391.983,950.148 398.808,957.88 409.016,964.09 C423.897,973.142 440.41,977.662 457.181,981.28 C480.126,986.229 503.401,988.371 526.848,989.665 C550.022,990.945 573.075,990.004 596.103,988.164 C615.973,986.577 635.65,983.319 654.967,978.21 C656.386,977.835 657.722,977.142 659.097,976.598 C663.052,976.594 666.62,975.292 669.994,973.343 C675.33,969.924 681.16,967.449 686.801,964.62 C691.658,962.185 695.721,958.817 699.228,954.756 C702.435,951.043 703.881,946.803 702.853,941.807 C702.552,940.344 701.139,938.289 703.881,937.403 C706.262,939.47 708.832,941.359 710.989,943.638 C717.758,950.793 717.748,957.515 710.837,964.658 C700.44,975.403 686.927,980.703 673.185,985.326 C641.886,995.855 609.461,1000.122 576.645,1001.71 C528.874,1004.03 481.527,1001.26 435.224,988.254 C419.67,983.886 404.5,978.373 391.759,967.895 C389.726,966.223 387.876,964.239 386.282,962.14 C382.1,956.634 382.057,951.68 386.115,946.098 C388.77,942.446 391.989,939.325 396.003,937.125" fill="#FFEDBA"/>
    <path d="M425.126,1019.48 C447.081,1027.6 469.902,1031.66 493.053,1034.5 C519.068,1037.69 545.179,1038.24 571.266,1037.16 C607.199,1035.67 642.834,1031.69 676.7,1018.32 C683.84,1015.5 690.69,1012.01 696.546,1006.96 C701.758,1002.47 705.646,997.211 704.138,989.68 C706.386,987.614 708.099,987.897 710.309,990.194 C717.702,997.883 717.921,1004.76 710.564,1012.41 C702.75,1020.54 692.805,1025.22 682.584,1029.32 C659.245,1038.69 634.755,1043.31 609.931,1046.37 C576.106,1050.53 542.188,1050.82 508.234,1048.31 C500.768,1047.75 493.335,1046.76 485.885,1045.99 C483.334,1045.72 481.371,1044.71 479.455,1042.79 C471.806,1035.1 460.749,1033.03 450.901,1037.56 C447.292,1039.22 445.364,1038.88 443.272,1035.35 C440.101,1030 435.12,1026.49 429.079,1025.06 C425.7,1024.27 424.718,1022.57 425.126,1019.48" fill="#FFEDBA"/>
    <path d="M229.486,556.021 C230.342,574.831 223.933,589.572 206.17,598.084 C202.04,600.063 200.643,603.51 201.755,608.031 C205.091,621.59 208.294,635.181 211.702,648.722 C212.486,651.835 212.147,652.825 208.608,652.205 C200.556,650.792 200.476,650.964 198.496,642.966 C195.94,632.641 193.499,622.287 190.967,611.956 C189.406,605.592 187.021,603.643 180.5,603.622 C166.541,603.578 155.918,597.468 148.203,586.033 C142.46,577.52 139.126,567.976 136.29,558.197 C135.448,555.292 136.957,554.463 139.06,553.408 C146.025,549.912 145.914,549.877 147.995,557.122 C150.947,567.4 154.356,577.471 162.258,585.26 C164.313,587.286 166.571,588.914 169.479,589.426 C178.143,590.95 183.927,584.121 181.833,574.57 C180.232,567.267 178.293,560.037 176.495,552.776 C175.816,550.034 175.099,547.301 174.422,544.557 C172.491,536.724 172.615,536.948 179.681,533.174 C182.98,531.411 183.418,532.813 184.045,535.445 C186.971,547.735 189.977,560.005 192.991,572.273 C194.625,578.922 197.802,582.121 202.943,582.438 C208.361,582.772 213.424,579.485 215.665,573.765 C219.6,563.725 218.255,553.442 216.552,543.222 C215.651,537.817 214.237,532.521 212.408,527.328 C210.911,523.075 212.329,519.662 215.909,518.842 C219.953,517.916 221.952,520.231 223.198,523.845 C226.8,534.294 228.997,544.998 229.486,556.021" fill="#FEFEFE"/>
    <path d="M507.185,917.57 C507.514,922.08 510.076,924.637 514.142,926.374 C525.449,931.206 536.704,936.166 547.871,941.312 C551.838,943.14 555.404,943.068 559.338,941.354 C570.306,936.576 581.367,932.012 592.385,927.347 C599.992,924.126 600.834,922.84 600.843,914.641 C600.85,907.884 600.846,907.914 607.6,908.863 C612.378,909.533 617.155,910.376 621.961,910.659 C628.304,911.033 631.715,914.731 633.021,920.306 C634.262,925.599 637.455,927.866 642.377,929.336 C651.609,932.093 659.663,936.67 662.314,946.93 C663.495,951.504 664.367,957.363 660.024,959.768 C656.168,961.904 652.761,957.151 649.772,954.33 C649.529,954.101 649.274,953.879 649.069,953.619 C641.26,943.722 631.87,936.445 618.715,935.623 C603.074,934.647 587.271,934.6 574.156,944.522 C562.133,953.618 551.12,953.339 539.74,944.346 C526.514,933.894 511.557,932.656 495.71,935.745 C491.925,936.482 488.106,936.533 484.3,935.815 C480.483,935.094 476.309,934.407 475.233,930.003 C474.12,925.445 475.143,920.939 478.723,917.593 C486.061,910.733 495.151,908.54 504.884,908.269 C506.946,907.493 507.538,908.6 507.479,910.373 C507.4,912.772 507.829,915.194 507.185,917.57" fill="#FEF6A8"/>
    <path d="M478.213,688.466 C480.929,688.331 481.416,690.247 482.336,691.495 C486.58,697.252 490.639,703.146 494.939,708.86 C499.372,714.752 505.311,714.643 509.747,708.721 C511.542,706.326 513.212,703.838 514.945,701.396 C516.675,698.96 518.412,696.53 520.506,693.592 C523.884,698.652 527.047,703.405 530.225,708.147 C536.256,717.147 542.517,717.042 548.043,707.861 C551.766,701.676 555.497,695.495 559.224,689.312 C559.724,689.551 560.224,689.789 560.724,690.027 C547.222,726.057 533.72,762.086 519.83,799.151 C505.697,761.563 492.01,725.161 478.213,688.466" fill="#FEFEFE"/>
    <path d="M385.074,1051.58 C380.285,1051.6 375.827,1050.46 371.6,1048.32 C362.912,1043.92 359.971,1035.82 360.42,1027.21 C361.044,1015.27 365.635,1004.24 372.759,994.542 C379.116,985.888 385.486,985.48 393.023,993.004 C401.361,1001.33 406.392,1011.46 409.115,1022.87 C409.784,1025.67 409.393,1027.45 406.772,1028.96 C403.646,1030.76 401.661,1034.96 396.723,1031.96 C394.875,1030.84 392.098,1032.76 391.319,1035.23 C390.45,1038 390.294,1041.01 393.179,1042.84 C395.001,1044 396.804,1044.47 396.273,1047.49 C395.712,1050.68 393.387,1050.31 391.468,1050.75 C389.384,1051.23 387.209,1051.32 385.074,1051.58" fill="#FF7164"/>
    <path d="M129.032,450.606 C128.505,453.646 125.774,455.109 124.128,457.339 C106.752,480.881 105.186,506.453 114.025,533.462 C115.303,537.37 117.643,540.92 117.968,545.146 C114.1,547.067 110.197,548.926 106.377,550.939 C104.574,551.889 103.475,551.925 102.554,549.77 C88.312,516.443 87.839,478.913 116.369,449.545 C118.084,447.78 119.529,446.957 121.974,448.14 C124.202,449.219 126.67,449.804 129.032,450.606" fill="#FFEDBA"/>
    <path d="M528.383,889.11 C535.978,886.245 542.352,883.867 548.702,881.429 C550.463,880.753 552.05,880.592 553.959,881.234 C563.082,884.305 572.24,887.284 581.46,890.052 C584.146,890.858 585.223,892.005 585.069,894.887 C584.758,900.694 586.572,907.415 584.207,912.087 C581.803,916.838 574.014,916.712 569.176,919.743 C558.714,926.298 548.6,926.418 538.375,919.469 C537.294,918.734 535.955,918.381 534.739,917.842 C522.57,912.441 522.57,912.441 524.29,898.417 C531.655,901.138 539.011,903.63 546.175,906.589 C550.271,908.281 553.958,908.69 558.074,906.707 C561.343,905.133 564.958,904.293 568.37,902.994 C571.496,901.804 572.837,899.394 571.705,896.239 C570.593,893.143 567.905,892.879 565.05,893.503 C564.888,893.538 564.712,893.567 564.576,893.652 C551.655,901.745 540.929,893.11 528.383,889.11" fill="#FEF6A8"/>
    <path d="M778.317,478.108 C782.597,457.044 784.472,435.74 784.76,414.293 C784.797,411.543 785.895,411.017 788.317,410.941 C796.171,410.698 802.136,413.991 804.704,421.39 C809.5,435.201 809.603,449.219 804.011,462.826 C799.688,473.345 789.272,479.241 778.317,478.108" fill="#FEF8EA"/>
    <path d="M318.983,1007.64 C320.71,994.968 324.61,982.223 333.69,971.652 C338.552,965.99 344.061,965.837 349.874,970.637 C351.024,971.586 352.075,972.661 353.117,973.732 C360.925,981.756 361.013,982.037 355.458,991.423 C351.101,998.783 348.146,1006.73 346.248,1014.97 C345.184,1019.58 342.848,1019.48 340.081,1017.57 C336.699,1015.24 333.996,1015.49 331.221,1018.2 C329.723,1019.66 327.539,1019.66 325.871,1020.69 C323.65,1022.07 322.45,1020.97 321.565,1019.12 C319.969,1015.79 319.186,1012.24 318.983,1007.64" fill="#FF7164"/>
    <path d="M252.295,474.803 C245.256,472.445 238.858,470.324 232.477,468.151 C230.542,467.492 229.812,465.678 229.119,464.022 C223.148,449.753 223.065,435.257 228.23,420.831 C230.587,414.248 235.867,411.136 242.953,410.93 C245.969,410.842 247.016,411.692 246.944,414.838 C246.589,430.156 247.95,445.375 250.097,460.529 C250.742,465.084 251.494,469.624 252.295,474.803" fill="#FEF8EA"/>
    <path d="M703.881,937.403 C703.638,937.798 703.094,938.309 703.195,938.572 C707.423,949.628 700.985,956.38 693.194,962.073 C686.21,967.178 678.29,970.742 669.994,973.344 C685.193,958.661 681.328,936.182 660.907,919.436 C676.186,923.096 690.806,928.364 703.881,937.403" fill="#DCA55C"/>
    <path d="M268.912,745.375 C261.405,741.075 261.211,736.521 265.077,729.027 C273.061,713.555 262.341,696.991 244.918,696.346 C242.384,696.252 241.366,695.823 241.509,693.131 C241.63,690.83 241.534,688.416 240.961,686.2 C239.672,681.213 242.666,680.379 246.332,680.478 C252.91,680.656 258.513,683.948 262.211,688.772 C273.937,704.07 277.084,721.375 271.98,740.035 C271.42,742.083 270.356,744.035 268.912,745.375" fill="#FEF8EA"/>
    <path d="M470.156,1061.21 C470.118,1066.02 466.002,1070.19 461.304,1070.2 C456.795,1070.2 452.265,1065.74 452.2,1061.23 C452.129,1056.35 456.506,1052.15 461.559,1052.25 C466.712,1052.35 470.197,1055.98 470.156,1061.21" fill="#7086D8"/>
    <path d="M431.001,1049.64 C431.088,1054.3 426.915,1058.53 422.14,1058.62 C417.059,1058.72 413.176,1055.06 413.031,1050.05 C412.885,1044.97 417.029,1040.6 421.985,1040.61 C426.555,1040.62 430.915,1044.98 431.001,1049.64" fill="#7086D8"/>
    <path d="M337.805,1035.05 C342.772,1035.18 346.454,1039.05 346.353,1044.03 C346.251,1049.01 342.414,1052.74 337.423,1052.7 C332.258,1052.67 328.506,1048.66 328.699,1043.39 C328.883,1038.35 332.637,1034.91 337.805,1035.05" fill="#7086D9"/>
    <path d="M489.273,672.178 C497.892,672.178 505.816,672.178 514.897,672.178 C510.672,678.185 507.086,683.256 503.534,688.351 C502.676,689.582 501.951,689.896 500.944,688.476 C497.125,683.09 493.26,677.737 489.273,672.178" fill="#FDFDFD"/>
    <path d="M550.447,671.051 C546.347,677.872 542.649,684.024 538.743,690.523 C534.655,684.376 530.859,678.668 526.695,672.407 C534.779,671.945 542.225,671.52 550.447,671.051" fill="#FDFDFD"/>
    <path d="M507.185,917.57 C505.795,914.624 509.073,910.523 504.884,908.269 C506.113,907.694 507.823,906.257 507.821,909.076 C507.819,911.901 508.635,914.84 507.185,917.57" fill="#D0BE77"/>
    <path d="M543.008,22.536 C542.956,22.26 542.956,21.985 543.008,21.71 C545.031,22.033 547.054,22.356 549.079,22.679 C547.025,23.963 544.998,24.009 543.008,22.536" fill="#ECDFB8"/>
    <path d="M293.447,302.328 C288.699,302.276 285.101,299.303 284.447,295.097 C283.761,290.679 285.947,287.618 289.875,286.049 C295.584,283.769 301.486,281.977 307.21,279.732 C352.089,262.131 392.341,236.603 430.485,207.507 C453.548,189.914 475.461,170.983 496.147,150.635 C500.298,146.552 505.603,146.447 508.963,150.11 C512.128,153.561 511.735,158.603 507.742,162.515 C455.382,213.817 397.57,257.453 330.615,288.176 C319.874,293.104 308.853,297.373 297.633,301.103 C296.061,301.625 294.453,302.036 293.447,302.328" fill="#6E4100"/>
    <path d="M363.589,404.407 C364.046,392.95 368.506,383.43 377.596,376.374 C379.896,374.588 379.714,373.521 378.116,371.438 C373.597,365.547 371.893,358.684 371.859,351.337 C371.841,347.382 373.667,344.835 377.655,344.667 C381.608,344.499 383.806,346.798 384.013,350.772 C384.178,353.949 384.598,357.06 385.745,360.044 C388.143,366.279 391.716,368.619 398.408,368.336 C413.906,367.681 427.375,378.174 430.591,393.408 C431.509,397.756 429.104,402.092 425.084,403.338 C420.816,404.66 416.671,402.783 414.743,398.649 C414.533,398.198 414.349,397.735 414.176,397.269 C410.836,388.265 406.156,384.568 398.807,385.133 C390.502,385.771 382.835,392.282 381.042,400.3 C380.644,402.081 380.393,403.906 380.224,405.725 C379.685,411.518 376.584,414.687 371.582,414.455 C366.536,414.22 363.342,410.218 363.589,404.407" fill="#6E4100"/>
    <path d="M667.832,404.458 C667.817,410.84 664.691,414.517 659.327,414.461 C654.246,414.408 651.166,410.894 651.019,404.696 C650.842,397.206 647.333,391.675 641.108,387.881 C631.292,381.896 621.911,385.158 617.821,395.883 C616.546,399.227 615.279,402.469 611.331,403.429 C604.348,405.127 599.13,399.186 601.336,391.864 C603.447,384.862 607.115,378.749 613.106,374.38 C615.212,372.844 615.408,371.829 613.957,369.651 C610.259,364.097 608.904,357.776 608.897,351.162 C608.893,347.192 610.97,344.756 614.913,344.676 C618.575,344.601 620.691,346.734 621.058,350.507 C621.299,352.986 621.518,355.495 622.089,357.91 C623.697,364.71 627.642,367.994 634.42,368.453 C652.659,369.687 667.874,386.083 667.832,404.458" fill="#6E4100"/>
    <path d="M518.854,565.215 C511.205,564.929 504.951,562.115 499.465,557.475 C492.226,551.353 487.039,543.688 483.057,535.18 C481.325,531.479 482.59,527.261 485.941,525.783 C489.767,524.095 493.27,524.856 495.379,528.663 C498.119,533.607 500.785,538.569 504.585,542.81 C515.412,554.892 524.672,553.604 531.588,538.968 C532.928,536.132 533.819,533.085 534.952,530.15 C536.611,525.851 540.037,523.948 543.977,525.428 C547.985,526.934 549.547,529.939 548.345,534.15 C545.763,543.196 542.025,551.603 535.066,558.253 C530.407,562.706 524.812,564.853 518.854,565.215" fill="#6E4100"/>
    <path d="M632.383,233.593 C643.469,234.167 652.598,238.758 658.844,248.5 C660.969,251.815 661.345,255.116 657.873,257.783 C654.913,260.057 651.446,258.927 648.726,255.05 C642.467,246.127 634.045,243.677 623.914,247.859 C620.448,249.29 617.148,249.264 615.322,245.599 C613.444,241.83 614.997,238.819 618.651,236.925 C622.858,234.744 627.378,233.785 632.383,233.593" fill="#6E4100"/>
    <path d="M524.187,415.137 C524.222,418.663 522.599,421.125 519.393,422.555 C516.192,423.983 513.058,423.611 510.591,421.277 C507.45,418.304 505.058,414.599 503.438,410.629 C502.1,407.352 502.965,404.022 505.798,401.616 C508.396,399.411 511.381,398.816 514.609,400.217 C518.274,401.807 524.248,411.132 524.187,415.137" fill="#6E4300"/>
    <path d="M529.177,757.112 C529.102,761.915 525.226,765.628 520.521,765.407 C516.015,765.195 512.447,761.406 512.503,756.893 C512.561,752.196 516.581,748.377 521.238,748.594 C525.78,748.805 529.248,752.528 529.177,757.112" fill="#6F4300"/>
    <path d="M529.173,719.828 C529.005,724.419 525.334,727.963 520.81,727.903 C516.108,727.841 512.367,723.906 512.527,719.191 C512.688,714.457 516.58,711.001 521.453,711.265 C526.091,711.516 529.346,715.126 529.173,719.828" fill="#6E4300"/>
    <path d="M393.882,1023.88 C393.584,1026.93 391.72,1029.04 388.203,1029.15 C384.95,1029.26 382.085,1025.6 382.163,1021.8 C382.236,1018.24 384.117,1016.16 387.613,1015.86 C391.024,1015.55 393.894,1019.16 393.882,1023.88" fill="#714300"/>
    <path d="M368.47,1036.12 C368.931,1032.63 370.308,1030.04 374.402,1030.28 C378.129,1030.51 379.692,1032.93 379.599,1036.27 C379.5,1039.85 377.638,1042.38 373.731,1042.18 C370.114,1042 368.698,1039.46 368.47,1036.12" fill="#704100"/>
    <path d="M332.163,1004.68 C332.375,1008.29 330.586,1010.65 327.123,1010.84 C323.424,1011.04 321.234,1008.77 321.194,1004.96 C321.156,1001.26 323.076,998.694 326.821,998.768 C330.19,998.834 332.256,1001.01 332.163,1004.68" fill="#714300"/>
  </g>
</svg>
